%TF.GenerationSoftware,KiCad,Pcbnew,7.0.6*%
%TF.CreationDate,2023-10-31T01:28:30+01:00*%
%TF.ProjectId,BMSv2,424d5376-322e-46b6-9963-61645f706362,rev?*%
%TF.SameCoordinates,Original*%
%TF.FileFunction,Legend,Top*%
%TF.FilePolarity,Positive*%
%FSLAX46Y46*%
G04 Gerber Fmt 4.6, Leading zero omitted, Abs format (unit mm)*
G04 Created by KiCad (PCBNEW 7.0.6) date 2023-10-31 01:28:30*
%MOMM*%
%LPD*%
G01*
G04 APERTURE LIST*
%ADD10C,0.153000*%
%ADD11C,0.100000*%
%ADD12C,0.150000*%
%ADD13C,0.125000*%
%ADD14C,0.075000*%
%ADD15C,0.050000*%
%ADD16C,0.120214*%
%ADD17C,0.120000*%
%ADD18C,0.200000*%
G04 APERTURE END LIST*
D10*
X76005352Y-78600263D02*
X76005352Y-79409786D01*
X76005352Y-79409786D02*
X76052971Y-79505024D01*
X76052971Y-79505024D02*
X76100590Y-79552644D01*
X76100590Y-79552644D02*
X76195828Y-79600263D01*
X76195828Y-79600263D02*
X76386304Y-79600263D01*
X76386304Y-79600263D02*
X76481542Y-79552644D01*
X76481542Y-79552644D02*
X76529161Y-79505024D01*
X76529161Y-79505024D02*
X76576780Y-79409786D01*
X76576780Y-79409786D02*
X76576780Y-78600263D01*
X77005352Y-79314548D02*
X77481542Y-79314548D01*
X76910114Y-79600263D02*
X77243447Y-78600263D01*
X77243447Y-78600263D02*
X77576780Y-79600263D01*
X78481542Y-79600263D02*
X78148209Y-79124072D01*
X77910114Y-79600263D02*
X77910114Y-78600263D01*
X77910114Y-78600263D02*
X78291066Y-78600263D01*
X78291066Y-78600263D02*
X78386304Y-78647882D01*
X78386304Y-78647882D02*
X78433923Y-78695501D01*
X78433923Y-78695501D02*
X78481542Y-78790739D01*
X78481542Y-78790739D02*
X78481542Y-78933596D01*
X78481542Y-78933596D02*
X78433923Y-79028834D01*
X78433923Y-79028834D02*
X78386304Y-79076453D01*
X78386304Y-79076453D02*
X78291066Y-79124072D01*
X78291066Y-79124072D02*
X77910114Y-79124072D01*
X78767257Y-78600263D02*
X79338685Y-78600263D01*
X79052971Y-79600263D02*
X79052971Y-78600263D01*
D11*
X90642160Y-74564723D02*
X90508827Y-74564723D01*
X90508827Y-74774247D02*
X90508827Y-74374247D01*
X90508827Y-74374247D02*
X90699303Y-74374247D01*
X91023112Y-74507580D02*
X91023112Y-74774247D01*
X90927874Y-74355200D02*
X90832636Y-74640914D01*
X90832636Y-74640914D02*
X91080255Y-74640914D01*
X91308826Y-74374247D02*
X91346921Y-74374247D01*
X91346921Y-74374247D02*
X91385017Y-74393295D01*
X91385017Y-74393295D02*
X91404064Y-74412342D01*
X91404064Y-74412342D02*
X91423112Y-74450438D01*
X91423112Y-74450438D02*
X91442159Y-74526628D01*
X91442159Y-74526628D02*
X91442159Y-74621866D01*
X91442159Y-74621866D02*
X91423112Y-74698057D01*
X91423112Y-74698057D02*
X91404064Y-74736152D01*
X91404064Y-74736152D02*
X91385017Y-74755200D01*
X91385017Y-74755200D02*
X91346921Y-74774247D01*
X91346921Y-74774247D02*
X91308826Y-74774247D01*
X91308826Y-74774247D02*
X91270731Y-74755200D01*
X91270731Y-74755200D02*
X91251683Y-74736152D01*
X91251683Y-74736152D02*
X91232636Y-74698057D01*
X91232636Y-74698057D02*
X91213588Y-74621866D01*
X91213588Y-74621866D02*
X91213588Y-74526628D01*
X91213588Y-74526628D02*
X91232636Y-74450438D01*
X91232636Y-74450438D02*
X91251683Y-74412342D01*
X91251683Y-74412342D02*
X91270731Y-74393295D01*
X91270731Y-74393295D02*
X91308826Y-74374247D01*
X91804064Y-74374247D02*
X91613588Y-74374247D01*
X91613588Y-74374247D02*
X91594540Y-74564723D01*
X91594540Y-74564723D02*
X91613588Y-74545676D01*
X91613588Y-74545676D02*
X91651683Y-74526628D01*
X91651683Y-74526628D02*
X91746921Y-74526628D01*
X91746921Y-74526628D02*
X91785016Y-74545676D01*
X91785016Y-74545676D02*
X91804064Y-74564723D01*
X91804064Y-74564723D02*
X91823111Y-74602819D01*
X91823111Y-74602819D02*
X91823111Y-74698057D01*
X91823111Y-74698057D02*
X91804064Y-74736152D01*
X91804064Y-74736152D02*
X91785016Y-74755200D01*
X91785016Y-74755200D02*
X91746921Y-74774247D01*
X91746921Y-74774247D02*
X91651683Y-74774247D01*
X91651683Y-74774247D02*
X91613588Y-74755200D01*
X91613588Y-74755200D02*
X91594540Y-74736152D01*
X92223111Y-74774247D02*
X92089778Y-74583771D01*
X91994540Y-74774247D02*
X91994540Y-74374247D01*
X91994540Y-74374247D02*
X92146921Y-74374247D01*
X92146921Y-74374247D02*
X92185016Y-74393295D01*
X92185016Y-74393295D02*
X92204063Y-74412342D01*
X92204063Y-74412342D02*
X92223111Y-74450438D01*
X92223111Y-74450438D02*
X92223111Y-74507580D01*
X92223111Y-74507580D02*
X92204063Y-74545676D01*
X92204063Y-74545676D02*
X92185016Y-74564723D01*
X92185016Y-74564723D02*
X92146921Y-74583771D01*
X92146921Y-74583771D02*
X91994540Y-74583771D01*
X92604063Y-74393295D02*
X92565968Y-74374247D01*
X92565968Y-74374247D02*
X92508825Y-74374247D01*
X92508825Y-74374247D02*
X92451682Y-74393295D01*
X92451682Y-74393295D02*
X92413587Y-74431390D01*
X92413587Y-74431390D02*
X92394540Y-74469485D01*
X92394540Y-74469485D02*
X92375492Y-74545676D01*
X92375492Y-74545676D02*
X92375492Y-74602819D01*
X92375492Y-74602819D02*
X92394540Y-74679009D01*
X92394540Y-74679009D02*
X92413587Y-74717104D01*
X92413587Y-74717104D02*
X92451682Y-74755200D01*
X92451682Y-74755200D02*
X92508825Y-74774247D01*
X92508825Y-74774247D02*
X92546921Y-74774247D01*
X92546921Y-74774247D02*
X92604063Y-74755200D01*
X92604063Y-74755200D02*
X92623111Y-74736152D01*
X92623111Y-74736152D02*
X92623111Y-74602819D01*
X92623111Y-74602819D02*
X92546921Y-74602819D01*
X92737397Y-74374247D02*
X92965968Y-74374247D01*
X92851682Y-74774247D02*
X92851682Y-74374247D01*
X93061206Y-74774247D02*
X93270730Y-74507580D01*
X93061206Y-74507580D02*
X93270730Y-74774247D01*
X101197960Y-78087723D02*
X101255103Y-78106771D01*
X101255103Y-78106771D02*
X101274150Y-78125819D01*
X101274150Y-78125819D02*
X101293198Y-78163914D01*
X101293198Y-78163914D02*
X101293198Y-78221057D01*
X101293198Y-78221057D02*
X101274150Y-78259152D01*
X101274150Y-78259152D02*
X101255103Y-78278200D01*
X101255103Y-78278200D02*
X101217008Y-78297247D01*
X101217008Y-78297247D02*
X101064627Y-78297247D01*
X101064627Y-78297247D02*
X101064627Y-77897247D01*
X101064627Y-77897247D02*
X101197960Y-77897247D01*
X101197960Y-77897247D02*
X101236055Y-77916295D01*
X101236055Y-77916295D02*
X101255103Y-77935342D01*
X101255103Y-77935342D02*
X101274150Y-77973438D01*
X101274150Y-77973438D02*
X101274150Y-78011533D01*
X101274150Y-78011533D02*
X101255103Y-78049628D01*
X101255103Y-78049628D02*
X101236055Y-78068676D01*
X101236055Y-78068676D02*
X101197960Y-78087723D01*
X101197960Y-78087723D02*
X101064627Y-78087723D01*
X101540817Y-77897247D02*
X101617008Y-77897247D01*
X101617008Y-77897247D02*
X101655103Y-77916295D01*
X101655103Y-77916295D02*
X101693198Y-77954390D01*
X101693198Y-77954390D02*
X101712246Y-78030580D01*
X101712246Y-78030580D02*
X101712246Y-78163914D01*
X101712246Y-78163914D02*
X101693198Y-78240104D01*
X101693198Y-78240104D02*
X101655103Y-78278200D01*
X101655103Y-78278200D02*
X101617008Y-78297247D01*
X101617008Y-78297247D02*
X101540817Y-78297247D01*
X101540817Y-78297247D02*
X101502722Y-78278200D01*
X101502722Y-78278200D02*
X101464627Y-78240104D01*
X101464627Y-78240104D02*
X101445579Y-78163914D01*
X101445579Y-78163914D02*
X101445579Y-78030580D01*
X101445579Y-78030580D02*
X101464627Y-77954390D01*
X101464627Y-77954390D02*
X101502722Y-77916295D01*
X101502722Y-77916295D02*
X101540817Y-77897247D01*
X101959865Y-77897247D02*
X102036056Y-77897247D01*
X102036056Y-77897247D02*
X102074151Y-77916295D01*
X102074151Y-77916295D02*
X102112246Y-77954390D01*
X102112246Y-77954390D02*
X102131294Y-78030580D01*
X102131294Y-78030580D02*
X102131294Y-78163914D01*
X102131294Y-78163914D02*
X102112246Y-78240104D01*
X102112246Y-78240104D02*
X102074151Y-78278200D01*
X102074151Y-78278200D02*
X102036056Y-78297247D01*
X102036056Y-78297247D02*
X101959865Y-78297247D01*
X101959865Y-78297247D02*
X101921770Y-78278200D01*
X101921770Y-78278200D02*
X101883675Y-78240104D01*
X101883675Y-78240104D02*
X101864627Y-78163914D01*
X101864627Y-78163914D02*
X101864627Y-78030580D01*
X101864627Y-78030580D02*
X101883675Y-77954390D01*
X101883675Y-77954390D02*
X101921770Y-77916295D01*
X101921770Y-77916295D02*
X101959865Y-77897247D01*
X102245580Y-77897247D02*
X102474151Y-77897247D01*
X102359865Y-78297247D02*
X102359865Y-77897247D01*
X102683675Y-77897247D02*
X102721770Y-77897247D01*
X102721770Y-77897247D02*
X102759866Y-77916295D01*
X102759866Y-77916295D02*
X102778913Y-77935342D01*
X102778913Y-77935342D02*
X102797961Y-77973438D01*
X102797961Y-77973438D02*
X102817008Y-78049628D01*
X102817008Y-78049628D02*
X102817008Y-78144866D01*
X102817008Y-78144866D02*
X102797961Y-78221057D01*
X102797961Y-78221057D02*
X102778913Y-78259152D01*
X102778913Y-78259152D02*
X102759866Y-78278200D01*
X102759866Y-78278200D02*
X102721770Y-78297247D01*
X102721770Y-78297247D02*
X102683675Y-78297247D01*
X102683675Y-78297247D02*
X102645580Y-78278200D01*
X102645580Y-78278200D02*
X102626532Y-78259152D01*
X102626532Y-78259152D02*
X102607485Y-78221057D01*
X102607485Y-78221057D02*
X102588437Y-78144866D01*
X102588437Y-78144866D02*
X102588437Y-78049628D01*
X102588437Y-78049628D02*
X102607485Y-77973438D01*
X102607485Y-77973438D02*
X102626532Y-77935342D01*
X102626532Y-77935342D02*
X102645580Y-77916295D01*
X102645580Y-77916295D02*
X102683675Y-77897247D01*
D12*
X109241807Y-52795980D02*
X109194188Y-52843600D01*
X109194188Y-52843600D02*
X109051331Y-52891219D01*
X109051331Y-52891219D02*
X108956093Y-52891219D01*
X108956093Y-52891219D02*
X108813236Y-52843600D01*
X108813236Y-52843600D02*
X108717998Y-52748361D01*
X108717998Y-52748361D02*
X108670379Y-52653123D01*
X108670379Y-52653123D02*
X108622760Y-52462647D01*
X108622760Y-52462647D02*
X108622760Y-52319790D01*
X108622760Y-52319790D02*
X108670379Y-52129314D01*
X108670379Y-52129314D02*
X108717998Y-52034076D01*
X108717998Y-52034076D02*
X108813236Y-51938838D01*
X108813236Y-51938838D02*
X108956093Y-51891219D01*
X108956093Y-51891219D02*
X109051331Y-51891219D01*
X109051331Y-51891219D02*
X109194188Y-51938838D01*
X109194188Y-51938838D02*
X109241807Y-51986457D01*
X109622760Y-52605504D02*
X110098950Y-52605504D01*
X109527522Y-52891219D02*
X109860855Y-51891219D01*
X109860855Y-51891219D02*
X110194188Y-52891219D01*
X110527522Y-52891219D02*
X110527522Y-51891219D01*
X110527522Y-51891219D02*
X111098950Y-52891219D01*
X111098950Y-52891219D02*
X111098950Y-51891219D01*
X107150379Y-55881219D02*
X107150379Y-54881219D01*
X107150379Y-55357409D02*
X107721807Y-55357409D01*
X107721807Y-55881219D02*
X107721807Y-54881219D01*
X108096569Y-60761219D02*
X107620379Y-60761219D01*
X107620379Y-60761219D02*
X107620379Y-59761219D01*
X85362760Y-79253600D02*
X85505617Y-79301219D01*
X85505617Y-79301219D02*
X85743712Y-79301219D01*
X85743712Y-79301219D02*
X85838950Y-79253600D01*
X85838950Y-79253600D02*
X85886569Y-79205980D01*
X85886569Y-79205980D02*
X85934188Y-79110742D01*
X85934188Y-79110742D02*
X85934188Y-79015504D01*
X85934188Y-79015504D02*
X85886569Y-78920266D01*
X85886569Y-78920266D02*
X85838950Y-78872647D01*
X85838950Y-78872647D02*
X85743712Y-78825028D01*
X85743712Y-78825028D02*
X85553236Y-78777409D01*
X85553236Y-78777409D02*
X85457998Y-78729790D01*
X85457998Y-78729790D02*
X85410379Y-78682171D01*
X85410379Y-78682171D02*
X85362760Y-78586933D01*
X85362760Y-78586933D02*
X85362760Y-78491695D01*
X85362760Y-78491695D02*
X85410379Y-78396457D01*
X85410379Y-78396457D02*
X85457998Y-78348838D01*
X85457998Y-78348838D02*
X85553236Y-78301219D01*
X85553236Y-78301219D02*
X85791331Y-78301219D01*
X85791331Y-78301219D02*
X85934188Y-78348838D01*
X86267522Y-78301219D02*
X86505617Y-79301219D01*
X86505617Y-79301219D02*
X86696093Y-78586933D01*
X86696093Y-78586933D02*
X86886569Y-79301219D01*
X86886569Y-79301219D02*
X87124665Y-78301219D01*
X87505617Y-79301219D02*
X87505617Y-78301219D01*
X87505617Y-78301219D02*
X87743712Y-78301219D01*
X87743712Y-78301219D02*
X87886569Y-78348838D01*
X87886569Y-78348838D02*
X87981807Y-78444076D01*
X87981807Y-78444076D02*
X88029426Y-78539314D01*
X88029426Y-78539314D02*
X88077045Y-78729790D01*
X88077045Y-78729790D02*
X88077045Y-78872647D01*
X88077045Y-78872647D02*
X88029426Y-79063123D01*
X88029426Y-79063123D02*
X87981807Y-79158361D01*
X87981807Y-79158361D02*
X87886569Y-79253600D01*
X87886569Y-79253600D02*
X87743712Y-79301219D01*
X87743712Y-79301219D02*
X87505617Y-79301219D01*
D11*
X80975238Y-62619447D02*
X80975238Y-62943257D01*
X80975238Y-62943257D02*
X80994285Y-62981352D01*
X80994285Y-62981352D02*
X81013333Y-63000400D01*
X81013333Y-63000400D02*
X81051428Y-63019447D01*
X81051428Y-63019447D02*
X81127619Y-63019447D01*
X81127619Y-63019447D02*
X81165714Y-63000400D01*
X81165714Y-63000400D02*
X81184761Y-62981352D01*
X81184761Y-62981352D02*
X81203809Y-62943257D01*
X81203809Y-62943257D02*
X81203809Y-62619447D01*
X81603809Y-63019447D02*
X81375238Y-63019447D01*
X81489524Y-63019447D02*
X81489524Y-62619447D01*
X81489524Y-62619447D02*
X81451428Y-62676590D01*
X81451428Y-62676590D02*
X81413333Y-62714685D01*
X81413333Y-62714685D02*
X81375238Y-62733733D01*
D13*
X91296371Y-46709990D02*
X91272562Y-46733800D01*
X91272562Y-46733800D02*
X91201133Y-46757609D01*
X91201133Y-46757609D02*
X91153514Y-46757609D01*
X91153514Y-46757609D02*
X91082086Y-46733800D01*
X91082086Y-46733800D02*
X91034467Y-46686180D01*
X91034467Y-46686180D02*
X91010657Y-46638561D01*
X91010657Y-46638561D02*
X90986848Y-46543323D01*
X90986848Y-46543323D02*
X90986848Y-46471895D01*
X90986848Y-46471895D02*
X91010657Y-46376657D01*
X91010657Y-46376657D02*
X91034467Y-46329038D01*
X91034467Y-46329038D02*
X91082086Y-46281419D01*
X91082086Y-46281419D02*
X91153514Y-46257609D01*
X91153514Y-46257609D02*
X91201133Y-46257609D01*
X91201133Y-46257609D02*
X91272562Y-46281419D01*
X91272562Y-46281419D02*
X91296371Y-46305228D01*
X91772562Y-46757609D02*
X91486848Y-46757609D01*
X91629705Y-46757609D02*
X91629705Y-46257609D01*
X91629705Y-46257609D02*
X91582086Y-46329038D01*
X91582086Y-46329038D02*
X91534467Y-46376657D01*
X91534467Y-46376657D02*
X91486848Y-46400466D01*
X92224942Y-46257609D02*
X91986847Y-46257609D01*
X91986847Y-46257609D02*
X91963038Y-46495704D01*
X91963038Y-46495704D02*
X91986847Y-46471895D01*
X91986847Y-46471895D02*
X92034466Y-46448085D01*
X92034466Y-46448085D02*
X92153514Y-46448085D01*
X92153514Y-46448085D02*
X92201133Y-46471895D01*
X92201133Y-46471895D02*
X92224942Y-46495704D01*
X92224942Y-46495704D02*
X92248752Y-46543323D01*
X92248752Y-46543323D02*
X92248752Y-46662371D01*
X92248752Y-46662371D02*
X92224942Y-46709990D01*
X92224942Y-46709990D02*
X92201133Y-46733800D01*
X92201133Y-46733800D02*
X92153514Y-46757609D01*
X92153514Y-46757609D02*
X92034466Y-46757609D01*
X92034466Y-46757609D02*
X91986847Y-46733800D01*
X91986847Y-46733800D02*
X91963038Y-46709990D01*
X93693466Y-45868609D02*
X93526800Y-45630514D01*
X93407752Y-45868609D02*
X93407752Y-45368609D01*
X93407752Y-45368609D02*
X93598228Y-45368609D01*
X93598228Y-45368609D02*
X93645847Y-45392419D01*
X93645847Y-45392419D02*
X93669657Y-45416228D01*
X93669657Y-45416228D02*
X93693466Y-45463847D01*
X93693466Y-45463847D02*
X93693466Y-45535276D01*
X93693466Y-45535276D02*
X93669657Y-45582895D01*
X93669657Y-45582895D02*
X93645847Y-45606704D01*
X93645847Y-45606704D02*
X93598228Y-45630514D01*
X93598228Y-45630514D02*
X93407752Y-45630514D01*
X94122038Y-45368609D02*
X94026800Y-45368609D01*
X94026800Y-45368609D02*
X93979181Y-45392419D01*
X93979181Y-45392419D02*
X93955371Y-45416228D01*
X93955371Y-45416228D02*
X93907752Y-45487657D01*
X93907752Y-45487657D02*
X93883943Y-45582895D01*
X93883943Y-45582895D02*
X93883943Y-45773371D01*
X93883943Y-45773371D02*
X93907752Y-45820990D01*
X93907752Y-45820990D02*
X93931562Y-45844800D01*
X93931562Y-45844800D02*
X93979181Y-45868609D01*
X93979181Y-45868609D02*
X94074419Y-45868609D01*
X94074419Y-45868609D02*
X94122038Y-45844800D01*
X94122038Y-45844800D02*
X94145847Y-45820990D01*
X94145847Y-45820990D02*
X94169657Y-45773371D01*
X94169657Y-45773371D02*
X94169657Y-45654323D01*
X94169657Y-45654323D02*
X94145847Y-45606704D01*
X94145847Y-45606704D02*
X94122038Y-45582895D01*
X94122038Y-45582895D02*
X94074419Y-45559085D01*
X94074419Y-45559085D02*
X93979181Y-45559085D01*
X93979181Y-45559085D02*
X93931562Y-45582895D01*
X93931562Y-45582895D02*
X93907752Y-45606704D01*
X93907752Y-45606704D02*
X93883943Y-45654323D01*
X86185380Y-53510828D02*
X86137761Y-53487019D01*
X86137761Y-53487019D02*
X86090142Y-53439400D01*
X86090142Y-53439400D02*
X86018714Y-53367971D01*
X86018714Y-53367971D02*
X85971095Y-53344161D01*
X85971095Y-53344161D02*
X85923476Y-53344161D01*
X85947285Y-53463209D02*
X85899666Y-53439400D01*
X85899666Y-53439400D02*
X85852047Y-53391780D01*
X85852047Y-53391780D02*
X85828238Y-53296542D01*
X85828238Y-53296542D02*
X85828238Y-53129876D01*
X85828238Y-53129876D02*
X85852047Y-53034638D01*
X85852047Y-53034638D02*
X85899666Y-52987019D01*
X85899666Y-52987019D02*
X85947285Y-52963209D01*
X85947285Y-52963209D02*
X86042523Y-52963209D01*
X86042523Y-52963209D02*
X86090142Y-52987019D01*
X86090142Y-52987019D02*
X86137761Y-53034638D01*
X86137761Y-53034638D02*
X86161571Y-53129876D01*
X86161571Y-53129876D02*
X86161571Y-53296542D01*
X86161571Y-53296542D02*
X86137761Y-53391780D01*
X86137761Y-53391780D02*
X86090142Y-53439400D01*
X86090142Y-53439400D02*
X86042523Y-53463209D01*
X86042523Y-53463209D02*
X85947285Y-53463209D01*
X86637762Y-53463209D02*
X86352048Y-53463209D01*
X86494905Y-53463209D02*
X86494905Y-52963209D01*
X86494905Y-52963209D02*
X86447286Y-53034638D01*
X86447286Y-53034638D02*
X86399667Y-53082257D01*
X86399667Y-53082257D02*
X86352048Y-53106066D01*
X76319866Y-68322209D02*
X76153200Y-68084114D01*
X76034152Y-68322209D02*
X76034152Y-67822209D01*
X76034152Y-67822209D02*
X76224628Y-67822209D01*
X76224628Y-67822209D02*
X76272247Y-67846019D01*
X76272247Y-67846019D02*
X76296057Y-67869828D01*
X76296057Y-67869828D02*
X76319866Y-67917447D01*
X76319866Y-67917447D02*
X76319866Y-67988876D01*
X76319866Y-67988876D02*
X76296057Y-68036495D01*
X76296057Y-68036495D02*
X76272247Y-68060304D01*
X76272247Y-68060304D02*
X76224628Y-68084114D01*
X76224628Y-68084114D02*
X76034152Y-68084114D01*
X76748438Y-67988876D02*
X76748438Y-68322209D01*
X76629390Y-67798400D02*
X76510343Y-68155542D01*
X76510343Y-68155542D02*
X76819866Y-68155542D01*
X82380971Y-58216190D02*
X82357162Y-58240000D01*
X82357162Y-58240000D02*
X82285733Y-58263809D01*
X82285733Y-58263809D02*
X82238114Y-58263809D01*
X82238114Y-58263809D02*
X82166686Y-58240000D01*
X82166686Y-58240000D02*
X82119067Y-58192380D01*
X82119067Y-58192380D02*
X82095257Y-58144761D01*
X82095257Y-58144761D02*
X82071448Y-58049523D01*
X82071448Y-58049523D02*
X82071448Y-57978095D01*
X82071448Y-57978095D02*
X82095257Y-57882857D01*
X82095257Y-57882857D02*
X82119067Y-57835238D01*
X82119067Y-57835238D02*
X82166686Y-57787619D01*
X82166686Y-57787619D02*
X82238114Y-57763809D01*
X82238114Y-57763809D02*
X82285733Y-57763809D01*
X82285733Y-57763809D02*
X82357162Y-57787619D01*
X82357162Y-57787619D02*
X82380971Y-57811428D01*
X82857162Y-58263809D02*
X82571448Y-58263809D01*
X82714305Y-58263809D02*
X82714305Y-57763809D01*
X82714305Y-57763809D02*
X82666686Y-57835238D01*
X82666686Y-57835238D02*
X82619067Y-57882857D01*
X82619067Y-57882857D02*
X82571448Y-57906666D01*
X83166685Y-57763809D02*
X83214304Y-57763809D01*
X83214304Y-57763809D02*
X83261923Y-57787619D01*
X83261923Y-57787619D02*
X83285733Y-57811428D01*
X83285733Y-57811428D02*
X83309542Y-57859047D01*
X83309542Y-57859047D02*
X83333352Y-57954285D01*
X83333352Y-57954285D02*
X83333352Y-58073333D01*
X83333352Y-58073333D02*
X83309542Y-58168571D01*
X83309542Y-58168571D02*
X83285733Y-58216190D01*
X83285733Y-58216190D02*
X83261923Y-58240000D01*
X83261923Y-58240000D02*
X83214304Y-58263809D01*
X83214304Y-58263809D02*
X83166685Y-58263809D01*
X83166685Y-58263809D02*
X83119066Y-58240000D01*
X83119066Y-58240000D02*
X83095257Y-58216190D01*
X83095257Y-58216190D02*
X83071447Y-58168571D01*
X83071447Y-58168571D02*
X83047638Y-58073333D01*
X83047638Y-58073333D02*
X83047638Y-57954285D01*
X83047638Y-57954285D02*
X83071447Y-57859047D01*
X83071447Y-57859047D02*
X83095257Y-57811428D01*
X83095257Y-57811428D02*
X83119066Y-57787619D01*
X83119066Y-57787619D02*
X83166685Y-57763809D01*
X91670266Y-63188590D02*
X91646457Y-63212400D01*
X91646457Y-63212400D02*
X91575028Y-63236209D01*
X91575028Y-63236209D02*
X91527409Y-63236209D01*
X91527409Y-63236209D02*
X91455981Y-63212400D01*
X91455981Y-63212400D02*
X91408362Y-63164780D01*
X91408362Y-63164780D02*
X91384552Y-63117161D01*
X91384552Y-63117161D02*
X91360743Y-63021923D01*
X91360743Y-63021923D02*
X91360743Y-62950495D01*
X91360743Y-62950495D02*
X91384552Y-62855257D01*
X91384552Y-62855257D02*
X91408362Y-62807638D01*
X91408362Y-62807638D02*
X91455981Y-62760019D01*
X91455981Y-62760019D02*
X91527409Y-62736209D01*
X91527409Y-62736209D02*
X91575028Y-62736209D01*
X91575028Y-62736209D02*
X91646457Y-62760019D01*
X91646457Y-62760019D02*
X91670266Y-62783828D01*
X92098838Y-62736209D02*
X92003600Y-62736209D01*
X92003600Y-62736209D02*
X91955981Y-62760019D01*
X91955981Y-62760019D02*
X91932171Y-62783828D01*
X91932171Y-62783828D02*
X91884552Y-62855257D01*
X91884552Y-62855257D02*
X91860743Y-62950495D01*
X91860743Y-62950495D02*
X91860743Y-63140971D01*
X91860743Y-63140971D02*
X91884552Y-63188590D01*
X91884552Y-63188590D02*
X91908362Y-63212400D01*
X91908362Y-63212400D02*
X91955981Y-63236209D01*
X91955981Y-63236209D02*
X92051219Y-63236209D01*
X92051219Y-63236209D02*
X92098838Y-63212400D01*
X92098838Y-63212400D02*
X92122647Y-63188590D01*
X92122647Y-63188590D02*
X92146457Y-63140971D01*
X92146457Y-63140971D02*
X92146457Y-63021923D01*
X92146457Y-63021923D02*
X92122647Y-62974304D01*
X92122647Y-62974304D02*
X92098838Y-62950495D01*
X92098838Y-62950495D02*
X92051219Y-62926685D01*
X92051219Y-62926685D02*
X91955981Y-62926685D01*
X91955981Y-62926685D02*
X91908362Y-62950495D01*
X91908362Y-62950495D02*
X91884552Y-62974304D01*
X91884552Y-62974304D02*
X91860743Y-63021923D01*
D12*
X103868419Y-70704733D02*
X104582704Y-70704733D01*
X104582704Y-70704733D02*
X104725561Y-70752352D01*
X104725561Y-70752352D02*
X104820800Y-70847590D01*
X104820800Y-70847590D02*
X104868419Y-70990447D01*
X104868419Y-70990447D02*
X104868419Y-71085685D01*
X104868419Y-69704733D02*
X104868419Y-70276161D01*
X104868419Y-69990447D02*
X103868419Y-69990447D01*
X103868419Y-69990447D02*
X104011276Y-70085685D01*
X104011276Y-70085685D02*
X104106514Y-70180923D01*
X104106514Y-70180923D02*
X104154133Y-70276161D01*
D13*
X97647885Y-76203828D02*
X97600266Y-76180019D01*
X97600266Y-76180019D02*
X97552647Y-76132400D01*
X97552647Y-76132400D02*
X97481219Y-76060971D01*
X97481219Y-76060971D02*
X97433600Y-76037161D01*
X97433600Y-76037161D02*
X97385981Y-76037161D01*
X97409790Y-76156209D02*
X97362171Y-76132400D01*
X97362171Y-76132400D02*
X97314552Y-76084780D01*
X97314552Y-76084780D02*
X97290743Y-75989542D01*
X97290743Y-75989542D02*
X97290743Y-75822876D01*
X97290743Y-75822876D02*
X97314552Y-75727638D01*
X97314552Y-75727638D02*
X97362171Y-75680019D01*
X97362171Y-75680019D02*
X97409790Y-75656209D01*
X97409790Y-75656209D02*
X97505028Y-75656209D01*
X97505028Y-75656209D02*
X97552647Y-75680019D01*
X97552647Y-75680019D02*
X97600266Y-75727638D01*
X97600266Y-75727638D02*
X97624076Y-75822876D01*
X97624076Y-75822876D02*
X97624076Y-75989542D01*
X97624076Y-75989542D02*
X97600266Y-76084780D01*
X97600266Y-76084780D02*
X97552647Y-76132400D01*
X97552647Y-76132400D02*
X97505028Y-76156209D01*
X97505028Y-76156209D02*
X97409790Y-76156209D01*
X98100267Y-76156209D02*
X97814553Y-76156209D01*
X97957410Y-76156209D02*
X97957410Y-75656209D01*
X97957410Y-75656209D02*
X97909791Y-75727638D01*
X97909791Y-75727638D02*
X97862172Y-75775257D01*
X97862172Y-75775257D02*
X97814553Y-75799066D01*
X98266933Y-75656209D02*
X98576457Y-75656209D01*
X98576457Y-75656209D02*
X98409790Y-75846685D01*
X98409790Y-75846685D02*
X98481219Y-75846685D01*
X98481219Y-75846685D02*
X98528838Y-75870495D01*
X98528838Y-75870495D02*
X98552647Y-75894304D01*
X98552647Y-75894304D02*
X98576457Y-75941923D01*
X98576457Y-75941923D02*
X98576457Y-76060971D01*
X98576457Y-76060971D02*
X98552647Y-76108590D01*
X98552647Y-76108590D02*
X98528838Y-76132400D01*
X98528838Y-76132400D02*
X98481219Y-76156209D01*
X98481219Y-76156209D02*
X98338362Y-76156209D01*
X98338362Y-76156209D02*
X98290743Y-76132400D01*
X98290743Y-76132400D02*
X98266933Y-76108590D01*
X81012552Y-79015609D02*
X81012552Y-78515609D01*
X81012552Y-78515609D02*
X81131600Y-78515609D01*
X81131600Y-78515609D02*
X81203028Y-78539419D01*
X81203028Y-78539419D02*
X81250647Y-78587038D01*
X81250647Y-78587038D02*
X81274457Y-78634657D01*
X81274457Y-78634657D02*
X81298266Y-78729895D01*
X81298266Y-78729895D02*
X81298266Y-78801323D01*
X81298266Y-78801323D02*
X81274457Y-78896561D01*
X81274457Y-78896561D02*
X81250647Y-78944180D01*
X81250647Y-78944180D02*
X81203028Y-78991800D01*
X81203028Y-78991800D02*
X81131600Y-79015609D01*
X81131600Y-79015609D02*
X81012552Y-79015609D01*
X81726838Y-78515609D02*
X81631600Y-78515609D01*
X81631600Y-78515609D02*
X81583981Y-78539419D01*
X81583981Y-78539419D02*
X81560171Y-78563228D01*
X81560171Y-78563228D02*
X81512552Y-78634657D01*
X81512552Y-78634657D02*
X81488743Y-78729895D01*
X81488743Y-78729895D02*
X81488743Y-78920371D01*
X81488743Y-78920371D02*
X81512552Y-78967990D01*
X81512552Y-78967990D02*
X81536362Y-78991800D01*
X81536362Y-78991800D02*
X81583981Y-79015609D01*
X81583981Y-79015609D02*
X81679219Y-79015609D01*
X81679219Y-79015609D02*
X81726838Y-78991800D01*
X81726838Y-78991800D02*
X81750647Y-78967990D01*
X81750647Y-78967990D02*
X81774457Y-78920371D01*
X81774457Y-78920371D02*
X81774457Y-78801323D01*
X81774457Y-78801323D02*
X81750647Y-78753704D01*
X81750647Y-78753704D02*
X81726838Y-78729895D01*
X81726838Y-78729895D02*
X81679219Y-78706085D01*
X81679219Y-78706085D02*
X81583981Y-78706085D01*
X81583981Y-78706085D02*
X81536362Y-78729895D01*
X81536362Y-78729895D02*
X81512552Y-78753704D01*
X81512552Y-78753704D02*
X81488743Y-78801323D01*
D14*
X95742943Y-71966085D02*
X95642943Y-71823228D01*
X95571514Y-71966085D02*
X95571514Y-71666085D01*
X95571514Y-71666085D02*
X95685800Y-71666085D01*
X95685800Y-71666085D02*
X95714371Y-71680371D01*
X95714371Y-71680371D02*
X95728657Y-71694657D01*
X95728657Y-71694657D02*
X95742943Y-71723228D01*
X95742943Y-71723228D02*
X95742943Y-71766085D01*
X95742943Y-71766085D02*
X95728657Y-71794657D01*
X95728657Y-71794657D02*
X95714371Y-71808942D01*
X95714371Y-71808942D02*
X95685800Y-71823228D01*
X95685800Y-71823228D02*
X95571514Y-71823228D01*
X95842943Y-71666085D02*
X96028657Y-71666085D01*
X96028657Y-71666085D02*
X95928657Y-71780371D01*
X95928657Y-71780371D02*
X95971514Y-71780371D01*
X95971514Y-71780371D02*
X96000086Y-71794657D01*
X96000086Y-71794657D02*
X96014371Y-71808942D01*
X96014371Y-71808942D02*
X96028657Y-71837514D01*
X96028657Y-71837514D02*
X96028657Y-71908942D01*
X96028657Y-71908942D02*
X96014371Y-71937514D01*
X96014371Y-71937514D02*
X96000086Y-71951800D01*
X96000086Y-71951800D02*
X95971514Y-71966085D01*
X95971514Y-71966085D02*
X95885800Y-71966085D01*
X95885800Y-71966085D02*
X95857228Y-71951800D01*
X95857228Y-71951800D02*
X95842943Y-71937514D01*
X96314371Y-71966085D02*
X96142942Y-71966085D01*
X96228657Y-71966085D02*
X96228657Y-71666085D01*
X96228657Y-71666085D02*
X96200085Y-71708942D01*
X96200085Y-71708942D02*
X96171514Y-71737514D01*
X96171514Y-71737514D02*
X96142942Y-71751800D01*
D13*
X105901371Y-60956209D02*
X105734705Y-60718114D01*
X105615657Y-60956209D02*
X105615657Y-60456209D01*
X105615657Y-60456209D02*
X105806133Y-60456209D01*
X105806133Y-60456209D02*
X105853752Y-60480019D01*
X105853752Y-60480019D02*
X105877562Y-60503828D01*
X105877562Y-60503828D02*
X105901371Y-60551447D01*
X105901371Y-60551447D02*
X105901371Y-60622876D01*
X105901371Y-60622876D02*
X105877562Y-60670495D01*
X105877562Y-60670495D02*
X105853752Y-60694304D01*
X105853752Y-60694304D02*
X105806133Y-60718114D01*
X105806133Y-60718114D02*
X105615657Y-60718114D01*
X106377562Y-60956209D02*
X106091848Y-60956209D01*
X106234705Y-60956209D02*
X106234705Y-60456209D01*
X106234705Y-60456209D02*
X106187086Y-60527638D01*
X106187086Y-60527638D02*
X106139467Y-60575257D01*
X106139467Y-60575257D02*
X106091848Y-60599066D01*
X106853752Y-60956209D02*
X106568038Y-60956209D01*
X106710895Y-60956209D02*
X106710895Y-60456209D01*
X106710895Y-60456209D02*
X106663276Y-60527638D01*
X106663276Y-60527638D02*
X106615657Y-60575257D01*
X106615657Y-60575257D02*
X106568038Y-60599066D01*
X75710266Y-63321590D02*
X75686457Y-63345400D01*
X75686457Y-63345400D02*
X75615028Y-63369209D01*
X75615028Y-63369209D02*
X75567409Y-63369209D01*
X75567409Y-63369209D02*
X75495981Y-63345400D01*
X75495981Y-63345400D02*
X75448362Y-63297780D01*
X75448362Y-63297780D02*
X75424552Y-63250161D01*
X75424552Y-63250161D02*
X75400743Y-63154923D01*
X75400743Y-63154923D02*
X75400743Y-63083495D01*
X75400743Y-63083495D02*
X75424552Y-62988257D01*
X75424552Y-62988257D02*
X75448362Y-62940638D01*
X75448362Y-62940638D02*
X75495981Y-62893019D01*
X75495981Y-62893019D02*
X75567409Y-62869209D01*
X75567409Y-62869209D02*
X75615028Y-62869209D01*
X75615028Y-62869209D02*
X75686457Y-62893019D01*
X75686457Y-62893019D02*
X75710266Y-62916828D01*
X76162647Y-62869209D02*
X75924552Y-62869209D01*
X75924552Y-62869209D02*
X75900743Y-63107304D01*
X75900743Y-63107304D02*
X75924552Y-63083495D01*
X75924552Y-63083495D02*
X75972171Y-63059685D01*
X75972171Y-63059685D02*
X76091219Y-63059685D01*
X76091219Y-63059685D02*
X76138838Y-63083495D01*
X76138838Y-63083495D02*
X76162647Y-63107304D01*
X76162647Y-63107304D02*
X76186457Y-63154923D01*
X76186457Y-63154923D02*
X76186457Y-63273971D01*
X76186457Y-63273971D02*
X76162647Y-63321590D01*
X76162647Y-63321590D02*
X76138838Y-63345400D01*
X76138838Y-63345400D02*
X76091219Y-63369209D01*
X76091219Y-63369209D02*
X75972171Y-63369209D01*
X75972171Y-63369209D02*
X75924552Y-63345400D01*
X75924552Y-63345400D02*
X75900743Y-63321590D01*
X96376371Y-45820990D02*
X96352562Y-45844800D01*
X96352562Y-45844800D02*
X96281133Y-45868609D01*
X96281133Y-45868609D02*
X96233514Y-45868609D01*
X96233514Y-45868609D02*
X96162086Y-45844800D01*
X96162086Y-45844800D02*
X96114467Y-45797180D01*
X96114467Y-45797180D02*
X96090657Y-45749561D01*
X96090657Y-45749561D02*
X96066848Y-45654323D01*
X96066848Y-45654323D02*
X96066848Y-45582895D01*
X96066848Y-45582895D02*
X96090657Y-45487657D01*
X96090657Y-45487657D02*
X96114467Y-45440038D01*
X96114467Y-45440038D02*
X96162086Y-45392419D01*
X96162086Y-45392419D02*
X96233514Y-45368609D01*
X96233514Y-45368609D02*
X96281133Y-45368609D01*
X96281133Y-45368609D02*
X96352562Y-45392419D01*
X96352562Y-45392419D02*
X96376371Y-45416228D01*
X96566848Y-45416228D02*
X96590657Y-45392419D01*
X96590657Y-45392419D02*
X96638276Y-45368609D01*
X96638276Y-45368609D02*
X96757324Y-45368609D01*
X96757324Y-45368609D02*
X96804943Y-45392419D01*
X96804943Y-45392419D02*
X96828752Y-45416228D01*
X96828752Y-45416228D02*
X96852562Y-45463847D01*
X96852562Y-45463847D02*
X96852562Y-45511466D01*
X96852562Y-45511466D02*
X96828752Y-45582895D01*
X96828752Y-45582895D02*
X96543038Y-45868609D01*
X96543038Y-45868609D02*
X96852562Y-45868609D01*
X97162085Y-45368609D02*
X97209704Y-45368609D01*
X97209704Y-45368609D02*
X97257323Y-45392419D01*
X97257323Y-45392419D02*
X97281133Y-45416228D01*
X97281133Y-45416228D02*
X97304942Y-45463847D01*
X97304942Y-45463847D02*
X97328752Y-45559085D01*
X97328752Y-45559085D02*
X97328752Y-45678133D01*
X97328752Y-45678133D02*
X97304942Y-45773371D01*
X97304942Y-45773371D02*
X97281133Y-45820990D01*
X97281133Y-45820990D02*
X97257323Y-45844800D01*
X97257323Y-45844800D02*
X97209704Y-45868609D01*
X97209704Y-45868609D02*
X97162085Y-45868609D01*
X97162085Y-45868609D02*
X97114466Y-45844800D01*
X97114466Y-45844800D02*
X97090657Y-45820990D01*
X97090657Y-45820990D02*
X97066847Y-45773371D01*
X97066847Y-45773371D02*
X97043038Y-45678133D01*
X97043038Y-45678133D02*
X97043038Y-45559085D01*
X97043038Y-45559085D02*
X97066847Y-45463847D01*
X97066847Y-45463847D02*
X97090657Y-45416228D01*
X97090657Y-45416228D02*
X97114466Y-45392419D01*
X97114466Y-45392419D02*
X97162085Y-45368609D01*
X80910134Y-57265304D02*
X80743467Y-57265304D01*
X80743467Y-57527209D02*
X80743467Y-57027209D01*
X80743467Y-57027209D02*
X80981562Y-57027209D01*
X81433943Y-57527209D02*
X81148229Y-57527209D01*
X81291086Y-57527209D02*
X81291086Y-57027209D01*
X81291086Y-57027209D02*
X81243467Y-57098638D01*
X81243467Y-57098638D02*
X81195848Y-57146257D01*
X81195848Y-57146257D02*
X81148229Y-57170066D01*
X102202171Y-75006209D02*
X102035505Y-74768114D01*
X101916457Y-75006209D02*
X101916457Y-74506209D01*
X101916457Y-74506209D02*
X102106933Y-74506209D01*
X102106933Y-74506209D02*
X102154552Y-74530019D01*
X102154552Y-74530019D02*
X102178362Y-74553828D01*
X102178362Y-74553828D02*
X102202171Y-74601447D01*
X102202171Y-74601447D02*
X102202171Y-74672876D01*
X102202171Y-74672876D02*
X102178362Y-74720495D01*
X102178362Y-74720495D02*
X102154552Y-74744304D01*
X102154552Y-74744304D02*
X102106933Y-74768114D01*
X102106933Y-74768114D02*
X101916457Y-74768114D01*
X102368838Y-74506209D02*
X102678362Y-74506209D01*
X102678362Y-74506209D02*
X102511695Y-74696685D01*
X102511695Y-74696685D02*
X102583124Y-74696685D01*
X102583124Y-74696685D02*
X102630743Y-74720495D01*
X102630743Y-74720495D02*
X102654552Y-74744304D01*
X102654552Y-74744304D02*
X102678362Y-74791923D01*
X102678362Y-74791923D02*
X102678362Y-74910971D01*
X102678362Y-74910971D02*
X102654552Y-74958590D01*
X102654552Y-74958590D02*
X102630743Y-74982400D01*
X102630743Y-74982400D02*
X102583124Y-75006209D01*
X102583124Y-75006209D02*
X102440267Y-75006209D01*
X102440267Y-75006209D02*
X102392648Y-74982400D01*
X102392648Y-74982400D02*
X102368838Y-74958590D01*
X103106933Y-74506209D02*
X103011695Y-74506209D01*
X103011695Y-74506209D02*
X102964076Y-74530019D01*
X102964076Y-74530019D02*
X102940266Y-74553828D01*
X102940266Y-74553828D02*
X102892647Y-74625257D01*
X102892647Y-74625257D02*
X102868838Y-74720495D01*
X102868838Y-74720495D02*
X102868838Y-74910971D01*
X102868838Y-74910971D02*
X102892647Y-74958590D01*
X102892647Y-74958590D02*
X102916457Y-74982400D01*
X102916457Y-74982400D02*
X102964076Y-75006209D01*
X102964076Y-75006209D02*
X103059314Y-75006209D01*
X103059314Y-75006209D02*
X103106933Y-74982400D01*
X103106933Y-74982400D02*
X103130742Y-74958590D01*
X103130742Y-74958590D02*
X103154552Y-74910971D01*
X103154552Y-74910971D02*
X103154552Y-74791923D01*
X103154552Y-74791923D02*
X103130742Y-74744304D01*
X103130742Y-74744304D02*
X103106933Y-74720495D01*
X103106933Y-74720495D02*
X103059314Y-74696685D01*
X103059314Y-74696685D02*
X102964076Y-74696685D01*
X102964076Y-74696685D02*
X102916457Y-74720495D01*
X102916457Y-74720495D02*
X102892647Y-74744304D01*
X102892647Y-74744304D02*
X102868838Y-74791923D01*
X89042171Y-59428590D02*
X89018362Y-59452400D01*
X89018362Y-59452400D02*
X88946933Y-59476209D01*
X88946933Y-59476209D02*
X88899314Y-59476209D01*
X88899314Y-59476209D02*
X88827886Y-59452400D01*
X88827886Y-59452400D02*
X88780267Y-59404780D01*
X88780267Y-59404780D02*
X88756457Y-59357161D01*
X88756457Y-59357161D02*
X88732648Y-59261923D01*
X88732648Y-59261923D02*
X88732648Y-59190495D01*
X88732648Y-59190495D02*
X88756457Y-59095257D01*
X88756457Y-59095257D02*
X88780267Y-59047638D01*
X88780267Y-59047638D02*
X88827886Y-59000019D01*
X88827886Y-59000019D02*
X88899314Y-58976209D01*
X88899314Y-58976209D02*
X88946933Y-58976209D01*
X88946933Y-58976209D02*
X89018362Y-59000019D01*
X89018362Y-59000019D02*
X89042171Y-59023828D01*
X89208838Y-58976209D02*
X89518362Y-58976209D01*
X89518362Y-58976209D02*
X89351695Y-59166685D01*
X89351695Y-59166685D02*
X89423124Y-59166685D01*
X89423124Y-59166685D02*
X89470743Y-59190495D01*
X89470743Y-59190495D02*
X89494552Y-59214304D01*
X89494552Y-59214304D02*
X89518362Y-59261923D01*
X89518362Y-59261923D02*
X89518362Y-59380971D01*
X89518362Y-59380971D02*
X89494552Y-59428590D01*
X89494552Y-59428590D02*
X89470743Y-59452400D01*
X89470743Y-59452400D02*
X89423124Y-59476209D01*
X89423124Y-59476209D02*
X89280267Y-59476209D01*
X89280267Y-59476209D02*
X89232648Y-59452400D01*
X89232648Y-59452400D02*
X89208838Y-59428590D01*
X89708838Y-59023828D02*
X89732647Y-59000019D01*
X89732647Y-59000019D02*
X89780266Y-58976209D01*
X89780266Y-58976209D02*
X89899314Y-58976209D01*
X89899314Y-58976209D02*
X89946933Y-59000019D01*
X89946933Y-59000019D02*
X89970742Y-59023828D01*
X89970742Y-59023828D02*
X89994552Y-59071447D01*
X89994552Y-59071447D02*
X89994552Y-59119066D01*
X89994552Y-59119066D02*
X89970742Y-59190495D01*
X89970742Y-59190495D02*
X89685028Y-59476209D01*
X89685028Y-59476209D02*
X89994552Y-59476209D01*
X88832571Y-51558209D02*
X88665905Y-51320114D01*
X88546857Y-51558209D02*
X88546857Y-51058209D01*
X88546857Y-51058209D02*
X88737333Y-51058209D01*
X88737333Y-51058209D02*
X88784952Y-51082019D01*
X88784952Y-51082019D02*
X88808762Y-51105828D01*
X88808762Y-51105828D02*
X88832571Y-51153447D01*
X88832571Y-51153447D02*
X88832571Y-51224876D01*
X88832571Y-51224876D02*
X88808762Y-51272495D01*
X88808762Y-51272495D02*
X88784952Y-51296304D01*
X88784952Y-51296304D02*
X88737333Y-51320114D01*
X88737333Y-51320114D02*
X88546857Y-51320114D01*
X89308762Y-51558209D02*
X89023048Y-51558209D01*
X89165905Y-51558209D02*
X89165905Y-51058209D01*
X89165905Y-51058209D02*
X89118286Y-51129638D01*
X89118286Y-51129638D02*
X89070667Y-51177257D01*
X89070667Y-51177257D02*
X89023048Y-51201066D01*
X89618285Y-51058209D02*
X89665904Y-51058209D01*
X89665904Y-51058209D02*
X89713523Y-51082019D01*
X89713523Y-51082019D02*
X89737333Y-51105828D01*
X89737333Y-51105828D02*
X89761142Y-51153447D01*
X89761142Y-51153447D02*
X89784952Y-51248685D01*
X89784952Y-51248685D02*
X89784952Y-51367733D01*
X89784952Y-51367733D02*
X89761142Y-51462971D01*
X89761142Y-51462971D02*
X89737333Y-51510590D01*
X89737333Y-51510590D02*
X89713523Y-51534400D01*
X89713523Y-51534400D02*
X89665904Y-51558209D01*
X89665904Y-51558209D02*
X89618285Y-51558209D01*
X89618285Y-51558209D02*
X89570666Y-51534400D01*
X89570666Y-51534400D02*
X89546857Y-51510590D01*
X89546857Y-51510590D02*
X89523047Y-51462971D01*
X89523047Y-51462971D02*
X89499238Y-51367733D01*
X89499238Y-51367733D02*
X89499238Y-51248685D01*
X89499238Y-51248685D02*
X89523047Y-51153447D01*
X89523047Y-51153447D02*
X89546857Y-51105828D01*
X89546857Y-51105828D02*
X89570666Y-51082019D01*
X89570666Y-51082019D02*
X89618285Y-51058209D01*
X81980934Y-51474104D02*
X81814267Y-51474104D01*
X81814267Y-51736009D02*
X81814267Y-51236009D01*
X81814267Y-51236009D02*
X82052362Y-51236009D01*
X82409505Y-51474104D02*
X82480933Y-51497914D01*
X82480933Y-51497914D02*
X82504743Y-51521723D01*
X82504743Y-51521723D02*
X82528552Y-51569342D01*
X82528552Y-51569342D02*
X82528552Y-51640771D01*
X82528552Y-51640771D02*
X82504743Y-51688390D01*
X82504743Y-51688390D02*
X82480933Y-51712200D01*
X82480933Y-51712200D02*
X82433314Y-51736009D01*
X82433314Y-51736009D02*
X82242838Y-51736009D01*
X82242838Y-51736009D02*
X82242838Y-51236009D01*
X82242838Y-51236009D02*
X82409505Y-51236009D01*
X82409505Y-51236009D02*
X82457124Y-51259819D01*
X82457124Y-51259819D02*
X82480933Y-51283628D01*
X82480933Y-51283628D02*
X82504743Y-51331247D01*
X82504743Y-51331247D02*
X82504743Y-51378866D01*
X82504743Y-51378866D02*
X82480933Y-51426485D01*
X82480933Y-51426485D02*
X82457124Y-51450295D01*
X82457124Y-51450295D02*
X82409505Y-51474104D01*
X82409505Y-51474104D02*
X82242838Y-51474104D01*
X83004743Y-51736009D02*
X82719029Y-51736009D01*
X82861886Y-51736009D02*
X82861886Y-51236009D01*
X82861886Y-51236009D02*
X82814267Y-51307438D01*
X82814267Y-51307438D02*
X82766648Y-51355057D01*
X82766648Y-51355057D02*
X82719029Y-51378866D01*
D15*
X88030743Y-59369014D02*
X88016457Y-59383300D01*
X88016457Y-59383300D02*
X87973600Y-59397585D01*
X87973600Y-59397585D02*
X87945028Y-59397585D01*
X87945028Y-59397585D02*
X87902171Y-59383300D01*
X87902171Y-59383300D02*
X87873600Y-59354728D01*
X87873600Y-59354728D02*
X87859314Y-59326157D01*
X87859314Y-59326157D02*
X87845028Y-59269014D01*
X87845028Y-59269014D02*
X87845028Y-59226157D01*
X87845028Y-59226157D02*
X87859314Y-59169014D01*
X87859314Y-59169014D02*
X87873600Y-59140442D01*
X87873600Y-59140442D02*
X87902171Y-59111871D01*
X87902171Y-59111871D02*
X87945028Y-59097585D01*
X87945028Y-59097585D02*
X87973600Y-59097585D01*
X87973600Y-59097585D02*
X88016457Y-59111871D01*
X88016457Y-59111871D02*
X88030743Y-59126157D01*
X88130743Y-59097585D02*
X88316457Y-59097585D01*
X88316457Y-59097585D02*
X88216457Y-59211871D01*
X88216457Y-59211871D02*
X88259314Y-59211871D01*
X88259314Y-59211871D02*
X88287886Y-59226157D01*
X88287886Y-59226157D02*
X88302171Y-59240442D01*
X88302171Y-59240442D02*
X88316457Y-59269014D01*
X88316457Y-59269014D02*
X88316457Y-59340442D01*
X88316457Y-59340442D02*
X88302171Y-59369014D01*
X88302171Y-59369014D02*
X88287886Y-59383300D01*
X88287886Y-59383300D02*
X88259314Y-59397585D01*
X88259314Y-59397585D02*
X88173600Y-59397585D01*
X88173600Y-59397585D02*
X88145028Y-59383300D01*
X88145028Y-59383300D02*
X88130743Y-59369014D01*
X88416457Y-59097585D02*
X88602171Y-59097585D01*
X88602171Y-59097585D02*
X88502171Y-59211871D01*
X88502171Y-59211871D02*
X88545028Y-59211871D01*
X88545028Y-59211871D02*
X88573600Y-59226157D01*
X88573600Y-59226157D02*
X88587885Y-59240442D01*
X88587885Y-59240442D02*
X88602171Y-59269014D01*
X88602171Y-59269014D02*
X88602171Y-59340442D01*
X88602171Y-59340442D02*
X88587885Y-59369014D01*
X88587885Y-59369014D02*
X88573600Y-59383300D01*
X88573600Y-59383300D02*
X88545028Y-59397585D01*
X88545028Y-59397585D02*
X88459314Y-59397585D01*
X88459314Y-59397585D02*
X88430742Y-59383300D01*
X88430742Y-59383300D02*
X88416457Y-59369014D01*
D13*
X102382171Y-63766209D02*
X102215505Y-63528114D01*
X102096457Y-63766209D02*
X102096457Y-63266209D01*
X102096457Y-63266209D02*
X102286933Y-63266209D01*
X102286933Y-63266209D02*
X102334552Y-63290019D01*
X102334552Y-63290019D02*
X102358362Y-63313828D01*
X102358362Y-63313828D02*
X102382171Y-63361447D01*
X102382171Y-63361447D02*
X102382171Y-63432876D01*
X102382171Y-63432876D02*
X102358362Y-63480495D01*
X102358362Y-63480495D02*
X102334552Y-63504304D01*
X102334552Y-63504304D02*
X102286933Y-63528114D01*
X102286933Y-63528114D02*
X102096457Y-63528114D01*
X102548838Y-63266209D02*
X102858362Y-63266209D01*
X102858362Y-63266209D02*
X102691695Y-63456685D01*
X102691695Y-63456685D02*
X102763124Y-63456685D01*
X102763124Y-63456685D02*
X102810743Y-63480495D01*
X102810743Y-63480495D02*
X102834552Y-63504304D01*
X102834552Y-63504304D02*
X102858362Y-63551923D01*
X102858362Y-63551923D02*
X102858362Y-63670971D01*
X102858362Y-63670971D02*
X102834552Y-63718590D01*
X102834552Y-63718590D02*
X102810743Y-63742400D01*
X102810743Y-63742400D02*
X102763124Y-63766209D01*
X102763124Y-63766209D02*
X102620267Y-63766209D01*
X102620267Y-63766209D02*
X102572648Y-63742400D01*
X102572648Y-63742400D02*
X102548838Y-63718590D01*
X103025028Y-63266209D02*
X103334552Y-63266209D01*
X103334552Y-63266209D02*
X103167885Y-63456685D01*
X103167885Y-63456685D02*
X103239314Y-63456685D01*
X103239314Y-63456685D02*
X103286933Y-63480495D01*
X103286933Y-63480495D02*
X103310742Y-63504304D01*
X103310742Y-63504304D02*
X103334552Y-63551923D01*
X103334552Y-63551923D02*
X103334552Y-63670971D01*
X103334552Y-63670971D02*
X103310742Y-63718590D01*
X103310742Y-63718590D02*
X103286933Y-63742400D01*
X103286933Y-63742400D02*
X103239314Y-63766209D01*
X103239314Y-63766209D02*
X103096457Y-63766209D01*
X103096457Y-63766209D02*
X103048838Y-63742400D01*
X103048838Y-63742400D02*
X103025028Y-63718590D01*
D14*
X95770142Y-68410085D02*
X95670142Y-68267228D01*
X95598713Y-68410085D02*
X95598713Y-68110085D01*
X95598713Y-68110085D02*
X95712999Y-68110085D01*
X95712999Y-68110085D02*
X95741570Y-68124371D01*
X95741570Y-68124371D02*
X95755856Y-68138657D01*
X95755856Y-68138657D02*
X95770142Y-68167228D01*
X95770142Y-68167228D02*
X95770142Y-68210085D01*
X95770142Y-68210085D02*
X95755856Y-68238657D01*
X95755856Y-68238657D02*
X95741570Y-68252942D01*
X95741570Y-68252942D02*
X95712999Y-68267228D01*
X95712999Y-68267228D02*
X95598713Y-68267228D01*
X95884427Y-68138657D02*
X95898713Y-68124371D01*
X95898713Y-68124371D02*
X95927285Y-68110085D01*
X95927285Y-68110085D02*
X95998713Y-68110085D01*
X95998713Y-68110085D02*
X96027285Y-68124371D01*
X96027285Y-68124371D02*
X96041570Y-68138657D01*
X96041570Y-68138657D02*
X96055856Y-68167228D01*
X96055856Y-68167228D02*
X96055856Y-68195800D01*
X96055856Y-68195800D02*
X96041570Y-68238657D01*
X96041570Y-68238657D02*
X95870142Y-68410085D01*
X95870142Y-68410085D02*
X96055856Y-68410085D01*
X96198713Y-68410085D02*
X96255856Y-68410085D01*
X96255856Y-68410085D02*
X96284427Y-68395800D01*
X96284427Y-68395800D02*
X96298713Y-68381514D01*
X96298713Y-68381514D02*
X96327284Y-68338657D01*
X96327284Y-68338657D02*
X96341570Y-68281514D01*
X96341570Y-68281514D02*
X96341570Y-68167228D01*
X96341570Y-68167228D02*
X96327284Y-68138657D01*
X96327284Y-68138657D02*
X96312999Y-68124371D01*
X96312999Y-68124371D02*
X96284427Y-68110085D01*
X96284427Y-68110085D02*
X96227284Y-68110085D01*
X96227284Y-68110085D02*
X96198713Y-68124371D01*
X96198713Y-68124371D02*
X96184427Y-68138657D01*
X96184427Y-68138657D02*
X96170141Y-68167228D01*
X96170141Y-68167228D02*
X96170141Y-68238657D01*
X96170141Y-68238657D02*
X96184427Y-68267228D01*
X96184427Y-68267228D02*
X96198713Y-68281514D01*
X96198713Y-68281514D02*
X96227284Y-68295800D01*
X96227284Y-68295800D02*
X96284427Y-68295800D01*
X96284427Y-68295800D02*
X96312999Y-68281514D01*
X96312999Y-68281514D02*
X96327284Y-68267228D01*
X96327284Y-68267228D02*
X96341570Y-68238657D01*
D13*
X76319866Y-72538609D02*
X76153200Y-72300514D01*
X76034152Y-72538609D02*
X76034152Y-72038609D01*
X76034152Y-72038609D02*
X76224628Y-72038609D01*
X76224628Y-72038609D02*
X76272247Y-72062419D01*
X76272247Y-72062419D02*
X76296057Y-72086228D01*
X76296057Y-72086228D02*
X76319866Y-72133847D01*
X76319866Y-72133847D02*
X76319866Y-72205276D01*
X76319866Y-72205276D02*
X76296057Y-72252895D01*
X76296057Y-72252895D02*
X76272247Y-72276704D01*
X76272247Y-72276704D02*
X76224628Y-72300514D01*
X76224628Y-72300514D02*
X76034152Y-72300514D01*
X76486533Y-72038609D02*
X76796057Y-72038609D01*
X76796057Y-72038609D02*
X76629390Y-72229085D01*
X76629390Y-72229085D02*
X76700819Y-72229085D01*
X76700819Y-72229085D02*
X76748438Y-72252895D01*
X76748438Y-72252895D02*
X76772247Y-72276704D01*
X76772247Y-72276704D02*
X76796057Y-72324323D01*
X76796057Y-72324323D02*
X76796057Y-72443371D01*
X76796057Y-72443371D02*
X76772247Y-72490990D01*
X76772247Y-72490990D02*
X76748438Y-72514800D01*
X76748438Y-72514800D02*
X76700819Y-72538609D01*
X76700819Y-72538609D02*
X76557962Y-72538609D01*
X76557962Y-72538609D02*
X76510343Y-72514800D01*
X76510343Y-72514800D02*
X76486533Y-72490990D01*
D15*
X86949143Y-59379785D02*
X86849143Y-59236928D01*
X86777714Y-59379785D02*
X86777714Y-59079785D01*
X86777714Y-59079785D02*
X86892000Y-59079785D01*
X86892000Y-59079785D02*
X86920571Y-59094071D01*
X86920571Y-59094071D02*
X86934857Y-59108357D01*
X86934857Y-59108357D02*
X86949143Y-59136928D01*
X86949143Y-59136928D02*
X86949143Y-59179785D01*
X86949143Y-59179785D02*
X86934857Y-59208357D01*
X86934857Y-59208357D02*
X86920571Y-59222642D01*
X86920571Y-59222642D02*
X86892000Y-59236928D01*
X86892000Y-59236928D02*
X86777714Y-59236928D01*
X87063428Y-59108357D02*
X87077714Y-59094071D01*
X87077714Y-59094071D02*
X87106286Y-59079785D01*
X87106286Y-59079785D02*
X87177714Y-59079785D01*
X87177714Y-59079785D02*
X87206286Y-59094071D01*
X87206286Y-59094071D02*
X87220571Y-59108357D01*
X87220571Y-59108357D02*
X87234857Y-59136928D01*
X87234857Y-59136928D02*
X87234857Y-59165500D01*
X87234857Y-59165500D02*
X87220571Y-59208357D01*
X87220571Y-59208357D02*
X87049143Y-59379785D01*
X87049143Y-59379785D02*
X87234857Y-59379785D01*
X87406285Y-59208357D02*
X87377714Y-59194071D01*
X87377714Y-59194071D02*
X87363428Y-59179785D01*
X87363428Y-59179785D02*
X87349142Y-59151214D01*
X87349142Y-59151214D02*
X87349142Y-59136928D01*
X87349142Y-59136928D02*
X87363428Y-59108357D01*
X87363428Y-59108357D02*
X87377714Y-59094071D01*
X87377714Y-59094071D02*
X87406285Y-59079785D01*
X87406285Y-59079785D02*
X87463428Y-59079785D01*
X87463428Y-59079785D02*
X87492000Y-59094071D01*
X87492000Y-59094071D02*
X87506285Y-59108357D01*
X87506285Y-59108357D02*
X87520571Y-59136928D01*
X87520571Y-59136928D02*
X87520571Y-59151214D01*
X87520571Y-59151214D02*
X87506285Y-59179785D01*
X87506285Y-59179785D02*
X87492000Y-59194071D01*
X87492000Y-59194071D02*
X87463428Y-59208357D01*
X87463428Y-59208357D02*
X87406285Y-59208357D01*
X87406285Y-59208357D02*
X87377714Y-59222642D01*
X87377714Y-59222642D02*
X87363428Y-59236928D01*
X87363428Y-59236928D02*
X87349142Y-59265500D01*
X87349142Y-59265500D02*
X87349142Y-59322642D01*
X87349142Y-59322642D02*
X87363428Y-59351214D01*
X87363428Y-59351214D02*
X87377714Y-59365500D01*
X87377714Y-59365500D02*
X87406285Y-59379785D01*
X87406285Y-59379785D02*
X87463428Y-59379785D01*
X87463428Y-59379785D02*
X87492000Y-59365500D01*
X87492000Y-59365500D02*
X87506285Y-59351214D01*
X87506285Y-59351214D02*
X87520571Y-59322642D01*
X87520571Y-59322642D02*
X87520571Y-59265500D01*
X87520571Y-59265500D02*
X87506285Y-59236928D01*
X87506285Y-59236928D02*
X87492000Y-59222642D01*
X87492000Y-59222642D02*
X87463428Y-59208357D01*
D16*
X92298669Y-56844978D02*
X92298669Y-57073957D01*
X92138383Y-56593101D02*
X92298669Y-56844978D01*
X92298669Y-56844978D02*
X92458954Y-56593101D01*
X92871116Y-57073957D02*
X92596341Y-57073957D01*
X92733729Y-57073957D02*
X92733729Y-56593101D01*
X92733729Y-56593101D02*
X92687933Y-56661795D01*
X92687933Y-56661795D02*
X92642137Y-56707591D01*
X92642137Y-56707591D02*
X92596341Y-56730489D01*
D13*
X91153466Y-60806990D02*
X91129657Y-60830800D01*
X91129657Y-60830800D02*
X91058228Y-60854609D01*
X91058228Y-60854609D02*
X91010609Y-60854609D01*
X91010609Y-60854609D02*
X90939181Y-60830800D01*
X90939181Y-60830800D02*
X90891562Y-60783180D01*
X90891562Y-60783180D02*
X90867752Y-60735561D01*
X90867752Y-60735561D02*
X90843943Y-60640323D01*
X90843943Y-60640323D02*
X90843943Y-60568895D01*
X90843943Y-60568895D02*
X90867752Y-60473657D01*
X90867752Y-60473657D02*
X90891562Y-60426038D01*
X90891562Y-60426038D02*
X90939181Y-60378419D01*
X90939181Y-60378419D02*
X91010609Y-60354609D01*
X91010609Y-60354609D02*
X91058228Y-60354609D01*
X91058228Y-60354609D02*
X91129657Y-60378419D01*
X91129657Y-60378419D02*
X91153466Y-60402228D01*
X91320133Y-60354609D02*
X91629657Y-60354609D01*
X91629657Y-60354609D02*
X91462990Y-60545085D01*
X91462990Y-60545085D02*
X91534419Y-60545085D01*
X91534419Y-60545085D02*
X91582038Y-60568895D01*
X91582038Y-60568895D02*
X91605847Y-60592704D01*
X91605847Y-60592704D02*
X91629657Y-60640323D01*
X91629657Y-60640323D02*
X91629657Y-60759371D01*
X91629657Y-60759371D02*
X91605847Y-60806990D01*
X91605847Y-60806990D02*
X91582038Y-60830800D01*
X91582038Y-60830800D02*
X91534419Y-60854609D01*
X91534419Y-60854609D02*
X91391562Y-60854609D01*
X91391562Y-60854609D02*
X91343943Y-60830800D01*
X91343943Y-60830800D02*
X91320133Y-60806990D01*
X97656685Y-67912628D02*
X97609066Y-67888819D01*
X97609066Y-67888819D02*
X97561447Y-67841200D01*
X97561447Y-67841200D02*
X97490019Y-67769771D01*
X97490019Y-67769771D02*
X97442400Y-67745961D01*
X97442400Y-67745961D02*
X97394781Y-67745961D01*
X97418590Y-67865009D02*
X97370971Y-67841200D01*
X97370971Y-67841200D02*
X97323352Y-67793580D01*
X97323352Y-67793580D02*
X97299543Y-67698342D01*
X97299543Y-67698342D02*
X97299543Y-67531676D01*
X97299543Y-67531676D02*
X97323352Y-67436438D01*
X97323352Y-67436438D02*
X97370971Y-67388819D01*
X97370971Y-67388819D02*
X97418590Y-67365009D01*
X97418590Y-67365009D02*
X97513828Y-67365009D01*
X97513828Y-67365009D02*
X97561447Y-67388819D01*
X97561447Y-67388819D02*
X97609066Y-67436438D01*
X97609066Y-67436438D02*
X97632876Y-67531676D01*
X97632876Y-67531676D02*
X97632876Y-67698342D01*
X97632876Y-67698342D02*
X97609066Y-67793580D01*
X97609066Y-67793580D02*
X97561447Y-67841200D01*
X97561447Y-67841200D02*
X97513828Y-67865009D01*
X97513828Y-67865009D02*
X97418590Y-67865009D01*
X98109067Y-67865009D02*
X97823353Y-67865009D01*
X97966210Y-67865009D02*
X97966210Y-67365009D01*
X97966210Y-67365009D02*
X97918591Y-67436438D01*
X97918591Y-67436438D02*
X97870972Y-67484057D01*
X97870972Y-67484057D02*
X97823353Y-67507866D01*
X98585257Y-67865009D02*
X98299543Y-67865009D01*
X98442400Y-67865009D02*
X98442400Y-67365009D01*
X98442400Y-67365009D02*
X98394781Y-67436438D01*
X98394781Y-67436438D02*
X98347162Y-67484057D01*
X98347162Y-67484057D02*
X98299543Y-67507866D01*
D14*
X90221600Y-49893485D02*
X90121600Y-49750628D01*
X90050171Y-49893485D02*
X90050171Y-49593485D01*
X90050171Y-49593485D02*
X90164457Y-49593485D01*
X90164457Y-49593485D02*
X90193028Y-49607771D01*
X90193028Y-49607771D02*
X90207314Y-49622057D01*
X90207314Y-49622057D02*
X90221600Y-49650628D01*
X90221600Y-49650628D02*
X90221600Y-49693485D01*
X90221600Y-49693485D02*
X90207314Y-49722057D01*
X90207314Y-49722057D02*
X90193028Y-49736342D01*
X90193028Y-49736342D02*
X90164457Y-49750628D01*
X90164457Y-49750628D02*
X90050171Y-49750628D01*
X90321600Y-49593485D02*
X90521600Y-49593485D01*
X90521600Y-49593485D02*
X90393028Y-49893485D01*
D13*
X93236266Y-50669209D02*
X92998171Y-50669209D01*
X92998171Y-50669209D02*
X92998171Y-50169209D01*
X93379124Y-50216828D02*
X93402933Y-50193019D01*
X93402933Y-50193019D02*
X93450552Y-50169209D01*
X93450552Y-50169209D02*
X93569600Y-50169209D01*
X93569600Y-50169209D02*
X93617219Y-50193019D01*
X93617219Y-50193019D02*
X93641028Y-50216828D01*
X93641028Y-50216828D02*
X93664838Y-50264447D01*
X93664838Y-50264447D02*
X93664838Y-50312066D01*
X93664838Y-50312066D02*
X93641028Y-50383495D01*
X93641028Y-50383495D02*
X93355314Y-50669209D01*
X93355314Y-50669209D02*
X93664838Y-50669209D01*
X80949190Y-60205133D02*
X80973000Y-60228942D01*
X80973000Y-60228942D02*
X80996809Y-60300371D01*
X80996809Y-60300371D02*
X80996809Y-60347990D01*
X80996809Y-60347990D02*
X80973000Y-60419418D01*
X80973000Y-60419418D02*
X80925380Y-60467037D01*
X80925380Y-60467037D02*
X80877761Y-60490847D01*
X80877761Y-60490847D02*
X80782523Y-60514656D01*
X80782523Y-60514656D02*
X80711095Y-60514656D01*
X80711095Y-60514656D02*
X80615857Y-60490847D01*
X80615857Y-60490847D02*
X80568238Y-60467037D01*
X80568238Y-60467037D02*
X80520619Y-60419418D01*
X80520619Y-60419418D02*
X80496809Y-60347990D01*
X80496809Y-60347990D02*
X80496809Y-60300371D01*
X80496809Y-60300371D02*
X80520619Y-60228942D01*
X80520619Y-60228942D02*
X80544428Y-60205133D01*
X80996809Y-59967037D02*
X80996809Y-59871799D01*
X80996809Y-59871799D02*
X80973000Y-59824180D01*
X80973000Y-59824180D02*
X80949190Y-59800371D01*
X80949190Y-59800371D02*
X80877761Y-59752752D01*
X80877761Y-59752752D02*
X80782523Y-59728942D01*
X80782523Y-59728942D02*
X80592047Y-59728942D01*
X80592047Y-59728942D02*
X80544428Y-59752752D01*
X80544428Y-59752752D02*
X80520619Y-59776561D01*
X80520619Y-59776561D02*
X80496809Y-59824180D01*
X80496809Y-59824180D02*
X80496809Y-59919418D01*
X80496809Y-59919418D02*
X80520619Y-59967037D01*
X80520619Y-59967037D02*
X80544428Y-59990847D01*
X80544428Y-59990847D02*
X80592047Y-60014656D01*
X80592047Y-60014656D02*
X80711095Y-60014656D01*
X80711095Y-60014656D02*
X80758714Y-59990847D01*
X80758714Y-59990847D02*
X80782523Y-59967037D01*
X80782523Y-59967037D02*
X80806333Y-59919418D01*
X80806333Y-59919418D02*
X80806333Y-59824180D01*
X80806333Y-59824180D02*
X80782523Y-59776561D01*
X80782523Y-59776561D02*
X80758714Y-59752752D01*
X80758714Y-59752752D02*
X80711095Y-59728942D01*
X97287609Y-81395866D02*
X97644752Y-81395866D01*
X97644752Y-81395866D02*
X97716180Y-81419675D01*
X97716180Y-81419675D02*
X97763800Y-81467294D01*
X97763800Y-81467294D02*
X97787609Y-81538723D01*
X97787609Y-81538723D02*
X97787609Y-81586342D01*
X97335228Y-81181580D02*
X97311419Y-81157771D01*
X97311419Y-81157771D02*
X97287609Y-81110152D01*
X97287609Y-81110152D02*
X97287609Y-80991104D01*
X97287609Y-80991104D02*
X97311419Y-80943485D01*
X97311419Y-80943485D02*
X97335228Y-80919676D01*
X97335228Y-80919676D02*
X97382847Y-80895866D01*
X97382847Y-80895866D02*
X97430466Y-80895866D01*
X97430466Y-80895866D02*
X97501895Y-80919676D01*
X97501895Y-80919676D02*
X97787609Y-81205390D01*
X97787609Y-81205390D02*
X97787609Y-80895866D01*
X87401447Y-45927409D02*
X87401447Y-46332171D01*
X87401447Y-46332171D02*
X87425257Y-46379790D01*
X87425257Y-46379790D02*
X87449066Y-46403600D01*
X87449066Y-46403600D02*
X87496685Y-46427409D01*
X87496685Y-46427409D02*
X87591923Y-46427409D01*
X87591923Y-46427409D02*
X87639542Y-46403600D01*
X87639542Y-46403600D02*
X87663352Y-46379790D01*
X87663352Y-46379790D02*
X87687161Y-46332171D01*
X87687161Y-46332171D02*
X87687161Y-45927409D01*
X88139543Y-46094076D02*
X88139543Y-46427409D01*
X88020495Y-45903600D02*
X87901448Y-46260742D01*
X87901448Y-46260742D02*
X88210971Y-46260742D01*
X96300171Y-51815390D02*
X96276362Y-51839200D01*
X96276362Y-51839200D02*
X96204933Y-51863009D01*
X96204933Y-51863009D02*
X96157314Y-51863009D01*
X96157314Y-51863009D02*
X96085886Y-51839200D01*
X96085886Y-51839200D02*
X96038267Y-51791580D01*
X96038267Y-51791580D02*
X96014457Y-51743961D01*
X96014457Y-51743961D02*
X95990648Y-51648723D01*
X95990648Y-51648723D02*
X95990648Y-51577295D01*
X95990648Y-51577295D02*
X96014457Y-51482057D01*
X96014457Y-51482057D02*
X96038267Y-51434438D01*
X96038267Y-51434438D02*
X96085886Y-51386819D01*
X96085886Y-51386819D02*
X96157314Y-51363009D01*
X96157314Y-51363009D02*
X96204933Y-51363009D01*
X96204933Y-51363009D02*
X96276362Y-51386819D01*
X96276362Y-51386819D02*
X96300171Y-51410628D01*
X96490648Y-51410628D02*
X96514457Y-51386819D01*
X96514457Y-51386819D02*
X96562076Y-51363009D01*
X96562076Y-51363009D02*
X96681124Y-51363009D01*
X96681124Y-51363009D02*
X96728743Y-51386819D01*
X96728743Y-51386819D02*
X96752552Y-51410628D01*
X96752552Y-51410628D02*
X96776362Y-51458247D01*
X96776362Y-51458247D02*
X96776362Y-51505866D01*
X96776362Y-51505866D02*
X96752552Y-51577295D01*
X96752552Y-51577295D02*
X96466838Y-51863009D01*
X96466838Y-51863009D02*
X96776362Y-51863009D01*
X96943028Y-51363009D02*
X97252552Y-51363009D01*
X97252552Y-51363009D02*
X97085885Y-51553485D01*
X97085885Y-51553485D02*
X97157314Y-51553485D01*
X97157314Y-51553485D02*
X97204933Y-51577295D01*
X97204933Y-51577295D02*
X97228742Y-51601104D01*
X97228742Y-51601104D02*
X97252552Y-51648723D01*
X97252552Y-51648723D02*
X97252552Y-51767771D01*
X97252552Y-51767771D02*
X97228742Y-51815390D01*
X97228742Y-51815390D02*
X97204933Y-51839200D01*
X97204933Y-51839200D02*
X97157314Y-51863009D01*
X97157314Y-51863009D02*
X97014457Y-51863009D01*
X97014457Y-51863009D02*
X96966838Y-51839200D01*
X96966838Y-51839200D02*
X96943028Y-51815390D01*
X80044171Y-54355390D02*
X80020362Y-54379200D01*
X80020362Y-54379200D02*
X79948933Y-54403009D01*
X79948933Y-54403009D02*
X79901314Y-54403009D01*
X79901314Y-54403009D02*
X79829886Y-54379200D01*
X79829886Y-54379200D02*
X79782267Y-54331580D01*
X79782267Y-54331580D02*
X79758457Y-54283961D01*
X79758457Y-54283961D02*
X79734648Y-54188723D01*
X79734648Y-54188723D02*
X79734648Y-54117295D01*
X79734648Y-54117295D02*
X79758457Y-54022057D01*
X79758457Y-54022057D02*
X79782267Y-53974438D01*
X79782267Y-53974438D02*
X79829886Y-53926819D01*
X79829886Y-53926819D02*
X79901314Y-53903009D01*
X79901314Y-53903009D02*
X79948933Y-53903009D01*
X79948933Y-53903009D02*
X80020362Y-53926819D01*
X80020362Y-53926819D02*
X80044171Y-53950628D01*
X80520362Y-54403009D02*
X80234648Y-54403009D01*
X80377505Y-54403009D02*
X80377505Y-53903009D01*
X80377505Y-53903009D02*
X80329886Y-53974438D01*
X80329886Y-53974438D02*
X80282267Y-54022057D01*
X80282267Y-54022057D02*
X80234648Y-54045866D01*
X80687028Y-53903009D02*
X80996552Y-53903009D01*
X80996552Y-53903009D02*
X80829885Y-54093485D01*
X80829885Y-54093485D02*
X80901314Y-54093485D01*
X80901314Y-54093485D02*
X80948933Y-54117295D01*
X80948933Y-54117295D02*
X80972742Y-54141104D01*
X80972742Y-54141104D02*
X80996552Y-54188723D01*
X80996552Y-54188723D02*
X80996552Y-54307771D01*
X80996552Y-54307771D02*
X80972742Y-54355390D01*
X80972742Y-54355390D02*
X80948933Y-54379200D01*
X80948933Y-54379200D02*
X80901314Y-54403009D01*
X80901314Y-54403009D02*
X80758457Y-54403009D01*
X80758457Y-54403009D02*
X80710838Y-54379200D01*
X80710838Y-54379200D02*
X80687028Y-54355390D01*
X102382171Y-67616209D02*
X102215505Y-67378114D01*
X102096457Y-67616209D02*
X102096457Y-67116209D01*
X102096457Y-67116209D02*
X102286933Y-67116209D01*
X102286933Y-67116209D02*
X102334552Y-67140019D01*
X102334552Y-67140019D02*
X102358362Y-67163828D01*
X102358362Y-67163828D02*
X102382171Y-67211447D01*
X102382171Y-67211447D02*
X102382171Y-67282876D01*
X102382171Y-67282876D02*
X102358362Y-67330495D01*
X102358362Y-67330495D02*
X102334552Y-67354304D01*
X102334552Y-67354304D02*
X102286933Y-67378114D01*
X102286933Y-67378114D02*
X102096457Y-67378114D01*
X102548838Y-67116209D02*
X102858362Y-67116209D01*
X102858362Y-67116209D02*
X102691695Y-67306685D01*
X102691695Y-67306685D02*
X102763124Y-67306685D01*
X102763124Y-67306685D02*
X102810743Y-67330495D01*
X102810743Y-67330495D02*
X102834552Y-67354304D01*
X102834552Y-67354304D02*
X102858362Y-67401923D01*
X102858362Y-67401923D02*
X102858362Y-67520971D01*
X102858362Y-67520971D02*
X102834552Y-67568590D01*
X102834552Y-67568590D02*
X102810743Y-67592400D01*
X102810743Y-67592400D02*
X102763124Y-67616209D01*
X102763124Y-67616209D02*
X102620267Y-67616209D01*
X102620267Y-67616209D02*
X102572648Y-67592400D01*
X102572648Y-67592400D02*
X102548838Y-67568590D01*
X103286933Y-67282876D02*
X103286933Y-67616209D01*
X103167885Y-67092400D02*
X103048838Y-67449542D01*
X103048838Y-67449542D02*
X103358361Y-67449542D01*
X69969143Y-72241809D02*
X70254857Y-72241809D01*
X70112000Y-72741809D02*
X70112000Y-72241809D01*
X70421523Y-72741809D02*
X70421523Y-72241809D01*
X70421523Y-72479904D02*
X70707237Y-72479904D01*
X70707237Y-72741809D02*
X70707237Y-72241809D01*
X70897714Y-72241809D02*
X71207238Y-72241809D01*
X71207238Y-72241809D02*
X71040571Y-72432285D01*
X71040571Y-72432285D02*
X71112000Y-72432285D01*
X71112000Y-72432285D02*
X71159619Y-72456095D01*
X71159619Y-72456095D02*
X71183428Y-72479904D01*
X71183428Y-72479904D02*
X71207238Y-72527523D01*
X71207238Y-72527523D02*
X71207238Y-72646571D01*
X71207238Y-72646571D02*
X71183428Y-72694190D01*
X71183428Y-72694190D02*
X71159619Y-72718000D01*
X71159619Y-72718000D02*
X71112000Y-72741809D01*
X71112000Y-72741809D02*
X70969143Y-72741809D01*
X70969143Y-72741809D02*
X70921524Y-72718000D01*
X70921524Y-72718000D02*
X70897714Y-72694190D01*
X85174971Y-48259390D02*
X85151162Y-48283200D01*
X85151162Y-48283200D02*
X85079733Y-48307009D01*
X85079733Y-48307009D02*
X85032114Y-48307009D01*
X85032114Y-48307009D02*
X84960686Y-48283200D01*
X84960686Y-48283200D02*
X84913067Y-48235580D01*
X84913067Y-48235580D02*
X84889257Y-48187961D01*
X84889257Y-48187961D02*
X84865448Y-48092723D01*
X84865448Y-48092723D02*
X84865448Y-48021295D01*
X84865448Y-48021295D02*
X84889257Y-47926057D01*
X84889257Y-47926057D02*
X84913067Y-47878438D01*
X84913067Y-47878438D02*
X84960686Y-47830819D01*
X84960686Y-47830819D02*
X85032114Y-47807009D01*
X85032114Y-47807009D02*
X85079733Y-47807009D01*
X85079733Y-47807009D02*
X85151162Y-47830819D01*
X85151162Y-47830819D02*
X85174971Y-47854628D01*
X85651162Y-48307009D02*
X85365448Y-48307009D01*
X85508305Y-48307009D02*
X85508305Y-47807009D01*
X85508305Y-47807009D02*
X85460686Y-47878438D01*
X85460686Y-47878438D02*
X85413067Y-47926057D01*
X85413067Y-47926057D02*
X85365448Y-47949866D01*
X86079733Y-47973676D02*
X86079733Y-48307009D01*
X85960685Y-47783200D02*
X85841638Y-48140342D01*
X85841638Y-48140342D02*
X86151161Y-48140342D01*
X97656685Y-64305828D02*
X97609066Y-64282019D01*
X97609066Y-64282019D02*
X97561447Y-64234400D01*
X97561447Y-64234400D02*
X97490019Y-64162971D01*
X97490019Y-64162971D02*
X97442400Y-64139161D01*
X97442400Y-64139161D02*
X97394781Y-64139161D01*
X97418590Y-64258209D02*
X97370971Y-64234400D01*
X97370971Y-64234400D02*
X97323352Y-64186780D01*
X97323352Y-64186780D02*
X97299543Y-64091542D01*
X97299543Y-64091542D02*
X97299543Y-63924876D01*
X97299543Y-63924876D02*
X97323352Y-63829638D01*
X97323352Y-63829638D02*
X97370971Y-63782019D01*
X97370971Y-63782019D02*
X97418590Y-63758209D01*
X97418590Y-63758209D02*
X97513828Y-63758209D01*
X97513828Y-63758209D02*
X97561447Y-63782019D01*
X97561447Y-63782019D02*
X97609066Y-63829638D01*
X97609066Y-63829638D02*
X97632876Y-63924876D01*
X97632876Y-63924876D02*
X97632876Y-64091542D01*
X97632876Y-64091542D02*
X97609066Y-64186780D01*
X97609066Y-64186780D02*
X97561447Y-64234400D01*
X97561447Y-64234400D02*
X97513828Y-64258209D01*
X97513828Y-64258209D02*
X97418590Y-64258209D01*
X98109067Y-64258209D02*
X97823353Y-64258209D01*
X97966210Y-64258209D02*
X97966210Y-63758209D01*
X97966210Y-63758209D02*
X97918591Y-63829638D01*
X97918591Y-63829638D02*
X97870972Y-63877257D01*
X97870972Y-63877257D02*
X97823353Y-63901066D01*
X98418590Y-63758209D02*
X98466209Y-63758209D01*
X98466209Y-63758209D02*
X98513828Y-63782019D01*
X98513828Y-63782019D02*
X98537638Y-63805828D01*
X98537638Y-63805828D02*
X98561447Y-63853447D01*
X98561447Y-63853447D02*
X98585257Y-63948685D01*
X98585257Y-63948685D02*
X98585257Y-64067733D01*
X98585257Y-64067733D02*
X98561447Y-64162971D01*
X98561447Y-64162971D02*
X98537638Y-64210590D01*
X98537638Y-64210590D02*
X98513828Y-64234400D01*
X98513828Y-64234400D02*
X98466209Y-64258209D01*
X98466209Y-64258209D02*
X98418590Y-64258209D01*
X98418590Y-64258209D02*
X98370971Y-64234400D01*
X98370971Y-64234400D02*
X98347162Y-64210590D01*
X98347162Y-64210590D02*
X98323352Y-64162971D01*
X98323352Y-64162971D02*
X98299543Y-64067733D01*
X98299543Y-64067733D02*
X98299543Y-63948685D01*
X98299543Y-63948685D02*
X98323352Y-63853447D01*
X98323352Y-63853447D02*
X98347162Y-63805828D01*
X98347162Y-63805828D02*
X98370971Y-63782019D01*
X98370971Y-63782019D02*
X98418590Y-63758209D01*
D14*
X102931143Y-54262285D02*
X102831143Y-54119428D01*
X102759714Y-54262285D02*
X102759714Y-53962285D01*
X102759714Y-53962285D02*
X102874000Y-53962285D01*
X102874000Y-53962285D02*
X102902571Y-53976571D01*
X102902571Y-53976571D02*
X102916857Y-53990857D01*
X102916857Y-53990857D02*
X102931143Y-54019428D01*
X102931143Y-54019428D02*
X102931143Y-54062285D01*
X102931143Y-54062285D02*
X102916857Y-54090857D01*
X102916857Y-54090857D02*
X102902571Y-54105142D01*
X102902571Y-54105142D02*
X102874000Y-54119428D01*
X102874000Y-54119428D02*
X102759714Y-54119428D01*
X103188286Y-54062285D02*
X103188286Y-54262285D01*
X103116857Y-53948000D02*
X103045428Y-54162285D01*
X103045428Y-54162285D02*
X103231143Y-54162285D01*
X103488285Y-53962285D02*
X103345428Y-53962285D01*
X103345428Y-53962285D02*
X103331142Y-54105142D01*
X103331142Y-54105142D02*
X103345428Y-54090857D01*
X103345428Y-54090857D02*
X103374000Y-54076571D01*
X103374000Y-54076571D02*
X103445428Y-54076571D01*
X103445428Y-54076571D02*
X103474000Y-54090857D01*
X103474000Y-54090857D02*
X103488285Y-54105142D01*
X103488285Y-54105142D02*
X103502571Y-54133714D01*
X103502571Y-54133714D02*
X103502571Y-54205142D01*
X103502571Y-54205142D02*
X103488285Y-54233714D01*
X103488285Y-54233714D02*
X103474000Y-54248000D01*
X103474000Y-54248000D02*
X103445428Y-54262285D01*
X103445428Y-54262285D02*
X103374000Y-54262285D01*
X103374000Y-54262285D02*
X103345428Y-54248000D01*
X103345428Y-54248000D02*
X103331142Y-54233714D01*
D13*
X69969143Y-74578609D02*
X70254857Y-74578609D01*
X70112000Y-75078609D02*
X70112000Y-74578609D01*
X70421523Y-75078609D02*
X70421523Y-74578609D01*
X70421523Y-74816704D02*
X70707237Y-74816704D01*
X70707237Y-75078609D02*
X70707237Y-74578609D01*
X70921524Y-74626228D02*
X70945333Y-74602419D01*
X70945333Y-74602419D02*
X70992952Y-74578609D01*
X70992952Y-74578609D02*
X71112000Y-74578609D01*
X71112000Y-74578609D02*
X71159619Y-74602419D01*
X71159619Y-74602419D02*
X71183428Y-74626228D01*
X71183428Y-74626228D02*
X71207238Y-74673847D01*
X71207238Y-74673847D02*
X71207238Y-74721466D01*
X71207238Y-74721466D02*
X71183428Y-74792895D01*
X71183428Y-74792895D02*
X70897714Y-75078609D01*
X70897714Y-75078609D02*
X71207238Y-75078609D01*
X81517371Y-46887790D02*
X81493562Y-46911600D01*
X81493562Y-46911600D02*
X81422133Y-46935409D01*
X81422133Y-46935409D02*
X81374514Y-46935409D01*
X81374514Y-46935409D02*
X81303086Y-46911600D01*
X81303086Y-46911600D02*
X81255467Y-46863980D01*
X81255467Y-46863980D02*
X81231657Y-46816361D01*
X81231657Y-46816361D02*
X81207848Y-46721123D01*
X81207848Y-46721123D02*
X81207848Y-46649695D01*
X81207848Y-46649695D02*
X81231657Y-46554457D01*
X81231657Y-46554457D02*
X81255467Y-46506838D01*
X81255467Y-46506838D02*
X81303086Y-46459219D01*
X81303086Y-46459219D02*
X81374514Y-46435409D01*
X81374514Y-46435409D02*
X81422133Y-46435409D01*
X81422133Y-46435409D02*
X81493562Y-46459219D01*
X81493562Y-46459219D02*
X81517371Y-46483028D01*
X81707848Y-46483028D02*
X81731657Y-46459219D01*
X81731657Y-46459219D02*
X81779276Y-46435409D01*
X81779276Y-46435409D02*
X81898324Y-46435409D01*
X81898324Y-46435409D02*
X81945943Y-46459219D01*
X81945943Y-46459219D02*
X81969752Y-46483028D01*
X81969752Y-46483028D02*
X81993562Y-46530647D01*
X81993562Y-46530647D02*
X81993562Y-46578266D01*
X81993562Y-46578266D02*
X81969752Y-46649695D01*
X81969752Y-46649695D02*
X81684038Y-46935409D01*
X81684038Y-46935409D02*
X81993562Y-46935409D01*
X82469752Y-46935409D02*
X82184038Y-46935409D01*
X82326895Y-46935409D02*
X82326895Y-46435409D01*
X82326895Y-46435409D02*
X82279276Y-46506838D01*
X82279276Y-46506838D02*
X82231657Y-46554457D01*
X82231657Y-46554457D02*
X82184038Y-46578266D01*
D14*
X95782215Y-70238885D02*
X95682215Y-70096028D01*
X95610786Y-70238885D02*
X95610786Y-69938885D01*
X95610786Y-69938885D02*
X95725072Y-69938885D01*
X95725072Y-69938885D02*
X95753643Y-69953171D01*
X95753643Y-69953171D02*
X95767929Y-69967457D01*
X95767929Y-69967457D02*
X95782215Y-69996028D01*
X95782215Y-69996028D02*
X95782215Y-70038885D01*
X95782215Y-70038885D02*
X95767929Y-70067457D01*
X95767929Y-70067457D02*
X95753643Y-70081742D01*
X95753643Y-70081742D02*
X95725072Y-70096028D01*
X95725072Y-70096028D02*
X95610786Y-70096028D01*
X95882215Y-69938885D02*
X96067929Y-69938885D01*
X96067929Y-69938885D02*
X95967929Y-70053171D01*
X95967929Y-70053171D02*
X96010786Y-70053171D01*
X96010786Y-70053171D02*
X96039358Y-70067457D01*
X96039358Y-70067457D02*
X96053643Y-70081742D01*
X96053643Y-70081742D02*
X96067929Y-70110314D01*
X96067929Y-70110314D02*
X96067929Y-70181742D01*
X96067929Y-70181742D02*
X96053643Y-70210314D01*
X96053643Y-70210314D02*
X96039358Y-70224600D01*
X96039358Y-70224600D02*
X96010786Y-70238885D01*
X96010786Y-70238885D02*
X95925072Y-70238885D01*
X95925072Y-70238885D02*
X95896500Y-70224600D01*
X95896500Y-70224600D02*
X95882215Y-70210314D01*
X96253643Y-69938885D02*
X96282214Y-69938885D01*
X96282214Y-69938885D02*
X96310786Y-69953171D01*
X96310786Y-69953171D02*
X96325072Y-69967457D01*
X96325072Y-69967457D02*
X96339357Y-69996028D01*
X96339357Y-69996028D02*
X96353643Y-70053171D01*
X96353643Y-70053171D02*
X96353643Y-70124600D01*
X96353643Y-70124600D02*
X96339357Y-70181742D01*
X96339357Y-70181742D02*
X96325072Y-70210314D01*
X96325072Y-70210314D02*
X96310786Y-70224600D01*
X96310786Y-70224600D02*
X96282214Y-70238885D01*
X96282214Y-70238885D02*
X96253643Y-70238885D01*
X96253643Y-70238885D02*
X96225072Y-70224600D01*
X96225072Y-70224600D02*
X96210786Y-70210314D01*
X96210786Y-70210314D02*
X96196500Y-70181742D01*
X96196500Y-70181742D02*
X96182214Y-70124600D01*
X96182214Y-70124600D02*
X96182214Y-70053171D01*
X96182214Y-70053171D02*
X96196500Y-69996028D01*
X96196500Y-69996028D02*
X96210786Y-69967457D01*
X96210786Y-69967457D02*
X96225072Y-69953171D01*
X96225072Y-69953171D02*
X96253643Y-69938885D01*
D13*
X94369771Y-51815390D02*
X94345962Y-51839200D01*
X94345962Y-51839200D02*
X94274533Y-51863009D01*
X94274533Y-51863009D02*
X94226914Y-51863009D01*
X94226914Y-51863009D02*
X94155486Y-51839200D01*
X94155486Y-51839200D02*
X94107867Y-51791580D01*
X94107867Y-51791580D02*
X94084057Y-51743961D01*
X94084057Y-51743961D02*
X94060248Y-51648723D01*
X94060248Y-51648723D02*
X94060248Y-51577295D01*
X94060248Y-51577295D02*
X94084057Y-51482057D01*
X94084057Y-51482057D02*
X94107867Y-51434438D01*
X94107867Y-51434438D02*
X94155486Y-51386819D01*
X94155486Y-51386819D02*
X94226914Y-51363009D01*
X94226914Y-51363009D02*
X94274533Y-51363009D01*
X94274533Y-51363009D02*
X94345962Y-51386819D01*
X94345962Y-51386819D02*
X94369771Y-51410628D01*
X94845962Y-51863009D02*
X94560248Y-51863009D01*
X94703105Y-51863009D02*
X94703105Y-51363009D01*
X94703105Y-51363009D02*
X94655486Y-51434438D01*
X94655486Y-51434438D02*
X94607867Y-51482057D01*
X94607867Y-51482057D02*
X94560248Y-51505866D01*
X95131676Y-51577295D02*
X95084057Y-51553485D01*
X95084057Y-51553485D02*
X95060247Y-51529676D01*
X95060247Y-51529676D02*
X95036438Y-51482057D01*
X95036438Y-51482057D02*
X95036438Y-51458247D01*
X95036438Y-51458247D02*
X95060247Y-51410628D01*
X95060247Y-51410628D02*
X95084057Y-51386819D01*
X95084057Y-51386819D02*
X95131676Y-51363009D01*
X95131676Y-51363009D02*
X95226914Y-51363009D01*
X95226914Y-51363009D02*
X95274533Y-51386819D01*
X95274533Y-51386819D02*
X95298342Y-51410628D01*
X95298342Y-51410628D02*
X95322152Y-51458247D01*
X95322152Y-51458247D02*
X95322152Y-51482057D01*
X95322152Y-51482057D02*
X95298342Y-51529676D01*
X95298342Y-51529676D02*
X95274533Y-51553485D01*
X95274533Y-51553485D02*
X95226914Y-51577295D01*
X95226914Y-51577295D02*
X95131676Y-51577295D01*
X95131676Y-51577295D02*
X95084057Y-51601104D01*
X95084057Y-51601104D02*
X95060247Y-51624914D01*
X95060247Y-51624914D02*
X95036438Y-51672533D01*
X95036438Y-51672533D02*
X95036438Y-51767771D01*
X95036438Y-51767771D02*
X95060247Y-51815390D01*
X95060247Y-51815390D02*
X95084057Y-51839200D01*
X95084057Y-51839200D02*
X95131676Y-51863009D01*
X95131676Y-51863009D02*
X95226914Y-51863009D01*
X95226914Y-51863009D02*
X95274533Y-51839200D01*
X95274533Y-51839200D02*
X95298342Y-51815390D01*
X95298342Y-51815390D02*
X95322152Y-51767771D01*
X95322152Y-51767771D02*
X95322152Y-51672533D01*
X95322152Y-51672533D02*
X95298342Y-51624914D01*
X95298342Y-51624914D02*
X95274533Y-51601104D01*
X95274533Y-51601104D02*
X95226914Y-51577295D01*
X76269066Y-74773809D02*
X76102400Y-74535714D01*
X75983352Y-74773809D02*
X75983352Y-74273809D01*
X75983352Y-74273809D02*
X76173828Y-74273809D01*
X76173828Y-74273809D02*
X76221447Y-74297619D01*
X76221447Y-74297619D02*
X76245257Y-74321428D01*
X76245257Y-74321428D02*
X76269066Y-74369047D01*
X76269066Y-74369047D02*
X76269066Y-74440476D01*
X76269066Y-74440476D02*
X76245257Y-74488095D01*
X76245257Y-74488095D02*
X76221447Y-74511904D01*
X76221447Y-74511904D02*
X76173828Y-74535714D01*
X76173828Y-74535714D02*
X75983352Y-74535714D01*
X76459543Y-74321428D02*
X76483352Y-74297619D01*
X76483352Y-74297619D02*
X76530971Y-74273809D01*
X76530971Y-74273809D02*
X76650019Y-74273809D01*
X76650019Y-74273809D02*
X76697638Y-74297619D01*
X76697638Y-74297619D02*
X76721447Y-74321428D01*
X76721447Y-74321428D02*
X76745257Y-74369047D01*
X76745257Y-74369047D02*
X76745257Y-74416666D01*
X76745257Y-74416666D02*
X76721447Y-74488095D01*
X76721447Y-74488095D02*
X76435733Y-74773809D01*
X76435733Y-74773809D02*
X76745257Y-74773809D01*
X95549409Y-78899533D02*
X95311314Y-79066199D01*
X95549409Y-79185247D02*
X95049409Y-79185247D01*
X95049409Y-79185247D02*
X95049409Y-78994771D01*
X95049409Y-78994771D02*
X95073219Y-78947152D01*
X95073219Y-78947152D02*
X95097028Y-78923342D01*
X95097028Y-78923342D02*
X95144647Y-78899533D01*
X95144647Y-78899533D02*
X95216076Y-78899533D01*
X95216076Y-78899533D02*
X95263695Y-78923342D01*
X95263695Y-78923342D02*
X95287504Y-78947152D01*
X95287504Y-78947152D02*
X95311314Y-78994771D01*
X95311314Y-78994771D02*
X95311314Y-79185247D01*
X95049409Y-78447152D02*
X95049409Y-78685247D01*
X95049409Y-78685247D02*
X95287504Y-78709056D01*
X95287504Y-78709056D02*
X95263695Y-78685247D01*
X95263695Y-78685247D02*
X95239885Y-78637628D01*
X95239885Y-78637628D02*
X95239885Y-78518580D01*
X95239885Y-78518580D02*
X95263695Y-78470961D01*
X95263695Y-78470961D02*
X95287504Y-78447152D01*
X95287504Y-78447152D02*
X95335123Y-78423342D01*
X95335123Y-78423342D02*
X95454171Y-78423342D01*
X95454171Y-78423342D02*
X95501790Y-78447152D01*
X95501790Y-78447152D02*
X95525600Y-78470961D01*
X95525600Y-78470961D02*
X95549409Y-78518580D01*
X95549409Y-78518580D02*
X95549409Y-78637628D01*
X95549409Y-78637628D02*
X95525600Y-78685247D01*
X95525600Y-78685247D02*
X95501790Y-78709056D01*
X101955647Y-44022409D02*
X101955647Y-44427171D01*
X101955647Y-44427171D02*
X101979457Y-44474790D01*
X101979457Y-44474790D02*
X102003266Y-44498600D01*
X102003266Y-44498600D02*
X102050885Y-44522409D01*
X102050885Y-44522409D02*
X102146123Y-44522409D01*
X102146123Y-44522409D02*
X102193742Y-44498600D01*
X102193742Y-44498600D02*
X102217552Y-44474790D01*
X102217552Y-44474790D02*
X102241361Y-44427171D01*
X102241361Y-44427171D02*
X102241361Y-44022409D01*
X102717552Y-44022409D02*
X102479457Y-44022409D01*
X102479457Y-44022409D02*
X102455648Y-44260504D01*
X102455648Y-44260504D02*
X102479457Y-44236695D01*
X102479457Y-44236695D02*
X102527076Y-44212885D01*
X102527076Y-44212885D02*
X102646124Y-44212885D01*
X102646124Y-44212885D02*
X102693743Y-44236695D01*
X102693743Y-44236695D02*
X102717552Y-44260504D01*
X102717552Y-44260504D02*
X102741362Y-44308123D01*
X102741362Y-44308123D02*
X102741362Y-44427171D01*
X102741362Y-44427171D02*
X102717552Y-44474790D01*
X102717552Y-44474790D02*
X102693743Y-44498600D01*
X102693743Y-44498600D02*
X102646124Y-44522409D01*
X102646124Y-44522409D02*
X102527076Y-44522409D01*
X102527076Y-44522409D02*
X102479457Y-44498600D01*
X102479457Y-44498600D02*
X102455648Y-44474790D01*
X85260666Y-49373809D02*
X85094000Y-49135714D01*
X84974952Y-49373809D02*
X84974952Y-48873809D01*
X84974952Y-48873809D02*
X85165428Y-48873809D01*
X85165428Y-48873809D02*
X85213047Y-48897619D01*
X85213047Y-48897619D02*
X85236857Y-48921428D01*
X85236857Y-48921428D02*
X85260666Y-48969047D01*
X85260666Y-48969047D02*
X85260666Y-49040476D01*
X85260666Y-49040476D02*
X85236857Y-49088095D01*
X85236857Y-49088095D02*
X85213047Y-49111904D01*
X85213047Y-49111904D02*
X85165428Y-49135714D01*
X85165428Y-49135714D02*
X84974952Y-49135714D01*
X85546381Y-49088095D02*
X85498762Y-49064285D01*
X85498762Y-49064285D02*
X85474952Y-49040476D01*
X85474952Y-49040476D02*
X85451143Y-48992857D01*
X85451143Y-48992857D02*
X85451143Y-48969047D01*
X85451143Y-48969047D02*
X85474952Y-48921428D01*
X85474952Y-48921428D02*
X85498762Y-48897619D01*
X85498762Y-48897619D02*
X85546381Y-48873809D01*
X85546381Y-48873809D02*
X85641619Y-48873809D01*
X85641619Y-48873809D02*
X85689238Y-48897619D01*
X85689238Y-48897619D02*
X85713047Y-48921428D01*
X85713047Y-48921428D02*
X85736857Y-48969047D01*
X85736857Y-48969047D02*
X85736857Y-48992857D01*
X85736857Y-48992857D02*
X85713047Y-49040476D01*
X85713047Y-49040476D02*
X85689238Y-49064285D01*
X85689238Y-49064285D02*
X85641619Y-49088095D01*
X85641619Y-49088095D02*
X85546381Y-49088095D01*
X85546381Y-49088095D02*
X85498762Y-49111904D01*
X85498762Y-49111904D02*
X85474952Y-49135714D01*
X85474952Y-49135714D02*
X85451143Y-49183333D01*
X85451143Y-49183333D02*
X85451143Y-49278571D01*
X85451143Y-49278571D02*
X85474952Y-49326190D01*
X85474952Y-49326190D02*
X85498762Y-49350000D01*
X85498762Y-49350000D02*
X85546381Y-49373809D01*
X85546381Y-49373809D02*
X85641619Y-49373809D01*
X85641619Y-49373809D02*
X85689238Y-49350000D01*
X85689238Y-49350000D02*
X85713047Y-49326190D01*
X85713047Y-49326190D02*
X85736857Y-49278571D01*
X85736857Y-49278571D02*
X85736857Y-49183333D01*
X85736857Y-49183333D02*
X85713047Y-49135714D01*
X85713047Y-49135714D02*
X85689238Y-49111904D01*
X85689238Y-49111904D02*
X85641619Y-49088095D01*
X99085447Y-56189009D02*
X99085447Y-56593771D01*
X99085447Y-56593771D02*
X99109257Y-56641390D01*
X99109257Y-56641390D02*
X99133066Y-56665200D01*
X99133066Y-56665200D02*
X99180685Y-56689009D01*
X99180685Y-56689009D02*
X99275923Y-56689009D01*
X99275923Y-56689009D02*
X99323542Y-56665200D01*
X99323542Y-56665200D02*
X99347352Y-56641390D01*
X99347352Y-56641390D02*
X99371161Y-56593771D01*
X99371161Y-56593771D02*
X99371161Y-56189009D01*
X99585448Y-56236628D02*
X99609257Y-56212819D01*
X99609257Y-56212819D02*
X99656876Y-56189009D01*
X99656876Y-56189009D02*
X99775924Y-56189009D01*
X99775924Y-56189009D02*
X99823543Y-56212819D01*
X99823543Y-56212819D02*
X99847352Y-56236628D01*
X99847352Y-56236628D02*
X99871162Y-56284247D01*
X99871162Y-56284247D02*
X99871162Y-56331866D01*
X99871162Y-56331866D02*
X99847352Y-56403295D01*
X99847352Y-56403295D02*
X99561638Y-56689009D01*
X99561638Y-56689009D02*
X99871162Y-56689009D01*
X78748771Y-76628009D02*
X78582105Y-76389914D01*
X78463057Y-76628009D02*
X78463057Y-76128009D01*
X78463057Y-76128009D02*
X78653533Y-76128009D01*
X78653533Y-76128009D02*
X78701152Y-76151819D01*
X78701152Y-76151819D02*
X78724962Y-76175628D01*
X78724962Y-76175628D02*
X78748771Y-76223247D01*
X78748771Y-76223247D02*
X78748771Y-76294676D01*
X78748771Y-76294676D02*
X78724962Y-76342295D01*
X78724962Y-76342295D02*
X78701152Y-76366104D01*
X78701152Y-76366104D02*
X78653533Y-76389914D01*
X78653533Y-76389914D02*
X78463057Y-76389914D01*
X79177343Y-76294676D02*
X79177343Y-76628009D01*
X79058295Y-76104200D02*
X78939248Y-76461342D01*
X78939248Y-76461342D02*
X79248771Y-76461342D01*
X79653533Y-76128009D02*
X79558295Y-76128009D01*
X79558295Y-76128009D02*
X79510676Y-76151819D01*
X79510676Y-76151819D02*
X79486866Y-76175628D01*
X79486866Y-76175628D02*
X79439247Y-76247057D01*
X79439247Y-76247057D02*
X79415438Y-76342295D01*
X79415438Y-76342295D02*
X79415438Y-76532771D01*
X79415438Y-76532771D02*
X79439247Y-76580390D01*
X79439247Y-76580390D02*
X79463057Y-76604200D01*
X79463057Y-76604200D02*
X79510676Y-76628009D01*
X79510676Y-76628009D02*
X79605914Y-76628009D01*
X79605914Y-76628009D02*
X79653533Y-76604200D01*
X79653533Y-76604200D02*
X79677342Y-76580390D01*
X79677342Y-76580390D02*
X79701152Y-76532771D01*
X79701152Y-76532771D02*
X79701152Y-76413723D01*
X79701152Y-76413723D02*
X79677342Y-76366104D01*
X79677342Y-76366104D02*
X79653533Y-76342295D01*
X79653533Y-76342295D02*
X79605914Y-76318485D01*
X79605914Y-76318485D02*
X79510676Y-76318485D01*
X79510676Y-76318485D02*
X79463057Y-76342295D01*
X79463057Y-76342295D02*
X79439247Y-76366104D01*
X79439247Y-76366104D02*
X79415438Y-76413723D01*
X102262171Y-71576209D02*
X102095505Y-71338114D01*
X101976457Y-71576209D02*
X101976457Y-71076209D01*
X101976457Y-71076209D02*
X102166933Y-71076209D01*
X102166933Y-71076209D02*
X102214552Y-71100019D01*
X102214552Y-71100019D02*
X102238362Y-71123828D01*
X102238362Y-71123828D02*
X102262171Y-71171447D01*
X102262171Y-71171447D02*
X102262171Y-71242876D01*
X102262171Y-71242876D02*
X102238362Y-71290495D01*
X102238362Y-71290495D02*
X102214552Y-71314304D01*
X102214552Y-71314304D02*
X102166933Y-71338114D01*
X102166933Y-71338114D02*
X101976457Y-71338114D01*
X102428838Y-71076209D02*
X102738362Y-71076209D01*
X102738362Y-71076209D02*
X102571695Y-71266685D01*
X102571695Y-71266685D02*
X102643124Y-71266685D01*
X102643124Y-71266685D02*
X102690743Y-71290495D01*
X102690743Y-71290495D02*
X102714552Y-71314304D01*
X102714552Y-71314304D02*
X102738362Y-71361923D01*
X102738362Y-71361923D02*
X102738362Y-71480971D01*
X102738362Y-71480971D02*
X102714552Y-71528590D01*
X102714552Y-71528590D02*
X102690743Y-71552400D01*
X102690743Y-71552400D02*
X102643124Y-71576209D01*
X102643124Y-71576209D02*
X102500267Y-71576209D01*
X102500267Y-71576209D02*
X102452648Y-71552400D01*
X102452648Y-71552400D02*
X102428838Y-71528590D01*
X103190742Y-71076209D02*
X102952647Y-71076209D01*
X102952647Y-71076209D02*
X102928838Y-71314304D01*
X102928838Y-71314304D02*
X102952647Y-71290495D01*
X102952647Y-71290495D02*
X103000266Y-71266685D01*
X103000266Y-71266685D02*
X103119314Y-71266685D01*
X103119314Y-71266685D02*
X103166933Y-71290495D01*
X103166933Y-71290495D02*
X103190742Y-71314304D01*
X103190742Y-71314304D02*
X103214552Y-71361923D01*
X103214552Y-71361923D02*
X103214552Y-71480971D01*
X103214552Y-71480971D02*
X103190742Y-71528590D01*
X103190742Y-71528590D02*
X103166933Y-71552400D01*
X103166933Y-71552400D02*
X103119314Y-71576209D01*
X103119314Y-71576209D02*
X103000266Y-71576209D01*
X103000266Y-71576209D02*
X102952647Y-71552400D01*
X102952647Y-71552400D02*
X102928838Y-71528590D01*
X96096971Y-61162590D02*
X96073162Y-61186400D01*
X96073162Y-61186400D02*
X96001733Y-61210209D01*
X96001733Y-61210209D02*
X95954114Y-61210209D01*
X95954114Y-61210209D02*
X95882686Y-61186400D01*
X95882686Y-61186400D02*
X95835067Y-61138780D01*
X95835067Y-61138780D02*
X95811257Y-61091161D01*
X95811257Y-61091161D02*
X95787448Y-60995923D01*
X95787448Y-60995923D02*
X95787448Y-60924495D01*
X95787448Y-60924495D02*
X95811257Y-60829257D01*
X95811257Y-60829257D02*
X95835067Y-60781638D01*
X95835067Y-60781638D02*
X95882686Y-60734019D01*
X95882686Y-60734019D02*
X95954114Y-60710209D01*
X95954114Y-60710209D02*
X96001733Y-60710209D01*
X96001733Y-60710209D02*
X96073162Y-60734019D01*
X96073162Y-60734019D02*
X96096971Y-60757828D01*
X96287448Y-60757828D02*
X96311257Y-60734019D01*
X96311257Y-60734019D02*
X96358876Y-60710209D01*
X96358876Y-60710209D02*
X96477924Y-60710209D01*
X96477924Y-60710209D02*
X96525543Y-60734019D01*
X96525543Y-60734019D02*
X96549352Y-60757828D01*
X96549352Y-60757828D02*
X96573162Y-60805447D01*
X96573162Y-60805447D02*
X96573162Y-60853066D01*
X96573162Y-60853066D02*
X96549352Y-60924495D01*
X96549352Y-60924495D02*
X96263638Y-61210209D01*
X96263638Y-61210209D02*
X96573162Y-61210209D01*
X96763638Y-60757828D02*
X96787447Y-60734019D01*
X96787447Y-60734019D02*
X96835066Y-60710209D01*
X96835066Y-60710209D02*
X96954114Y-60710209D01*
X96954114Y-60710209D02*
X97001733Y-60734019D01*
X97001733Y-60734019D02*
X97025542Y-60757828D01*
X97025542Y-60757828D02*
X97049352Y-60805447D01*
X97049352Y-60805447D02*
X97049352Y-60853066D01*
X97049352Y-60853066D02*
X97025542Y-60924495D01*
X97025542Y-60924495D02*
X96739828Y-61210209D01*
X96739828Y-61210209D02*
X97049352Y-61210209D01*
X76284971Y-61365790D02*
X76261162Y-61389600D01*
X76261162Y-61389600D02*
X76189733Y-61413409D01*
X76189733Y-61413409D02*
X76142114Y-61413409D01*
X76142114Y-61413409D02*
X76070686Y-61389600D01*
X76070686Y-61389600D02*
X76023067Y-61341980D01*
X76023067Y-61341980D02*
X75999257Y-61294361D01*
X75999257Y-61294361D02*
X75975448Y-61199123D01*
X75975448Y-61199123D02*
X75975448Y-61127695D01*
X75975448Y-61127695D02*
X75999257Y-61032457D01*
X75999257Y-61032457D02*
X76023067Y-60984838D01*
X76023067Y-60984838D02*
X76070686Y-60937219D01*
X76070686Y-60937219D02*
X76142114Y-60913409D01*
X76142114Y-60913409D02*
X76189733Y-60913409D01*
X76189733Y-60913409D02*
X76261162Y-60937219D01*
X76261162Y-60937219D02*
X76284971Y-60961028D01*
X76761162Y-61413409D02*
X76475448Y-61413409D01*
X76618305Y-61413409D02*
X76618305Y-60913409D01*
X76618305Y-60913409D02*
X76570686Y-60984838D01*
X76570686Y-60984838D02*
X76523067Y-61032457D01*
X76523067Y-61032457D02*
X76475448Y-61056266D01*
X77237352Y-61413409D02*
X76951638Y-61413409D01*
X77094495Y-61413409D02*
X77094495Y-60913409D01*
X77094495Y-60913409D02*
X77046876Y-60984838D01*
X77046876Y-60984838D02*
X76999257Y-61032457D01*
X76999257Y-61032457D02*
X76951638Y-61056266D01*
X80990790Y-74394733D02*
X81014600Y-74418542D01*
X81014600Y-74418542D02*
X81038409Y-74489971D01*
X81038409Y-74489971D02*
X81038409Y-74537590D01*
X81038409Y-74537590D02*
X81014600Y-74609018D01*
X81014600Y-74609018D02*
X80966980Y-74656637D01*
X80966980Y-74656637D02*
X80919361Y-74680447D01*
X80919361Y-74680447D02*
X80824123Y-74704256D01*
X80824123Y-74704256D02*
X80752695Y-74704256D01*
X80752695Y-74704256D02*
X80657457Y-74680447D01*
X80657457Y-74680447D02*
X80609838Y-74656637D01*
X80609838Y-74656637D02*
X80562219Y-74609018D01*
X80562219Y-74609018D02*
X80538409Y-74537590D01*
X80538409Y-74537590D02*
X80538409Y-74489971D01*
X80538409Y-74489971D02*
X80562219Y-74418542D01*
X80562219Y-74418542D02*
X80586028Y-74394733D01*
X81038409Y-73918542D02*
X81038409Y-74204256D01*
X81038409Y-74061399D02*
X80538409Y-74061399D01*
X80538409Y-74061399D02*
X80609838Y-74109018D01*
X80609838Y-74109018D02*
X80657457Y-74156637D01*
X80657457Y-74156637D02*
X80681266Y-74204256D01*
X89797771Y-54507790D02*
X89773962Y-54531600D01*
X89773962Y-54531600D02*
X89702533Y-54555409D01*
X89702533Y-54555409D02*
X89654914Y-54555409D01*
X89654914Y-54555409D02*
X89583486Y-54531600D01*
X89583486Y-54531600D02*
X89535867Y-54483980D01*
X89535867Y-54483980D02*
X89512057Y-54436361D01*
X89512057Y-54436361D02*
X89488248Y-54341123D01*
X89488248Y-54341123D02*
X89488248Y-54269695D01*
X89488248Y-54269695D02*
X89512057Y-54174457D01*
X89512057Y-54174457D02*
X89535867Y-54126838D01*
X89535867Y-54126838D02*
X89583486Y-54079219D01*
X89583486Y-54079219D02*
X89654914Y-54055409D01*
X89654914Y-54055409D02*
X89702533Y-54055409D01*
X89702533Y-54055409D02*
X89773962Y-54079219D01*
X89773962Y-54079219D02*
X89797771Y-54103028D01*
X90273962Y-54555409D02*
X89988248Y-54555409D01*
X90131105Y-54555409D02*
X90131105Y-54055409D01*
X90131105Y-54055409D02*
X90083486Y-54126838D01*
X90083486Y-54126838D02*
X90035867Y-54174457D01*
X90035867Y-54174457D02*
X89988248Y-54198266D01*
X90440628Y-54055409D02*
X90773961Y-54055409D01*
X90773961Y-54055409D02*
X90559676Y-54555409D01*
X97847885Y-71883828D02*
X97800266Y-71860019D01*
X97800266Y-71860019D02*
X97752647Y-71812400D01*
X97752647Y-71812400D02*
X97681219Y-71740971D01*
X97681219Y-71740971D02*
X97633600Y-71717161D01*
X97633600Y-71717161D02*
X97585981Y-71717161D01*
X97609790Y-71836209D02*
X97562171Y-71812400D01*
X97562171Y-71812400D02*
X97514552Y-71764780D01*
X97514552Y-71764780D02*
X97490743Y-71669542D01*
X97490743Y-71669542D02*
X97490743Y-71502876D01*
X97490743Y-71502876D02*
X97514552Y-71407638D01*
X97514552Y-71407638D02*
X97562171Y-71360019D01*
X97562171Y-71360019D02*
X97609790Y-71336209D01*
X97609790Y-71336209D02*
X97705028Y-71336209D01*
X97705028Y-71336209D02*
X97752647Y-71360019D01*
X97752647Y-71360019D02*
X97800266Y-71407638D01*
X97800266Y-71407638D02*
X97824076Y-71502876D01*
X97824076Y-71502876D02*
X97824076Y-71669542D01*
X97824076Y-71669542D02*
X97800266Y-71764780D01*
X97800266Y-71764780D02*
X97752647Y-71812400D01*
X97752647Y-71812400D02*
X97705028Y-71836209D01*
X97705028Y-71836209D02*
X97609790Y-71836209D01*
X98300267Y-71836209D02*
X98014553Y-71836209D01*
X98157410Y-71836209D02*
X98157410Y-71336209D01*
X98157410Y-71336209D02*
X98109791Y-71407638D01*
X98109791Y-71407638D02*
X98062172Y-71455257D01*
X98062172Y-71455257D02*
X98014553Y-71479066D01*
X98490743Y-71383828D02*
X98514552Y-71360019D01*
X98514552Y-71360019D02*
X98562171Y-71336209D01*
X98562171Y-71336209D02*
X98681219Y-71336209D01*
X98681219Y-71336209D02*
X98728838Y-71360019D01*
X98728838Y-71360019D02*
X98752647Y-71383828D01*
X98752647Y-71383828D02*
X98776457Y-71431447D01*
X98776457Y-71431447D02*
X98776457Y-71479066D01*
X98776457Y-71479066D02*
X98752647Y-71550495D01*
X98752647Y-71550495D02*
X98466933Y-71836209D01*
X98466933Y-71836209D02*
X98776457Y-71836209D01*
X83838266Y-56943009D02*
X83600171Y-56943009D01*
X83600171Y-56943009D02*
X83600171Y-56443009D01*
X84266838Y-56943009D02*
X83981124Y-56943009D01*
X84123981Y-56943009D02*
X84123981Y-56443009D01*
X84123981Y-56443009D02*
X84076362Y-56514438D01*
X84076362Y-56514438D02*
X84028743Y-56562057D01*
X84028743Y-56562057D02*
X83981124Y-56585866D01*
X90813771Y-51408990D02*
X90789962Y-51432800D01*
X90789962Y-51432800D02*
X90718533Y-51456609D01*
X90718533Y-51456609D02*
X90670914Y-51456609D01*
X90670914Y-51456609D02*
X90599486Y-51432800D01*
X90599486Y-51432800D02*
X90551867Y-51385180D01*
X90551867Y-51385180D02*
X90528057Y-51337561D01*
X90528057Y-51337561D02*
X90504248Y-51242323D01*
X90504248Y-51242323D02*
X90504248Y-51170895D01*
X90504248Y-51170895D02*
X90528057Y-51075657D01*
X90528057Y-51075657D02*
X90551867Y-51028038D01*
X90551867Y-51028038D02*
X90599486Y-50980419D01*
X90599486Y-50980419D02*
X90670914Y-50956609D01*
X90670914Y-50956609D02*
X90718533Y-50956609D01*
X90718533Y-50956609D02*
X90789962Y-50980419D01*
X90789962Y-50980419D02*
X90813771Y-51004228D01*
X91289962Y-51456609D02*
X91004248Y-51456609D01*
X91147105Y-51456609D02*
X91147105Y-50956609D01*
X91147105Y-50956609D02*
X91099486Y-51028038D01*
X91099486Y-51028038D02*
X91051867Y-51075657D01*
X91051867Y-51075657D02*
X91004248Y-51099466D01*
X91718533Y-50956609D02*
X91623295Y-50956609D01*
X91623295Y-50956609D02*
X91575676Y-50980419D01*
X91575676Y-50980419D02*
X91551866Y-51004228D01*
X91551866Y-51004228D02*
X91504247Y-51075657D01*
X91504247Y-51075657D02*
X91480438Y-51170895D01*
X91480438Y-51170895D02*
X91480438Y-51361371D01*
X91480438Y-51361371D02*
X91504247Y-51408990D01*
X91504247Y-51408990D02*
X91528057Y-51432800D01*
X91528057Y-51432800D02*
X91575676Y-51456609D01*
X91575676Y-51456609D02*
X91670914Y-51456609D01*
X91670914Y-51456609D02*
X91718533Y-51432800D01*
X91718533Y-51432800D02*
X91742342Y-51408990D01*
X91742342Y-51408990D02*
X91766152Y-51361371D01*
X91766152Y-51361371D02*
X91766152Y-51242323D01*
X91766152Y-51242323D02*
X91742342Y-51194704D01*
X91742342Y-51194704D02*
X91718533Y-51170895D01*
X91718533Y-51170895D02*
X91670914Y-51147085D01*
X91670914Y-51147085D02*
X91575676Y-51147085D01*
X91575676Y-51147085D02*
X91528057Y-51170895D01*
X91528057Y-51170895D02*
X91504247Y-51194704D01*
X91504247Y-51194704D02*
X91480438Y-51242323D01*
X89223066Y-78993390D02*
X89199257Y-79017200D01*
X89199257Y-79017200D02*
X89127828Y-79041009D01*
X89127828Y-79041009D02*
X89080209Y-79041009D01*
X89080209Y-79041009D02*
X89008781Y-79017200D01*
X89008781Y-79017200D02*
X88961162Y-78969580D01*
X88961162Y-78969580D02*
X88937352Y-78921961D01*
X88937352Y-78921961D02*
X88913543Y-78826723D01*
X88913543Y-78826723D02*
X88913543Y-78755295D01*
X88913543Y-78755295D02*
X88937352Y-78660057D01*
X88937352Y-78660057D02*
X88961162Y-78612438D01*
X88961162Y-78612438D02*
X89008781Y-78564819D01*
X89008781Y-78564819D02*
X89080209Y-78541009D01*
X89080209Y-78541009D02*
X89127828Y-78541009D01*
X89127828Y-78541009D02*
X89199257Y-78564819D01*
X89199257Y-78564819D02*
X89223066Y-78588628D01*
X89389733Y-78541009D02*
X89723066Y-78541009D01*
X89723066Y-78541009D02*
X89508781Y-79041009D01*
X87394266Y-51355009D02*
X87227600Y-51116914D01*
X87108552Y-51355009D02*
X87108552Y-50855009D01*
X87108552Y-50855009D02*
X87299028Y-50855009D01*
X87299028Y-50855009D02*
X87346647Y-50878819D01*
X87346647Y-50878819D02*
X87370457Y-50902628D01*
X87370457Y-50902628D02*
X87394266Y-50950247D01*
X87394266Y-50950247D02*
X87394266Y-51021676D01*
X87394266Y-51021676D02*
X87370457Y-51069295D01*
X87370457Y-51069295D02*
X87346647Y-51093104D01*
X87346647Y-51093104D02*
X87299028Y-51116914D01*
X87299028Y-51116914D02*
X87108552Y-51116914D01*
X87632362Y-51355009D02*
X87727600Y-51355009D01*
X87727600Y-51355009D02*
X87775219Y-51331200D01*
X87775219Y-51331200D02*
X87799028Y-51307390D01*
X87799028Y-51307390D02*
X87846647Y-51235961D01*
X87846647Y-51235961D02*
X87870457Y-51140723D01*
X87870457Y-51140723D02*
X87870457Y-50950247D01*
X87870457Y-50950247D02*
X87846647Y-50902628D01*
X87846647Y-50902628D02*
X87822838Y-50878819D01*
X87822838Y-50878819D02*
X87775219Y-50855009D01*
X87775219Y-50855009D02*
X87679981Y-50855009D01*
X87679981Y-50855009D02*
X87632362Y-50878819D01*
X87632362Y-50878819D02*
X87608552Y-50902628D01*
X87608552Y-50902628D02*
X87584743Y-50950247D01*
X87584743Y-50950247D02*
X87584743Y-51069295D01*
X87584743Y-51069295D02*
X87608552Y-51116914D01*
X87608552Y-51116914D02*
X87632362Y-51140723D01*
X87632362Y-51140723D02*
X87679981Y-51164533D01*
X87679981Y-51164533D02*
X87775219Y-51164533D01*
X87775219Y-51164533D02*
X87822838Y-51140723D01*
X87822838Y-51140723D02*
X87846647Y-51116914D01*
X87846647Y-51116914D02*
X87870457Y-51069295D01*
D12*
X105618419Y-57864733D02*
X106332704Y-57864733D01*
X106332704Y-57864733D02*
X106475561Y-57912352D01*
X106475561Y-57912352D02*
X106570800Y-58007590D01*
X106570800Y-58007590D02*
X106618419Y-58150447D01*
X106618419Y-58150447D02*
X106618419Y-58245685D01*
X105951752Y-56959971D02*
X106618419Y-56959971D01*
X105570800Y-57198066D02*
X106285085Y-57436161D01*
X106285085Y-57436161D02*
X106285085Y-56817114D01*
D13*
X92439371Y-51815390D02*
X92415562Y-51839200D01*
X92415562Y-51839200D02*
X92344133Y-51863009D01*
X92344133Y-51863009D02*
X92296514Y-51863009D01*
X92296514Y-51863009D02*
X92225086Y-51839200D01*
X92225086Y-51839200D02*
X92177467Y-51791580D01*
X92177467Y-51791580D02*
X92153657Y-51743961D01*
X92153657Y-51743961D02*
X92129848Y-51648723D01*
X92129848Y-51648723D02*
X92129848Y-51577295D01*
X92129848Y-51577295D02*
X92153657Y-51482057D01*
X92153657Y-51482057D02*
X92177467Y-51434438D01*
X92177467Y-51434438D02*
X92225086Y-51386819D01*
X92225086Y-51386819D02*
X92296514Y-51363009D01*
X92296514Y-51363009D02*
X92344133Y-51363009D01*
X92344133Y-51363009D02*
X92415562Y-51386819D01*
X92415562Y-51386819D02*
X92439371Y-51410628D01*
X92915562Y-51863009D02*
X92629848Y-51863009D01*
X92772705Y-51863009D02*
X92772705Y-51363009D01*
X92772705Y-51363009D02*
X92725086Y-51434438D01*
X92725086Y-51434438D02*
X92677467Y-51482057D01*
X92677467Y-51482057D02*
X92629848Y-51505866D01*
X93153657Y-51863009D02*
X93248895Y-51863009D01*
X93248895Y-51863009D02*
X93296514Y-51839200D01*
X93296514Y-51839200D02*
X93320323Y-51815390D01*
X93320323Y-51815390D02*
X93367942Y-51743961D01*
X93367942Y-51743961D02*
X93391752Y-51648723D01*
X93391752Y-51648723D02*
X93391752Y-51458247D01*
X93391752Y-51458247D02*
X93367942Y-51410628D01*
X93367942Y-51410628D02*
X93344133Y-51386819D01*
X93344133Y-51386819D02*
X93296514Y-51363009D01*
X93296514Y-51363009D02*
X93201276Y-51363009D01*
X93201276Y-51363009D02*
X93153657Y-51386819D01*
X93153657Y-51386819D02*
X93129847Y-51410628D01*
X93129847Y-51410628D02*
X93106038Y-51458247D01*
X93106038Y-51458247D02*
X93106038Y-51577295D01*
X93106038Y-51577295D02*
X93129847Y-51624914D01*
X93129847Y-51624914D02*
X93153657Y-51648723D01*
X93153657Y-51648723D02*
X93201276Y-51672533D01*
X93201276Y-51672533D02*
X93296514Y-51672533D01*
X93296514Y-51672533D02*
X93344133Y-51648723D01*
X93344133Y-51648723D02*
X93367942Y-51624914D01*
X93367942Y-51624914D02*
X93391752Y-51577295D01*
X85602171Y-59148590D02*
X85578362Y-59172400D01*
X85578362Y-59172400D02*
X85506933Y-59196209D01*
X85506933Y-59196209D02*
X85459314Y-59196209D01*
X85459314Y-59196209D02*
X85387886Y-59172400D01*
X85387886Y-59172400D02*
X85340267Y-59124780D01*
X85340267Y-59124780D02*
X85316457Y-59077161D01*
X85316457Y-59077161D02*
X85292648Y-58981923D01*
X85292648Y-58981923D02*
X85292648Y-58910495D01*
X85292648Y-58910495D02*
X85316457Y-58815257D01*
X85316457Y-58815257D02*
X85340267Y-58767638D01*
X85340267Y-58767638D02*
X85387886Y-58720019D01*
X85387886Y-58720019D02*
X85459314Y-58696209D01*
X85459314Y-58696209D02*
X85506933Y-58696209D01*
X85506933Y-58696209D02*
X85578362Y-58720019D01*
X85578362Y-58720019D02*
X85602171Y-58743828D01*
X86078362Y-59196209D02*
X85792648Y-59196209D01*
X85935505Y-59196209D02*
X85935505Y-58696209D01*
X85935505Y-58696209D02*
X85887886Y-58767638D01*
X85887886Y-58767638D02*
X85840267Y-58815257D01*
X85840267Y-58815257D02*
X85792648Y-58839066D01*
X86268838Y-58743828D02*
X86292647Y-58720019D01*
X86292647Y-58720019D02*
X86340266Y-58696209D01*
X86340266Y-58696209D02*
X86459314Y-58696209D01*
X86459314Y-58696209D02*
X86506933Y-58720019D01*
X86506933Y-58720019D02*
X86530742Y-58743828D01*
X86530742Y-58743828D02*
X86554552Y-58791447D01*
X86554552Y-58791447D02*
X86554552Y-58839066D01*
X86554552Y-58839066D02*
X86530742Y-58910495D01*
X86530742Y-58910495D02*
X86245028Y-59196209D01*
X86245028Y-59196209D02*
X86554552Y-59196209D01*
X70019943Y-77372609D02*
X70305657Y-77372609D01*
X70162800Y-77872609D02*
X70162800Y-77372609D01*
X70472323Y-77872609D02*
X70472323Y-77372609D01*
X70472323Y-77610704D02*
X70758037Y-77610704D01*
X70758037Y-77872609D02*
X70758037Y-77372609D01*
X71258038Y-77872609D02*
X70972324Y-77872609D01*
X71115181Y-77872609D02*
X71115181Y-77372609D01*
X71115181Y-77372609D02*
X71067562Y-77444038D01*
X71067562Y-77444038D02*
X71019943Y-77491657D01*
X71019943Y-77491657D02*
X70972324Y-77515466D01*
X69867543Y-69651009D02*
X70153257Y-69651009D01*
X70010400Y-70151009D02*
X70010400Y-69651009D01*
X70319923Y-70151009D02*
X70319923Y-69651009D01*
X70319923Y-69889104D02*
X70605637Y-69889104D01*
X70605637Y-70151009D02*
X70605637Y-69651009D01*
X71058019Y-69817676D02*
X71058019Y-70151009D01*
X70938971Y-69627200D02*
X70819924Y-69984342D01*
X70819924Y-69984342D02*
X71129447Y-69984342D01*
X94930266Y-63218590D02*
X94906457Y-63242400D01*
X94906457Y-63242400D02*
X94835028Y-63266209D01*
X94835028Y-63266209D02*
X94787409Y-63266209D01*
X94787409Y-63266209D02*
X94715981Y-63242400D01*
X94715981Y-63242400D02*
X94668362Y-63194780D01*
X94668362Y-63194780D02*
X94644552Y-63147161D01*
X94644552Y-63147161D02*
X94620743Y-63051923D01*
X94620743Y-63051923D02*
X94620743Y-62980495D01*
X94620743Y-62980495D02*
X94644552Y-62885257D01*
X94644552Y-62885257D02*
X94668362Y-62837638D01*
X94668362Y-62837638D02*
X94715981Y-62790019D01*
X94715981Y-62790019D02*
X94787409Y-62766209D01*
X94787409Y-62766209D02*
X94835028Y-62766209D01*
X94835028Y-62766209D02*
X94906457Y-62790019D01*
X94906457Y-62790019D02*
X94930266Y-62813828D01*
X95120743Y-62813828D02*
X95144552Y-62790019D01*
X95144552Y-62790019D02*
X95192171Y-62766209D01*
X95192171Y-62766209D02*
X95311219Y-62766209D01*
X95311219Y-62766209D02*
X95358838Y-62790019D01*
X95358838Y-62790019D02*
X95382647Y-62813828D01*
X95382647Y-62813828D02*
X95406457Y-62861447D01*
X95406457Y-62861447D02*
X95406457Y-62909066D01*
X95406457Y-62909066D02*
X95382647Y-62980495D01*
X95382647Y-62980495D02*
X95096933Y-63266209D01*
X95096933Y-63266209D02*
X95406457Y-63266209D01*
X78243952Y-54453809D02*
X78243952Y-53953809D01*
X78243952Y-53953809D02*
X78363000Y-53953809D01*
X78363000Y-53953809D02*
X78434428Y-53977619D01*
X78434428Y-53977619D02*
X78482047Y-54025238D01*
X78482047Y-54025238D02*
X78505857Y-54072857D01*
X78505857Y-54072857D02*
X78529666Y-54168095D01*
X78529666Y-54168095D02*
X78529666Y-54239523D01*
X78529666Y-54239523D02*
X78505857Y-54334761D01*
X78505857Y-54334761D02*
X78482047Y-54382380D01*
X78482047Y-54382380D02*
X78434428Y-54430000D01*
X78434428Y-54430000D02*
X78363000Y-54453809D01*
X78363000Y-54453809D02*
X78243952Y-54453809D01*
X79005857Y-54453809D02*
X78720143Y-54453809D01*
X78863000Y-54453809D02*
X78863000Y-53953809D01*
X78863000Y-53953809D02*
X78815381Y-54025238D01*
X78815381Y-54025238D02*
X78767762Y-54072857D01*
X78767762Y-54072857D02*
X78720143Y-54096666D01*
D14*
X95742943Y-73667885D02*
X95642943Y-73525028D01*
X95571514Y-73667885D02*
X95571514Y-73367885D01*
X95571514Y-73367885D02*
X95685800Y-73367885D01*
X95685800Y-73367885D02*
X95714371Y-73382171D01*
X95714371Y-73382171D02*
X95728657Y-73396457D01*
X95728657Y-73396457D02*
X95742943Y-73425028D01*
X95742943Y-73425028D02*
X95742943Y-73467885D01*
X95742943Y-73467885D02*
X95728657Y-73496457D01*
X95728657Y-73496457D02*
X95714371Y-73510742D01*
X95714371Y-73510742D02*
X95685800Y-73525028D01*
X95685800Y-73525028D02*
X95571514Y-73525028D01*
X95842943Y-73367885D02*
X96028657Y-73367885D01*
X96028657Y-73367885D02*
X95928657Y-73482171D01*
X95928657Y-73482171D02*
X95971514Y-73482171D01*
X95971514Y-73482171D02*
X96000086Y-73496457D01*
X96000086Y-73496457D02*
X96014371Y-73510742D01*
X96014371Y-73510742D02*
X96028657Y-73539314D01*
X96028657Y-73539314D02*
X96028657Y-73610742D01*
X96028657Y-73610742D02*
X96014371Y-73639314D01*
X96014371Y-73639314D02*
X96000086Y-73653600D01*
X96000086Y-73653600D02*
X95971514Y-73667885D01*
X95971514Y-73667885D02*
X95885800Y-73667885D01*
X95885800Y-73667885D02*
X95857228Y-73653600D01*
X95857228Y-73653600D02*
X95842943Y-73639314D01*
X96142942Y-73396457D02*
X96157228Y-73382171D01*
X96157228Y-73382171D02*
X96185800Y-73367885D01*
X96185800Y-73367885D02*
X96257228Y-73367885D01*
X96257228Y-73367885D02*
X96285800Y-73382171D01*
X96285800Y-73382171D02*
X96300085Y-73396457D01*
X96300085Y-73396457D02*
X96314371Y-73425028D01*
X96314371Y-73425028D02*
X96314371Y-73453600D01*
X96314371Y-73453600D02*
X96300085Y-73496457D01*
X96300085Y-73496457D02*
X96128657Y-73667885D01*
X96128657Y-73667885D02*
X96314371Y-73667885D01*
D13*
X78758266Y-73303790D02*
X78734457Y-73327600D01*
X78734457Y-73327600D02*
X78663028Y-73351409D01*
X78663028Y-73351409D02*
X78615409Y-73351409D01*
X78615409Y-73351409D02*
X78543981Y-73327600D01*
X78543981Y-73327600D02*
X78496362Y-73279980D01*
X78496362Y-73279980D02*
X78472552Y-73232361D01*
X78472552Y-73232361D02*
X78448743Y-73137123D01*
X78448743Y-73137123D02*
X78448743Y-73065695D01*
X78448743Y-73065695D02*
X78472552Y-72970457D01*
X78472552Y-72970457D02*
X78496362Y-72922838D01*
X78496362Y-72922838D02*
X78543981Y-72875219D01*
X78543981Y-72875219D02*
X78615409Y-72851409D01*
X78615409Y-72851409D02*
X78663028Y-72851409D01*
X78663028Y-72851409D02*
X78734457Y-72875219D01*
X78734457Y-72875219D02*
X78758266Y-72899028D01*
X79043981Y-73065695D02*
X78996362Y-73041885D01*
X78996362Y-73041885D02*
X78972552Y-73018076D01*
X78972552Y-73018076D02*
X78948743Y-72970457D01*
X78948743Y-72970457D02*
X78948743Y-72946647D01*
X78948743Y-72946647D02*
X78972552Y-72899028D01*
X78972552Y-72899028D02*
X78996362Y-72875219D01*
X78996362Y-72875219D02*
X79043981Y-72851409D01*
X79043981Y-72851409D02*
X79139219Y-72851409D01*
X79139219Y-72851409D02*
X79186838Y-72875219D01*
X79186838Y-72875219D02*
X79210647Y-72899028D01*
X79210647Y-72899028D02*
X79234457Y-72946647D01*
X79234457Y-72946647D02*
X79234457Y-72970457D01*
X79234457Y-72970457D02*
X79210647Y-73018076D01*
X79210647Y-73018076D02*
X79186838Y-73041885D01*
X79186838Y-73041885D02*
X79139219Y-73065695D01*
X79139219Y-73065695D02*
X79043981Y-73065695D01*
X79043981Y-73065695D02*
X78996362Y-73089504D01*
X78996362Y-73089504D02*
X78972552Y-73113314D01*
X78972552Y-73113314D02*
X78948743Y-73160933D01*
X78948743Y-73160933D02*
X78948743Y-73256171D01*
X78948743Y-73256171D02*
X78972552Y-73303790D01*
X78972552Y-73303790D02*
X78996362Y-73327600D01*
X78996362Y-73327600D02*
X79043981Y-73351409D01*
X79043981Y-73351409D02*
X79139219Y-73351409D01*
X79139219Y-73351409D02*
X79186838Y-73327600D01*
X79186838Y-73327600D02*
X79210647Y-73303790D01*
X79210647Y-73303790D02*
X79234457Y-73256171D01*
X79234457Y-73256171D02*
X79234457Y-73160933D01*
X79234457Y-73160933D02*
X79210647Y-73113314D01*
X79210647Y-73113314D02*
X79186838Y-73089504D01*
X79186838Y-73089504D02*
X79139219Y-73065695D01*
X76269066Y-77415409D02*
X76102400Y-77177314D01*
X75983352Y-77415409D02*
X75983352Y-76915409D01*
X75983352Y-76915409D02*
X76173828Y-76915409D01*
X76173828Y-76915409D02*
X76221447Y-76939219D01*
X76221447Y-76939219D02*
X76245257Y-76963028D01*
X76245257Y-76963028D02*
X76269066Y-77010647D01*
X76269066Y-77010647D02*
X76269066Y-77082076D01*
X76269066Y-77082076D02*
X76245257Y-77129695D01*
X76245257Y-77129695D02*
X76221447Y-77153504D01*
X76221447Y-77153504D02*
X76173828Y-77177314D01*
X76173828Y-77177314D02*
X75983352Y-77177314D01*
X76745257Y-77415409D02*
X76459543Y-77415409D01*
X76602400Y-77415409D02*
X76602400Y-76915409D01*
X76602400Y-76915409D02*
X76554781Y-76986838D01*
X76554781Y-76986838D02*
X76507162Y-77034457D01*
X76507162Y-77034457D02*
X76459543Y-77058266D01*
X90340666Y-79044190D02*
X90316857Y-79068000D01*
X90316857Y-79068000D02*
X90245428Y-79091809D01*
X90245428Y-79091809D02*
X90197809Y-79091809D01*
X90197809Y-79091809D02*
X90126381Y-79068000D01*
X90126381Y-79068000D02*
X90078762Y-79020380D01*
X90078762Y-79020380D02*
X90054952Y-78972761D01*
X90054952Y-78972761D02*
X90031143Y-78877523D01*
X90031143Y-78877523D02*
X90031143Y-78806095D01*
X90031143Y-78806095D02*
X90054952Y-78710857D01*
X90054952Y-78710857D02*
X90078762Y-78663238D01*
X90078762Y-78663238D02*
X90126381Y-78615619D01*
X90126381Y-78615619D02*
X90197809Y-78591809D01*
X90197809Y-78591809D02*
X90245428Y-78591809D01*
X90245428Y-78591809D02*
X90316857Y-78615619D01*
X90316857Y-78615619D02*
X90340666Y-78639428D01*
X90769238Y-78758476D02*
X90769238Y-79091809D01*
X90650190Y-78568000D02*
X90531143Y-78925142D01*
X90531143Y-78925142D02*
X90840666Y-78925142D01*
D17*
%TO.C,U1*%
X91286800Y-63607800D02*
X90336800Y-63607800D01*
X90336800Y-63607800D02*
X90336800Y-62267800D01*
X81066800Y-63607800D02*
X82016800Y-63607800D01*
X91286800Y-64557800D02*
X91286800Y-63607800D01*
X81066800Y-64557800D02*
X81066800Y-63607800D01*
X91286800Y-72877800D02*
X91286800Y-73827800D01*
X81066800Y-72877800D02*
X81066800Y-73827800D01*
X91286800Y-73827800D02*
X90336800Y-73827800D01*
X81066800Y-73827800D02*
X82016800Y-73827800D01*
%TO.C,SW1*%
X98668600Y-80835000D02*
X98668600Y-81625000D01*
X99268600Y-82635000D02*
X104968600Y-82635000D01*
X100518600Y-79785000D02*
X102218600Y-79785000D01*
X100718600Y-82635000D02*
X100718600Y-83925000D01*
X100718600Y-83925000D02*
X100918600Y-84135000D01*
X100918600Y-84135000D02*
X101818600Y-84135000D01*
X102018600Y-83925000D02*
X101818600Y-84135000D01*
X102018600Y-83925000D02*
X102018600Y-82635000D01*
X103518600Y-79785000D02*
X103718600Y-79785000D01*
X105568600Y-81625000D02*
X105568600Y-80835000D01*
%TO.C,C15*%
X90104965Y-47036400D02*
X90336635Y-47036400D01*
X90104965Y-47756400D02*
X90336635Y-47756400D01*
%TO.C,R6*%
X94106000Y-46923979D02*
X94106000Y-47259221D01*
X93346000Y-46923979D02*
X93346000Y-47259221D01*
%TO.C,Q1*%
X86258400Y-53964400D02*
X84583400Y-53964400D01*
X86258400Y-53964400D02*
X86908400Y-53964400D01*
X86258400Y-57084400D02*
X85608400Y-57084400D01*
X86258400Y-57084400D02*
X86908400Y-57084400D01*
%TO.C,R4*%
X77231221Y-69391800D02*
X76895979Y-69391800D01*
X77231221Y-68631800D02*
X76895979Y-68631800D01*
%TO.C,C10*%
X82387800Y-59715035D02*
X82387800Y-59483365D01*
X83107800Y-59715035D02*
X83107800Y-59483365D01*
%TO.C,C6*%
X92420800Y-63355935D02*
X92420800Y-63124265D01*
X93140800Y-63355935D02*
X93140800Y-63124265D01*
%TO.C,J1*%
X105503600Y-77931400D02*
X105503600Y-76511400D01*
X117223600Y-77931400D02*
X105503600Y-77931400D01*
X105503600Y-76511400D02*
X110003600Y-76511400D01*
X110003600Y-76511400D02*
X110003600Y-70371400D01*
X105813600Y-75671400D02*
X105813600Y-75071400D01*
X111113600Y-75621400D02*
X116613600Y-75621400D01*
X116613600Y-75621400D02*
X116613600Y-75121400D01*
X106413600Y-75371400D02*
X105813600Y-75671400D01*
X111113600Y-75121400D02*
X111113600Y-75621400D01*
X116613600Y-75121400D02*
X111113600Y-75121400D01*
X105813600Y-75071400D02*
X106413600Y-75371400D01*
X111113600Y-73121400D02*
X116613600Y-73121400D01*
X116613600Y-73121400D02*
X116613600Y-72621400D01*
X111113600Y-72621400D02*
X111113600Y-73121400D01*
X116613600Y-72621400D02*
X111113600Y-72621400D01*
X111113600Y-70621400D02*
X116613600Y-70621400D01*
X116613600Y-70621400D02*
X116613600Y-70121400D01*
X117223600Y-70371400D02*
X117223600Y-77931400D01*
X117223600Y-70371400D02*
X117223600Y-62811400D01*
X111113600Y-70121400D02*
X111113600Y-70621400D01*
X116613600Y-70121400D02*
X111113600Y-70121400D01*
X111113600Y-68121400D02*
X116613600Y-68121400D01*
X116613600Y-68121400D02*
X116613600Y-67621400D01*
X111113600Y-67621400D02*
X111113600Y-68121400D01*
X116613600Y-67621400D02*
X111113600Y-67621400D01*
X111113600Y-65621400D02*
X116613600Y-65621400D01*
X116613600Y-65621400D02*
X116613600Y-65121400D01*
X111113600Y-65121400D02*
X111113600Y-65621400D01*
X116613600Y-65121400D02*
X111113600Y-65121400D01*
X105503600Y-64231400D02*
X110003600Y-64231400D01*
X110003600Y-64231400D02*
X110003600Y-70371400D01*
X105503600Y-62811400D02*
X105503600Y-64231400D01*
X117223600Y-62811400D02*
X105503600Y-62811400D01*
%TO.C,Q13*%
X100602291Y-74480491D02*
X98927291Y-74480491D01*
X100602291Y-74480491D02*
X101252291Y-74480491D01*
X100602291Y-77600491D02*
X99952291Y-77600491D01*
X100602291Y-77600491D02*
X101252291Y-77600491D01*
%TO.C,D6*%
X79833600Y-76836600D02*
X79833600Y-78306600D01*
X79833600Y-78306600D02*
X82118600Y-78306600D01*
X82118600Y-76836600D02*
X79833600Y-76836600D01*
%TO.C,R31*%
X95706476Y-72146900D02*
X96215924Y-72146900D01*
X95706476Y-73191900D02*
X96215924Y-73191900D01*
%TO.C,R11*%
X106374200Y-59141379D02*
X106374200Y-59476621D01*
X105614200Y-59141379D02*
X105614200Y-59476621D01*
%TO.C,C5*%
X77481165Y-62809800D02*
X77712835Y-62809800D01*
X77481165Y-63529800D02*
X77712835Y-63529800D01*
%TO.C,C20*%
X96039000Y-48114852D02*
X96039000Y-47592348D01*
X97509000Y-48114852D02*
X97509000Y-47592348D01*
%TO.C,F1*%
X80423936Y-54868400D02*
X81628064Y-54868400D01*
X80423936Y-56688400D02*
X81628064Y-56688400D01*
%TO.C,R36*%
X103517196Y-76763933D02*
X103517196Y-76254485D01*
X104562196Y-76763933D02*
X104562196Y-76254485D01*
%TO.C,C32*%
X88814000Y-61053236D02*
X88814000Y-60837564D01*
X89534000Y-61053236D02*
X89534000Y-60837564D01*
%TO.C,R10*%
X89982021Y-52551600D02*
X89646779Y-52551600D01*
X89982021Y-51791600D02*
X89646779Y-51791600D01*
%TO.C,FB1*%
X83293378Y-52195800D02*
X84092622Y-52195800D01*
X83293378Y-53315800D02*
X84092622Y-53315800D01*
%TO.C,C33*%
X88594200Y-60329564D02*
X88594200Y-60545236D01*
X87874200Y-60329564D02*
X87874200Y-60545236D01*
%TO.C,R33*%
X103517196Y-65363933D02*
X103517196Y-64854485D01*
X104562196Y-65363933D02*
X104562196Y-64854485D01*
%TO.C,R29*%
X95706476Y-68717900D02*
X96215924Y-68717900D01*
X95706476Y-69762900D02*
X96215924Y-69762900D01*
%TO.C,R3*%
X77358221Y-71754000D02*
X77022979Y-71754000D01*
X77358221Y-70994000D02*
X77022979Y-70994000D01*
%TO.C,R28*%
X87496600Y-60258959D02*
X87496600Y-60566241D01*
X86736600Y-60258959D02*
X86736600Y-60566241D01*
D18*
%TO.C,Y1*%
X90903600Y-59015600D02*
G75*
G03*
X90903600Y-59015600I-100000J0D01*
G01*
D17*
%TO.C,C3*%
X90816165Y-61068000D02*
X91047835Y-61068000D01*
X90816165Y-61788000D02*
X91047835Y-61788000D01*
%TO.C,Q11*%
X100576891Y-67546291D02*
X98901891Y-67546291D01*
X100576891Y-67546291D02*
X101226891Y-67546291D01*
X100576891Y-70666291D02*
X99926891Y-70666291D01*
X100576891Y-70666291D02*
X101226891Y-70666291D01*
%TO.C,R7*%
X90490021Y-49452800D02*
X90154779Y-49452800D01*
X90490021Y-48692800D02*
X90154779Y-48692800D01*
%TO.C,L2*%
X93021578Y-48614400D02*
X93820822Y-48614400D01*
X93021578Y-49734400D02*
X93820822Y-49734400D01*
%TO.C,C9*%
X81244800Y-59765835D02*
X81244800Y-59534165D01*
X81964800Y-59765835D02*
X81964800Y-59534165D01*
%TO.C,J2*%
X93522800Y-79899200D02*
X85842800Y-79899200D01*
X93522800Y-79899200D02*
X93522800Y-82559200D01*
X85842800Y-79899200D02*
X85842800Y-82559200D01*
X96122800Y-81229200D02*
X96122800Y-82559200D01*
X96122800Y-82559200D02*
X94792800Y-82559200D01*
X93522800Y-82559200D02*
X85842800Y-82559200D01*
%TO.C,U4*%
X86850725Y-49260875D02*
X88400125Y-49260875D01*
X88400125Y-46797075D02*
X86850725Y-46797075D01*
D15*
X86640187Y-46652013D02*
G75*
G03*
X86640187Y-46652013I-183162J0D01*
G01*
D17*
%TO.C,C23*%
X97407400Y-53688348D02*
X97407400Y-54210852D01*
X95937400Y-53688348D02*
X95937400Y-54210852D01*
%TO.C,C13*%
X79904000Y-52795435D02*
X79904000Y-52563765D01*
X80624000Y-52795435D02*
X80624000Y-52563765D01*
%TO.C,R34*%
X103517196Y-69763933D02*
X103517196Y-69254485D01*
X104562196Y-69763933D02*
X104562196Y-69254485D01*
%TO.C,J3*%
X80663600Y-50961400D02*
X80663600Y-45241400D01*
X80663600Y-45241400D02*
X78428600Y-45241400D01*
X79593600Y-50961400D02*
X80663600Y-50961400D01*
X79593600Y-50661400D02*
X79593600Y-50961400D01*
X79303600Y-51251400D02*
X79803600Y-51251400D01*
X79303600Y-50951400D02*
X79303600Y-51251400D01*
X78428600Y-50661400D02*
X79593600Y-50661400D01*
X78428600Y-50661400D02*
X77263600Y-50661400D01*
X77263600Y-50961400D02*
X76193600Y-50961400D01*
X77263600Y-50661400D02*
X77263600Y-50961400D01*
X76193600Y-50961400D02*
X76193600Y-45241400D01*
X76193600Y-45241400D02*
X78428600Y-45241400D01*
%TO.C,TH3*%
X74502600Y-73423200D02*
X71702600Y-73423200D01*
X74502600Y-69223200D02*
X71702600Y-69223200D01*
X74488636Y-73432441D02*
G75*
G03*
X74502600Y-69223201I-1386036J2109241D01*
G01*
X71716564Y-69213959D02*
G75*
G03*
X71702600Y-73423199I1386036J-2109241D01*
G01*
%TO.C,C14*%
X85136400Y-46674035D02*
X85136400Y-46442365D01*
X85856400Y-46674035D02*
X85856400Y-46442365D01*
%TO.C,Q10*%
X100579191Y-64091891D02*
X98904191Y-64091891D01*
X100579191Y-64091891D02*
X101229191Y-64091891D01*
X100579191Y-67211891D02*
X99929191Y-67211891D01*
X100579191Y-67211891D02*
X101229191Y-67211891D01*
%TO.C,R45*%
X103393221Y-55421800D02*
X103057979Y-55421800D01*
X103393221Y-54661800D02*
X103057979Y-54661800D01*
%TO.C,TH2*%
X74475800Y-75810800D02*
X71675800Y-75810800D01*
X74475800Y-71610800D02*
X71675800Y-71610800D01*
X74461836Y-75820041D02*
G75*
G03*
X74475800Y-71610801I-1386036J2109241D01*
G01*
X71689764Y-71601559D02*
G75*
G03*
X71675800Y-75810799I1386036J-2109241D01*
G01*
%TO.C,C21*%
X82653200Y-47886252D02*
X82653200Y-47363748D01*
X84123200Y-47886252D02*
X84123200Y-47363748D01*
%TO.C,R30*%
X95706476Y-70445100D02*
X96215924Y-70445100D01*
X95706476Y-71490100D02*
X96215924Y-71490100D01*
%TO.C,C18*%
X95375400Y-53688348D02*
X95375400Y-54210852D01*
X93905400Y-53688348D02*
X93905400Y-54210852D01*
%TO.C,R2*%
X77282021Y-73913000D02*
X76946779Y-73913000D01*
X77282021Y-73153000D02*
X76946779Y-73153000D01*
%TO.C,R5*%
X96114600Y-78983821D02*
X96114600Y-78648579D01*
X96874600Y-78983821D02*
X96874600Y-78648579D01*
%TO.C,U5*%
X98160400Y-45713600D02*
X104170400Y-45713600D01*
X100410400Y-52533600D02*
X104170400Y-52533600D01*
X104170400Y-45713600D02*
X104170400Y-46973600D01*
X104170400Y-52533600D02*
X104170400Y-51273600D01*
%TO.C,R8*%
X84989400Y-50840621D02*
X84989400Y-50505379D01*
X85749400Y-50840621D02*
X85749400Y-50505379D01*
%TO.C,J5*%
X77156000Y-82533800D02*
X77156000Y-81203800D01*
X78486000Y-82533800D02*
X77156000Y-82533800D01*
X79756000Y-82533800D02*
X84896000Y-82533800D01*
X79756000Y-82533800D02*
X79756000Y-79873800D01*
X84896000Y-82533800D02*
X84896000Y-79873800D01*
X79756000Y-79873800D02*
X84896000Y-79873800D01*
%TO.C,U2*%
X101752400Y-57130000D02*
X98302400Y-57130000D01*
X101752400Y-57130000D02*
X103702400Y-57130000D01*
X101752400Y-62250000D02*
X99802400Y-62250000D01*
X101752400Y-62250000D02*
X103702400Y-62250000D01*
%TO.C,R46*%
X78355458Y-78094100D02*
X77880942Y-78094100D01*
X78355458Y-77049100D02*
X77880942Y-77049100D01*
%TO.C,R35*%
X103517196Y-73363933D02*
X103517196Y-72854485D01*
X104562196Y-73363933D02*
X104562196Y-72854485D01*
%TO.C,C22*%
X96708965Y-61463600D02*
X96940635Y-61463600D01*
X96708965Y-62183600D02*
X96940635Y-62183600D01*
%TO.C,C11*%
X77430365Y-61743000D02*
X77662035Y-61743000D01*
X77430365Y-62463000D02*
X77662035Y-62463000D01*
%TO.C,C1*%
X80319200Y-74052165D02*
X80319200Y-74283835D01*
X79599200Y-74052165D02*
X79599200Y-74283835D01*
%TO.C,C17*%
X89879435Y-53801600D02*
X89647765Y-53801600D01*
X89879435Y-53081600D02*
X89647765Y-53081600D01*
%TO.C,Q12*%
X100579191Y-70977591D02*
X98904191Y-70977591D01*
X100579191Y-70977591D02*
X101229191Y-70977591D01*
X100579191Y-74097591D02*
X99929191Y-74097591D01*
X100579191Y-74097591D02*
X101229191Y-74097591D01*
%TO.C,L1*%
X83688800Y-59428652D02*
X83688800Y-58906148D01*
X85108800Y-59428652D02*
X85108800Y-58906148D01*
%TO.C,C16*%
X90104965Y-50033600D02*
X90336635Y-50033600D01*
X90104965Y-50753600D02*
X90336635Y-50753600D01*
%TO.C,C7*%
X89666400Y-77159665D02*
X89666400Y-77391335D01*
X88946400Y-77159665D02*
X88946400Y-77391335D01*
%TO.C,R9*%
X86107000Y-50840621D02*
X86107000Y-50505379D01*
X86867000Y-50840621D02*
X86867000Y-50505379D01*
%TO.C,J4*%
X108853600Y-59766400D02*
X108853600Y-58816400D01*
X109303600Y-59766400D02*
X108853600Y-59766400D01*
X112823600Y-59766400D02*
X113273600Y-59766400D01*
X113273600Y-59766400D02*
X113273600Y-55296400D01*
X108853600Y-58816400D02*
X107363600Y-58816400D01*
X108853600Y-55296400D02*
X108853600Y-56246400D01*
X109303600Y-55296400D02*
X108853600Y-55296400D01*
X113273600Y-55296400D02*
X112823600Y-55296400D01*
%TO.C,C19*%
X93394200Y-53688348D02*
X93394200Y-54210852D01*
X91924200Y-53688348D02*
X91924200Y-54210852D01*
%TO.C,C12*%
X85740600Y-60530435D02*
X85740600Y-60298765D01*
X86460600Y-60530435D02*
X86460600Y-60298765D01*
%TO.C,TH1*%
X74475800Y-78198400D02*
X71675800Y-78198400D01*
X74475800Y-73998400D02*
X71675800Y-73998400D01*
X74461836Y-78207641D02*
G75*
G03*
X74475800Y-73998401I-1386036J2109241D01*
G01*
X71689764Y-73989159D02*
G75*
G03*
X71675800Y-78198399I1386036J-2109241D01*
G01*
%TO.C,TH4*%
X74552000Y-71010200D02*
X71752000Y-71010200D01*
X74552000Y-66810200D02*
X71752000Y-66810200D01*
X74538036Y-71019441D02*
G75*
G03*
X74552000Y-66810201I-1386036J2109241D01*
G01*
X71765964Y-66800959D02*
G75*
G03*
X71752000Y-71010199I1386036J-2109241D01*
G01*
%TO.C,C2*%
X93767000Y-63372635D02*
X93767000Y-63140965D01*
X94487000Y-63372635D02*
X94487000Y-63140965D01*
D11*
%TO.C,D1*%
X78814600Y-51936000D02*
X78814600Y-51936000D01*
X78714600Y-51936000D02*
X78714600Y-51936000D01*
X78714600Y-51936000D02*
G75*
G03*
X78814600Y-51936000I50000J0D01*
G01*
X78814600Y-51936000D02*
G75*
G03*
X78714600Y-51936000I-50000J0D01*
G01*
D17*
%TO.C,R32*%
X95706476Y-73848700D02*
X96215924Y-73848700D01*
X95706476Y-74893700D02*
X96215924Y-74893700D01*
%TO.C,C8*%
X78507000Y-71718435D02*
X78507000Y-71486765D01*
X79227000Y-71718435D02*
X79227000Y-71486765D01*
%TO.C,R1*%
X77358221Y-76580000D02*
X77022979Y-76580000D01*
X77358221Y-75820000D02*
X77022979Y-75820000D01*
%TO.C,C4*%
X90707800Y-77159665D02*
X90707800Y-77391335D01*
X89987800Y-77159665D02*
X89987800Y-77391335D01*
%TD*%
M02*
