%TF.GenerationSoftware,KiCad,Pcbnew,7.0.6*%
%TF.CreationDate,2023-10-31T01:28:30+01:00*%
%TF.ProjectId,BMSv2,424d5376-322e-46b6-9963-61645f706362,rev?*%
%TF.SameCoordinates,Original*%
%TF.FileFunction,Copper,L2,Bot*%
%TF.FilePolarity,Positive*%
%FSLAX46Y46*%
G04 Gerber Fmt 4.6, Leading zero omitted, Abs format (unit mm)*
G04 Created by KiCad (PCBNEW 7.0.6) date 2023-10-31 01:28:30*
%MOMM*%
%LPD*%
G01*
G04 APERTURE LIST*
G04 Aperture macros list*
%AMRoundRect*
0 Rectangle with rounded corners*
0 $1 Rounding radius*
0 $2 $3 $4 $5 $6 $7 $8 $9 X,Y pos of 4 corners*
0 Add a 4 corners polygon primitive as box body*
4,1,4,$2,$3,$4,$5,$6,$7,$8,$9,$2,$3,0*
0 Add four circle primitives for the rounded corners*
1,1,$1+$1,$2,$3*
1,1,$1+$1,$4,$5*
1,1,$1+$1,$6,$7*
1,1,$1+$1,$8,$9*
0 Add four rect primitives between the rounded corners*
20,1,$1+$1,$2,$3,$4,$5,0*
20,1,$1+$1,$4,$5,$6,$7,0*
20,1,$1+$1,$6,$7,$8,$9,0*
20,1,$1+$1,$8,$9,$2,$3,0*%
G04 Aperture macros list end*
%TA.AperFunction,ComponentPad*%
%ADD10RoundRect,0.250000X0.725000X-0.600000X0.725000X0.600000X-0.725000X0.600000X-0.725000X-0.600000X0*%
%TD*%
%TA.AperFunction,ComponentPad*%
%ADD11O,1.950000X1.700000*%
%TD*%
%TA.AperFunction,ComponentPad*%
%ADD12R,1.700000X1.700000*%
%TD*%
%TA.AperFunction,ComponentPad*%
%ADD13O,1.700000X1.700000*%
%TD*%
%TA.AperFunction,ComponentPad*%
%ADD14RoundRect,0.200000X0.200000X0.450000X-0.200000X0.450000X-0.200000X-0.450000X0.200000X-0.450000X0*%
%TD*%
%TA.AperFunction,ComponentPad*%
%ADD15O,0.800000X1.300000*%
%TD*%
%TA.AperFunction,ComponentPad*%
%ADD16C,1.600000*%
%TD*%
%TA.AperFunction,SMDPad,CuDef*%
%ADD17RoundRect,0.160000X0.197500X0.160000X-0.197500X0.160000X-0.197500X-0.160000X0.197500X-0.160000X0*%
%TD*%
%TA.AperFunction,SMDPad,CuDef*%
%ADD18RoundRect,0.150000X0.587500X0.150000X-0.587500X0.150000X-0.587500X-0.150000X0.587500X-0.150000X0*%
%TD*%
%TA.AperFunction,SMDPad,CuDef*%
%ADD19RoundRect,0.249999X0.450001X1.425001X-0.450001X1.425001X-0.450001X-1.425001X0.450001X-1.425001X0*%
%TD*%
%TA.AperFunction,SMDPad,CuDef*%
%ADD20RoundRect,0.160000X0.160000X-0.197500X0.160000X0.197500X-0.160000X0.197500X-0.160000X-0.197500X0*%
%TD*%
%TA.AperFunction,SMDPad,CuDef*%
%ADD21RoundRect,0.160000X-0.160000X0.197500X-0.160000X-0.197500X0.160000X-0.197500X0.160000X0.197500X0*%
%TD*%
%TA.AperFunction,SMDPad,CuDef*%
%ADD22RoundRect,0.150000X-0.587500X-0.150000X0.587500X-0.150000X0.587500X0.150000X-0.587500X0.150000X0*%
%TD*%
%TA.AperFunction,SMDPad,CuDef*%
%ADD23RoundRect,0.237500X0.237500X-0.250000X0.237500X0.250000X-0.237500X0.250000X-0.237500X-0.250000X0*%
%TD*%
%TA.AperFunction,SMDPad,CuDef*%
%ADD24RoundRect,0.155000X0.155000X-0.212500X0.155000X0.212500X-0.155000X0.212500X-0.155000X-0.212500X0*%
%TD*%
%TA.AperFunction,SMDPad,CuDef*%
%ADD25RoundRect,0.250000X0.625000X-0.375000X0.625000X0.375000X-0.625000X0.375000X-0.625000X-0.375000X0*%
%TD*%
%TA.AperFunction,SMDPad,CuDef*%
%ADD26RoundRect,0.155000X0.212500X0.155000X-0.212500X0.155000X-0.212500X-0.155000X0.212500X-0.155000X0*%
%TD*%
%TA.AperFunction,SMDPad,CuDef*%
%ADD27RoundRect,0.237500X-0.250000X-0.237500X0.250000X-0.237500X0.250000X0.237500X-0.250000X0.237500X0*%
%TD*%
%TA.AperFunction,ComponentPad*%
%ADD28O,1.000000X1.500000*%
%TD*%
%TA.AperFunction,ComponentPad*%
%ADD29O,4.500000X3.300000*%
%TD*%
%TA.AperFunction,SMDPad,CuDef*%
%ADD30RoundRect,0.237500X-0.237500X0.250000X-0.237500X-0.250000X0.237500X-0.250000X0.237500X0.250000X0*%
%TD*%
%TA.AperFunction,SMDPad,CuDef*%
%ADD31RoundRect,0.150000X0.150000X-0.587500X0.150000X0.587500X-0.150000X0.587500X-0.150000X-0.587500X0*%
%TD*%
%TA.AperFunction,ViaPad*%
%ADD32C,0.600000*%
%TD*%
%TA.AperFunction,ViaPad*%
%ADD33C,0.800000*%
%TD*%
%TA.AperFunction,ViaPad*%
%ADD34C,0.700000*%
%TD*%
%TA.AperFunction,ViaPad*%
%ADD35C,0.560000*%
%TD*%
%TA.AperFunction,Conductor*%
%ADD36C,0.300000*%
%TD*%
%TA.AperFunction,Conductor*%
%ADD37C,0.250000*%
%TD*%
%TA.AperFunction,Conductor*%
%ADD38C,0.500000*%
%TD*%
%TA.AperFunction,Conductor*%
%ADD39C,0.200000*%
%TD*%
G04 APERTURE END LIST*
D10*
%TO.P,J1,1,Pin_1*%
%TO.N,GND*%
X107913600Y-75371400D03*
D11*
%TO.P,J1,2,Pin_2*%
%TO.N,CELL1*%
X107913600Y-72871400D03*
%TO.P,J1,3,Pin_3*%
%TO.N,CELL2*%
X107913600Y-70371400D03*
%TO.P,J1,4,Pin_4*%
%TO.N,CELL3*%
X107913600Y-67871400D03*
%TO.P,J1,5,Pin_5*%
%TO.N,CELL4*%
X107913600Y-65371400D03*
%TD*%
D12*
%TO.P,J2,1,Pin_1*%
%TO.N,GND*%
X94792800Y-81229200D03*
D13*
%TO.P,J2,2,Pin_2*%
%TO.N,+3.3V*%
X92252800Y-81229200D03*
%TO.P,J2,3,Pin_3*%
%TO.N,SWDCLK*%
X89712800Y-81229200D03*
%TO.P,J2,4,Pin_4*%
%TO.N,SWDIO*%
X87172800Y-81229200D03*
%TD*%
D14*
%TO.P,J3,1,Pin_1*%
%TO.N,GND*%
X79053600Y-49801400D03*
D15*
%TO.P,J3,2,Pin_2*%
%TO.N,+12V*%
X77803600Y-49801400D03*
%TD*%
D16*
%TO.P,TH3,1*%
%TO.N,Temp3*%
X74602600Y-71323200D03*
%TO.P,TH3,2*%
%TO.N,GND*%
X71602600Y-71323200D03*
%TD*%
%TO.P,TH2,1*%
%TO.N,Temp2*%
X74575800Y-73710800D03*
%TO.P,TH2,2*%
%TO.N,GND*%
X71575800Y-73710800D03*
%TD*%
D12*
%TO.P,J5,1,Pin_1*%
%TO.N,UART_RX*%
X78486000Y-81203800D03*
D13*
%TO.P,J5,2,Pin_2*%
%TO.N,UART_TX*%
X81026000Y-81203800D03*
%TO.P,J5,3,Pin_3*%
%TO.N,GND*%
X83566000Y-81203800D03*
%TD*%
D16*
%TO.P,TH1,1*%
%TO.N,Temp1*%
X74575800Y-76098400D03*
%TO.P,TH1,2*%
%TO.N,GND*%
X71575800Y-76098400D03*
%TD*%
%TO.P,TH4,1*%
%TO.N,Temp4*%
X74652000Y-68910200D03*
%TO.P,TH4,2*%
%TO.N,GND*%
X71652000Y-68910200D03*
%TD*%
D17*
%TO.P,R16,1*%
%TO.N,Net-(Q5-D)*%
X83680900Y-60528200D03*
%TO.P,R16,2*%
%TO.N,CELL3_M*%
X82485900Y-60528200D03*
%TD*%
D18*
%TO.P,Q15,1,B*%
%TO.N,Net-(Q15-B)*%
X104623600Y-63581400D03*
%TO.P,Q15,2,E*%
%TO.N,CELL3*%
X104623600Y-65481400D03*
%TO.P,Q15,3,C*%
%TO.N,Net-(Q15-C)*%
X102748600Y-64531400D03*
%TD*%
D19*
%TO.P,R41,1*%
%TO.N,CELL3*%
X100992400Y-53568600D03*
%TO.P,R41,2*%
%TO.N,Net-(Q14-C)*%
X94892400Y-53568600D03*
%TD*%
D20*
%TO.P,R12,1*%
%TO.N,CELL4*%
X89179400Y-56172700D03*
%TO.P,R12,2*%
%TO.N,Net-(Q2-C)*%
X89179400Y-54977700D03*
%TD*%
D21*
%TO.P,R26,1*%
%TO.N,CELL2_M_TRIG*%
X77190600Y-66319400D03*
%TO.P,R26,2*%
%TO.N,GND*%
X77190600Y-67514400D03*
%TD*%
D22*
%TO.P,Q2,1,B*%
%TO.N,CELL4_M_TRIG*%
X78897000Y-56623700D03*
%TO.P,Q2,2,E*%
%TO.N,GND*%
X78897000Y-54723700D03*
%TO.P,Q2,3,C*%
%TO.N,Net-(Q2-C)*%
X80772000Y-55673700D03*
%TD*%
D18*
%TO.P,Q3,1,G*%
%TO.N,Net-(Q2-C)*%
X87399100Y-54281700D03*
%TO.P,Q3,2,S*%
%TO.N,CELL4*%
X87399100Y-56181700D03*
%TO.P,Q3,3,D*%
%TO.N,Net-(Q3-D)*%
X85524100Y-55231700D03*
%TD*%
D22*
%TO.P,Q4,1,B*%
%TO.N,CELL3_M_TRIG*%
X78968600Y-61502200D03*
%TO.P,Q4,2,E*%
%TO.N,GND*%
X78968600Y-59602200D03*
%TO.P,Q4,3,C*%
%TO.N,Net-(Q4-C)*%
X80843600Y-60552200D03*
%TD*%
D20*
%TO.P,R27,1*%
%TO.N,CELL1_M_TRIG*%
X77254700Y-74155900D03*
%TO.P,R27,2*%
%TO.N,GND*%
X77254700Y-72960900D03*
%TD*%
D18*
%TO.P,Q17,1,B*%
%TO.N,Net-(Q17-B)*%
X97993200Y-73792000D03*
%TO.P,Q17,2,E*%
%TO.N,CELL1*%
X97993200Y-75692000D03*
%TO.P,Q17,3,C*%
%TO.N,Net-(Q17-C)*%
X96118200Y-74742000D03*
%TD*%
D23*
%TO.P,R39,1*%
%TO.N,Net-(D4-A)*%
X91490800Y-66596900D03*
%TO.P,R39,2*%
%TO.N,Net-(Q16-C)*%
X91490800Y-64771900D03*
%TD*%
D24*
%TO.P,C24,1*%
%TO.N,CELL4*%
X102981800Y-56602200D03*
%TO.P,C24,2*%
%TO.N,GND*%
X102981800Y-55467200D03*
%TD*%
D17*
%TO.P,R17,1*%
%TO.N,CELL3_M*%
X83870800Y-62484000D03*
%TO.P,R17,2*%
%TO.N,GND*%
X82675800Y-62484000D03*
%TD*%
D19*
%TO.P,R43,1*%
%TO.N,CELL1*%
X100789200Y-64566800D03*
%TO.P,R43,2*%
%TO.N,Net-(Q16-C)*%
X94689200Y-64566800D03*
%TD*%
D25*
%TO.P,D5,1,K*%
%TO.N,GND*%
X91768300Y-77213000D03*
%TO.P,D5,2,A*%
%TO.N,Net-(D5-A)*%
X91768300Y-74413000D03*
%TD*%
D26*
%TO.P,C25,1*%
%TO.N,CELL3*%
X104311300Y-61160900D03*
%TO.P,C25,2*%
%TO.N,GND*%
X103176300Y-61160900D03*
%TD*%
D17*
%TO.P,R23,1*%
%TO.N,CELL1_M*%
X83795800Y-73558400D03*
%TO.P,R23,2*%
%TO.N,GND*%
X82600800Y-73558400D03*
%TD*%
D26*
%TO.P,C30,1*%
%TO.N,CELL2_M*%
X84006500Y-68707000D03*
%TO.P,C30,2*%
%TO.N,GND*%
X82871500Y-68707000D03*
%TD*%
D27*
%TO.P,R37,1*%
%TO.N,Net-(D2-A)*%
X91340300Y-50673000D03*
%TO.P,R37,2*%
%TO.N,Net-(Q14-C)*%
X93165300Y-50673000D03*
%TD*%
D18*
%TO.P,Q5,1,G*%
%TO.N,Net-(Q4-C)*%
X87407800Y-59756000D03*
%TO.P,Q5,2,S*%
%TO.N,CELL3*%
X87407800Y-61656000D03*
%TO.P,Q5,3,D*%
%TO.N,Net-(Q5-D)*%
X85532800Y-60706000D03*
%TD*%
D21*
%TO.P,R13,1*%
%TO.N,Net-(Q3-D)*%
X83921600Y-55243800D03*
%TO.P,R13,2*%
%TO.N,CELL4_M*%
X83921600Y-56438800D03*
%TD*%
D25*
%TO.P,D2,1,K*%
%TO.N,CELL3*%
X91541600Y-55603600D03*
%TO.P,D2,2,A*%
%TO.N,Net-(D2-A)*%
X91541600Y-52803600D03*
%TD*%
D22*
%TO.P,Q6,1,B*%
%TO.N,CELL2_M_TRIG*%
X79047100Y-69047400D03*
%TO.P,Q6,2,E*%
%TO.N,GND*%
X79047100Y-67147400D03*
%TO.P,Q6,3,C*%
%TO.N,Net-(Q6-C)*%
X80922100Y-68097400D03*
%TD*%
D19*
%TO.P,R42,1*%
%TO.N,CELL2*%
X100636800Y-60553600D03*
%TO.P,R42,2*%
%TO.N,Net-(Q15-C)*%
X94536800Y-60553600D03*
%TD*%
%TO.P,R44,1*%
%TO.N,GND*%
X100638800Y-70916800D03*
%TO.P,R44,2*%
%TO.N,Net-(Q17-C)*%
X94538800Y-70916800D03*
%TD*%
D22*
%TO.P,Q8,1,B*%
%TO.N,CELL1_M_TRIG*%
X78935700Y-74356000D03*
%TO.P,Q8,2,E*%
%TO.N,GND*%
X78935700Y-72456000D03*
%TO.P,Q8,3,C*%
%TO.N,Net-(Q8-C)*%
X80810700Y-73406000D03*
%TD*%
D18*
%TO.P,Q16,1,B*%
%TO.N,Net-(Q16-B)*%
X104594900Y-69865200D03*
%TO.P,Q16,2,E*%
%TO.N,CELL2*%
X104594900Y-71765200D03*
%TO.P,Q16,3,C*%
%TO.N,Net-(Q16-C)*%
X102719900Y-70815200D03*
%TD*%
D27*
%TO.P,R38,1*%
%TO.N,Net-(D3-A)*%
X90781500Y-57962800D03*
%TO.P,R38,2*%
%TO.N,Net-(Q15-C)*%
X92606500Y-57962800D03*
%TD*%
D20*
%TO.P,R25,1*%
%TO.N,CELL3_M_TRIG*%
X77038200Y-61227300D03*
%TO.P,R25,2*%
%TO.N,GND*%
X77038200Y-60032300D03*
%TD*%
D18*
%TO.P,Q9,1,G*%
%TO.N,Net-(Q8-C)*%
X87807800Y-70307200D03*
%TO.P,Q9,2,S*%
%TO.N,CELL1*%
X87807800Y-72207200D03*
%TO.P,Q9,3,D*%
%TO.N,Net-(Q9-D)*%
X85932800Y-71257200D03*
%TD*%
D17*
%TO.P,R20,1*%
%TO.N,CELL2_M*%
X84036500Y-67741800D03*
%TO.P,R20,2*%
%TO.N,GND*%
X82841500Y-67741800D03*
%TD*%
D24*
%TO.P,C27,1*%
%TO.N,CELL1*%
X99822000Y-75345100D03*
%TO.P,C27,2*%
%TO.N,GND*%
X99822000Y-74210100D03*
%TD*%
D26*
%TO.P,C28,1*%
%TO.N,CELL4_M*%
X83879500Y-58635300D03*
%TO.P,C28,2*%
%TO.N,GND*%
X82744500Y-58635300D03*
%TD*%
D20*
%TO.P,R24,1*%
%TO.N,CELL4_M_TRIG*%
X77275500Y-56133500D03*
%TO.P,R24,2*%
%TO.N,GND*%
X77275500Y-54938500D03*
%TD*%
%TO.P,R21,1*%
%TO.N,CELL1*%
X89613500Y-71702300D03*
%TO.P,R21,2*%
%TO.N,Net-(Q8-C)*%
X89613500Y-70507300D03*
%TD*%
D25*
%TO.P,D4,1,K*%
%TO.N,CELL1*%
X91719400Y-71602600D03*
%TO.P,D4,2,A*%
%TO.N,Net-(D4-A)*%
X91719400Y-68802600D03*
%TD*%
D21*
%TO.P,R22,1*%
%TO.N,Net-(Q9-D)*%
X83807900Y-71284500D03*
%TO.P,R22,2*%
%TO.N,CELL1_M*%
X83807900Y-72479500D03*
%TD*%
D20*
%TO.P,R18,1*%
%TO.N,CELL2*%
X89357200Y-66371400D03*
%TO.P,R18,2*%
%TO.N,Net-(Q6-C)*%
X89357200Y-65176400D03*
%TD*%
D28*
%TO.P,U3,1,3.3V*%
%TO.N,+3.3V*%
X74182200Y-58981200D03*
%TO.P,U3,2,GND*%
%TO.N,GND*%
X72912200Y-58981200D03*
%TO.P,U3,3,VOUT*%
%TO.N,Current*%
X71642200Y-58981200D03*
D29*
%TO.P,U3,4*%
%TO.N,N/C*%
X72212200Y-65481200D03*
%TO.P,U3,5*%
X72212200Y-52481200D03*
%TD*%
D25*
%TO.P,D3,1,K*%
%TO.N,CELL2*%
X91795600Y-62461600D03*
%TO.P,D3,2,A*%
%TO.N,Net-(D3-A)*%
X91795600Y-59661600D03*
%TD*%
D20*
%TO.P,R19,1*%
%TO.N,Net-(Q7-D)*%
X84226400Y-66586700D03*
%TO.P,R19,2*%
%TO.N,CELL2_M*%
X84226400Y-65391700D03*
%TD*%
D18*
%TO.P,Q7,1,G*%
%TO.N,Net-(Q6-C)*%
X87604600Y-64897000D03*
%TO.P,Q7,2,S*%
%TO.N,CELL2*%
X87604600Y-66797000D03*
%TO.P,Q7,3,D*%
%TO.N,Net-(Q7-D)*%
X85729600Y-65847000D03*
%TD*%
D26*
%TO.P,C31,1*%
%TO.N,CELL1_M*%
X83765800Y-74523600D03*
%TO.P,C31,2*%
%TO.N,GND*%
X82630800Y-74523600D03*
%TD*%
%TO.P,C29,1*%
%TO.N,CELL3_M*%
X83828700Y-63474600D03*
%TO.P,C29,2*%
%TO.N,GND*%
X82693700Y-63474600D03*
%TD*%
D30*
%TO.P,R40,1*%
%TO.N,Net-(D5-A)*%
X88519000Y-74525500D03*
%TO.P,R40,2*%
%TO.N,Net-(Q17-C)*%
X88519000Y-76350500D03*
%TD*%
D17*
%TO.P,R14,1*%
%TO.N,CELL4_M*%
X83909500Y-57517700D03*
%TO.P,R14,2*%
%TO.N,GND*%
X82714500Y-57517700D03*
%TD*%
D20*
%TO.P,R15,1*%
%TO.N,CELL3*%
X89213500Y-60998700D03*
%TO.P,R15,2*%
%TO.N,Net-(Q4-C)*%
X89213500Y-59803700D03*
%TD*%
D26*
%TO.P,C26,1*%
%TO.N,CELL2*%
X104184300Y-68531400D03*
%TO.P,C26,2*%
%TO.N,GND*%
X103049300Y-68531400D03*
%TD*%
D31*
%TO.P,Q14,1,B*%
%TO.N,Net-(Q14-B)*%
X106319400Y-56235600D03*
%TO.P,Q14,2,E*%
%TO.N,CELL4*%
X104419400Y-56235600D03*
%TO.P,Q14,3,C*%
%TO.N,Net-(Q14-C)*%
X105369400Y-54360600D03*
%TD*%
D32*
%TO.N,GND*%
X78310600Y-70053200D03*
X84810600Y-61569600D03*
D33*
X77393800Y-57886600D03*
D32*
X86096300Y-70507700D03*
D33*
X98069400Y-66522600D03*
X87579200Y-50266600D03*
X93040200Y-61366400D03*
D32*
X76606400Y-65430400D03*
X79816500Y-62636400D03*
X76994700Y-70281800D03*
D34*
X101600000Y-50624100D03*
D32*
X77901800Y-60731400D03*
D34*
X107797600Y-52222400D03*
D35*
X82457731Y-66792669D03*
D32*
X81407000Y-61583839D03*
D33*
X84277200Y-51003200D03*
D32*
X79832200Y-58801000D03*
D33*
X96824800Y-63144400D03*
X93268800Y-65218300D03*
X98171000Y-72491600D03*
X98145600Y-76936600D03*
D32*
X79654400Y-76276200D03*
D33*
X86773600Y-52431400D03*
X85823600Y-58181400D03*
D32*
X82439426Y-69916500D03*
X89204800Y-57759600D03*
D33*
X98196400Y-70510400D03*
D32*
X75251500Y-67589400D03*
D33*
X101873600Y-67981400D03*
X76149200Y-54813200D03*
X81407000Y-52222400D03*
D34*
X102489000Y-62331600D03*
D33*
X87858623Y-77865211D03*
X90322400Y-46482000D03*
X86817200Y-45974000D03*
X73329800Y-61214000D03*
X105384600Y-56134000D03*
D32*
X86004400Y-67259200D03*
X84099400Y-76606400D03*
D34*
X93853000Y-77216000D03*
D33*
%TO.N,Net-(C13-Pad1)*%
X76758800Y-53898800D03*
X81305400Y-53517800D03*
D34*
%TO.N,+5V*%
X106807000Y-52476400D03*
X102565200Y-51638200D03*
D33*
%TO.N,CELL3*%
X87423600Y-57831400D03*
X87923600Y-52731400D03*
X103505000Y-62865000D03*
%TO.N,CELL1*%
X101273600Y-66781400D03*
D32*
%TO.N,CELL4_M*%
X80632300Y-59169300D03*
%TO.N,CELL3_M*%
X82435798Y-61518800D03*
%TO.N,CELL2_M*%
X80467200Y-63881000D03*
%TO.N,CELL1_M*%
X81788000Y-71196200D03*
%TO.N,LED_STATUS*%
X79121000Y-69977000D03*
D33*
X83413600Y-77546200D03*
D32*
%TO.N,CELL4_M_TRIG*%
X87528400Y-67868800D03*
%TO.N,CELL3_M_TRIG*%
X83210400Y-65700100D03*
D35*
%TO.N,CELL2_M_TRIG*%
X84075180Y-70487470D03*
D32*
%TO.N,CELL1_M_TRIG*%
X80589310Y-75442211D03*
D33*
%TO.N,Net-(Q14-B)*%
X108344700Y-63111400D03*
%TO.N,Net-(Q15-B)*%
X104914303Y-67722102D03*
%TO.N,Net-(Q16-B)*%
X105537000Y-73126600D03*
%TO.N,Net-(Q17-B)*%
X105359200Y-74980800D03*
D32*
%TO.N,Temp1*%
X78206600Y-68092300D03*
%TO.N,Temp2*%
X75763212Y-66913576D03*
%TO.N,Temp3*%
X76187300Y-66255900D03*
%TO.N,Temp4*%
X77295298Y-64782720D03*
D33*
%TO.N,Net-(U1-BOOT0)*%
X97637600Y-77901800D03*
D32*
X93573600Y-67868300D03*
D33*
%TO.N,Net-(U4-FB)*%
X89154000Y-46482000D03*
X84275045Y-50003700D03*
D35*
%TO.N,Current*%
X81706300Y-67005200D03*
%TD*%
D36*
%TO.N,GND*%
X81234793Y-66270099D02*
X76899494Y-61934800D01*
D37*
X103275900Y-55173100D02*
X102981800Y-55467200D01*
D36*
X82693700Y-63474600D02*
X82693700Y-62501900D01*
X82457731Y-67358031D02*
X82841500Y-67741800D01*
D37*
X84810600Y-61569600D02*
X84810600Y-63550800D01*
D36*
X78430800Y-72960900D02*
X78935700Y-72456000D01*
D37*
X77737300Y-60731400D02*
X77038200Y-60032300D01*
D36*
X82630800Y-74523600D02*
X82630800Y-75137800D01*
D37*
X93855227Y-62560200D02*
X96240600Y-62560200D01*
D36*
X86096300Y-67351100D02*
X86004400Y-67259200D01*
X96824800Y-63393261D02*
X101412939Y-67981400D01*
D38*
X100232400Y-70510400D02*
X100638800Y-70916800D01*
D36*
X82630800Y-75137800D02*
X84099400Y-76606400D01*
D37*
X96240600Y-62560200D02*
X96824800Y-63144400D01*
X102489000Y-61848200D02*
X103176300Y-61160900D01*
X105384600Y-55785051D02*
X104772649Y-55173100D01*
D36*
X77254700Y-72960900D02*
X78430800Y-72960900D01*
D37*
X104772649Y-55173100D02*
X103275900Y-55173100D01*
X76606400Y-65430400D02*
X76199627Y-65430400D01*
X86898600Y-57106400D02*
X85823600Y-58181400D01*
X77190600Y-70085900D02*
X77190600Y-67514400D01*
X82744500Y-58635300D02*
X82744500Y-57547700D01*
D39*
X82684500Y-63719400D02*
X82693700Y-63728600D01*
D37*
X102489000Y-62331600D02*
X102489000Y-61848200D01*
X83372700Y-64153600D02*
X82693700Y-63474600D01*
X93268800Y-65218300D02*
X93268800Y-65834573D01*
X76199627Y-65430400D02*
X75188212Y-66441815D01*
D36*
X82439426Y-69916500D02*
X82469000Y-69886926D01*
D37*
X78310600Y-70053200D02*
X78310600Y-71830900D01*
D36*
X99822000Y-74210100D02*
X101292700Y-75680800D01*
D37*
X93853000Y-77216000D02*
X91771300Y-77216000D01*
D36*
X82675800Y-62484000D02*
X82307161Y-62484000D01*
D37*
X84810600Y-63550800D02*
X84207800Y-64153600D01*
D36*
X82307161Y-62484000D02*
X81407000Y-61583839D01*
X81053100Y-57517700D02*
X82714500Y-57517700D01*
D37*
X89204800Y-57759600D02*
X88551600Y-57106400D01*
D36*
X76584700Y-74564649D02*
X78296251Y-76276200D01*
D37*
X75188212Y-66441815D02*
X75188212Y-67526112D01*
D36*
X86096300Y-70507700D02*
X86096300Y-67351100D01*
D37*
X98025200Y-66566800D02*
X98069400Y-66522600D01*
D36*
X101412939Y-67981400D02*
X101873600Y-67981400D01*
X82018099Y-66270099D02*
X81234793Y-66270099D01*
D37*
X77901800Y-60731400D02*
X77737300Y-60731400D01*
D36*
X76368200Y-61636049D02*
X76368200Y-60702300D01*
D37*
X94001027Y-66566800D02*
X98025200Y-66566800D01*
D36*
X107604200Y-75680800D02*
X107913600Y-75371400D01*
D37*
X93040200Y-61745173D02*
X93855227Y-62560200D01*
D36*
X82600800Y-73558400D02*
X82600800Y-74493600D01*
D37*
X76994700Y-70281800D02*
X77190600Y-70085900D01*
D36*
X82018099Y-66270099D02*
X82457731Y-66709731D01*
X76666951Y-61934800D02*
X76368200Y-61636049D01*
X76584700Y-73630900D02*
X76584700Y-74564649D01*
X82457731Y-66792669D02*
X82457731Y-67358031D01*
X85475526Y-69886926D02*
X86096300Y-70507700D01*
D37*
X88551600Y-57106400D02*
X86898600Y-57106400D01*
X105384600Y-56134000D02*
X105384600Y-55785051D01*
D36*
X76899494Y-61934800D02*
X76666951Y-61934800D01*
X78296251Y-76276200D02*
X79654400Y-76276200D01*
X101292700Y-75680800D02*
X107604200Y-75680800D01*
D37*
X77557600Y-67147400D02*
X79047100Y-67147400D01*
D36*
X76368200Y-60702300D02*
X77038200Y-60032300D01*
X96824800Y-63144400D02*
X96824800Y-63393261D01*
X77254700Y-72960900D02*
X76584700Y-73630900D01*
X78968600Y-59602200D02*
X81053100Y-57517700D01*
D37*
X77557600Y-67147400D02*
X77190600Y-67514400D01*
D38*
X98196400Y-70510400D02*
X100232400Y-70510400D01*
D36*
X82871500Y-68707000D02*
X82871500Y-67771800D01*
D37*
X84207800Y-64153600D02*
X83372700Y-64153600D01*
X75188212Y-67526112D02*
X75251500Y-67589400D01*
D36*
X82469000Y-69886926D02*
X85475526Y-69886926D01*
D37*
X93040200Y-61366400D02*
X93040200Y-61745173D01*
X93268800Y-65834573D02*
X94001027Y-66566800D01*
D36*
X82457731Y-66709731D02*
X82457731Y-66792669D01*
X78310600Y-71830900D02*
X78935700Y-72456000D01*
D37*
%TO.N,Net-(C13-Pad1)*%
X81305400Y-53517800D02*
X77139800Y-53517800D01*
X77139800Y-53517800D02*
X76758800Y-53898800D01*
D38*
%TO.N,+5V*%
X102565200Y-51638200D02*
X103403400Y-52476400D01*
X103403400Y-52476400D02*
X106807000Y-52476400D01*
D36*
%TO.N,CELL4*%
X104419400Y-56235600D02*
X104419400Y-58039800D01*
X102981800Y-56602200D02*
X104052800Y-56602200D01*
X107645200Y-65103000D02*
X107913600Y-65371400D01*
X104419400Y-58039800D02*
X107645200Y-61265600D01*
X89585300Y-56578600D02*
X102958200Y-56578600D01*
X107645200Y-61265600D02*
X107645200Y-65103000D01*
X102958200Y-56578600D02*
X102981800Y-56602200D01*
X104052800Y-56602200D02*
X104419400Y-56235600D01*
X87399100Y-56181700D02*
X89170400Y-56181700D01*
X89179400Y-56172700D02*
X89585300Y-56578600D01*
%TO.N,CELL3*%
X103555800Y-62865000D02*
X104311300Y-62109500D01*
X111658400Y-64126600D02*
X107913600Y-67871400D01*
X89883500Y-59394951D02*
X89883500Y-60328700D01*
X88065100Y-60998700D02*
X87407800Y-61656000D01*
X105711100Y-62560700D02*
X104311300Y-61160900D01*
X89213500Y-60998700D02*
X88065100Y-60998700D01*
X89883500Y-60328700D02*
X89213500Y-60998700D01*
X103505000Y-62865000D02*
X103555800Y-62865000D01*
X111312100Y-53273100D02*
X111658400Y-53619400D01*
X92773600Y-54371600D02*
X91541600Y-55603600D01*
X100992400Y-53568600D02*
X97271800Y-49848000D01*
X111658400Y-53619400D02*
X111658400Y-64126600D01*
X88319949Y-57831400D02*
X89883500Y-59394951D01*
X101287900Y-53273100D02*
X111312100Y-53273100D01*
X92773600Y-52187072D02*
X92773600Y-54371600D01*
X87923600Y-52731400D02*
X88011849Y-52731400D01*
X92521950Y-49848000D02*
X92323600Y-50046350D01*
X92323600Y-50046350D02*
X92323600Y-51737072D01*
X88011849Y-52731400D02*
X90884049Y-55603600D01*
X104311300Y-62109500D02*
X104311300Y-61160900D01*
X104623600Y-65481400D02*
X105711100Y-64393900D01*
X105711100Y-64393900D02*
X105711100Y-62560700D01*
X97271800Y-49848000D02*
X92521950Y-49848000D01*
X92323600Y-51737072D02*
X92773600Y-52187072D01*
X87423600Y-57831400D02*
X88319949Y-57831400D01*
D37*
%TO.N,CELL2*%
X88931600Y-66797000D02*
X89357200Y-66371400D01*
D36*
X106034000Y-69545200D02*
X107087400Y-69545200D01*
X106211100Y-61964300D02*
X106211100Y-68668900D01*
X89944000Y-58517106D02*
X89944000Y-57481950D01*
D37*
X86953400Y-68538400D02*
X86953400Y-67448200D01*
D36*
X90570600Y-59143706D02*
X89944000Y-58517106D01*
X102008400Y-59182000D02*
X103428800Y-59182000D01*
X106211100Y-68668900D02*
X107913600Y-70371400D01*
D37*
X87432900Y-69017900D02*
X86953400Y-68538400D01*
D36*
X100636800Y-60553600D02*
X102008400Y-59182000D01*
X97210671Y-57127471D02*
X100636800Y-60553600D01*
X89944000Y-57481950D02*
X90298479Y-57127471D01*
X90665800Y-63591400D02*
X91795600Y-62461600D01*
X107087400Y-69545200D02*
X107913600Y-70371400D01*
X91795600Y-62461600D02*
X90570600Y-61236600D01*
X87432900Y-69017900D02*
X88792300Y-69017900D01*
X90665800Y-67144400D02*
X90665800Y-63591400D01*
D37*
X86953400Y-67448200D02*
X87604600Y-66797000D01*
D36*
X104184300Y-68531400D02*
X105020200Y-68531400D01*
X88792300Y-69017900D02*
X90665800Y-67144400D01*
X105988700Y-70371400D02*
X107913600Y-70371400D01*
X90298479Y-57127471D02*
X97210671Y-57127471D01*
X103428800Y-59182000D02*
X106211100Y-61964300D01*
X104594900Y-71765200D02*
X105988700Y-70371400D01*
X90570600Y-61236600D02*
X90570600Y-59143706D01*
D37*
X87604600Y-66797000D02*
X88931600Y-66797000D01*
D36*
X105020200Y-68531400D02*
X106034000Y-69545200D01*
%TO.N,CELL1*%
X95497200Y-78188000D02*
X89389400Y-78188000D01*
D37*
X89613500Y-71702300D02*
X91619700Y-71702300D01*
D36*
X87680800Y-76835000D02*
X87680800Y-72334200D01*
X98499151Y-78651800D02*
X95961000Y-78651800D01*
D37*
X101273600Y-66781400D02*
X101273600Y-65051200D01*
D36*
X99822000Y-77328952D02*
X98499151Y-78651800D01*
X110253600Y-75211400D02*
X110253600Y-76891400D01*
X89389400Y-78188000D02*
X88389400Y-77188000D01*
D37*
X87807800Y-72207200D02*
X89108600Y-72207200D01*
D36*
X110253600Y-76891400D02*
X110093600Y-77051400D01*
X97993200Y-75692000D02*
X95497200Y-78188000D01*
D37*
X89108600Y-72207200D02*
X89613500Y-71702300D01*
D36*
X95961000Y-78651800D02*
X95497200Y-78188000D01*
X110093600Y-77051400D02*
X101528300Y-77051400D01*
X101528300Y-77051400D02*
X99822000Y-75345100D01*
X88389400Y-77188000D02*
X88033800Y-77188000D01*
X88033800Y-77188000D02*
X87680800Y-76835000D01*
X107913600Y-72871400D02*
X110253600Y-75211400D01*
X99822000Y-75345100D02*
X99822000Y-77328952D01*
D37*
%TO.N,CELL4_M*%
X80733300Y-59270300D02*
X83244500Y-59270300D01*
X83244500Y-59270300D02*
X83879500Y-58635300D01*
X80632300Y-59169300D02*
X80733300Y-59270300D01*
D36*
X83921600Y-56438800D02*
X83921600Y-58593200D01*
D37*
%TO.N,CELL3_M*%
X82485900Y-60528200D02*
X82485900Y-61468698D01*
X82905600Y-61518800D02*
X82435798Y-61518800D01*
X83870800Y-62484000D02*
X82905600Y-61518800D01*
X82485900Y-61468698D02*
X82435798Y-61518800D01*
X83828700Y-63474600D02*
X83828700Y-62526100D01*
%TO.N,CELL2_M*%
X81679200Y-65093000D02*
X83927700Y-65093000D01*
X83927700Y-65093000D02*
X84226400Y-65391700D01*
X83524000Y-67229300D02*
X84036500Y-67741800D01*
X80467200Y-63881000D02*
X81679200Y-65093000D01*
X84226400Y-65543306D02*
X83524000Y-66245706D01*
D36*
X84006500Y-68707000D02*
X84006500Y-67771800D01*
D37*
X83524000Y-66245706D02*
X83524000Y-67229300D01*
%TO.N,CELL1_M*%
X81788000Y-71196200D02*
X83071300Y-72479500D01*
X83071300Y-72479500D02*
X83807900Y-72479500D01*
X83765800Y-74523600D02*
X83765800Y-72521600D01*
D36*
%TO.N,Net-(D2-A)*%
X91340300Y-50673000D02*
X91340300Y-52602300D01*
%TO.N,Net-(D3-A)*%
X90781500Y-57962800D02*
X90781500Y-58647500D01*
X90781500Y-58647500D02*
X91795600Y-59661600D01*
D37*
%TO.N,Net-(D4-A)*%
X91490800Y-66596900D02*
X91490800Y-68574000D01*
D36*
%TO.N,Net-(D5-A)*%
X88519000Y-74525500D02*
X91655800Y-74525500D01*
D37*
%TO.N,LED_STATUS*%
X83413600Y-77164827D02*
X83413600Y-77546200D01*
X79121000Y-69977000D02*
X79425800Y-69977000D01*
X81918300Y-75669527D02*
X83413600Y-77164827D01*
X81918300Y-72469500D02*
X81918300Y-75669527D01*
X79425800Y-69977000D02*
X81918300Y-72469500D01*
%TO.N,CELL4_M_TRIG*%
X79109349Y-60227200D02*
X80391000Y-61508851D01*
X80391000Y-61508851D02*
X80391000Y-62992000D01*
X90002200Y-66769794D02*
X90002200Y-64754600D01*
X78897000Y-56623700D02*
X78486000Y-57034700D01*
X86296949Y-64643000D02*
X86677949Y-64262000D01*
X82042000Y-64643000D02*
X82042000Y-64617600D01*
X82067400Y-64643000D02*
X86296949Y-64643000D01*
X89509600Y-64262000D02*
X86677949Y-64262000D01*
X78185000Y-60227200D02*
X79109349Y-60227200D01*
X77906100Y-59948300D02*
X78185000Y-60227200D01*
X88903194Y-67868800D02*
X90002200Y-66769794D01*
X77275500Y-56133500D02*
X78406800Y-56133500D01*
X78486000Y-58039000D02*
X77906100Y-58618900D01*
X77906100Y-58618900D02*
X77906100Y-59948300D01*
X87528400Y-67868800D02*
X88903194Y-67868800D01*
X90002200Y-64754600D02*
X89509600Y-64262000D01*
X78406800Y-56133500D02*
X78897000Y-56623700D01*
X80391000Y-62992000D02*
X82042000Y-64643000D01*
X82042000Y-64617600D02*
X82067400Y-64643000D01*
X78486000Y-57034700D02*
X78486000Y-58039000D01*
D36*
%TO.N,Net-(Q2-C)*%
X80772000Y-55673700D02*
X82412951Y-55673700D01*
X83804951Y-54281700D02*
X87399100Y-54281700D01*
X87399100Y-54281700D02*
X88483400Y-54281700D01*
X82412951Y-55673700D02*
X83804951Y-54281700D01*
X88483400Y-54281700D02*
X89179400Y-54977700D01*
%TO.N,Net-(Q3-D)*%
X83921600Y-55243800D02*
X85512000Y-55243800D01*
%TO.N,CELL3_M_TRIG*%
X77313100Y-61502200D02*
X77038200Y-61227300D01*
X78968600Y-61502200D02*
X77313100Y-61502200D01*
X81371900Y-65700100D02*
X78878000Y-63206200D01*
X83210400Y-65700100D02*
X81371900Y-65700100D01*
X78878000Y-63206200D02*
X78878000Y-61502200D01*
%TO.N,Net-(Q4-C)*%
X80753000Y-60552200D02*
X81549200Y-59756000D01*
X81549200Y-59756000D02*
X87407800Y-59756000D01*
X87407800Y-59756000D02*
X89165800Y-59756000D01*
%TO.N,Net-(Q5-D)*%
X83680900Y-60528200D02*
X85355000Y-60528200D01*
X85355000Y-60528200D02*
X85532800Y-60706000D01*
D37*
%TO.N,CELL2_M_TRIG*%
X79047100Y-68563149D02*
X79047100Y-69047400D01*
X80137849Y-67472400D02*
X79047100Y-68563149D01*
X80137849Y-66828898D02*
X80137849Y-67472400D01*
X80848573Y-70586600D02*
X79309373Y-69047400D01*
X84075180Y-70487470D02*
X83976050Y-70586600D01*
X79628351Y-66319400D02*
X80137849Y-66828898D01*
X83976050Y-70586600D02*
X80848573Y-70586600D01*
X77190600Y-66319400D02*
X79628351Y-66319400D01*
%TO.N,Net-(Q6-C)*%
X82166700Y-69342000D02*
X84785200Y-69342000D01*
X85394800Y-68732400D02*
X85394800Y-67055627D01*
X87604600Y-64897000D02*
X89077800Y-64897000D01*
X87604600Y-65387749D02*
X87604600Y-64897000D01*
X85394800Y-67055627D02*
X85818078Y-66632349D01*
X80922100Y-68097400D02*
X82166700Y-69342000D01*
X84785200Y-69342000D02*
X85394800Y-68732400D01*
X86360000Y-66632349D02*
X87604600Y-65387749D01*
X85818078Y-66632349D02*
X86360000Y-66632349D01*
X89077800Y-64897000D02*
X89357200Y-65176400D01*
%TO.N,Net-(Q7-D)*%
X84989900Y-66586700D02*
X85729600Y-65847000D01*
X84226400Y-66586700D02*
X84989900Y-66586700D01*
D36*
%TO.N,CELL1_M_TRIG*%
X77254700Y-74155900D02*
X78735600Y-74155900D01*
D37*
X80589310Y-75442211D02*
X79503099Y-74356000D01*
D36*
X78735600Y-74155900D02*
X78935700Y-74356000D01*
D37*
%TO.N,Net-(Q8-C)*%
X86449000Y-72156749D02*
X87807800Y-70797949D01*
X87807800Y-70307200D02*
X89413400Y-70307200D01*
X89413400Y-70307200D02*
X89613500Y-70507300D01*
X87807800Y-70797949D02*
X87807800Y-70307200D01*
X81468300Y-74063600D02*
X81468300Y-76626205D01*
X83730000Y-78271200D02*
X86449000Y-75552200D01*
X83113295Y-78271200D02*
X83730000Y-78271200D01*
X81468300Y-76626205D02*
X83113295Y-78271200D01*
X80810700Y-73406000D02*
X81468300Y-74063600D01*
X86449000Y-75552200D02*
X86449000Y-72156749D01*
%TO.N,Net-(Q9-D)*%
X85932800Y-71257200D02*
X83835200Y-71257200D01*
D36*
%TO.N,Net-(Q14-B)*%
X108353600Y-63102500D02*
X108353600Y-58269800D01*
X108344700Y-63111400D02*
X108353600Y-63102500D01*
X108353600Y-58269800D02*
X106319400Y-56235600D01*
%TO.N,Net-(Q14-C)*%
X93165300Y-51841500D02*
X93165300Y-50673000D01*
X101761400Y-55593600D02*
X102994400Y-54360600D01*
X96917400Y-55593600D02*
X101761400Y-55593600D01*
X94892400Y-53568600D02*
X93165300Y-51841500D01*
X94892400Y-53568600D02*
X96917400Y-55593600D01*
X102994400Y-54360600D02*
X105369400Y-54360600D01*
D37*
%TO.N,Net-(Q15-B)*%
X103561100Y-65128151D02*
X103561100Y-66368899D01*
X104623600Y-64065651D02*
X103561100Y-65128151D01*
X104623600Y-63581400D02*
X104623600Y-64065651D01*
X103561100Y-66368899D02*
X104914303Y-67722102D01*
%TO.N,Net-(Q15-C)*%
X94536800Y-60553600D02*
X97948627Y-60553600D01*
D36*
X92606500Y-57962800D02*
X94536800Y-59893100D01*
D37*
X99961827Y-62566800D02*
X101485200Y-62566800D01*
X101485200Y-62566800D02*
X102748600Y-63830200D01*
X102748600Y-63830200D02*
X102748600Y-64531400D01*
X97948627Y-60553600D02*
X99961827Y-62566800D01*
%TO.N,Net-(Q16-B)*%
X103532400Y-72111951D02*
X104547049Y-73126600D01*
X104594900Y-70355949D02*
X103532400Y-71418449D01*
X103532400Y-71418449D02*
X103532400Y-72111951D01*
X104547049Y-73126600D02*
X105537000Y-73126600D01*
X104594900Y-69865200D02*
X104594900Y-70355949D01*
%TO.N,Net-(Q16-C)*%
X91490800Y-64771900D02*
X91873700Y-64389000D01*
X94689200Y-64566800D02*
X97138905Y-64566800D01*
X102703805Y-70131700D02*
X102719900Y-70131700D01*
X97138905Y-64566800D02*
X102703805Y-70131700D01*
X102719900Y-70815200D02*
X102719900Y-70131700D01*
X91873700Y-64389000D02*
X94511400Y-64389000D01*
D36*
%TO.N,Net-(Q17-B)*%
X98292600Y-73492600D02*
X97993200Y-73792000D01*
X103871000Y-73492600D02*
X98292600Y-73492600D01*
X105359200Y-74980800D02*
X103871000Y-73492600D01*
D37*
%TO.N,Net-(Q17-C)*%
X94538800Y-70916800D02*
X94538800Y-73162600D01*
X94538800Y-73162600D02*
X96118200Y-74742000D01*
D36*
X94622200Y-76238000D02*
X96118200Y-74742000D01*
X88631500Y-76238000D02*
X94622200Y-76238000D01*
D37*
%TO.N,Temp1*%
X78206600Y-68092300D02*
X77647800Y-68651100D01*
X75700800Y-74973400D02*
X74575800Y-76098400D01*
X77647800Y-68651100D02*
X77647800Y-71524406D01*
X77647800Y-71524406D02*
X75700800Y-73471406D01*
X75700800Y-73471406D02*
X75700800Y-74973400D01*
D36*
%TO.N,Temp2*%
X75844400Y-67845029D02*
X75844400Y-69767751D01*
X74239254Y-70060200D02*
X73452600Y-70846854D01*
X75763212Y-66913576D02*
X75851500Y-67001864D01*
X73452600Y-70846854D02*
X73452600Y-72587600D01*
X75551951Y-70060200D02*
X74239254Y-70060200D01*
X73452600Y-72587600D02*
X74575800Y-73710800D01*
X75844400Y-69767751D02*
X75551951Y-70060200D01*
X75851500Y-67837929D02*
X75844400Y-67845029D01*
X75851500Y-67001864D02*
X75851500Y-67837929D01*
%TO.N,Temp3*%
X75733970Y-71323200D02*
X74602600Y-71323200D01*
X76187300Y-66255900D02*
X76395200Y-66463800D01*
X76395200Y-66463800D02*
X76395200Y-70661970D01*
X76395200Y-70661970D02*
X75733970Y-71323200D01*
%TO.N,Temp4*%
X74652000Y-66267200D02*
X74652000Y-68910200D01*
X76136480Y-64782720D02*
X74652000Y-66267200D01*
X77295298Y-64782720D02*
X76136480Y-64782720D01*
D37*
%TO.N,Net-(U1-BOOT0)*%
X97852451Y-75067000D02*
X98777451Y-75067000D01*
X94528995Y-67868300D02*
X96902451Y-70241756D01*
X96902451Y-74117000D02*
X97852451Y-75067000D01*
X98777451Y-75067000D02*
X99055700Y-75345249D01*
X99055700Y-75345249D02*
X99055700Y-77423500D01*
X98577400Y-77901800D02*
X97637600Y-77901800D01*
X99055700Y-77423500D02*
X98577400Y-77901800D01*
X93573600Y-67868300D02*
X94528995Y-67868300D01*
X96902451Y-70241756D02*
X96902451Y-74117000D01*
%TO.N,Net-(U4-FB)*%
X84275045Y-50003700D02*
X85632300Y-50003700D01*
X85632300Y-50003700D02*
X89154000Y-46482000D01*
%TO.N,Current*%
X78419400Y-64144600D02*
X78368600Y-64144600D01*
D36*
X75270450Y-64144600D02*
X71642200Y-60516350D01*
X71642200Y-60516350D02*
X71642200Y-58981200D01*
D37*
X81706300Y-67005200D02*
X81280000Y-67005200D01*
X81280000Y-67005200D02*
X78419400Y-64144600D01*
D36*
X78368600Y-64144600D02*
X75270450Y-64144600D01*
%TD*%
%TA.AperFunction,Conductor*%
%TO.N,GND*%
G36*
X73512263Y-43531892D02*
G01*
X73516241Y-43532163D01*
X73571742Y-43537753D01*
X73695020Y-43550168D01*
X73732849Y-43555259D01*
X73891973Y-43576676D01*
X73896149Y-43577384D01*
X74071666Y-43613437D01*
X74265367Y-43659216D01*
X74269667Y-43660399D01*
X74439958Y-43713975D01*
X74628653Y-43778685D01*
X74633051Y-43780384D01*
X74735297Y-43824464D01*
X74796136Y-43850693D01*
X74978199Y-43933896D01*
X74982635Y-43936142D01*
X75136490Y-44022052D01*
X75310551Y-44123326D01*
X75314936Y-44126133D01*
X75457455Y-44226057D01*
X75462747Y-44229877D01*
X75622280Y-44345036D01*
X75626569Y-44348431D01*
X75755274Y-44459889D01*
X75910319Y-44596847D01*
X75914421Y-44600823D01*
X76025047Y-44718419D01*
X76171758Y-44876227D01*
X76175582Y-44880760D01*
X76247032Y-44974234D01*
X76392913Y-45165860D01*
X76397819Y-45174424D01*
X76401585Y-45178960D01*
X76425252Y-45183312D01*
X76437855Y-45179167D01*
X76442035Y-45179103D01*
X106449707Y-45229734D01*
X106465137Y-45234293D01*
X106490181Y-45229688D01*
X106493641Y-45225558D01*
X106498898Y-45216374D01*
X106646511Y-45023398D01*
X106651032Y-45017510D01*
X106714957Y-44934271D01*
X106718772Y-44929771D01*
X106866605Y-44771487D01*
X106974898Y-44656903D01*
X106978965Y-44652979D01*
X107134387Y-44516324D01*
X107261266Y-44406958D01*
X107265512Y-44403614D01*
X107430350Y-44285201D01*
X107571171Y-44186951D01*
X107575529Y-44184176D01*
X107749367Y-44083566D01*
X107901482Y-43999086D01*
X107905897Y-43996862D01*
X108087605Y-43914325D01*
X108248925Y-43845218D01*
X108253298Y-43843539D01*
X108441459Y-43779494D01*
X108610014Y-43726889D01*
X108614255Y-43725733D01*
X108807301Y-43680577D01*
X108981010Y-43645313D01*
X108985178Y-43644614D01*
X109181335Y-43618672D01*
X109358334Y-43601257D01*
X109362285Y-43600997D01*
X109559843Y-43594436D01*
X109738110Y-43595175D01*
X109741840Y-43595305D01*
X109938995Y-43608155D01*
X110116587Y-43627119D01*
X110119996Y-43627582D01*
X110313547Y-43659489D01*
X110316281Y-43660004D01*
X110489851Y-43696743D01*
X110492991Y-43697495D01*
X110682439Y-43748231D01*
X110685324Y-43749081D01*
X110854252Y-43803346D01*
X110857128Y-43804348D01*
X111040623Y-43873408D01*
X111043649Y-43874638D01*
X111206162Y-43945860D01*
X111208672Y-43947028D01*
X111384559Y-44033789D01*
X111387676Y-44035439D01*
X111543052Y-44123425D01*
X111710793Y-44227784D01*
X111713939Y-44229877D01*
X111761526Y-44263669D01*
X111859252Y-44333066D01*
X112016015Y-44453437D01*
X112019124Y-44455989D01*
X112152833Y-44573190D01*
X112297194Y-44708521D01*
X112300188Y-44711528D01*
X112358659Y-44774434D01*
X112420854Y-44841348D01*
X112551453Y-44990437D01*
X112554299Y-44993935D01*
X112660655Y-45134816D01*
X112776291Y-45296417D01*
X112778908Y-45300387D01*
X112869817Y-45450537D01*
X112969421Y-45623373D01*
X112971740Y-45627800D01*
X113046223Y-45785110D01*
X113128908Y-45968046D01*
X113130863Y-45972909D01*
X113188128Y-46134801D01*
X113253138Y-46326964D01*
X113254665Y-46332233D01*
X113294122Y-46495046D01*
X113340864Y-46696555D01*
X113341900Y-46702190D01*
X113363237Y-46858645D01*
X113391194Y-47073085D01*
X113391680Y-47079038D01*
X113395352Y-47189196D01*
X113403518Y-47449555D01*
X113403538Y-47452613D01*
X113402742Y-47496858D01*
X113403297Y-47502390D01*
X113389512Y-50101190D01*
X113389592Y-50101882D01*
X113403559Y-80926217D01*
X113403473Y-80926654D01*
X113403565Y-80949768D01*
X113403504Y-80952776D01*
X113392107Y-81208336D01*
X113386847Y-81321332D01*
X113386282Y-81327280D01*
X113355729Y-81539691D01*
X113332313Y-81695935D01*
X113331203Y-81701555D01*
X113282126Y-81901113D01*
X113240573Y-82063181D01*
X113238977Y-82068429D01*
X113171833Y-82258582D01*
X113112555Y-82419373D01*
X113110536Y-82424210D01*
X113025920Y-82605009D01*
X112949559Y-82760920D01*
X112947182Y-82765315D01*
X112845841Y-82935912D01*
X112753227Y-83084407D01*
X112750559Y-83088341D01*
X112633417Y-83247558D01*
X112525528Y-83386607D01*
X112522636Y-83390067D01*
X112390778Y-83536638D01*
X112268759Y-83664478D01*
X112265710Y-83667460D01*
X112120357Y-83800154D01*
X111985507Y-83915239D01*
X111982364Y-83917750D01*
X111824841Y-84035427D01*
X111678631Y-84136372D01*
X111675458Y-84138423D01*
X111507215Y-84240032D01*
X111351186Y-84325684D01*
X111348040Y-84327296D01*
X111171937Y-84411285D01*
X111169381Y-84412434D01*
X111006493Y-84481266D01*
X111003428Y-84482466D01*
X110819982Y-84548750D01*
X110817092Y-84549715D01*
X110648017Y-84601570D01*
X110645083Y-84602391D01*
X110456005Y-84650357D01*
X110452794Y-84651082D01*
X110279354Y-84685403D01*
X110276593Y-84685885D01*
X110083654Y-84715075D01*
X110080145Y-84715504D01*
X109902935Y-84732059D01*
X109706664Y-84742246D01*
X109702886Y-84742327D01*
X109525220Y-84740714D01*
X109345662Y-84732372D01*
X109328801Y-84731588D01*
X109324794Y-84731272D01*
X109148622Y-84711583D01*
X108953838Y-84683194D01*
X108949640Y-84682434D01*
X108776943Y-84644988D01*
X108585569Y-84597543D01*
X108581235Y-84596299D01*
X108413951Y-84541653D01*
X108227682Y-84475489D01*
X108223267Y-84473727D01*
X108063316Y-84402686D01*
X107883765Y-84318245D01*
X107879332Y-84315938D01*
X107728710Y-84229660D01*
X107557252Y-84127376D01*
X107552868Y-84124503D01*
X107413662Y-84024614D01*
X107397976Y-84013028D01*
X107251411Y-83904772D01*
X107247180Y-83901347D01*
X107121870Y-83790409D01*
X107072618Y-83745935D01*
X106969373Y-83652705D01*
X106965312Y-83648682D01*
X106858243Y-83532344D01*
X106799194Y-83467419D01*
X106713916Y-83373655D01*
X106710126Y-83369062D01*
X106672977Y-83319345D01*
X106643307Y-83279636D01*
X106498264Y-83084726D01*
X106493062Y-83075485D01*
X106490176Y-83071936D01*
X106488520Y-83071606D01*
X106488519Y-83071606D01*
X106466974Y-83067315D01*
X106452907Y-83071716D01*
X106450519Y-83071735D01*
X76440629Y-83021097D01*
X76424861Y-83016438D01*
X76401126Y-83021234D01*
X76400002Y-83022603D01*
X76393971Y-83033212D01*
X76252637Y-83224790D01*
X76181116Y-83321335D01*
X76177335Y-83325957D01*
X76034661Y-83484139D01*
X75925386Y-83603864D01*
X75921332Y-83607913D01*
X75769750Y-83745935D01*
X75642685Y-83859367D01*
X75638436Y-83862835D01*
X75476713Y-83983324D01*
X75335875Y-84085269D01*
X75331503Y-84088161D01*
X75160262Y-84191280D01*
X75008030Y-84279319D01*
X75003607Y-84281644D01*
X74824040Y-84367002D01*
X74662451Y-84439572D01*
X74658043Y-84441352D01*
X74471595Y-84508450D01*
X74302588Y-84564434D01*
X74298260Y-84565695D01*
X74106564Y-84614063D01*
X73932093Y-84652650D01*
X73927899Y-84653427D01*
X73732655Y-84682709D01*
X73554631Y-84703350D01*
X73550623Y-84703684D01*
X73353631Y-84713655D01*
X73174070Y-84716027D01*
X73170293Y-84715962D01*
X72973324Y-84706556D01*
X72794168Y-84690569D01*
X72790680Y-84690157D01*
X72596960Y-84661669D01*
X72594201Y-84661199D01*
X72418761Y-84627235D01*
X72415547Y-84626524D01*
X72225628Y-84579180D01*
X72222691Y-84578371D01*
X72051627Y-84526679D01*
X72048732Y-84525727D01*
X71864371Y-84459972D01*
X71861301Y-84458785D01*
X71696416Y-84389912D01*
X71693854Y-84388774D01*
X71516794Y-84305225D01*
X71513641Y-84303626D01*
X71355625Y-84217733D01*
X71186404Y-84116487D01*
X71183222Y-84114449D01*
X71051943Y-84024614D01*
X71035022Y-84013034D01*
X70986453Y-83977064D01*
X70876492Y-83895623D01*
X70873339Y-83893126D01*
X70736554Y-83777365D01*
X70598870Y-83652714D01*
X70590201Y-83644865D01*
X70587155Y-83641911D01*
X70463218Y-83513130D01*
X70330397Y-83366712D01*
X70327498Y-83363274D01*
X70217758Y-83223040D01*
X70184048Y-83177618D01*
X70099665Y-83063916D01*
X70097013Y-83060041D01*
X70025010Y-82945649D01*
X70002631Y-82910094D01*
X69900377Y-82739571D01*
X69897982Y-82735185D01*
X69819983Y-82577580D01*
X69734497Y-82396875D01*
X69732471Y-82392079D01*
X69671638Y-82229149D01*
X69603708Y-82039280D01*
X69602099Y-82034062D01*
X69559108Y-81869221D01*
X69509323Y-81670345D01*
X69508205Y-81664802D01*
X69483517Y-81504597D01*
X69452308Y-81293825D01*
X69451720Y-81287900D01*
X69445582Y-81166858D01*
X69444757Y-81149944D01*
X69433761Y-80924400D01*
X71876741Y-80924400D01*
X71897336Y-81159803D01*
X71897338Y-81159813D01*
X71958494Y-81388055D01*
X71958496Y-81388059D01*
X71958497Y-81388063D01*
X71994191Y-81464608D01*
X72058364Y-81602228D01*
X72058365Y-81602230D01*
X72193905Y-81795802D01*
X72360997Y-81962894D01*
X72554569Y-82098434D01*
X72554571Y-82098435D01*
X72768737Y-82198303D01*
X72768743Y-82198304D01*
X72768744Y-82198305D01*
X72823685Y-82213026D01*
X72996992Y-82259463D01*
X73173434Y-82274900D01*
X73291366Y-82274900D01*
X73467808Y-82259463D01*
X73696063Y-82198303D01*
X73903292Y-82101670D01*
X77135500Y-82101670D01*
X77135501Y-82101676D01*
X77141908Y-82161283D01*
X77192202Y-82296128D01*
X77192206Y-82296135D01*
X77278452Y-82411344D01*
X77278455Y-82411347D01*
X77393664Y-82497593D01*
X77393671Y-82497597D01*
X77528517Y-82547891D01*
X77528516Y-82547891D01*
X77535444Y-82548635D01*
X77588127Y-82554300D01*
X79383872Y-82554299D01*
X79443483Y-82547891D01*
X79578331Y-82497596D01*
X79693546Y-82411346D01*
X79779796Y-82296131D01*
X79828810Y-82164716D01*
X79870681Y-82108784D01*
X79936145Y-82084366D01*
X80004418Y-82099217D01*
X80032673Y-82120369D01*
X80154599Y-82242295D01*
X80237439Y-82300300D01*
X80348165Y-82377832D01*
X80348167Y-82377833D01*
X80348170Y-82377835D01*
X80562337Y-82477703D01*
X80790592Y-82538863D01*
X80967034Y-82554300D01*
X81025999Y-82559459D01*
X81026000Y-82559459D01*
X81026001Y-82559459D01*
X81084966Y-82554300D01*
X81261408Y-82538863D01*
X81489663Y-82477703D01*
X81703830Y-82377835D01*
X81897401Y-82242295D01*
X82064495Y-82075201D01*
X82194730Y-81889205D01*
X82249307Y-81845581D01*
X82318805Y-81838387D01*
X82381160Y-81869910D01*
X82397879Y-81889205D01*
X82527890Y-82074878D01*
X82694917Y-82241905D01*
X82888421Y-82377400D01*
X83102507Y-82477229D01*
X83102516Y-82477233D01*
X83316000Y-82534434D01*
X83316000Y-81639301D01*
X83423685Y-81688480D01*
X83530237Y-81703800D01*
X83601763Y-81703800D01*
X83708315Y-81688480D01*
X83816000Y-81639301D01*
X83816000Y-82534433D01*
X84029483Y-82477233D01*
X84029492Y-82477229D01*
X84243578Y-82377400D01*
X84437082Y-82241905D01*
X84604105Y-82074882D01*
X84739600Y-81881378D01*
X84839429Y-81667292D01*
X84839432Y-81667286D01*
X84896636Y-81453800D01*
X83999686Y-81453800D01*
X84025493Y-81413644D01*
X84066000Y-81275689D01*
X84066000Y-81229200D01*
X85817141Y-81229200D01*
X85837736Y-81464603D01*
X85837738Y-81464613D01*
X85898894Y-81692855D01*
X85898896Y-81692859D01*
X85898897Y-81692863D01*
X85981456Y-81869910D01*
X85998765Y-81907030D01*
X85998767Y-81907034D01*
X86055667Y-81988295D01*
X86134305Y-82100601D01*
X86301399Y-82267695D01*
X86347964Y-82300300D01*
X86494965Y-82403232D01*
X86494967Y-82403233D01*
X86494970Y-82403235D01*
X86709137Y-82503103D01*
X86937392Y-82564263D01*
X87108119Y-82579200D01*
X87172799Y-82584859D01*
X87172800Y-82584859D01*
X87172801Y-82584859D01*
X87237481Y-82579200D01*
X87408208Y-82564263D01*
X87636463Y-82503103D01*
X87850630Y-82403235D01*
X88044201Y-82267695D01*
X88211295Y-82100601D01*
X88341226Y-81915040D01*
X88395801Y-81871417D01*
X88465299Y-81864223D01*
X88527654Y-81895746D01*
X88544374Y-81915041D01*
X88558700Y-81935500D01*
X88674305Y-82100601D01*
X88841399Y-82267695D01*
X88887964Y-82300300D01*
X89034965Y-82403232D01*
X89034967Y-82403233D01*
X89034970Y-82403235D01*
X89249137Y-82503103D01*
X89477392Y-82564263D01*
X89648119Y-82579200D01*
X89712799Y-82584859D01*
X89712800Y-82584859D01*
X89712801Y-82584859D01*
X89777481Y-82579200D01*
X89948208Y-82564263D01*
X90176463Y-82503103D01*
X90390630Y-82403235D01*
X90584201Y-82267695D01*
X90751295Y-82100601D01*
X90881226Y-81915041D01*
X90935802Y-81871417D01*
X91005300Y-81864223D01*
X91067655Y-81895746D01*
X91084375Y-81915042D01*
X91214300Y-82100595D01*
X91214305Y-82100601D01*
X91381399Y-82267695D01*
X91427964Y-82300300D01*
X91574965Y-82403232D01*
X91574967Y-82403233D01*
X91574970Y-82403235D01*
X91789137Y-82503103D01*
X92017392Y-82564263D01*
X92188119Y-82579200D01*
X92252799Y-82584859D01*
X92252800Y-82584859D01*
X92252801Y-82584859D01*
X92317481Y-82579200D01*
X92488208Y-82564263D01*
X92716463Y-82503103D01*
X92930630Y-82403235D01*
X93124201Y-82267695D01*
X93246517Y-82145378D01*
X93307836Y-82111896D01*
X93377528Y-82116880D01*
X93433462Y-82158751D01*
X93450377Y-82189728D01*
X93499446Y-82321288D01*
X93499449Y-82321293D01*
X93585609Y-82436387D01*
X93585612Y-82436390D01*
X93700706Y-82522550D01*
X93700713Y-82522554D01*
X93835420Y-82572796D01*
X93835427Y-82572798D01*
X93894955Y-82579199D01*
X93894972Y-82579200D01*
X94542800Y-82579200D01*
X94542800Y-81664701D01*
X94650485Y-81713880D01*
X94757037Y-81729200D01*
X94828563Y-81729200D01*
X94935115Y-81713880D01*
X95042800Y-81664701D01*
X95042800Y-82579200D01*
X95690628Y-82579200D01*
X95690644Y-82579199D01*
X95750172Y-82572798D01*
X95750179Y-82572796D01*
X95884886Y-82522554D01*
X95884893Y-82522550D01*
X95999987Y-82436390D01*
X95999990Y-82436387D01*
X96086150Y-82321293D01*
X96086154Y-82321286D01*
X96136396Y-82186579D01*
X96136398Y-82186572D01*
X96142799Y-82127044D01*
X96142800Y-82127027D01*
X96142800Y-81479200D01*
X95226486Y-81479200D01*
X95252293Y-81439044D01*
X95287231Y-81320055D01*
X99918100Y-81320055D01*
X99958810Y-81485226D01*
X100037863Y-81635849D01*
X100063513Y-81664802D01*
X100150671Y-81763183D01*
X100240918Y-81825476D01*
X100290668Y-81859817D01*
X100290669Y-81859817D01*
X100290670Y-81859818D01*
X100368158Y-81889205D01*
X100436285Y-81915042D01*
X100449728Y-81920140D01*
X100525628Y-81929356D01*
X100576226Y-81935500D01*
X100576228Y-81935500D01*
X100660974Y-81935500D01*
X100703138Y-81930380D01*
X100787472Y-81920140D01*
X100946530Y-81859818D01*
X101086529Y-81763183D01*
X101199334Y-81635852D01*
X101203061Y-81628752D01*
X101278389Y-81485226D01*
X101278390Y-81485225D01*
X101319100Y-81320056D01*
X101319100Y-81320055D01*
X102918100Y-81320055D01*
X102958810Y-81485226D01*
X103037863Y-81635849D01*
X103063513Y-81664802D01*
X103150671Y-81763183D01*
X103240918Y-81825476D01*
X103290668Y-81859817D01*
X103290669Y-81859817D01*
X103290670Y-81859818D01*
X103368158Y-81889205D01*
X103436285Y-81915042D01*
X103449728Y-81920140D01*
X103525628Y-81929356D01*
X103576226Y-81935500D01*
X103576228Y-81935500D01*
X103660974Y-81935500D01*
X103703138Y-81930380D01*
X103787472Y-81920140D01*
X103946530Y-81859818D01*
X104086529Y-81763183D01*
X104199334Y-81635852D01*
X104203061Y-81628752D01*
X104278389Y-81485226D01*
X104278390Y-81485225D01*
X104319100Y-81320056D01*
X104319100Y-81149944D01*
X104278390Y-80984775D01*
X104275464Y-80979200D01*
X104260034Y-80949800D01*
X108245341Y-80949800D01*
X108265936Y-81185203D01*
X108265938Y-81185213D01*
X108327094Y-81413455D01*
X108327096Y-81413459D01*
X108327097Y-81413463D01*
X108377031Y-81520546D01*
X108426964Y-81627628D01*
X108426965Y-81627630D01*
X108562505Y-81821202D01*
X108729597Y-81988294D01*
X108923169Y-82123834D01*
X108923171Y-82123835D01*
X109137337Y-82223703D01*
X109137343Y-82223704D01*
X109137344Y-82223705D01*
X109157662Y-82229149D01*
X109365592Y-82284863D01*
X109542034Y-82300300D01*
X109659966Y-82300300D01*
X109836408Y-82284863D01*
X110064663Y-82223703D01*
X110278829Y-82123835D01*
X110472401Y-81988295D01*
X110639495Y-81821201D01*
X110775035Y-81627630D01*
X110874903Y-81413463D01*
X110936063Y-81185208D01*
X110956659Y-80949800D01*
X110936063Y-80714392D01*
X110874903Y-80486137D01*
X110775035Y-80271971D01*
X110775034Y-80271969D01*
X110639494Y-80078397D01*
X110472402Y-79911305D01*
X110278830Y-79775765D01*
X110278828Y-79775764D01*
X110171745Y-79725830D01*
X110064663Y-79675897D01*
X110064659Y-79675896D01*
X110064655Y-79675894D01*
X109836413Y-79614738D01*
X109836403Y-79614736D01*
X109659966Y-79599300D01*
X109542034Y-79599300D01*
X109365596Y-79614736D01*
X109365586Y-79614738D01*
X109137344Y-79675894D01*
X109137335Y-79675898D01*
X108923171Y-79775764D01*
X108923169Y-79775765D01*
X108729597Y-79911305D01*
X108562506Y-80078397D01*
X108562501Y-80078404D01*
X108426967Y-80271965D01*
X108426965Y-80271969D01*
X108327098Y-80486135D01*
X108327094Y-80486144D01*
X108265938Y-80714386D01*
X108265936Y-80714396D01*
X108245341Y-80949799D01*
X108245341Y-80949800D01*
X104260034Y-80949800D01*
X104199336Y-80834150D01*
X104172845Y-80804248D01*
X104086529Y-80706817D01*
X104036777Y-80672475D01*
X103946531Y-80610182D01*
X103787474Y-80549860D01*
X103787468Y-80549859D01*
X103660974Y-80534500D01*
X103660972Y-80534500D01*
X103576228Y-80534500D01*
X103576226Y-80534500D01*
X103449731Y-80549859D01*
X103449725Y-80549860D01*
X103290668Y-80610182D01*
X103150672Y-80706816D01*
X103150671Y-80706817D01*
X103143960Y-80714392D01*
X103037863Y-80834150D01*
X102958810Y-80984773D01*
X102918100Y-81149944D01*
X102918100Y-81320055D01*
X101319100Y-81320055D01*
X101319100Y-81149944D01*
X101278390Y-80984775D01*
X101275464Y-80979200D01*
X101199336Y-80834150D01*
X101172845Y-80804248D01*
X101086529Y-80706817D01*
X101036777Y-80672475D01*
X100946531Y-80610182D01*
X100787474Y-80549860D01*
X100787468Y-80549859D01*
X100660974Y-80534500D01*
X100660972Y-80534500D01*
X100576228Y-80534500D01*
X100576226Y-80534500D01*
X100449731Y-80549859D01*
X100449725Y-80549860D01*
X100290668Y-80610182D01*
X100150672Y-80706816D01*
X100150671Y-80706817D01*
X100143960Y-80714392D01*
X100037863Y-80834150D01*
X99958810Y-80984773D01*
X99918100Y-81149944D01*
X99918100Y-81320055D01*
X95287231Y-81320055D01*
X95292800Y-81301089D01*
X95292800Y-81157311D01*
X95252293Y-81019356D01*
X95226486Y-80979200D01*
X96142799Y-80979200D01*
X96142800Y-80331372D01*
X96142799Y-80331355D01*
X96136398Y-80271827D01*
X96136396Y-80271820D01*
X96086154Y-80137113D01*
X96086150Y-80137106D01*
X95999990Y-80022012D01*
X95999987Y-80022009D01*
X95884893Y-79935849D01*
X95884886Y-79935845D01*
X95750179Y-79885603D01*
X95750172Y-79885601D01*
X95690644Y-79879200D01*
X95042800Y-79879200D01*
X95042800Y-80793698D01*
X94935115Y-80744520D01*
X94828563Y-80729200D01*
X94757037Y-80729200D01*
X94650485Y-80744520D01*
X94542800Y-80793698D01*
X94542800Y-79879200D01*
X93894955Y-79879200D01*
X93835427Y-79885601D01*
X93835420Y-79885603D01*
X93700713Y-79935845D01*
X93700706Y-79935849D01*
X93585612Y-80022009D01*
X93585609Y-80022012D01*
X93499449Y-80137106D01*
X93499445Y-80137113D01*
X93450378Y-80268670D01*
X93408507Y-80324604D01*
X93343042Y-80349021D01*
X93274769Y-80334169D01*
X93246515Y-80313019D01*
X93202166Y-80268670D01*
X93124201Y-80190705D01*
X93124197Y-80190702D01*
X93124196Y-80190701D01*
X92930634Y-80055167D01*
X92930630Y-80055165D01*
X92925981Y-80052997D01*
X92716463Y-79955297D01*
X92716459Y-79955296D01*
X92716455Y-79955294D01*
X92488213Y-79894138D01*
X92488203Y-79894136D01*
X92252801Y-79873541D01*
X92252799Y-79873541D01*
X92017396Y-79894136D01*
X92017386Y-79894138D01*
X91789144Y-79955294D01*
X91789135Y-79955298D01*
X91574971Y-80055164D01*
X91574969Y-80055165D01*
X91381397Y-80190705D01*
X91214305Y-80357797D01*
X91084375Y-80543358D01*
X91029798Y-80586983D01*
X90960300Y-80594177D01*
X90897945Y-80562654D01*
X90881225Y-80543358D01*
X90751294Y-80357797D01*
X90584202Y-80190706D01*
X90584195Y-80190701D01*
X90547927Y-80165306D01*
X90507654Y-80137106D01*
X90390634Y-80055167D01*
X90390630Y-80055165D01*
X90385981Y-80052997D01*
X90176463Y-79955297D01*
X90176459Y-79955296D01*
X90176455Y-79955294D01*
X89948213Y-79894138D01*
X89948203Y-79894136D01*
X89712801Y-79873541D01*
X89712799Y-79873541D01*
X89477396Y-79894136D01*
X89477386Y-79894138D01*
X89249144Y-79955294D01*
X89249135Y-79955298D01*
X89034971Y-80055164D01*
X89034969Y-80055165D01*
X88841397Y-80190705D01*
X88674305Y-80357797D01*
X88544375Y-80543358D01*
X88489798Y-80586983D01*
X88420300Y-80594177D01*
X88357945Y-80562654D01*
X88341225Y-80543358D01*
X88211294Y-80357797D01*
X88044202Y-80190706D01*
X88044195Y-80190701D01*
X88007927Y-80165306D01*
X87967654Y-80137106D01*
X87850634Y-80055167D01*
X87850630Y-80055165D01*
X87845981Y-80052997D01*
X87636463Y-79955297D01*
X87636459Y-79955296D01*
X87636455Y-79955294D01*
X87408213Y-79894138D01*
X87408203Y-79894136D01*
X87172801Y-79873541D01*
X87172799Y-79873541D01*
X86937396Y-79894136D01*
X86937386Y-79894138D01*
X86709144Y-79955294D01*
X86709135Y-79955298D01*
X86494971Y-80055164D01*
X86494969Y-80055165D01*
X86301397Y-80190705D01*
X86134305Y-80357797D01*
X85998765Y-80551369D01*
X85998764Y-80551371D01*
X85898898Y-80765535D01*
X85898894Y-80765544D01*
X85837738Y-80993786D01*
X85837736Y-80993796D01*
X85817141Y-81229199D01*
X85817141Y-81229200D01*
X84066000Y-81229200D01*
X84066000Y-81131911D01*
X84025493Y-80993956D01*
X83999686Y-80953800D01*
X84896636Y-80953800D01*
X84896635Y-80953799D01*
X84839432Y-80740313D01*
X84839429Y-80740307D01*
X84739600Y-80526222D01*
X84739599Y-80526220D01*
X84604113Y-80332726D01*
X84604108Y-80332720D01*
X84437082Y-80165694D01*
X84243578Y-80030199D01*
X84029492Y-79930370D01*
X84029486Y-79930367D01*
X83816000Y-79873164D01*
X83816000Y-80768298D01*
X83708315Y-80719120D01*
X83601763Y-80703800D01*
X83530237Y-80703800D01*
X83423685Y-80719120D01*
X83316000Y-80768298D01*
X83316000Y-79873164D01*
X83315999Y-79873164D01*
X83102513Y-79930367D01*
X83102507Y-79930370D01*
X82888422Y-80030199D01*
X82888420Y-80030200D01*
X82694926Y-80165686D01*
X82694920Y-80165691D01*
X82527891Y-80332720D01*
X82527890Y-80332722D01*
X82397880Y-80518395D01*
X82343303Y-80562019D01*
X82273804Y-80569212D01*
X82211450Y-80537690D01*
X82194730Y-80518394D01*
X82064494Y-80332397D01*
X81897402Y-80165306D01*
X81897395Y-80165301D01*
X81703834Y-80029767D01*
X81703830Y-80029765D01*
X81687197Y-80022009D01*
X81489663Y-79929897D01*
X81489659Y-79929896D01*
X81489655Y-79929894D01*
X81261413Y-79868738D01*
X81261403Y-79868736D01*
X81026001Y-79848141D01*
X81025999Y-79848141D01*
X80790596Y-79868736D01*
X80790586Y-79868738D01*
X80562344Y-79929894D01*
X80562335Y-79929898D01*
X80348171Y-80029764D01*
X80348169Y-80029765D01*
X80154600Y-80165303D01*
X80032673Y-80287230D01*
X79971350Y-80320714D01*
X79901658Y-80315730D01*
X79845725Y-80273858D01*
X79828810Y-80242881D01*
X79779797Y-80111471D01*
X79779793Y-80111464D01*
X79693547Y-79996255D01*
X79693544Y-79996252D01*
X79578335Y-79910006D01*
X79578328Y-79910002D01*
X79443482Y-79859708D01*
X79443483Y-79859708D01*
X79383883Y-79853301D01*
X79383881Y-79853300D01*
X79383873Y-79853300D01*
X79383864Y-79853300D01*
X77588129Y-79853300D01*
X77588123Y-79853301D01*
X77528516Y-79859708D01*
X77393671Y-79910002D01*
X77393664Y-79910006D01*
X77278455Y-79996252D01*
X77278452Y-79996255D01*
X77192206Y-80111464D01*
X77192202Y-80111471D01*
X77141908Y-80246317D01*
X77135501Y-80305916D01*
X77135500Y-80305935D01*
X77135500Y-82101670D01*
X73903292Y-82101670D01*
X73910229Y-82098435D01*
X74103801Y-81962895D01*
X74270895Y-81795801D01*
X74406435Y-81602230D01*
X74506303Y-81388063D01*
X74567463Y-81159808D01*
X74588059Y-80924400D01*
X74567463Y-80688992D01*
X74506303Y-80460737D01*
X74406435Y-80246571D01*
X74406434Y-80246569D01*
X74270894Y-80052997D01*
X74103802Y-79885905D01*
X73910230Y-79750365D01*
X73910228Y-79750364D01*
X73750533Y-79675897D01*
X73696063Y-79650497D01*
X73696059Y-79650496D01*
X73696055Y-79650494D01*
X73467813Y-79589338D01*
X73467803Y-79589336D01*
X73291366Y-79573900D01*
X73173434Y-79573900D01*
X72996996Y-79589336D01*
X72996986Y-79589338D01*
X72768744Y-79650494D01*
X72768735Y-79650498D01*
X72554571Y-79750364D01*
X72554569Y-79750365D01*
X72360997Y-79885905D01*
X72193906Y-80052997D01*
X72193901Y-80053004D01*
X72058367Y-80246565D01*
X72058365Y-80246569D01*
X71958498Y-80460735D01*
X71958494Y-80460744D01*
X71897338Y-80688986D01*
X71897336Y-80688996D01*
X71876741Y-80924399D01*
X71876741Y-80924400D01*
X69433761Y-80924400D01*
X69433393Y-80916842D01*
X69433320Y-80913865D01*
X69429056Y-66449682D01*
X69448721Y-66382638D01*
X69501511Y-66336868D01*
X69570667Y-66326904D01*
X69634231Y-66355910D01*
X69666790Y-66400246D01*
X69698337Y-66472875D01*
X69698339Y-66472880D01*
X69851198Y-66724245D01*
X69851200Y-66724247D01*
X69851201Y-66724249D01*
X69893615Y-66776383D01*
X70036861Y-66952456D01*
X70036864Y-66952458D01*
X70036865Y-66952460D01*
X70093336Y-67005200D01*
X70251876Y-67153267D01*
X70492216Y-67322917D01*
X70492222Y-67322921D01*
X70497444Y-67325627D01*
X70753436Y-67458272D01*
X70827269Y-67484512D01*
X70999567Y-67545747D01*
X71056144Y-67586745D01*
X71081574Y-67651822D01*
X71067784Y-67720317D01*
X71019151Y-67770484D01*
X71010450Y-67774968D01*
X70999512Y-67780068D01*
X70926527Y-67831172D01*
X70926526Y-67831173D01*
X71607600Y-68512246D01*
X71526852Y-68525035D01*
X71413955Y-68582559D01*
X71324359Y-68672155D01*
X71266835Y-68785052D01*
X71254046Y-68865799D01*
X70572973Y-68184726D01*
X70572972Y-68184727D01*
X70521868Y-68257713D01*
X70425734Y-68463873D01*
X70425730Y-68463882D01*
X70366860Y-68683589D01*
X70366858Y-68683600D01*
X70347034Y-68910197D01*
X70347034Y-68910202D01*
X70366858Y-69136799D01*
X70366860Y-69136810D01*
X70425730Y-69356517D01*
X70425734Y-69356526D01*
X70521865Y-69562681D01*
X70521866Y-69562683D01*
X70572973Y-69635671D01*
X70572974Y-69635672D01*
X71254046Y-68954599D01*
X71266835Y-69035348D01*
X71324359Y-69148245D01*
X71413955Y-69237841D01*
X71526852Y-69295365D01*
X71607599Y-69308153D01*
X70926526Y-69989225D01*
X70926526Y-69989226D01*
X70938813Y-69997829D01*
X70982438Y-70052405D01*
X70989632Y-70121903D01*
X70958110Y-70184258D01*
X70938814Y-70200979D01*
X70877127Y-70244173D01*
X70877126Y-70244173D01*
X71558200Y-70925246D01*
X71477452Y-70938035D01*
X71364555Y-70995559D01*
X71274959Y-71085155D01*
X71217435Y-71198052D01*
X71204646Y-71278799D01*
X70523573Y-70597726D01*
X70523572Y-70597727D01*
X70472468Y-70670713D01*
X70376334Y-70876873D01*
X70376330Y-70876882D01*
X70317460Y-71096589D01*
X70317458Y-71096600D01*
X70297634Y-71323197D01*
X70297634Y-71323202D01*
X70317458Y-71549799D01*
X70317460Y-71549810D01*
X70376330Y-71769517D01*
X70376334Y-71769526D01*
X70472465Y-71975681D01*
X70472466Y-71975683D01*
X70523573Y-72048671D01*
X70523574Y-72048672D01*
X71204646Y-71367599D01*
X71217435Y-71448348D01*
X71274959Y-71561245D01*
X71364555Y-71650841D01*
X71477452Y-71708365D01*
X71558199Y-71721153D01*
X70877126Y-72402225D01*
X70877126Y-72402226D01*
X70882576Y-72406042D01*
X70926201Y-72460618D01*
X70933395Y-72530117D01*
X70901873Y-72592472D01*
X70882576Y-72609192D01*
X70850327Y-72631772D01*
X70850326Y-72631773D01*
X71531400Y-73312846D01*
X71450652Y-73325635D01*
X71337755Y-73383159D01*
X71248159Y-73472755D01*
X71190635Y-73585652D01*
X71177846Y-73666399D01*
X70496773Y-72985326D01*
X70496772Y-72985327D01*
X70445668Y-73058313D01*
X70349534Y-73264473D01*
X70349530Y-73264482D01*
X70290660Y-73484189D01*
X70290658Y-73484200D01*
X70270834Y-73710797D01*
X70270834Y-73710802D01*
X70290658Y-73937399D01*
X70290660Y-73937410D01*
X70349530Y-74157117D01*
X70349534Y-74157126D01*
X70445665Y-74363281D01*
X70445666Y-74363283D01*
X70496773Y-74436271D01*
X70496774Y-74436272D01*
X71177846Y-73755199D01*
X71190635Y-73835948D01*
X71248159Y-73948845D01*
X71337755Y-74038441D01*
X71450652Y-74095965D01*
X71531399Y-74108753D01*
X70850326Y-74789825D01*
X70869175Y-74803023D01*
X70912801Y-74857600D01*
X70919995Y-74927098D01*
X70888473Y-74989453D01*
X70869177Y-75006174D01*
X70850327Y-75019373D01*
X70850326Y-75019373D01*
X71531400Y-75700446D01*
X71450652Y-75713235D01*
X71337755Y-75770759D01*
X71248159Y-75860355D01*
X71190635Y-75973252D01*
X71177846Y-76053999D01*
X70496773Y-75372926D01*
X70496772Y-75372927D01*
X70445668Y-75445913D01*
X70349534Y-75652073D01*
X70349530Y-75652082D01*
X70290660Y-75871789D01*
X70290658Y-75871800D01*
X70270834Y-76098397D01*
X70270834Y-76098402D01*
X70290658Y-76324999D01*
X70290660Y-76325010D01*
X70349530Y-76544717D01*
X70349534Y-76544726D01*
X70445665Y-76750881D01*
X70445666Y-76750883D01*
X70496773Y-76823871D01*
X70496774Y-76823872D01*
X71177846Y-76142799D01*
X71190635Y-76223548D01*
X71248159Y-76336445D01*
X71337755Y-76426041D01*
X71450652Y-76483565D01*
X71531399Y-76496353D01*
X70850326Y-77177425D01*
X70850326Y-77177426D01*
X70923312Y-77228531D01*
X70923316Y-77228533D01*
X71129473Y-77324665D01*
X71129482Y-77324669D01*
X71349189Y-77383539D01*
X71349200Y-77383541D01*
X71575798Y-77403366D01*
X71575802Y-77403366D01*
X71802399Y-77383541D01*
X71802410Y-77383539D01*
X72022117Y-77324669D01*
X72022131Y-77324664D01*
X72228278Y-77228536D01*
X72301272Y-77177425D01*
X71620201Y-76496353D01*
X71700948Y-76483565D01*
X71813845Y-76426041D01*
X71903441Y-76336445D01*
X71960965Y-76223548D01*
X71973753Y-76142800D01*
X72654825Y-76823872D01*
X72705936Y-76750878D01*
X72802064Y-76544731D01*
X72802069Y-76544717D01*
X72860939Y-76325010D01*
X72860941Y-76324999D01*
X72880766Y-76098402D01*
X72880766Y-76098397D01*
X72860941Y-75871800D01*
X72860939Y-75871789D01*
X72802069Y-75652082D01*
X72802065Y-75652073D01*
X72705933Y-75445916D01*
X72705931Y-75445912D01*
X72654826Y-75372926D01*
X72654825Y-75372926D01*
X71973753Y-76053998D01*
X71960965Y-75973252D01*
X71903441Y-75860355D01*
X71813845Y-75770759D01*
X71700948Y-75713235D01*
X71620200Y-75700446D01*
X72301272Y-75019374D01*
X72301271Y-75019372D01*
X72282422Y-75006174D01*
X72238797Y-74951597D01*
X72231603Y-74882099D01*
X72263126Y-74819744D01*
X72282422Y-74803023D01*
X72301271Y-74789824D01*
X71620201Y-74108753D01*
X71700948Y-74095965D01*
X71813845Y-74038441D01*
X71903441Y-73948845D01*
X71960965Y-73835948D01*
X71973753Y-73755200D01*
X72654825Y-74436272D01*
X72705936Y-74363278D01*
X72802064Y-74157131D01*
X72802069Y-74157117D01*
X72860939Y-73937410D01*
X72860941Y-73937399D01*
X72880766Y-73710802D01*
X72880766Y-73710797D01*
X72860941Y-73484200D01*
X72860939Y-73484189D01*
X72802069Y-73264482D01*
X72802065Y-73264473D01*
X72743252Y-73138347D01*
X72732760Y-73069270D01*
X72761280Y-73005485D01*
X72819756Y-72967246D01*
X72889624Y-72966691D01*
X72943315Y-72998261D01*
X72949525Y-73004471D01*
X72962163Y-73019269D01*
X72974633Y-73036433D01*
X72974636Y-73036436D01*
X72974637Y-73036437D01*
X73012076Y-73067409D01*
X73016376Y-73071322D01*
X73146997Y-73201943D01*
X73268915Y-73323861D01*
X73302400Y-73385184D01*
X73301009Y-73443634D01*
X73290167Y-73484099D01*
X73290164Y-73484113D01*
X73270332Y-73710798D01*
X73270332Y-73710801D01*
X73290164Y-73937486D01*
X73290166Y-73937497D01*
X73349058Y-74157288D01*
X73349061Y-74157297D01*
X73445231Y-74363532D01*
X73445232Y-74363534D01*
X73575754Y-74549941D01*
X73736658Y-74710845D01*
X73868306Y-74803025D01*
X73911931Y-74857601D01*
X73919125Y-74927100D01*
X73887603Y-74989455D01*
X73868306Y-75006175D01*
X73736658Y-75098354D01*
X73575754Y-75259258D01*
X73445232Y-75445665D01*
X73445231Y-75445667D01*
X73349061Y-75651902D01*
X73349058Y-75651911D01*
X73290166Y-75871702D01*
X73290164Y-75871713D01*
X73270332Y-76098398D01*
X73270332Y-76098401D01*
X73290164Y-76325086D01*
X73290166Y-76325097D01*
X73349058Y-76544888D01*
X73349061Y-76544897D01*
X73445231Y-76751132D01*
X73445232Y-76751134D01*
X73575754Y-76937541D01*
X73736658Y-77098445D01*
X73764087Y-77117651D01*
X73923066Y-77228968D01*
X74129304Y-77325139D01*
X74349108Y-77384035D01*
X74511030Y-77398201D01*
X74575798Y-77403868D01*
X74575800Y-77403868D01*
X74575802Y-77403868D01*
X74632472Y-77398909D01*
X74802492Y-77384035D01*
X75022296Y-77325139D01*
X75228534Y-77228968D01*
X75414939Y-77098447D01*
X75575847Y-76937539D01*
X75706368Y-76751134D01*
X75802539Y-76544896D01*
X75861435Y-76325092D01*
X75881268Y-76098400D01*
X75861435Y-75871708D01*
X75843118Y-75803348D01*
X75844781Y-75733503D01*
X75875210Y-75683579D01*
X76084588Y-75474201D01*
X76096842Y-75464386D01*
X76096659Y-75464164D01*
X76102666Y-75459192D01*
X76102677Y-75459186D01*
X76133575Y-75426282D01*
X76150027Y-75408764D01*
X76160471Y-75398318D01*
X76170920Y-75387871D01*
X76175179Y-75382378D01*
X76178952Y-75377961D01*
X76210862Y-75343982D01*
X76220513Y-75326424D01*
X76231196Y-75310161D01*
X76243473Y-75294336D01*
X76261985Y-75251553D01*
X76264538Y-75246341D01*
X76286997Y-75205492D01*
X76291980Y-75186080D01*
X76298281Y-75167680D01*
X76306237Y-75149296D01*
X76313529Y-75103252D01*
X76314706Y-75097571D01*
X76326300Y-75052419D01*
X76326300Y-75032382D01*
X76327827Y-75012982D01*
X76330960Y-74993204D01*
X76326575Y-74946815D01*
X76326300Y-74940977D01*
X76326300Y-74803849D01*
X76345985Y-74736810D01*
X76398789Y-74691055D01*
X76467947Y-74681111D01*
X76531503Y-74710136D01*
X76556418Y-74739701D01*
X76570945Y-74763732D01*
X76570946Y-74763734D01*
X76684365Y-74877153D01*
X76684370Y-74877157D01*
X76821629Y-74960132D01*
X76821633Y-74960134D01*
X76875800Y-74977012D01*
X76974767Y-75007852D01*
X77041319Y-75013900D01*
X77468080Y-75013899D01*
X77468088Y-75013899D01*
X77534626Y-75007853D01*
X77534627Y-75007852D01*
X77534633Y-75007852D01*
X77687769Y-74960133D01*
X77725925Y-74937066D01*
X77793479Y-74919230D01*
X77859953Y-74940747D01*
X77877751Y-74955497D01*
X77946335Y-75024081D01*
X78087802Y-75107744D01*
X78129424Y-75119836D01*
X78245626Y-75153597D01*
X78245629Y-75153597D01*
X78245631Y-75153598D01*
X78257922Y-75154565D01*
X78282504Y-75156500D01*
X78282506Y-75156500D01*
X79367647Y-75156500D01*
X79434686Y-75176185D01*
X79455327Y-75192818D01*
X79611585Y-75349077D01*
X79763097Y-75500589D01*
X79796582Y-75561912D01*
X79798636Y-75574385D01*
X79803940Y-75621460D01*
X79863520Y-75791732D01*
X79913830Y-75871800D01*
X79959494Y-75944473D01*
X80087048Y-76072027D01*
X80129022Y-76098401D01*
X80218861Y-76154851D01*
X80239788Y-76168000D01*
X80335820Y-76201603D01*
X80410055Y-76227579D01*
X80410060Y-76227580D01*
X80589306Y-76247776D01*
X80589310Y-76247776D01*
X80589314Y-76247776D01*
X80704916Y-76234751D01*
X80773738Y-76246806D01*
X80825117Y-76294155D01*
X80842799Y-76357971D01*
X80842799Y-76543460D01*
X80841076Y-76559077D01*
X80841361Y-76559104D01*
X80840626Y-76566870D01*
X80842800Y-76636019D01*
X80842800Y-76665548D01*
X80842801Y-76665565D01*
X80843668Y-76672436D01*
X80844126Y-76678255D01*
X80845590Y-76724829D01*
X80845591Y-76724832D01*
X80851180Y-76744072D01*
X80855124Y-76763116D01*
X80857636Y-76782997D01*
X80873357Y-76822705D01*
X80874790Y-76826324D01*
X80876682Y-76831852D01*
X80889491Y-76875940D01*
X80889682Y-76876595D01*
X80898058Y-76890759D01*
X80899880Y-76893839D01*
X80908438Y-76911308D01*
X80915814Y-76929937D01*
X80943198Y-76967628D01*
X80946406Y-76972512D01*
X80970127Y-77012621D01*
X80970133Y-77012629D01*
X80984290Y-77026785D01*
X80996927Y-77041580D01*
X81008706Y-77057792D01*
X81020437Y-77067497D01*
X81044609Y-77087493D01*
X81048920Y-77091415D01*
X82545014Y-78587510D01*
X82612492Y-78654988D01*
X82622317Y-78667251D01*
X82622538Y-78667069D01*
X82627509Y-78673078D01*
X82648338Y-78692637D01*
X82677930Y-78720426D01*
X82698824Y-78741320D01*
X82704306Y-78745573D01*
X82708738Y-78749357D01*
X82742713Y-78781262D01*
X82760271Y-78790914D01*
X82776530Y-78801595D01*
X82792359Y-78813873D01*
X82835133Y-78832382D01*
X82840351Y-78834938D01*
X82881203Y-78857397D01*
X82900611Y-78862380D01*
X82919012Y-78868680D01*
X82937399Y-78876637D01*
X82980783Y-78883508D01*
X82983414Y-78883925D01*
X82989134Y-78885109D01*
X83034276Y-78896700D01*
X83054311Y-78896700D01*
X83073709Y-78898226D01*
X83093489Y-78901359D01*
X83093490Y-78901360D01*
X83093490Y-78901359D01*
X83093491Y-78901360D01*
X83139878Y-78896975D01*
X83145717Y-78896700D01*
X83647257Y-78896700D01*
X83662877Y-78898424D01*
X83662904Y-78898139D01*
X83670660Y-78898871D01*
X83670667Y-78898873D01*
X83739814Y-78896700D01*
X83769350Y-78896700D01*
X83776228Y-78895830D01*
X83782041Y-78895372D01*
X83828627Y-78893909D01*
X83847869Y-78888317D01*
X83866912Y-78884374D01*
X83886792Y-78881864D01*
X83930122Y-78864707D01*
X83935646Y-78862817D01*
X83939396Y-78861727D01*
X83980390Y-78849818D01*
X83997629Y-78839622D01*
X84015103Y-78831062D01*
X84033727Y-78823688D01*
X84033727Y-78823687D01*
X84033732Y-78823686D01*
X84071449Y-78796282D01*
X84076305Y-78793092D01*
X84116420Y-78769370D01*
X84130589Y-78755199D01*
X84145379Y-78742568D01*
X84161587Y-78730794D01*
X84191299Y-78694876D01*
X84195212Y-78690576D01*
X86818619Y-76067170D01*
X86879942Y-76033685D01*
X86949634Y-76038669D01*
X87005567Y-76080541D01*
X87029984Y-76146005D01*
X87030300Y-76154851D01*
X87030300Y-76749494D01*
X87028532Y-76765505D01*
X87028774Y-76765528D01*
X87028040Y-76773294D01*
X87028040Y-76773296D01*
X87028201Y-76778404D01*
X87030300Y-76845203D01*
X87030300Y-76875920D01*
X87030301Y-76875940D01*
X87031218Y-76883206D01*
X87031676Y-76889024D01*
X87033202Y-76937567D01*
X87033203Y-76937570D01*
X87039123Y-76957948D01*
X87043068Y-76976996D01*
X87045728Y-76998054D01*
X87045731Y-76998064D01*
X87063613Y-77043230D01*
X87065505Y-77048758D01*
X87079054Y-77095395D01*
X87079055Y-77095397D01*
X87089860Y-77113666D01*
X87098417Y-77131134D01*
X87099065Y-77132768D01*
X87106232Y-77150872D01*
X87134783Y-77190170D01*
X87137991Y-77195053D01*
X87158048Y-77228968D01*
X87162719Y-77236865D01*
X87162723Y-77236869D01*
X87177725Y-77251871D01*
X87190363Y-77266669D01*
X87202833Y-77283833D01*
X87202836Y-77283836D01*
X87202837Y-77283837D01*
X87240276Y-77314809D01*
X87244576Y-77318722D01*
X87384034Y-77458180D01*
X87513364Y-77587510D01*
X87523435Y-77600080D01*
X87523622Y-77599926D01*
X87528596Y-77605937D01*
X87528598Y-77605940D01*
X87541590Y-77618140D01*
X87581043Y-77655190D01*
X87602767Y-77676913D01*
X87608557Y-77681405D01*
X87612997Y-77685197D01*
X87642298Y-77712711D01*
X87648407Y-77718448D01*
X87648409Y-77718449D01*
X87667005Y-77728672D01*
X87683270Y-77739357D01*
X87700032Y-77752360D01*
X87700035Y-77752361D01*
X87700036Y-77752362D01*
X87744623Y-77771656D01*
X87749859Y-77774221D01*
X87792432Y-77797627D01*
X87808140Y-77801659D01*
X87812986Y-77802904D01*
X87831398Y-77809207D01*
X87850873Y-77817635D01*
X87898871Y-77825237D01*
X87904540Y-77826411D01*
X87951623Y-77838500D01*
X87972851Y-77838500D01*
X87992248Y-77840026D01*
X88013205Y-77843346D01*
X88057072Y-77839199D01*
X88125665Y-77852487D01*
X88156422Y-77874968D01*
X88868964Y-78587510D01*
X88879035Y-78600080D01*
X88879222Y-78599926D01*
X88884196Y-78605937D01*
X88884198Y-78605940D01*
X88912745Y-78632748D01*
X88936643Y-78655190D01*
X88958366Y-78676912D01*
X88964158Y-78681405D01*
X88968598Y-78685198D01*
X88978919Y-78694889D01*
X89004007Y-78718448D01*
X89022598Y-78728668D01*
X89038863Y-78739352D01*
X89055634Y-78752361D01*
X89055637Y-78752363D01*
X89100227Y-78771658D01*
X89105456Y-78774220D01*
X89148032Y-78797627D01*
X89168593Y-78802905D01*
X89186997Y-78809207D01*
X89206474Y-78817636D01*
X89244327Y-78823630D01*
X89254454Y-78825235D01*
X89260164Y-78826417D01*
X89307223Y-78838500D01*
X89328445Y-78838500D01*
X89347842Y-78840026D01*
X89368805Y-78843347D01*
X89417172Y-78838774D01*
X89423009Y-78838500D01*
X95176392Y-78838500D01*
X95243431Y-78858185D01*
X95264073Y-78874819D01*
X95440564Y-79051310D01*
X95450635Y-79063880D01*
X95450822Y-79063726D01*
X95455796Y-79069737D01*
X95455798Y-79069740D01*
X95475253Y-79088009D01*
X95508243Y-79118990D01*
X95529967Y-79140713D01*
X95535757Y-79145205D01*
X95540197Y-79148997D01*
X95569498Y-79176511D01*
X95575607Y-79182248D01*
X95575609Y-79182249D01*
X95594205Y-79192472D01*
X95610470Y-79203157D01*
X95627232Y-79216160D01*
X95627235Y-79216161D01*
X95627236Y-79216162D01*
X95671823Y-79235456D01*
X95677059Y-79238021D01*
X95719632Y-79261427D01*
X95735340Y-79265459D01*
X95740186Y-79266704D01*
X95758598Y-79273007D01*
X95778073Y-79281435D01*
X95826071Y-79289037D01*
X95831740Y-79290211D01*
X95878823Y-79302300D01*
X95900051Y-79302300D01*
X95919448Y-79303826D01*
X95940403Y-79307145D01*
X95940404Y-79307146D01*
X95940404Y-79307145D01*
X95940405Y-79307146D01*
X95988760Y-79302575D01*
X95994599Y-79302300D01*
X98413646Y-79302300D01*
X98429656Y-79304067D01*
X98429679Y-79303826D01*
X98437440Y-79304558D01*
X98437447Y-79304560D01*
X98509354Y-79302300D01*
X98540076Y-79302300D01*
X98547341Y-79301381D01*
X98553167Y-79300922D01*
X98601720Y-79299397D01*
X98622107Y-79293473D01*
X98641147Y-79289531D01*
X98662209Y-79286871D01*
X98707386Y-79268983D01*
X98712886Y-79267100D01*
X98759549Y-79253544D01*
X98777816Y-79242739D01*
X98795287Y-79234180D01*
X98815022Y-79226368D01*
X98854328Y-79197810D01*
X98859194Y-79194613D01*
X98901016Y-79169881D01*
X98916021Y-79154875D01*
X98930819Y-79142236D01*
X98947988Y-79129763D01*
X98978960Y-79092322D01*
X98982864Y-79088031D01*
X100221512Y-77849384D01*
X100234079Y-77839317D01*
X100233925Y-77839130D01*
X100239937Y-77834156D01*
X100239937Y-77834155D01*
X100239940Y-77834154D01*
X100289190Y-77781707D01*
X100310911Y-77759987D01*
X100315401Y-77754197D01*
X100319183Y-77749767D01*
X100352448Y-77714345D01*
X100362674Y-77695742D01*
X100373353Y-77679485D01*
X100386362Y-77662716D01*
X100405656Y-77618127D01*
X100408212Y-77612908D01*
X100431627Y-77570320D01*
X100436905Y-77549758D01*
X100443207Y-77531351D01*
X100451635Y-77511879D01*
X100458372Y-77469340D01*
X100459233Y-77463905D01*
X100460415Y-77458194D01*
X100472500Y-77411129D01*
X100472500Y-77389901D01*
X100474027Y-77370502D01*
X100477346Y-77349548D01*
X100472775Y-77301191D01*
X100472500Y-77295353D01*
X100472500Y-77214908D01*
X100492185Y-77147869D01*
X100544989Y-77102114D01*
X100614147Y-77092170D01*
X100677703Y-77121195D01*
X100684181Y-77127227D01*
X101007864Y-77450910D01*
X101017935Y-77463480D01*
X101018122Y-77463326D01*
X101023096Y-77469337D01*
X101023098Y-77469340D01*
X101042554Y-77487610D01*
X101075543Y-77518590D01*
X101097266Y-77540312D01*
X101103058Y-77544805D01*
X101107498Y-77548598D01*
X101123560Y-77563680D01*
X101142907Y-77581848D01*
X101161498Y-77592068D01*
X101177763Y-77602752D01*
X101194534Y-77615761D01*
X101194537Y-77615763D01*
X101239127Y-77635058D01*
X101244356Y-77637620D01*
X101286932Y-77661027D01*
X101307493Y-77666305D01*
X101325897Y-77672607D01*
X101345374Y-77681036D01*
X101379692Y-77686471D01*
X101393354Y-77688635D01*
X101399064Y-77689817D01*
X101446123Y-77701900D01*
X101467345Y-77701900D01*
X101486742Y-77703426D01*
X101507705Y-77706747D01*
X101556072Y-77702174D01*
X101561909Y-77701900D01*
X110008095Y-77701900D01*
X110024105Y-77703667D01*
X110024128Y-77703426D01*
X110031889Y-77704158D01*
X110031896Y-77704160D01*
X110103803Y-77701900D01*
X110134525Y-77701900D01*
X110141790Y-77700981D01*
X110147616Y-77700522D01*
X110196169Y-77698997D01*
X110216556Y-77693073D01*
X110235596Y-77689131D01*
X110256658Y-77686471D01*
X110301835Y-77668583D01*
X110307335Y-77666700D01*
X110353998Y-77653144D01*
X110372265Y-77642339D01*
X110389736Y-77633780D01*
X110409471Y-77625968D01*
X110448777Y-77597410D01*
X110453643Y-77594213D01*
X110495465Y-77569481D01*
X110510470Y-77554475D01*
X110525268Y-77541836D01*
X110527373Y-77540307D01*
X110542437Y-77529363D01*
X110573409Y-77491922D01*
X110577323Y-77487621D01*
X110653113Y-77411831D01*
X110665679Y-77401765D01*
X110665525Y-77401578D01*
X110671537Y-77396604D01*
X110671537Y-77396603D01*
X110671540Y-77396602D01*
X110720790Y-77344155D01*
X110742511Y-77322435D01*
X110747001Y-77316645D01*
X110750783Y-77312215D01*
X110784048Y-77276793D01*
X110794274Y-77258190D01*
X110804953Y-77241933D01*
X110817962Y-77225164D01*
X110837256Y-77180575D01*
X110839812Y-77175356D01*
X110863227Y-77132768D01*
X110868505Y-77112206D01*
X110874807Y-77093799D01*
X110883235Y-77074327D01*
X110890833Y-77026353D01*
X110892014Y-77020647D01*
X110904100Y-76973577D01*
X110904100Y-76952349D01*
X110905627Y-76932949D01*
X110906249Y-76929020D01*
X110908946Y-76911995D01*
X110904375Y-76863638D01*
X110904100Y-76857800D01*
X110904100Y-75296903D01*
X110905868Y-75280891D01*
X110905626Y-75280869D01*
X110906360Y-75273106D01*
X110904100Y-75201182D01*
X110904100Y-75170478D01*
X110904100Y-75170475D01*
X110903179Y-75163192D01*
X110902723Y-75157387D01*
X110901600Y-75121640D01*
X110901198Y-75108831D01*
X110895276Y-75088450D01*
X110891331Y-75069395D01*
X110888672Y-75048349D01*
X110888671Y-75048348D01*
X110888671Y-75048342D01*
X110870789Y-75003179D01*
X110868900Y-74997659D01*
X110860234Y-74967832D01*
X110855345Y-74951002D01*
X110849427Y-74940995D01*
X110844536Y-74932724D01*
X110835978Y-74915255D01*
X110828168Y-74895529D01*
X110799606Y-74856218D01*
X110796418Y-74851364D01*
X110771681Y-74809535D01*
X110756674Y-74794528D01*
X110744035Y-74779730D01*
X110731561Y-74762560D01*
X110694128Y-74731594D01*
X110689806Y-74727660D01*
X109359893Y-73397747D01*
X109326408Y-73336424D01*
X109327798Y-73277977D01*
X109373663Y-73106808D01*
X109394259Y-72871400D01*
X109392748Y-72854135D01*
X109385880Y-72775626D01*
X109373663Y-72635992D01*
X109312503Y-72407737D01*
X109212635Y-72193571D01*
X109212634Y-72193569D01*
X109077094Y-71999997D01*
X108910005Y-71832908D01*
X108864668Y-71801163D01*
X108759675Y-71727646D01*
X108753003Y-71722974D01*
X108709379Y-71668397D01*
X108702186Y-71598898D01*
X108733708Y-71536544D01*
X108752997Y-71519829D01*
X108910001Y-71409895D01*
X109077095Y-71242801D01*
X109212635Y-71049230D01*
X109312503Y-70835063D01*
X109373663Y-70606808D01*
X109394259Y-70371400D01*
X109373663Y-70135992D01*
X109319536Y-69933985D01*
X109312505Y-69907744D01*
X109312504Y-69907743D01*
X109312503Y-69907737D01*
X109212635Y-69693571D01*
X109195011Y-69668400D01*
X109077094Y-69499997D01*
X108910003Y-69332906D01*
X108811241Y-69263753D01*
X108753001Y-69222973D01*
X108709378Y-69168399D01*
X108702184Y-69098900D01*
X108733706Y-69036545D01*
X108752998Y-69019828D01*
X108910001Y-68909895D01*
X109077095Y-68742801D01*
X109212635Y-68549230D01*
X109312503Y-68335063D01*
X109373663Y-68106808D01*
X109394259Y-67871400D01*
X109373663Y-67635992D01*
X109327799Y-67464823D01*
X109329462Y-67394976D01*
X109359891Y-67345053D01*
X112057913Y-64647031D01*
X112070479Y-64636965D01*
X112070325Y-64636778D01*
X112076337Y-64631804D01*
X112076337Y-64631803D01*
X112076340Y-64631802D01*
X112125590Y-64579355D01*
X112147311Y-64557635D01*
X112151801Y-64551845D01*
X112155583Y-64547415D01*
X112188848Y-64511993D01*
X112199074Y-64493390D01*
X112209753Y-64477133D01*
X112222762Y-64460364D01*
X112242063Y-64415759D01*
X112244607Y-64410565D01*
X112268027Y-64367968D01*
X112273307Y-64347402D01*
X112279609Y-64328995D01*
X112288035Y-64309526D01*
X112295633Y-64261548D01*
X112296811Y-64255853D01*
X112308900Y-64208777D01*
X112308900Y-64187554D01*
X112310427Y-64168155D01*
X112310939Y-64164923D01*
X112313747Y-64147195D01*
X112309175Y-64098830D01*
X112308900Y-64092992D01*
X112308900Y-53704901D01*
X112310668Y-53688888D01*
X112310426Y-53688866D01*
X112311158Y-53681110D01*
X112311160Y-53681103D01*
X112308900Y-53609196D01*
X112308900Y-53578475D01*
X112307979Y-53571188D01*
X112307522Y-53565379D01*
X112305997Y-53516831D01*
X112300076Y-53496453D01*
X112296131Y-53477404D01*
X112293471Y-53456342D01*
X112275586Y-53411171D01*
X112273698Y-53405654D01*
X112260144Y-53359002D01*
X112260144Y-53359001D01*
X112249339Y-53340732D01*
X112240779Y-53323258D01*
X112236737Y-53313050D01*
X112232968Y-53303529D01*
X112204414Y-53264228D01*
X112201210Y-53259350D01*
X112183029Y-53228608D01*
X112176481Y-53217535D01*
X112161474Y-53202528D01*
X112148835Y-53187730D01*
X112136361Y-53170560D01*
X112098928Y-53139594D01*
X112094606Y-53135660D01*
X111832534Y-52873588D01*
X111822461Y-52861014D01*
X111822274Y-52861170D01*
X111817301Y-52855159D01*
X111764856Y-52805910D01*
X111743135Y-52784189D01*
X111737340Y-52779694D01*
X111732898Y-52775899D01*
X111697496Y-52742654D01*
X111697488Y-52742648D01*
X111678892Y-52732425D01*
X111662631Y-52721744D01*
X111645863Y-52708737D01*
X111622395Y-52698582D01*
X111601278Y-52689443D01*
X111596056Y-52686886D01*
X111553468Y-52663473D01*
X111553465Y-52663472D01*
X111532901Y-52658192D01*
X111514496Y-52651890D01*
X111495027Y-52643465D01*
X111495021Y-52643463D01*
X111447051Y-52635866D01*
X111441336Y-52634682D01*
X111424872Y-52630455D01*
X111394280Y-52622600D01*
X111394277Y-52622600D01*
X111373055Y-52622600D01*
X111353655Y-52621073D01*
X111332696Y-52617753D01*
X111332695Y-52617753D01*
X111308886Y-52620003D01*
X111284330Y-52622325D01*
X111278492Y-52622600D01*
X107784535Y-52622600D01*
X107717496Y-52602915D01*
X107671741Y-52550111D01*
X107661214Y-52485641D01*
X107661427Y-52483603D01*
X107662185Y-52476400D01*
X107643497Y-52298597D01*
X107588250Y-52128565D01*
X107498859Y-51973735D01*
X107452003Y-51921696D01*
X107379235Y-51840878D01*
X107379232Y-51840876D01*
X107379231Y-51840875D01*
X107379230Y-51840874D01*
X107234593Y-51735788D01*
X107071267Y-51663071D01*
X107071265Y-51663070D01*
X106943594Y-51635933D01*
X106896391Y-51625900D01*
X106717609Y-51625900D01*
X106686954Y-51632415D01*
X106542733Y-51663070D01*
X106425694Y-51715180D01*
X106375259Y-51725900D01*
X103765629Y-51725900D01*
X103698590Y-51706215D01*
X103677948Y-51689581D01*
X103400092Y-51411725D01*
X103369843Y-51362363D01*
X103346450Y-51290365D01*
X103346449Y-51290363D01*
X103346448Y-51290360D01*
X103292308Y-51196589D01*
X103257059Y-51135535D01*
X103137435Y-51002678D01*
X103137432Y-51002676D01*
X103137431Y-51002675D01*
X103137430Y-51002674D01*
X102992793Y-50897588D01*
X102829467Y-50824871D01*
X102829465Y-50824870D01*
X102670102Y-50790997D01*
X102654591Y-50787700D01*
X102475809Y-50787700D01*
X102460298Y-50790997D01*
X102300933Y-50824870D01*
X102300928Y-50824872D01*
X102137608Y-50897587D01*
X101992968Y-51002675D01*
X101873340Y-51135536D01*
X101783950Y-51290364D01*
X101783948Y-51290368D01*
X101770928Y-51330441D01*
X101731490Y-51388116D01*
X101667131Y-51415314D01*
X101613996Y-51409829D01*
X101595200Y-51403601D01*
X101492417Y-51393100D01*
X101492410Y-51393100D01*
X100492390Y-51393100D01*
X100492382Y-51393100D01*
X100389603Y-51403600D01*
X100389602Y-51403601D01*
X100314411Y-51428517D01*
X100223067Y-51458785D01*
X100223062Y-51458787D01*
X100073743Y-51550888D01*
X100071864Y-51552768D01*
X100070257Y-51553645D01*
X100068081Y-51555366D01*
X100067786Y-51554993D01*
X100010538Y-51586248D01*
X99940847Y-51581259D01*
X99896508Y-51552761D01*
X97792234Y-49448488D01*
X97782161Y-49435914D01*
X97781974Y-49436070D01*
X97777001Y-49430059D01*
X97724556Y-49380810D01*
X97702835Y-49359089D01*
X97697040Y-49354594D01*
X97692598Y-49350799D01*
X97657196Y-49317554D01*
X97657188Y-49317548D01*
X97638592Y-49307325D01*
X97622331Y-49296644D01*
X97605563Y-49283637D01*
X97581980Y-49273432D01*
X97560978Y-49264343D01*
X97555756Y-49261786D01*
X97513168Y-49238373D01*
X97513165Y-49238372D01*
X97492601Y-49233092D01*
X97474196Y-49226790D01*
X97454727Y-49218365D01*
X97454721Y-49218363D01*
X97406751Y-49210766D01*
X97401036Y-49209582D01*
X97384572Y-49205355D01*
X97353980Y-49197500D01*
X97353977Y-49197500D01*
X97332755Y-49197500D01*
X97313355Y-49195973D01*
X97292396Y-49192653D01*
X97292395Y-49192653D01*
X97268586Y-49194903D01*
X97244030Y-49197225D01*
X97238192Y-49197500D01*
X92607454Y-49197500D01*
X92591443Y-49195732D01*
X92591421Y-49195974D01*
X92583654Y-49195240D01*
X92583653Y-49195240D01*
X92511746Y-49197500D01*
X92481025Y-49197500D01*
X92481021Y-49197500D01*
X92481011Y-49197501D01*
X92473743Y-49198419D01*
X92467926Y-49198876D01*
X92419385Y-49200402D01*
X92419374Y-49200404D01*
X92398998Y-49206323D01*
X92379958Y-49210266D01*
X92358897Y-49212927D01*
X92358889Y-49212929D01*
X92313725Y-49230811D01*
X92308197Y-49232703D01*
X92261552Y-49246255D01*
X92243282Y-49257060D01*
X92225813Y-49265618D01*
X92206078Y-49273432D01*
X92206076Y-49273433D01*
X92166789Y-49301977D01*
X92161906Y-49305184D01*
X92120082Y-49329919D01*
X92105076Y-49344926D01*
X92090286Y-49357558D01*
X92073117Y-49370032D01*
X92073115Y-49370034D01*
X92042144Y-49407470D01*
X92038212Y-49411791D01*
X91924083Y-49525919D01*
X91911510Y-49535993D01*
X91911665Y-49536180D01*
X91905659Y-49541148D01*
X91882411Y-49565905D01*
X91856409Y-49593594D01*
X91845548Y-49604454D01*
X91834688Y-49615315D01*
X91834677Y-49615327D01*
X91830186Y-49621116D01*
X91826400Y-49625548D01*
X91790373Y-49663916D01*
X91730133Y-49699312D01*
X91687376Y-49702393D01*
X91639479Y-49697500D01*
X91041130Y-49697500D01*
X91041112Y-49697501D01*
X90940047Y-49707825D01*
X90776284Y-49762092D01*
X90776281Y-49762093D01*
X90629448Y-49852661D01*
X90507461Y-49974648D01*
X90416893Y-50121481D01*
X90416891Y-50121484D01*
X90416892Y-50121484D01*
X90362626Y-50285247D01*
X90362626Y-50285248D01*
X90362625Y-50285248D01*
X90352300Y-50386315D01*
X90352300Y-50959669D01*
X90352301Y-50959687D01*
X90362625Y-51060752D01*
X90387406Y-51135535D01*
X90416892Y-51224516D01*
X90507460Y-51371350D01*
X90629450Y-51493340D01*
X90630898Y-51494233D01*
X90631682Y-51495104D01*
X90635117Y-51497821D01*
X90634652Y-51498407D01*
X90677621Y-51546180D01*
X90689800Y-51599771D01*
X90689800Y-51623582D01*
X90670115Y-51690621D01*
X90617311Y-51736376D01*
X90604809Y-51741286D01*
X90597273Y-51743783D01*
X90597263Y-51743787D01*
X90447942Y-51835889D01*
X90323889Y-51959942D01*
X90231787Y-52109263D01*
X90231785Y-52109266D01*
X90231786Y-52109266D01*
X90176601Y-52275803D01*
X90176601Y-52275804D01*
X90176600Y-52275804D01*
X90166100Y-52378583D01*
X90166100Y-53228601D01*
X90166101Y-53228619D01*
X90176600Y-53331396D01*
X90176601Y-53331399D01*
X90231785Y-53497931D01*
X90231787Y-53497936D01*
X90251537Y-53529956D01*
X90323888Y-53647256D01*
X90447944Y-53771312D01*
X90597266Y-53863414D01*
X90763803Y-53918599D01*
X90866591Y-53929100D01*
X91996792Y-53929099D01*
X92063831Y-53948784D01*
X92109586Y-54001587D01*
X92119530Y-54070746D01*
X92090505Y-54134302D01*
X92084473Y-54140780D01*
X91783472Y-54441781D01*
X91722149Y-54475266D01*
X91695791Y-54478100D01*
X90866598Y-54478100D01*
X90866580Y-54478101D01*
X90757068Y-54489289D01*
X90756817Y-54486837D01*
X90698400Y-54482435D01*
X90654496Y-54454101D01*
X88848044Y-52647649D01*
X88814559Y-52586326D01*
X88812404Y-52572927D01*
X88809274Y-52543145D01*
X88809272Y-52543140D01*
X88750779Y-52363116D01*
X88656133Y-52199184D01*
X88529471Y-52058512D01*
X88507624Y-52042639D01*
X88376334Y-51947251D01*
X88376329Y-51947248D01*
X88203407Y-51870257D01*
X88203402Y-51870255D01*
X88057600Y-51839265D01*
X88018246Y-51830900D01*
X87828954Y-51830900D01*
X87796497Y-51837798D01*
X87643797Y-51870255D01*
X87643792Y-51870257D01*
X87470870Y-51947248D01*
X87470865Y-51947251D01*
X87317729Y-52058511D01*
X87191066Y-52199185D01*
X87096421Y-52363115D01*
X87096418Y-52363122D01*
X87037927Y-52543140D01*
X87037926Y-52543144D01*
X87018140Y-52731400D01*
X87037926Y-52919656D01*
X87037927Y-52919659D01*
X87096418Y-53099677D01*
X87096421Y-53099684D01*
X87191066Y-53263615D01*
X87200622Y-53274228D01*
X87230852Y-53337220D01*
X87222226Y-53406555D01*
X87177485Y-53460221D01*
X87110832Y-53481178D01*
X87108472Y-53481200D01*
X86745904Y-53481200D01*
X86709032Y-53484101D01*
X86709026Y-53484102D01*
X86551206Y-53529954D01*
X86551203Y-53529955D01*
X86409205Y-53613932D01*
X86346084Y-53631200D01*
X83890455Y-53631200D01*
X83874444Y-53629432D01*
X83874422Y-53629674D01*
X83866655Y-53628940D01*
X83866654Y-53628940D01*
X83794747Y-53631200D01*
X83764026Y-53631200D01*
X83764022Y-53631200D01*
X83764012Y-53631201D01*
X83756744Y-53632119D01*
X83750927Y-53632576D01*
X83702386Y-53634102D01*
X83702375Y-53634104D01*
X83681999Y-53640023D01*
X83662959Y-53643966D01*
X83641898Y-53646627D01*
X83641890Y-53646629D01*
X83596726Y-53664511D01*
X83591198Y-53666403D01*
X83544553Y-53679955D01*
X83531199Y-53687852D01*
X83529486Y-53688866D01*
X83526283Y-53690760D01*
X83508814Y-53699318D01*
X83489079Y-53707132D01*
X83489077Y-53707133D01*
X83449790Y-53735677D01*
X83444907Y-53738884D01*
X83403083Y-53763619D01*
X83388077Y-53778626D01*
X83373287Y-53791258D01*
X83356118Y-53803732D01*
X83356116Y-53803734D01*
X83325145Y-53841170D01*
X83321212Y-53845491D01*
X82734156Y-54432549D01*
X82179824Y-54986881D01*
X82118501Y-55020366D01*
X82092143Y-55023200D01*
X81825016Y-55023200D01*
X81761895Y-55005932D01*
X81619896Y-54921955D01*
X81619893Y-54921954D01*
X81462073Y-54876102D01*
X81462067Y-54876101D01*
X81425196Y-54873200D01*
X81425194Y-54873200D01*
X80118806Y-54873200D01*
X80118804Y-54873200D01*
X80081932Y-54876101D01*
X80081926Y-54876102D01*
X79924106Y-54921954D01*
X79924103Y-54921955D01*
X79865806Y-54956432D01*
X79802685Y-54973700D01*
X79147000Y-54973700D01*
X79147000Y-55523700D01*
X79410000Y-55523700D01*
X79477039Y-55543385D01*
X79522794Y-55596189D01*
X79534000Y-55647700D01*
X79534000Y-55699200D01*
X79514315Y-55766239D01*
X79461511Y-55811994D01*
X79410000Y-55823200D01*
X79032453Y-55823200D01*
X78965414Y-55803515D01*
X78944772Y-55786881D01*
X78907603Y-55749712D01*
X78897780Y-55737450D01*
X78897559Y-55737634D01*
X78892586Y-55731623D01*
X78883294Y-55722897D01*
X78842164Y-55684273D01*
X78828980Y-55671089D01*
X78821275Y-55663383D01*
X78815786Y-55659125D01*
X78811361Y-55655347D01*
X78777382Y-55623438D01*
X78777380Y-55623436D01*
X78777377Y-55623435D01*
X78759829Y-55613788D01*
X78743563Y-55603104D01*
X78727736Y-55590827D01*
X78727735Y-55590826D01*
X78727733Y-55590825D01*
X78721750Y-55588236D01*
X78668043Y-55543544D01*
X78647025Y-55476911D01*
X78647000Y-55474436D01*
X78647000Y-54973700D01*
X78135500Y-54973700D01*
X78135500Y-55064500D01*
X78115815Y-55131539D01*
X78063011Y-55177294D01*
X78011500Y-55188500D01*
X76455500Y-55188500D01*
X76455500Y-55189337D01*
X76461543Y-55255843D01*
X76509224Y-55408859D01*
X76509226Y-55408863D01*
X76547011Y-55471367D01*
X76564847Y-55538921D01*
X76547012Y-55599664D01*
X76508767Y-55662931D01*
X76508764Y-55662937D01*
X76461048Y-55816065D01*
X76455000Y-55882621D01*
X76455000Y-56384388D01*
X76461046Y-56450926D01*
X76461048Y-56450933D01*
X76508765Y-56604066D01*
X76508767Y-56604070D01*
X76591742Y-56741329D01*
X76591746Y-56741334D01*
X76705165Y-56854753D01*
X76705170Y-56854757D01*
X76842429Y-56937732D01*
X76842433Y-56937734D01*
X76868848Y-56945965D01*
X76995567Y-56985452D01*
X77062119Y-56991500D01*
X77488880Y-56991499D01*
X77488888Y-56991499D01*
X77555426Y-56985453D01*
X77555427Y-56985452D01*
X77555433Y-56985452D01*
X77566084Y-56982132D01*
X77635940Y-56980979D01*
X77695334Y-57017777D01*
X77709704Y-57037391D01*
X77752081Y-57109048D01*
X77791417Y-57175562D01*
X77791423Y-57175570D01*
X77824180Y-57208326D01*
X77857666Y-57269648D01*
X77860500Y-57296008D01*
X77860500Y-57728546D01*
X77840815Y-57795585D01*
X77824181Y-57816227D01*
X77522308Y-58118099D01*
X77510051Y-58127920D01*
X77510234Y-58128141D01*
X77504223Y-58133113D01*
X77456872Y-58183536D01*
X77435989Y-58204419D01*
X77435977Y-58204432D01*
X77431721Y-58209917D01*
X77427937Y-58214347D01*
X77396037Y-58248318D01*
X77396036Y-58248320D01*
X77386384Y-58265876D01*
X77375710Y-58282126D01*
X77363429Y-58297961D01*
X77363424Y-58297968D01*
X77344915Y-58340738D01*
X77342345Y-58345984D01*
X77319903Y-58386806D01*
X77314922Y-58406207D01*
X77308621Y-58424610D01*
X77300662Y-58443002D01*
X77300661Y-58443005D01*
X77293371Y-58489027D01*
X77292187Y-58494746D01*
X77280601Y-58539872D01*
X77280600Y-58539882D01*
X77280600Y-58559916D01*
X77279073Y-58579315D01*
X77275940Y-58599094D01*
X77275940Y-58599095D01*
X77280325Y-58645483D01*
X77280600Y-58651321D01*
X77280600Y-59865555D01*
X77278875Y-59881172D01*
X77279161Y-59881199D01*
X77278426Y-59888965D01*
X77280600Y-59958114D01*
X77280600Y-59987643D01*
X77280601Y-59987660D01*
X77281468Y-59994531D01*
X77281926Y-60000350D01*
X77283390Y-60046929D01*
X77284611Y-60054633D01*
X77284432Y-60054661D01*
X77288200Y-60081128D01*
X77288200Y-60158300D01*
X77268515Y-60225339D01*
X77215711Y-60271094D01*
X77164200Y-60282300D01*
X76218200Y-60282300D01*
X76218200Y-60283137D01*
X76224243Y-60349643D01*
X76271924Y-60502659D01*
X76271926Y-60502663D01*
X76309711Y-60565167D01*
X76327547Y-60632721D01*
X76309712Y-60693464D01*
X76271467Y-60756731D01*
X76271464Y-60756737D01*
X76223748Y-60909865D01*
X76217700Y-60976421D01*
X76217700Y-61478188D01*
X76223746Y-61544726D01*
X76223748Y-61544733D01*
X76271465Y-61697866D01*
X76271467Y-61697870D01*
X76354442Y-61835129D01*
X76354446Y-61835134D01*
X76467865Y-61948553D01*
X76467870Y-61948557D01*
X76605129Y-62031532D01*
X76605133Y-62031534D01*
X76650344Y-62045622D01*
X76758267Y-62079252D01*
X76824819Y-62085300D01*
X76991640Y-62085299D01*
X77051379Y-62100637D01*
X77071732Y-62111827D01*
X77087440Y-62115859D01*
X77092286Y-62117104D01*
X77110698Y-62123407D01*
X77130173Y-62131835D01*
X77178171Y-62139437D01*
X77183840Y-62140611D01*
X77230923Y-62152700D01*
X77252151Y-62152700D01*
X77271548Y-62154226D01*
X77292503Y-62157545D01*
X77292504Y-62157546D01*
X77292504Y-62157545D01*
X77292505Y-62157546D01*
X77340860Y-62152975D01*
X77346699Y-62152700D01*
X77915584Y-62152700D01*
X77978705Y-62169968D01*
X78100994Y-62242289D01*
X78120702Y-62253944D01*
X78138094Y-62258996D01*
X78196979Y-62296601D01*
X78226187Y-62360073D01*
X78227500Y-62378073D01*
X78227500Y-63120694D01*
X78225732Y-63136705D01*
X78225974Y-63136728D01*
X78225240Y-63144494D01*
X78225240Y-63144496D01*
X78225600Y-63155936D01*
X78227500Y-63216403D01*
X78227500Y-63247120D01*
X78227501Y-63247140D01*
X78228418Y-63254406D01*
X78228876Y-63260224D01*
X78230402Y-63308767D01*
X78230403Y-63308770D01*
X78236323Y-63329148D01*
X78240266Y-63348186D01*
X78241070Y-63354549D01*
X78229950Y-63423527D01*
X78183301Y-63475543D01*
X78118050Y-63494100D01*
X75591258Y-63494100D01*
X75524219Y-63474415D01*
X75503577Y-63457781D01*
X72416453Y-60370657D01*
X72382968Y-60309334D01*
X72387952Y-60239642D01*
X72429824Y-60183709D01*
X72495288Y-60159292D01*
X72558746Y-60171650D01*
X72563105Y-60173788D01*
X72662200Y-60199444D01*
X72662200Y-59005823D01*
X72676705Y-59078745D01*
X72731960Y-59161440D01*
X72814655Y-59216695D01*
X72887576Y-59231200D01*
X72936824Y-59231200D01*
X73009745Y-59216695D01*
X73092440Y-59161440D01*
X73147695Y-59078745D01*
X73162200Y-59005823D01*
X73162200Y-60204565D01*
X73164144Y-60204269D01*
X73164145Y-60204269D01*
X73354860Y-60133636D01*
X73354864Y-60133634D01*
X73480299Y-60055450D01*
X73547604Y-60036694D01*
X73614365Y-60057303D01*
X73621781Y-60062617D01*
X73650242Y-60084648D01*
X73832929Y-60174260D01*
X74029915Y-60225263D01*
X74233136Y-60235569D01*
X74434271Y-60204756D01*
X74625087Y-60134086D01*
X74797771Y-60026452D01*
X74945253Y-59886259D01*
X75017610Y-59782300D01*
X76218200Y-59782300D01*
X76788200Y-59782300D01*
X76788200Y-59178131D01*
X76758355Y-59180843D01*
X76605340Y-59228524D01*
X76605336Y-59228526D01*
X76468180Y-59311439D01*
X76468176Y-59311442D01*
X76354842Y-59424776D01*
X76354839Y-59424780D01*
X76271926Y-59561936D01*
X76271924Y-59561940D01*
X76224243Y-59714956D01*
X76218200Y-59781462D01*
X76218200Y-59782300D01*
X75017610Y-59782300D01*
X75061495Y-59719249D01*
X75141740Y-59532258D01*
X75182700Y-59332941D01*
X75182700Y-58680458D01*
X75181336Y-58667038D01*
X75167274Y-58528760D01*
X75106362Y-58334620D01*
X75106360Y-58334616D01*
X75106359Y-58334612D01*
X75007609Y-58156698D01*
X75007608Y-58156697D01*
X75007607Y-58156695D01*
X74875067Y-58002306D01*
X74875065Y-58002304D01*
X74714162Y-57877754D01*
X74714159Y-57877753D01*
X74714158Y-57877752D01*
X74531471Y-57788140D01*
X74334485Y-57737137D01*
X74334487Y-57737137D01*
X74199004Y-57730266D01*
X74131264Y-57726831D01*
X74131263Y-57726831D01*
X74131261Y-57726831D01*
X73930136Y-57757642D01*
X73930124Y-57757645D01*
X73739318Y-57828311D01*
X73739314Y-57828313D01*
X73739313Y-57828314D01*
X73723565Y-57838130D01*
X73613223Y-57906905D01*
X73545918Y-57925660D01*
X73479157Y-57905050D01*
X73471732Y-57899728D01*
X73443895Y-57878180D01*
X73443889Y-57878177D01*
X73261296Y-57788612D01*
X73261295Y-57788611D01*
X73162200Y-57762953D01*
X73162200Y-58956576D01*
X73147695Y-58883655D01*
X73092440Y-58800960D01*
X73009745Y-58745705D01*
X72936824Y-58731200D01*
X72887576Y-58731200D01*
X72814655Y-58745705D01*
X72731960Y-58800960D01*
X72676705Y-58883655D01*
X72662200Y-58956576D01*
X72662200Y-57757833D01*
X72660253Y-57758131D01*
X72660247Y-57758133D01*
X72469542Y-57828762D01*
X72469530Y-57828767D01*
X72344098Y-57906949D01*
X72276792Y-57925705D01*
X72210032Y-57905096D01*
X72202626Y-57899788D01*
X72174158Y-57877752D01*
X71991471Y-57788140D01*
X71794485Y-57737137D01*
X71794487Y-57737137D01*
X71659004Y-57730266D01*
X71591264Y-57726831D01*
X71591263Y-57726831D01*
X71591261Y-57726831D01*
X71390136Y-57757642D01*
X71390124Y-57757645D01*
X71199318Y-57828311D01*
X71199311Y-57828315D01*
X71026632Y-57935945D01*
X71026627Y-57935949D01*
X70879149Y-58076138D01*
X70879147Y-58076140D01*
X70879147Y-58076141D01*
X70875946Y-58080740D01*
X70762905Y-58243149D01*
X70682659Y-58430143D01*
X70641700Y-58629458D01*
X70641700Y-59281943D01*
X70657125Y-59433639D01*
X70718037Y-59627779D01*
X70718044Y-59627794D01*
X70815901Y-59804100D01*
X70816791Y-59805702D01*
X70949334Y-59960095D01*
X70949338Y-59960098D01*
X70949339Y-59960099D01*
X70953132Y-59963705D01*
X70988160Y-60024160D01*
X70991700Y-60053579D01*
X70991700Y-60430844D01*
X70989932Y-60446855D01*
X70990174Y-60446878D01*
X70989440Y-60454644D01*
X70991700Y-60526553D01*
X70991700Y-60557270D01*
X70991701Y-60557290D01*
X70992618Y-60564556D01*
X70993076Y-60570374D01*
X70994602Y-60618917D01*
X70994603Y-60618920D01*
X71000523Y-60639298D01*
X71004468Y-60658346D01*
X71007128Y-60679404D01*
X71007131Y-60679414D01*
X71025013Y-60724580D01*
X71026905Y-60730108D01*
X71040454Y-60776745D01*
X71040455Y-60776747D01*
X71051260Y-60795016D01*
X71059817Y-60812484D01*
X71063113Y-60820806D01*
X71067632Y-60832222D01*
X71096183Y-60871520D01*
X71099388Y-60876399D01*
X71124119Y-60918215D01*
X71124123Y-60918219D01*
X71139125Y-60933221D01*
X71151763Y-60948019D01*
X71164233Y-60965183D01*
X71164236Y-60965186D01*
X71164237Y-60965187D01*
X71201676Y-60996159D01*
X71205976Y-61000072D01*
X72291203Y-62085299D01*
X73375081Y-63169177D01*
X73408566Y-63230500D01*
X73403582Y-63300192D01*
X73361710Y-63356125D01*
X73296246Y-63380542D01*
X73262172Y-63378265D01*
X73218828Y-63369258D01*
X73105711Y-63345752D01*
X73105709Y-63345751D01*
X73105705Y-63345751D01*
X72966442Y-63336225D01*
X72885662Y-63330700D01*
X71538738Y-63330700D01*
X71485381Y-63334349D01*
X71318688Y-63345751D01*
X71318686Y-63345752D01*
X71030656Y-63405604D01*
X71030640Y-63405609D01*
X70753437Y-63504127D01*
X70492222Y-63639478D01*
X70492216Y-63639482D01*
X70251876Y-63809132D01*
X70036861Y-64009943D01*
X69851198Y-64238154D01*
X69698339Y-64489519D01*
X69666219Y-64563468D01*
X69621455Y-64617115D01*
X69554794Y-64638045D01*
X69487399Y-64619612D01*
X69440669Y-64567669D01*
X69428485Y-64514106D01*
X69425221Y-53440854D01*
X69444886Y-53373809D01*
X69497676Y-53328039D01*
X69566832Y-53318075D01*
X69630396Y-53347081D01*
X69662955Y-53391416D01*
X69698339Y-53472880D01*
X69851198Y-53724245D01*
X69851200Y-53724247D01*
X69851201Y-53724249D01*
X69883231Y-53763619D01*
X70036861Y-53952456D01*
X70251876Y-54153267D01*
X70492216Y-54322917D01*
X70492222Y-54322921D01*
X70492224Y-54322922D01*
X70753436Y-54458272D01*
X70955404Y-54530051D01*
X71030640Y-54556790D01*
X71030656Y-54556795D01*
X71227506Y-54597700D01*
X71318687Y-54616647D01*
X71318688Y-54616648D01*
X71355363Y-54619156D01*
X71538738Y-54631700D01*
X71538743Y-54631700D01*
X72885657Y-54631700D01*
X72885662Y-54631700D01*
X73105711Y-54616648D01*
X73235335Y-54589711D01*
X73393743Y-54556795D01*
X73393749Y-54556792D01*
X73393754Y-54556792D01*
X73670964Y-54458272D01*
X73932176Y-54322922D01*
X74172526Y-54153265D01*
X74387535Y-53952460D01*
X74431191Y-53898800D01*
X75853340Y-53898800D01*
X75873126Y-54087056D01*
X75873127Y-54087059D01*
X75931618Y-54267077D01*
X75931621Y-54267084D01*
X76026267Y-54431016D01*
X76137476Y-54554526D01*
X76152929Y-54571688D01*
X76306065Y-54682948D01*
X76306070Y-54682951D01*
X76478992Y-54759942D01*
X76478997Y-54759944D01*
X76664154Y-54799300D01*
X76664155Y-54799300D01*
X76853444Y-54799300D01*
X76853446Y-54799300D01*
X77038603Y-54759944D01*
X77161186Y-54705366D01*
X77174988Y-54699221D01*
X77225424Y-54688500D01*
X77619500Y-54688500D01*
X77619500Y-54597700D01*
X77639185Y-54530661D01*
X77691989Y-54484906D01*
X77743500Y-54473700D01*
X80131795Y-54473700D01*
X80131795Y-54473698D01*
X80131600Y-54471213D01*
X80083605Y-54306010D01*
X80085724Y-54305394D01*
X80078539Y-54247210D01*
X80108825Y-54184245D01*
X80168345Y-54147650D01*
X80200901Y-54143300D01*
X80601652Y-54143300D01*
X80668691Y-54162985D01*
X80693800Y-54184326D01*
X80699526Y-54190685D01*
X80699530Y-54190689D01*
X80852665Y-54301948D01*
X80852670Y-54301951D01*
X81025592Y-54378942D01*
X81025597Y-54378944D01*
X81210754Y-54418300D01*
X81210755Y-54418300D01*
X81400044Y-54418300D01*
X81400046Y-54418300D01*
X81585203Y-54378944D01*
X81758130Y-54301951D01*
X81911271Y-54190688D01*
X82037933Y-54050016D01*
X82132579Y-53886084D01*
X82191074Y-53706056D01*
X82210860Y-53517800D01*
X82191074Y-53329544D01*
X82132579Y-53149516D01*
X82037933Y-52985584D01*
X81911271Y-52844912D01*
X81911270Y-52844911D01*
X81758134Y-52733651D01*
X81758129Y-52733648D01*
X81585207Y-52656657D01*
X81585202Y-52656655D01*
X81439401Y-52625665D01*
X81400046Y-52617300D01*
X81210754Y-52617300D01*
X81187113Y-52622325D01*
X81025597Y-52656655D01*
X81025592Y-52656657D01*
X80852670Y-52733648D01*
X80852665Y-52733651D01*
X80699530Y-52844910D01*
X80699526Y-52844914D01*
X80693800Y-52851274D01*
X80634313Y-52887921D01*
X80601652Y-52892300D01*
X77222537Y-52892300D01*
X77206920Y-52890576D01*
X77206893Y-52890862D01*
X77199131Y-52890127D01*
X77130003Y-52892300D01*
X77100450Y-52892300D01*
X77099729Y-52892390D01*
X77093557Y-52893169D01*
X77087745Y-52893626D01*
X77041172Y-52895090D01*
X77041169Y-52895091D01*
X77021926Y-52900681D01*
X77002883Y-52904625D01*
X76983004Y-52907136D01*
X76983003Y-52907137D01*
X76939678Y-52924290D01*
X76934152Y-52926182D01*
X76889408Y-52939183D01*
X76889404Y-52939185D01*
X76872165Y-52949380D01*
X76854698Y-52957937D01*
X76836070Y-52965312D01*
X76823259Y-52974620D01*
X76757452Y-52998098D01*
X76750376Y-52998300D01*
X76664154Y-52998300D01*
X76631697Y-53005198D01*
X76478997Y-53037655D01*
X76478992Y-53037657D01*
X76306070Y-53114648D01*
X76306065Y-53114651D01*
X76152929Y-53225911D01*
X76026266Y-53366585D01*
X75931621Y-53530515D01*
X75931618Y-53530522D01*
X75874234Y-53707133D01*
X75873126Y-53710544D01*
X75853340Y-53898800D01*
X74431191Y-53898800D01*
X74573199Y-53724249D01*
X74726059Y-53472882D01*
X74843267Y-53203041D01*
X74922640Y-52919755D01*
X74962700Y-52628298D01*
X74962700Y-52334102D01*
X74922640Y-52042645D01*
X74843267Y-51759359D01*
X74836503Y-51743786D01*
X74726062Y-51489524D01*
X74726060Y-51489519D01*
X74573201Y-51238154D01*
X74562107Y-51224518D01*
X74428873Y-51060751D01*
X74387538Y-51009943D01*
X74333715Y-50959676D01*
X74232176Y-50864844D01*
X74172523Y-50809132D01*
X73932183Y-50639482D01*
X73932177Y-50639478D01*
X73670962Y-50504127D01*
X73393759Y-50405609D01*
X73393743Y-50405604D01*
X73105713Y-50345752D01*
X73105711Y-50345751D01*
X72941738Y-50334535D01*
X72885662Y-50330700D01*
X71538738Y-50330700D01*
X71485381Y-50334349D01*
X71318688Y-50345751D01*
X71318686Y-50345752D01*
X71030656Y-50405604D01*
X71030640Y-50405609D01*
X70753437Y-50504127D01*
X70492222Y-50639478D01*
X70492216Y-50639482D01*
X70251876Y-50809132D01*
X70036861Y-51009943D01*
X69851198Y-51238154D01*
X69698341Y-51489517D01*
X69664140Y-51568254D01*
X69619376Y-51621900D01*
X69552714Y-51642830D01*
X69485320Y-51624396D01*
X69438590Y-51572453D01*
X69426407Y-51518647D01*
X69428783Y-50098592D01*
X76903100Y-50098592D01*
X76917926Y-50239656D01*
X76917927Y-50239659D01*
X76976418Y-50419677D01*
X76976421Y-50419684D01*
X77071067Y-50583616D01*
X77154777Y-50676585D01*
X77197729Y-50724288D01*
X77350865Y-50835548D01*
X77350870Y-50835551D01*
X77523792Y-50912542D01*
X77523797Y-50912544D01*
X77708954Y-50951900D01*
X77708955Y-50951900D01*
X77898244Y-50951900D01*
X77898246Y-50951900D01*
X78083403Y-50912544D01*
X78256330Y-50835551D01*
X78285334Y-50814478D01*
X78351141Y-50790997D01*
X78419195Y-50806822D01*
X78422371Y-50808678D01*
X78564204Y-50894419D01*
X78564203Y-50894419D01*
X78726494Y-50944990D01*
X78726493Y-50944990D01*
X78797008Y-50951398D01*
X78797026Y-50951399D01*
X78803599Y-50951398D01*
X78803600Y-50951398D01*
X78803600Y-49826023D01*
X78818105Y-49898945D01*
X78873360Y-49981640D01*
X78956055Y-50036895D01*
X79028976Y-50051400D01*
X79078224Y-50051400D01*
X79303600Y-50051400D01*
X79303600Y-50951399D01*
X79310181Y-50951399D01*
X79380702Y-50944991D01*
X79380707Y-50944990D01*
X79542996Y-50894418D01*
X79688477Y-50806472D01*
X79808672Y-50686277D01*
X79896619Y-50540795D01*
X79947190Y-50378506D01*
X79953600Y-50307972D01*
X79953600Y-50051400D01*
X79303600Y-50051400D01*
X79078224Y-50051400D01*
X79151145Y-50036895D01*
X79200825Y-50003700D01*
X83369585Y-50003700D01*
X83389371Y-50191956D01*
X83389372Y-50191959D01*
X83447863Y-50371977D01*
X83447866Y-50371984D01*
X83542512Y-50535916D01*
X83635760Y-50639478D01*
X83669174Y-50676588D01*
X83822310Y-50787848D01*
X83822315Y-50787851D01*
X83995237Y-50864842D01*
X83995242Y-50864844D01*
X84180399Y-50904200D01*
X84180400Y-50904200D01*
X84369689Y-50904200D01*
X84369691Y-50904200D01*
X84554848Y-50864844D01*
X84727775Y-50787851D01*
X84880916Y-50676588D01*
X84883833Y-50673347D01*
X84886645Y-50670226D01*
X84946132Y-50633579D01*
X84978793Y-50629200D01*
X85549557Y-50629200D01*
X85565177Y-50630924D01*
X85565204Y-50630639D01*
X85572960Y-50631371D01*
X85572967Y-50631373D01*
X85642114Y-50629200D01*
X85671650Y-50629200D01*
X85678528Y-50628330D01*
X85684341Y-50627872D01*
X85730927Y-50626409D01*
X85750169Y-50620817D01*
X85769212Y-50616874D01*
X85789092Y-50614364D01*
X85832422Y-50597207D01*
X85837946Y-50595317D01*
X85841696Y-50594227D01*
X85882690Y-50582318D01*
X85899929Y-50572122D01*
X85917403Y-50563562D01*
X85936027Y-50556188D01*
X85936027Y-50556187D01*
X85936032Y-50556186D01*
X85973749Y-50528782D01*
X85978605Y-50525592D01*
X86018720Y-50501870D01*
X86032889Y-50487699D01*
X86047679Y-50475068D01*
X86063887Y-50463294D01*
X86093599Y-50427376D01*
X86097512Y-50423076D01*
X89101771Y-47418819D01*
X89163095Y-47385334D01*
X89189453Y-47382500D01*
X89248644Y-47382500D01*
X89248646Y-47382500D01*
X89422248Y-47345600D01*
X108321541Y-47345600D01*
X108342136Y-47581003D01*
X108342138Y-47581013D01*
X108403294Y-47809255D01*
X108403296Y-47809259D01*
X108403297Y-47809263D01*
X108415142Y-47834664D01*
X108503164Y-48023428D01*
X108503165Y-48023430D01*
X108638705Y-48217002D01*
X108805797Y-48384094D01*
X108999369Y-48519634D01*
X108999371Y-48519635D01*
X109213537Y-48619503D01*
X109441792Y-48680663D01*
X109618234Y-48696100D01*
X109736166Y-48696100D01*
X109912608Y-48680663D01*
X110140863Y-48619503D01*
X110355029Y-48519635D01*
X110548601Y-48384095D01*
X110715695Y-48217001D01*
X110851235Y-48023430D01*
X110951103Y-47809263D01*
X111012263Y-47581008D01*
X111032859Y-47345600D01*
X111012263Y-47110192D01*
X110951103Y-46881937D01*
X110851235Y-46667771D01*
X110851234Y-46667769D01*
X110715694Y-46474197D01*
X110548602Y-46307105D01*
X110355030Y-46171565D01*
X110355028Y-46171564D01*
X110230970Y-46113715D01*
X110140863Y-46071697D01*
X110140859Y-46071696D01*
X110140855Y-46071694D01*
X109912613Y-46010538D01*
X109912603Y-46010536D01*
X109736166Y-45995100D01*
X109618234Y-45995100D01*
X109441796Y-46010536D01*
X109441786Y-46010538D01*
X109213544Y-46071694D01*
X109213535Y-46071698D01*
X108999371Y-46171564D01*
X108999369Y-46171565D01*
X108805797Y-46307105D01*
X108638706Y-46474197D01*
X108638701Y-46474204D01*
X108503167Y-46667765D01*
X108503165Y-46667769D01*
X108403298Y-46881935D01*
X108403294Y-46881944D01*
X108342138Y-47110186D01*
X108342136Y-47110196D01*
X108321541Y-47345599D01*
X108321541Y-47345600D01*
X89422248Y-47345600D01*
X89433803Y-47343144D01*
X89606730Y-47266151D01*
X89759871Y-47154888D01*
X89886533Y-47014216D01*
X89981179Y-46850284D01*
X90039674Y-46670256D01*
X90059460Y-46482000D01*
X90039674Y-46293744D01*
X89981179Y-46113716D01*
X89886533Y-45949784D01*
X89759871Y-45809112D01*
X89759870Y-45809111D01*
X89606734Y-45697851D01*
X89606729Y-45697848D01*
X89433807Y-45620857D01*
X89433802Y-45620855D01*
X89288000Y-45589865D01*
X89248646Y-45581500D01*
X89059354Y-45581500D01*
X89026897Y-45588398D01*
X88874197Y-45620855D01*
X88874192Y-45620857D01*
X88701270Y-45697848D01*
X88701265Y-45697851D01*
X88548129Y-45809111D01*
X88421466Y-45949785D01*
X88326821Y-46113715D01*
X88326818Y-46113722D01*
X88276585Y-46268325D01*
X88268326Y-46293744D01*
X88266922Y-46307105D01*
X88250678Y-46461651D01*
X88224093Y-46526266D01*
X88215038Y-46536370D01*
X85409528Y-49341881D01*
X85348205Y-49375366D01*
X85321847Y-49378200D01*
X84978793Y-49378200D01*
X84911754Y-49358515D01*
X84886645Y-49337174D01*
X84880918Y-49330814D01*
X84880914Y-49330810D01*
X84727779Y-49219551D01*
X84727774Y-49219548D01*
X84554852Y-49142557D01*
X84554847Y-49142555D01*
X84409046Y-49111565D01*
X84369691Y-49103200D01*
X84180399Y-49103200D01*
X84147942Y-49110098D01*
X83995242Y-49142555D01*
X83995237Y-49142557D01*
X83822315Y-49219548D01*
X83822310Y-49219551D01*
X83669174Y-49330811D01*
X83542511Y-49471485D01*
X83447866Y-49635415D01*
X83447863Y-49635422D01*
X83393934Y-49801400D01*
X83389371Y-49815444D01*
X83369585Y-50003700D01*
X79200825Y-50003700D01*
X79233840Y-49981640D01*
X79289095Y-49898945D01*
X79308498Y-49801400D01*
X79289095Y-49703855D01*
X79233840Y-49621160D01*
X79151145Y-49565905D01*
X79078224Y-49551400D01*
X79028976Y-49551400D01*
X78956055Y-49565905D01*
X78873360Y-49621160D01*
X78818105Y-49703855D01*
X78803600Y-49776776D01*
X78803600Y-48651400D01*
X79303600Y-48651400D01*
X79303600Y-49551400D01*
X79953599Y-49551400D01*
X79953599Y-49294817D01*
X79947191Y-49224297D01*
X79947190Y-49224292D01*
X79896618Y-49062003D01*
X79808672Y-48916522D01*
X79688477Y-48796327D01*
X79542995Y-48708380D01*
X79542996Y-48708380D01*
X79380705Y-48657809D01*
X79380706Y-48657809D01*
X79310172Y-48651400D01*
X79303600Y-48651400D01*
X78803600Y-48651400D01*
X78803599Y-48651399D01*
X78797036Y-48651400D01*
X78797017Y-48651401D01*
X78726497Y-48657808D01*
X78726492Y-48657809D01*
X78564201Y-48708381D01*
X78564199Y-48708382D01*
X78422369Y-48794121D01*
X78354814Y-48811957D01*
X78288341Y-48790439D01*
X78285353Y-48788335D01*
X78256330Y-48767249D01*
X78256329Y-48767248D01*
X78083407Y-48690257D01*
X78083402Y-48690255D01*
X77937600Y-48659265D01*
X77898246Y-48650900D01*
X77708954Y-48650900D01*
X77676497Y-48657798D01*
X77523797Y-48690255D01*
X77523792Y-48690257D01*
X77350870Y-48767248D01*
X77350865Y-48767251D01*
X77197729Y-48878511D01*
X77071066Y-49019185D01*
X76976421Y-49183115D01*
X76976418Y-49183122D01*
X76917927Y-49363140D01*
X76917926Y-49363144D01*
X76903100Y-49504208D01*
X76903100Y-50098592D01*
X69428783Y-50098592D01*
X69433214Y-47451160D01*
X69434072Y-47448256D01*
X69433324Y-47401562D01*
X69433350Y-47398514D01*
X69434276Y-47371000D01*
X71902141Y-47371000D01*
X71922736Y-47606403D01*
X71922738Y-47606413D01*
X71983894Y-47834655D01*
X71983896Y-47834659D01*
X71983897Y-47834663D01*
X72033830Y-47941745D01*
X72083764Y-48048828D01*
X72083765Y-48048830D01*
X72219305Y-48242402D01*
X72386397Y-48409494D01*
X72579969Y-48545034D01*
X72579971Y-48545035D01*
X72794137Y-48644903D01*
X72794143Y-48644904D01*
X72794144Y-48644905D01*
X72818384Y-48651400D01*
X73022392Y-48706063D01*
X73198834Y-48721500D01*
X73316766Y-48721500D01*
X73493208Y-48706063D01*
X73721463Y-48644903D01*
X73935629Y-48545035D01*
X74129201Y-48409495D01*
X74296295Y-48242401D01*
X74431835Y-48048830D01*
X74531703Y-47834663D01*
X74592863Y-47606408D01*
X74613459Y-47371000D01*
X74592863Y-47135592D01*
X74531703Y-46907337D01*
X74431835Y-46693171D01*
X74431834Y-46693169D01*
X74296294Y-46499597D01*
X74129202Y-46332505D01*
X73935630Y-46196965D01*
X73935628Y-46196964D01*
X73802319Y-46134801D01*
X73721463Y-46097097D01*
X73721459Y-46097096D01*
X73721455Y-46097094D01*
X73493213Y-46035938D01*
X73493203Y-46035936D01*
X73316766Y-46020500D01*
X73198834Y-46020500D01*
X73022396Y-46035936D01*
X73022386Y-46035938D01*
X72794144Y-46097094D01*
X72794135Y-46097098D01*
X72579971Y-46196964D01*
X72579969Y-46196965D01*
X72386397Y-46332505D01*
X72219306Y-46499597D01*
X72219301Y-46499604D01*
X72083767Y-46693165D01*
X72083765Y-46693169D01*
X71983898Y-46907335D01*
X71983894Y-46907344D01*
X71922738Y-47135586D01*
X71922736Y-47135596D01*
X71902141Y-47370999D01*
X71902141Y-47371000D01*
X69434276Y-47371000D01*
X69441922Y-47143759D01*
X69442213Y-47135596D01*
X69446134Y-47025438D01*
X69446633Y-47019506D01*
X69474985Y-46805843D01*
X69497162Y-46645958D01*
X69498201Y-46640380D01*
X69545410Y-46438953D01*
X69585890Y-46273570D01*
X69587410Y-46268367D01*
X69653012Y-46075906D01*
X69711430Y-45911946D01*
X69713372Y-45907148D01*
X69796756Y-45723787D01*
X69872500Y-45564756D01*
X69874818Y-45560354D01*
X69975197Y-45387091D01*
X70067508Y-45235411D01*
X70070095Y-45231506D01*
X70186570Y-45069517D01*
X70294444Y-44927302D01*
X70297260Y-44923856D01*
X70428775Y-44774413D01*
X70551067Y-44643448D01*
X70554033Y-44640483D01*
X70699345Y-44504885D01*
X70834768Y-44386729D01*
X70837825Y-44384232D01*
X70995589Y-44263665D01*
X71142705Y-44159702D01*
X71145777Y-44157668D01*
X71314542Y-44053208D01*
X71471775Y-43964645D01*
X71474821Y-43963042D01*
X71651795Y-43876250D01*
X71654239Y-43875119D01*
X71818665Y-43803508D01*
X71821588Y-43802326D01*
X72006208Y-43733326D01*
X72008978Y-43732367D01*
X72179875Y-43677902D01*
X72182724Y-43677071D01*
X72373183Y-43626532D01*
X72376265Y-43625801D01*
X72551800Y-43589066D01*
X72554469Y-43588570D01*
X72703191Y-43564404D01*
X72748991Y-43556962D01*
X72752494Y-43556495D01*
X72790539Y-43552520D01*
X72931910Y-43537753D01*
X73129999Y-43525298D01*
X73133695Y-43525179D01*
X73313821Y-43524845D01*
X73512263Y-43531892D01*
G37*
%TD.AperFunction*%
%TA.AperFunction,Conductor*%
G36*
X96698239Y-75562185D02*
G01*
X96743994Y-75614989D01*
X96755200Y-75666500D01*
X96755200Y-75907698D01*
X96758182Y-75945600D01*
X96743816Y-76013977D01*
X96722245Y-76043007D01*
X95264073Y-77501181D01*
X95202750Y-77534666D01*
X95176392Y-77537500D01*
X93267300Y-77537500D01*
X93200261Y-77517815D01*
X93182091Y-77496846D01*
X93179619Y-77499319D01*
X93143300Y-77463000D01*
X90393301Y-77463000D01*
X90356982Y-77499319D01*
X90354642Y-77496979D01*
X90320812Y-77526294D01*
X90269301Y-77537500D01*
X89710208Y-77537500D01*
X89643169Y-77517815D01*
X89622527Y-77501181D01*
X89348202Y-77226856D01*
X89314717Y-77165533D01*
X89319701Y-77095841D01*
X89335637Y-77067551D01*
X89335549Y-77067497D01*
X89336931Y-77065255D01*
X89338618Y-77062262D01*
X89339333Y-77061356D01*
X89339340Y-77061350D01*
X89352105Y-77040655D01*
X89409624Y-76947403D01*
X89461571Y-76900678D01*
X89515162Y-76888500D01*
X90269300Y-76888500D01*
X90336339Y-76908185D01*
X90354508Y-76929153D01*
X90356981Y-76926681D01*
X90393300Y-76963000D01*
X93143299Y-76963000D01*
X93179618Y-76926681D01*
X93181957Y-76929020D01*
X93215788Y-76899706D01*
X93267299Y-76888500D01*
X94536695Y-76888500D01*
X94552705Y-76890267D01*
X94552728Y-76890026D01*
X94560489Y-76890758D01*
X94560496Y-76890760D01*
X94632403Y-76888500D01*
X94663125Y-76888500D01*
X94670390Y-76887581D01*
X94676216Y-76887122D01*
X94724769Y-76885597D01*
X94745156Y-76879673D01*
X94764196Y-76875731D01*
X94785258Y-76873071D01*
X94830435Y-76855183D01*
X94835935Y-76853300D01*
X94882598Y-76839744D01*
X94900865Y-76828939D01*
X94918336Y-76820380D01*
X94938071Y-76812568D01*
X94977377Y-76784010D01*
X94982243Y-76780813D01*
X95024065Y-76756081D01*
X95039070Y-76741075D01*
X95053868Y-76728436D01*
X95058833Y-76724829D01*
X95071037Y-76715963D01*
X95102009Y-76678522D01*
X95105913Y-76674231D01*
X96201326Y-75578819D01*
X96262650Y-75545334D01*
X96289008Y-75542500D01*
X96631200Y-75542500D01*
X96698239Y-75562185D01*
G37*
%TD.AperFunction*%
%TA.AperFunction,Conductor*%
G36*
X98373239Y-76512185D02*
G01*
X98418994Y-76564989D01*
X98430200Y-76616500D01*
X98430200Y-77113047D01*
X98410515Y-77180086D01*
X98393876Y-77200732D01*
X98389141Y-77205467D01*
X98389141Y-77205468D01*
X98327814Y-77238946D01*
X98258123Y-77233954D01*
X98228584Y-77218095D01*
X98090334Y-77117651D01*
X98090329Y-77117648D01*
X97917407Y-77040657D01*
X97917402Y-77040655D01*
X97849742Y-77026274D01*
X97788260Y-76993082D01*
X97754484Y-76931919D01*
X97759136Y-76862204D01*
X97787840Y-76817305D01*
X98076326Y-76528818D01*
X98137650Y-76495334D01*
X98164008Y-76492500D01*
X98306200Y-76492500D01*
X98373239Y-76512185D01*
G37*
%TD.AperFunction*%
%TA.AperFunction,Conductor*%
G36*
X84916530Y-71902385D02*
G01*
X84937172Y-71919019D01*
X84943429Y-71925276D01*
X84943433Y-71925279D01*
X84943435Y-71925281D01*
X85084902Y-72008944D01*
X85089198Y-72010192D01*
X85242726Y-72054797D01*
X85242729Y-72054797D01*
X85242731Y-72054798D01*
X85255022Y-72055765D01*
X85279604Y-72057700D01*
X85279606Y-72057700D01*
X85698518Y-72057700D01*
X85765557Y-72077385D01*
X85811312Y-72130189D01*
X85821968Y-72170034D01*
X85823225Y-72183335D01*
X85823500Y-72189171D01*
X85823500Y-75241747D01*
X85803815Y-75308786D01*
X85787181Y-75329428D01*
X84217915Y-76898693D01*
X84156592Y-76932178D01*
X84086900Y-76927194D01*
X84038084Y-76893984D01*
X84037953Y-76893839D01*
X84019471Y-76873312D01*
X84019139Y-76873071D01*
X83949816Y-76822705D01*
X83915969Y-76785507D01*
X83911770Y-76778407D01*
X83911767Y-76778404D01*
X83911765Y-76778401D01*
X83897606Y-76764242D01*
X83884968Y-76749446D01*
X83881057Y-76744063D01*
X83873194Y-76733240D01*
X83863030Y-76724832D01*
X83837288Y-76703536D01*
X83832976Y-76699613D01*
X82678645Y-75545281D01*
X82645160Y-75483958D01*
X82650144Y-75414266D01*
X82692016Y-75358333D01*
X82757480Y-75333916D01*
X82766326Y-75333600D01*
X82909452Y-75333600D01*
X82946577Y-75330678D01*
X82946583Y-75330677D01*
X83105494Y-75284508D01*
X83105502Y-75284505D01*
X83134686Y-75267246D01*
X83202409Y-75250062D01*
X83260928Y-75267244D01*
X83290900Y-75284970D01*
X83331974Y-75296903D01*
X83449937Y-75331175D01*
X83449940Y-75331175D01*
X83449942Y-75331176D01*
X83462327Y-75332150D01*
X83487095Y-75334100D01*
X83487096Y-75334099D01*
X83487097Y-75334100D01*
X84044502Y-75334099D01*
X84081658Y-75331176D01*
X84240700Y-75284970D01*
X84383254Y-75200663D01*
X84500363Y-75083554D01*
X84584670Y-74941000D01*
X84624516Y-74803849D01*
X84630875Y-74781962D01*
X84630876Y-74781956D01*
X84633800Y-74744805D01*
X84633799Y-74302398D01*
X84630876Y-74265245D01*
X84630876Y-74265242D01*
X84584670Y-74106200D01*
X84584669Y-74106198D01*
X84582493Y-74098708D01*
X84585681Y-74097781D01*
X84578976Y-74043490D01*
X84595223Y-73999425D01*
X84600033Y-73991469D01*
X84601117Y-73987992D01*
X84604160Y-73978223D01*
X84647752Y-73838333D01*
X84653800Y-73771781D01*
X84653799Y-73345020D01*
X84653799Y-73345019D01*
X84653799Y-73345011D01*
X84647753Y-73278473D01*
X84647752Y-73278470D01*
X84647752Y-73278467D01*
X84602018Y-73131700D01*
X84600034Y-73125333D01*
X84600032Y-73125329D01*
X84573138Y-73080840D01*
X84555302Y-73013285D01*
X84571821Y-72957029D01*
X84571555Y-72956909D01*
X84572424Y-72954976D01*
X84573141Y-72952536D01*
X84574633Y-72950069D01*
X84622352Y-72796933D01*
X84628400Y-72730381D01*
X84628399Y-72228620D01*
X84628399Y-72228611D01*
X84622353Y-72162074D01*
X84622352Y-72162072D01*
X84622352Y-72162067D01*
X84585432Y-72043589D01*
X84584283Y-71973729D01*
X84621084Y-71914337D01*
X84684153Y-71884269D01*
X84703819Y-71882700D01*
X84849491Y-71882700D01*
X84916530Y-71902385D01*
G37*
%TD.AperFunction*%
%TA.AperFunction,Conductor*%
G36*
X103617231Y-74162785D02*
G01*
X103637873Y-74179419D01*
X104424391Y-74965937D01*
X104457876Y-75027260D01*
X104460030Y-75040651D01*
X104473526Y-75169056D01*
X104475492Y-75175109D01*
X104532018Y-75349077D01*
X104532021Y-75349084D01*
X104626667Y-75513016D01*
X104693733Y-75587500D01*
X104753329Y-75653688D01*
X104906465Y-75764948D01*
X104906470Y-75764951D01*
X105079392Y-75841942D01*
X105079397Y-75841944D01*
X105264554Y-75881300D01*
X105264555Y-75881300D01*
X105453844Y-75881300D01*
X105453846Y-75881300D01*
X105639003Y-75841944D01*
X105811930Y-75764951D01*
X105965071Y-75653688D01*
X106091733Y-75513016D01*
X106186379Y-75349084D01*
X106241541Y-75179313D01*
X106280977Y-75121640D01*
X106345336Y-75094441D01*
X106414182Y-75106355D01*
X106435203Y-75121400D01*
X107509631Y-75121400D01*
X107477081Y-75172049D01*
X107438600Y-75303105D01*
X107438600Y-75439695D01*
X107477081Y-75570751D01*
X107509631Y-75621400D01*
X106438601Y-75621400D01*
X106438601Y-76021386D01*
X106449093Y-76124095D01*
X106486804Y-76237895D01*
X106489206Y-76307724D01*
X106453475Y-76367766D01*
X106390954Y-76398959D01*
X106369098Y-76400900D01*
X101849108Y-76400900D01*
X101782069Y-76381215D01*
X101761427Y-76364581D01*
X100668818Y-75271972D01*
X100635333Y-75210649D01*
X100632499Y-75184291D01*
X100632499Y-75066398D01*
X100631079Y-75048349D01*
X100629576Y-75029242D01*
X100583370Y-74870200D01*
X100565644Y-74840228D01*
X100548462Y-74772505D01*
X100565646Y-74713986D01*
X100582905Y-74684802D01*
X100582908Y-74684794D01*
X100629077Y-74525883D01*
X100629078Y-74525877D01*
X100632000Y-74488752D01*
X100632000Y-74460100D01*
X99696000Y-74460100D01*
X99628961Y-74440415D01*
X99583206Y-74387611D01*
X99572000Y-74336100D01*
X99572000Y-74267100D01*
X99591685Y-74200061D01*
X99644489Y-74154306D01*
X99696000Y-74143100D01*
X103550192Y-74143100D01*
X103617231Y-74162785D01*
G37*
%TD.AperFunction*%
%TA.AperFunction,Conductor*%
G36*
X82793839Y-73328085D02*
G01*
X82839594Y-73380889D01*
X82850800Y-73432400D01*
X82850800Y-73678853D01*
X82877966Y-73728604D01*
X82880800Y-73754962D01*
X82880800Y-74649600D01*
X82861115Y-74716639D01*
X82808311Y-74762394D01*
X82756800Y-74773600D01*
X82667800Y-74773600D01*
X82600761Y-74753915D01*
X82555006Y-74701111D01*
X82543800Y-74649600D01*
X82543800Y-73432400D01*
X82563485Y-73365361D01*
X82616289Y-73319606D01*
X82667800Y-73308400D01*
X82726800Y-73308400D01*
X82793839Y-73328085D01*
G37*
%TD.AperFunction*%
%TA.AperFunction,Conductor*%
G36*
X72686799Y-72053846D02*
G01*
X72735792Y-72063692D01*
X72785975Y-72112307D01*
X72802100Y-72173454D01*
X72802100Y-72502094D01*
X72800332Y-72518105D01*
X72800574Y-72518128D01*
X72799840Y-72525894D01*
X72799840Y-72525896D01*
X72800731Y-72554251D01*
X72802100Y-72597803D01*
X72802100Y-72628520D01*
X72802101Y-72628540D01*
X72803018Y-72635806D01*
X72803476Y-72641624D01*
X72805002Y-72690167D01*
X72805003Y-72690170D01*
X72810923Y-72710548D01*
X72814868Y-72729596D01*
X72817528Y-72750654D01*
X72817531Y-72750665D01*
X72835413Y-72795831D01*
X72837306Y-72801359D01*
X72849091Y-72841925D01*
X72848891Y-72911794D01*
X72810948Y-72970464D01*
X72747310Y-72999307D01*
X72678180Y-72989165D01*
X72675777Y-72987159D01*
X72654825Y-72985326D01*
X71973753Y-73666398D01*
X71960965Y-73585652D01*
X71903441Y-73472755D01*
X71813845Y-73383159D01*
X71700948Y-73325635D01*
X71620200Y-73312846D01*
X72301272Y-72631774D01*
X72301271Y-72631773D01*
X72295822Y-72627957D01*
X72252197Y-72573381D01*
X72245003Y-72503882D01*
X72276525Y-72441527D01*
X72295822Y-72424807D01*
X72328072Y-72402225D01*
X71647001Y-71721153D01*
X71727748Y-71708365D01*
X71840645Y-71650841D01*
X71930241Y-71561245D01*
X71987765Y-71448348D01*
X72000553Y-71367600D01*
X72686799Y-72053846D01*
G37*
%TD.AperFunction*%
%TA.AperFunction,Conductor*%
G36*
X78478503Y-70466702D02*
G01*
X78486041Y-70474556D01*
X78486260Y-70474338D01*
X78491184Y-70479262D01*
X78618738Y-70606816D01*
X78771478Y-70702789D01*
X78875789Y-70739289D01*
X78941745Y-70762368D01*
X78941750Y-70762369D01*
X79120996Y-70782565D01*
X79121000Y-70782565D01*
X79121002Y-70782565D01*
X79167454Y-70777330D01*
X79264573Y-70766388D01*
X79333394Y-70778442D01*
X79366137Y-70801927D01*
X80958028Y-72393819D01*
X80991513Y-72455142D01*
X80986529Y-72524834D01*
X80944657Y-72580767D01*
X80879193Y-72605184D01*
X80870347Y-72605500D01*
X80157504Y-72605500D01*
X80120632Y-72608401D01*
X80120626Y-72608402D01*
X79962806Y-72654254D01*
X79962803Y-72654255D01*
X79904506Y-72688732D01*
X79841385Y-72706000D01*
X79185700Y-72706000D01*
X79185700Y-73256000D01*
X79448700Y-73256000D01*
X79515739Y-73275685D01*
X79561494Y-73328489D01*
X79572700Y-73380000D01*
X79572700Y-73431500D01*
X79553015Y-73498539D01*
X79500211Y-73544294D01*
X79448700Y-73555500D01*
X79023927Y-73555500D01*
X78984579Y-73547993D01*
X78984523Y-73548213D01*
X78981034Y-73547317D01*
X78978276Y-73546791D01*
X78976970Y-73546274D01*
X78976968Y-73546273D01*
X78956400Y-73540991D01*
X78937996Y-73534690D01*
X78918527Y-73526265D01*
X78918521Y-73526263D01*
X78870551Y-73518666D01*
X78864836Y-73517482D01*
X78848372Y-73513255D01*
X78817780Y-73505400D01*
X78817777Y-73505400D01*
X78796555Y-73505400D01*
X78777155Y-73503873D01*
X78756196Y-73500553D01*
X78756185Y-73500552D01*
X78751143Y-73501029D01*
X78744668Y-73499774D01*
X78725550Y-73503450D01*
X78707830Y-73505125D01*
X78701992Y-73505400D01*
X78166392Y-73505400D01*
X78099353Y-73485715D01*
X78053598Y-73432911D01*
X78043654Y-73363753D01*
X78048006Y-73344512D01*
X78054354Y-73324139D01*
X78093090Y-73265991D01*
X78157115Y-73238015D01*
X78207337Y-73241951D01*
X78245710Y-73253100D01*
X78282556Y-73256000D01*
X78685698Y-73256000D01*
X78685700Y-73255998D01*
X78685700Y-71656000D01*
X79185700Y-71656000D01*
X79185700Y-72206000D01*
X80170495Y-72206000D01*
X80170495Y-72205998D01*
X80170300Y-72203513D01*
X80124481Y-72045801D01*
X80040885Y-71904447D01*
X80040878Y-71904438D01*
X79924761Y-71788321D01*
X79924752Y-71788314D01*
X79783396Y-71704717D01*
X79783393Y-71704716D01*
X79625695Y-71658900D01*
X79625689Y-71658899D01*
X79588844Y-71656000D01*
X79185700Y-71656000D01*
X78685700Y-71656000D01*
X78401359Y-71656000D01*
X78334320Y-71636315D01*
X78288565Y-71583511D01*
X78277909Y-71543670D01*
X78273575Y-71497821D01*
X78273300Y-71491983D01*
X78273300Y-70560415D01*
X78292985Y-70493376D01*
X78345789Y-70447621D01*
X78414947Y-70437677D01*
X78478503Y-70466702D01*
G37*
%TD.AperFunction*%
%TA.AperFunction,Conductor*%
G36*
X93431739Y-65034185D02*
G01*
X93477494Y-65086989D01*
X93488700Y-65138500D01*
X93488700Y-66041817D01*
X93499200Y-66144596D01*
X93551283Y-66301771D01*
X93554386Y-66311135D01*
X93646488Y-66460456D01*
X93770544Y-66584512D01*
X93919865Y-66676614D01*
X94086402Y-66731799D01*
X94189190Y-66742300D01*
X94189195Y-66742300D01*
X95189205Y-66742300D01*
X95189210Y-66742300D01*
X95291998Y-66731799D01*
X95458535Y-66676614D01*
X95607856Y-66584512D01*
X95731912Y-66460456D01*
X95824014Y-66311135D01*
X95879199Y-66144598D01*
X95889700Y-66041810D01*
X95889700Y-65316300D01*
X95909385Y-65249261D01*
X95962189Y-65203506D01*
X96013700Y-65192300D01*
X96828453Y-65192300D01*
X96895492Y-65211985D01*
X96916134Y-65228619D01*
X100217911Y-68530396D01*
X100251396Y-68591719D01*
X100246412Y-68661411D01*
X100204540Y-68717344D01*
X100141884Y-68740713D01*
X100141963Y-68741480D01*
X100036103Y-68752294D01*
X100036101Y-68752294D01*
X99869680Y-68807440D01*
X99869669Y-68807445D01*
X99720459Y-68899480D01*
X99720455Y-68899483D01*
X99596483Y-69023455D01*
X99596480Y-69023459D01*
X99504445Y-69172669D01*
X99504440Y-69172680D01*
X99449294Y-69339102D01*
X99438800Y-69441813D01*
X99438800Y-70666800D01*
X100764800Y-70666800D01*
X100831839Y-70686485D01*
X100877594Y-70739289D01*
X100888800Y-70790800D01*
X100888800Y-71042800D01*
X100869115Y-71109839D01*
X100816311Y-71155594D01*
X100764800Y-71166800D01*
X99438801Y-71166800D01*
X99438801Y-72391786D01*
X99449294Y-72494496D01*
X99449294Y-72494498D01*
X99504440Y-72660918D01*
X99506668Y-72665696D01*
X99517159Y-72734774D01*
X99488638Y-72798558D01*
X99430161Y-72836797D01*
X99394285Y-72842100D01*
X98378106Y-72842100D01*
X98362095Y-72840332D01*
X98362073Y-72840574D01*
X98354306Y-72839839D01*
X98282383Y-72842100D01*
X98251675Y-72842100D01*
X98251671Y-72842100D01*
X98251660Y-72842101D01*
X98244404Y-72843017D01*
X98238586Y-72843475D01*
X98190033Y-72845001D01*
X98179718Y-72847998D01*
X98169640Y-72850925D01*
X98150596Y-72854869D01*
X98129542Y-72857529D01*
X98129540Y-72857529D01*
X98084381Y-72875408D01*
X98078855Y-72877300D01*
X98032201Y-72890854D01*
X98013925Y-72901663D01*
X97996460Y-72910219D01*
X97976725Y-72918033D01*
X97937425Y-72946586D01*
X97932543Y-72949792D01*
X97906771Y-72965034D01*
X97891222Y-72974230D01*
X97828100Y-72991500D01*
X97651951Y-72991500D01*
X97584912Y-72971815D01*
X97539157Y-72919011D01*
X97527951Y-72867500D01*
X97527951Y-70324498D01*
X97529675Y-70308878D01*
X97529390Y-70308851D01*
X97530124Y-70301089D01*
X97527951Y-70231928D01*
X97527951Y-70202412D01*
X97527951Y-70202406D01*
X97527081Y-70195517D01*
X97526624Y-70189708D01*
X97526158Y-70174875D01*
X97525161Y-70143129D01*
X97519570Y-70123886D01*
X97515624Y-70104834D01*
X97513115Y-70084964D01*
X97495955Y-70041623D01*
X97494075Y-70036135D01*
X97481069Y-69991366D01*
X97479803Y-69989226D01*
X97470874Y-69974127D01*
X97462312Y-69956650D01*
X97454938Y-69938026D01*
X97453110Y-69935510D01*
X97427530Y-69900301D01*
X97424339Y-69895442D01*
X97417970Y-69884673D01*
X97407577Y-69867098D01*
X97400623Y-69855339D01*
X97400616Y-69855330D01*
X97386457Y-69841171D01*
X97373819Y-69826375D01*
X97363462Y-69812120D01*
X97362045Y-69810169D01*
X97361959Y-69810098D01*
X97326139Y-69780465D01*
X97321827Y-69776542D01*
X95029798Y-67484512D01*
X95019975Y-67472250D01*
X95019754Y-67472434D01*
X95014781Y-67466423D01*
X95006101Y-67458272D01*
X94964359Y-67419073D01*
X94953023Y-67407737D01*
X94943470Y-67398183D01*
X94937981Y-67393925D01*
X94933556Y-67390147D01*
X94899577Y-67358238D01*
X94899575Y-67358236D01*
X94899572Y-67358235D01*
X94882024Y-67348588D01*
X94865758Y-67337904D01*
X94849928Y-67325625D01*
X94807163Y-67307118D01*
X94801917Y-67304548D01*
X94761088Y-67282103D01*
X94761087Y-67282102D01*
X94741688Y-67277122D01*
X94723276Y-67270818D01*
X94704893Y-67262862D01*
X94704887Y-67262860D01*
X94658869Y-67255572D01*
X94653147Y-67254387D01*
X94608016Y-67242800D01*
X94608014Y-67242800D01*
X94587979Y-67242800D01*
X94568581Y-67241273D01*
X94554949Y-67239114D01*
X94548800Y-67238140D01*
X94548799Y-67238140D01*
X94502411Y-67242525D01*
X94496573Y-67242800D01*
X94118455Y-67242800D01*
X94052483Y-67223794D01*
X93923123Y-67142511D01*
X93752854Y-67082931D01*
X93752849Y-67082930D01*
X93573604Y-67062735D01*
X93573596Y-67062735D01*
X93394350Y-67082930D01*
X93394345Y-67082931D01*
X93224076Y-67142511D01*
X93071337Y-67238484D01*
X92943784Y-67366037D01*
X92847811Y-67518776D01*
X92798725Y-67659058D01*
X92758003Y-67715834D01*
X92693050Y-67741581D01*
X92642679Y-67735809D01*
X92608010Y-67724321D01*
X92497197Y-67687601D01*
X92497195Y-67687600D01*
X92394416Y-67677100D01*
X92394409Y-67677100D01*
X92240300Y-67677100D01*
X92173261Y-67657415D01*
X92127506Y-67604611D01*
X92116300Y-67553100D01*
X92116300Y-67543881D01*
X92135985Y-67476842D01*
X92175204Y-67438342D01*
X92176095Y-67437792D01*
X92189150Y-67429740D01*
X92311140Y-67307750D01*
X92401708Y-67160916D01*
X92455974Y-66997153D01*
X92466300Y-66896077D01*
X92466299Y-66297724D01*
X92455974Y-66196647D01*
X92401708Y-66032884D01*
X92311140Y-65886050D01*
X92197170Y-65772081D01*
X92163686Y-65710758D01*
X92168670Y-65641066D01*
X92197171Y-65596719D01*
X92250348Y-65543542D01*
X92311140Y-65482750D01*
X92401708Y-65335916D01*
X92455974Y-65172153D01*
X92459668Y-65135996D01*
X92460700Y-65125897D01*
X92487097Y-65061205D01*
X92544278Y-65021054D01*
X92584058Y-65014500D01*
X93364700Y-65014500D01*
X93431739Y-65034185D01*
G37*
%TD.AperFunction*%
%TA.AperFunction,Conductor*%
G36*
X73953949Y-67393282D02*
G01*
X73994596Y-67450112D01*
X74001500Y-67490911D01*
X74001500Y-67713516D01*
X73981815Y-67780555D01*
X73948623Y-67815091D01*
X73812859Y-67910153D01*
X73651954Y-68071058D01*
X73521432Y-68257465D01*
X73521431Y-68257467D01*
X73425261Y-68463702D01*
X73425258Y-68463711D01*
X73366366Y-68683502D01*
X73366364Y-68683513D01*
X73346532Y-68910198D01*
X73346532Y-68910201D01*
X73366364Y-69136886D01*
X73366366Y-69136897D01*
X73425258Y-69356688D01*
X73425261Y-69356697D01*
X73517945Y-69555456D01*
X73521432Y-69562934D01*
X73581905Y-69649300D01*
X73583302Y-69651294D01*
X73605629Y-69717500D01*
X73588619Y-69785268D01*
X73569408Y-69810098D01*
X73053083Y-70326423D01*
X73040510Y-70336497D01*
X73040665Y-70336684D01*
X73034659Y-70341652D01*
X73010034Y-70367874D01*
X72985409Y-70394098D01*
X72974548Y-70404958D01*
X72963688Y-70415819D01*
X72963678Y-70415831D01*
X72959187Y-70421619D01*
X72955401Y-70426051D01*
X72922152Y-70461460D01*
X72911922Y-70480067D01*
X72901246Y-70496318D01*
X72888240Y-70513086D01*
X72888235Y-70513094D01*
X72874798Y-70544144D01*
X72830106Y-70597851D01*
X72763472Y-70618869D01*
X72696053Y-70600526D01*
X72694254Y-70598831D01*
X72681625Y-70597726D01*
X72000553Y-71278798D01*
X71987765Y-71198052D01*
X71930241Y-71085155D01*
X71840645Y-70995559D01*
X71727748Y-70938035D01*
X71647000Y-70925246D01*
X72328072Y-70244174D01*
X72328071Y-70244173D01*
X72315785Y-70235570D01*
X72272160Y-70180994D01*
X72264966Y-70111496D01*
X72296488Y-70049141D01*
X72315784Y-70032420D01*
X72377472Y-69989225D01*
X71696401Y-69308153D01*
X71777148Y-69295365D01*
X71890045Y-69237841D01*
X71979641Y-69148245D01*
X72037165Y-69035348D01*
X72049953Y-68954600D01*
X72731025Y-69635672D01*
X72782136Y-69562678D01*
X72878264Y-69356531D01*
X72878269Y-69356517D01*
X72937139Y-69136810D01*
X72937141Y-69136799D01*
X72956966Y-68910202D01*
X72956966Y-68910197D01*
X72937141Y-68683600D01*
X72937139Y-68683589D01*
X72878269Y-68463882D01*
X72878265Y-68463873D01*
X72782133Y-68257716D01*
X72782131Y-68257712D01*
X72731026Y-68184726D01*
X72731025Y-68184726D01*
X72049953Y-68865798D01*
X72037165Y-68785052D01*
X71979641Y-68672155D01*
X71890045Y-68582559D01*
X71777148Y-68525035D01*
X71696400Y-68512246D01*
X72377472Y-67831174D01*
X72375454Y-67808114D01*
X72371125Y-67802698D01*
X72363932Y-67733199D01*
X72395454Y-67670845D01*
X72455684Y-67635431D01*
X72485873Y-67631700D01*
X72885657Y-67631700D01*
X72885662Y-67631700D01*
X73105711Y-67616648D01*
X73235335Y-67589711D01*
X73393743Y-67556795D01*
X73393749Y-67556792D01*
X73393754Y-67556792D01*
X73670964Y-67458272D01*
X73820452Y-67380812D01*
X73889031Y-67367448D01*
X73953949Y-67393282D01*
G37*
%TD.AperFunction*%
%TA.AperFunction,Conductor*%
G36*
X86270939Y-67277534D02*
G01*
X86316694Y-67330338D01*
X86327900Y-67381849D01*
X86327900Y-67389216D01*
X86326373Y-67408615D01*
X86323240Y-67428394D01*
X86323240Y-67428395D01*
X86327625Y-67474783D01*
X86327900Y-67480621D01*
X86327900Y-68455655D01*
X86326175Y-68471272D01*
X86326461Y-68471299D01*
X86325726Y-68479065D01*
X86327900Y-68548214D01*
X86327900Y-68577743D01*
X86327901Y-68577760D01*
X86328768Y-68584631D01*
X86329226Y-68590450D01*
X86330690Y-68637024D01*
X86330691Y-68637027D01*
X86336280Y-68656267D01*
X86340224Y-68675311D01*
X86342736Y-68695192D01*
X86354003Y-68723649D01*
X86359890Y-68738519D01*
X86361782Y-68744047D01*
X86372700Y-68781626D01*
X86374782Y-68788790D01*
X86376315Y-68791383D01*
X86384980Y-68806034D01*
X86393538Y-68823503D01*
X86400914Y-68842132D01*
X86428298Y-68879823D01*
X86431506Y-68884707D01*
X86455227Y-68924816D01*
X86455233Y-68924824D01*
X86469390Y-68938980D01*
X86482028Y-68953776D01*
X86493805Y-68969986D01*
X86493806Y-68969987D01*
X86529709Y-68999688D01*
X86534020Y-69003610D01*
X86794162Y-69263753D01*
X86851057Y-69320648D01*
X86868072Y-69341886D01*
X86923117Y-69428622D01*
X86942419Y-69495773D01*
X86922352Y-69562699D01*
X86881543Y-69601797D01*
X86818435Y-69639119D01*
X86818429Y-69639123D01*
X86702223Y-69755329D01*
X86702217Y-69755337D01*
X86618555Y-69896803D01*
X86618554Y-69896806D01*
X86572702Y-70054626D01*
X86572701Y-70054632D01*
X86569800Y-70091504D01*
X86569800Y-70332700D01*
X86550115Y-70399739D01*
X86497311Y-70445494D01*
X86445800Y-70456700D01*
X85279604Y-70456700D01*
X85242732Y-70459601D01*
X85242726Y-70459602D01*
X85084906Y-70505454D01*
X85084901Y-70505456D01*
X85041420Y-70531170D01*
X84973696Y-70548351D01*
X84907434Y-70526191D01*
X84863671Y-70471724D01*
X84855081Y-70438320D01*
X84840927Y-70312698D01*
X84840926Y-70312696D01*
X84840926Y-70312693D01*
X84782836Y-70146681D01*
X84782835Y-70146679D01*
X84780726Y-70142299D01*
X84769375Y-70073358D01*
X84797098Y-70009223D01*
X84855094Y-69970259D01*
X84876231Y-69966660D01*
X84876116Y-69965931D01*
X84883817Y-69964710D01*
X84883819Y-69964709D01*
X84883827Y-69964709D01*
X84903069Y-69959117D01*
X84922112Y-69955174D01*
X84941992Y-69952664D01*
X84985322Y-69935507D01*
X84990846Y-69933617D01*
X84994596Y-69932527D01*
X85035590Y-69920618D01*
X85052829Y-69910422D01*
X85070303Y-69901862D01*
X85088927Y-69894488D01*
X85088927Y-69894487D01*
X85088932Y-69894486D01*
X85126649Y-69867082D01*
X85131505Y-69863892D01*
X85171620Y-69840170D01*
X85185786Y-69826003D01*
X85200581Y-69813368D01*
X85209413Y-69806951D01*
X85216787Y-69801594D01*
X85246502Y-69765674D01*
X85250402Y-69761387D01*
X85778586Y-69233202D01*
X85790848Y-69223380D01*
X85790665Y-69223159D01*
X85796667Y-69218192D01*
X85796677Y-69218186D01*
X85844041Y-69167748D01*
X85864920Y-69146870D01*
X85869173Y-69141386D01*
X85872950Y-69136963D01*
X85904862Y-69102982D01*
X85914514Y-69085423D01*
X85925189Y-69069172D01*
X85937474Y-69053336D01*
X85955986Y-69010552D01*
X85958542Y-69005335D01*
X85977976Y-68969987D01*
X85980994Y-68964498D01*
X85980994Y-68964497D01*
X85980997Y-68964492D01*
X85985980Y-68945080D01*
X85992277Y-68926691D01*
X86000238Y-68908295D01*
X86007529Y-68862253D01*
X86008708Y-68856562D01*
X86020300Y-68811419D01*
X86020300Y-68791382D01*
X86021827Y-68771982D01*
X86024116Y-68757535D01*
X86024960Y-68752204D01*
X86020572Y-68705794D01*
X86020299Y-68699999D01*
X86020299Y-67381848D01*
X86039984Y-67314810D01*
X86092788Y-67269055D01*
X86144299Y-67257849D01*
X86203900Y-67257849D01*
X86270939Y-67277534D01*
G37*
%TD.AperFunction*%
%TA.AperFunction,Conductor*%
G36*
X102878639Y-65351585D02*
G01*
X102924394Y-65404389D01*
X102935600Y-65455900D01*
X102935600Y-66286154D01*
X102933875Y-66301771D01*
X102934161Y-66301798D01*
X102933426Y-66309564D01*
X102935600Y-66378713D01*
X102935600Y-66408244D01*
X102935601Y-66408264D01*
X102936468Y-66415134D01*
X102936926Y-66420952D01*
X102938390Y-66467523D01*
X102938391Y-66467526D01*
X102943980Y-66486766D01*
X102947924Y-66505810D01*
X102949147Y-66515487D01*
X102950436Y-66525690D01*
X102967590Y-66569018D01*
X102969482Y-66574546D01*
X102982481Y-66619287D01*
X102992680Y-66636533D01*
X103001236Y-66653999D01*
X103005359Y-66664411D01*
X103008614Y-66672631D01*
X103035998Y-66710322D01*
X103039206Y-66715206D01*
X103062927Y-66755315D01*
X103062933Y-66755323D01*
X103077090Y-66769479D01*
X103089728Y-66784275D01*
X103101505Y-66800485D01*
X103101506Y-66800486D01*
X103137409Y-66830187D01*
X103141720Y-66834109D01*
X103673647Y-67366037D01*
X103846480Y-67538870D01*
X103879965Y-67600193D01*
X103874981Y-67669885D01*
X103833109Y-67725818D01*
X103793394Y-67745627D01*
X103709405Y-67770028D01*
X103709396Y-67770031D01*
X103679427Y-67787755D01*
X103611703Y-67804936D01*
X103553189Y-67787755D01*
X103523999Y-67770493D01*
X103523994Y-67770491D01*
X103365083Y-67724322D01*
X103365077Y-67724321D01*
X103327952Y-67721400D01*
X103299300Y-67721400D01*
X103299300Y-69341400D01*
X103310045Y-69352145D01*
X103340489Y-69361085D01*
X103386244Y-69413889D01*
X103396188Y-69483047D01*
X103392526Y-69499995D01*
X103358034Y-69618715D01*
X103356201Y-69618182D01*
X103328830Y-69672533D01*
X103268654Y-69708038D01*
X103198835Y-69705373D01*
X103159242Y-69683359D01*
X103157237Y-69681700D01*
X103135245Y-69663507D01*
X103132338Y-69660943D01*
X103090485Y-69621640D01*
X103090477Y-69621634D01*
X103083315Y-69617697D01*
X103064015Y-69604581D01*
X103050412Y-69593328D01*
X103046099Y-69589404D01*
X102835619Y-69378923D01*
X102802134Y-69317601D01*
X102799300Y-69291243D01*
X102799300Y-67721400D01*
X102770648Y-67721400D01*
X102733522Y-67724321D01*
X102733516Y-67724322D01*
X102574605Y-67770491D01*
X102574602Y-67770492D01*
X102432157Y-67854733D01*
X102432149Y-67854739D01*
X102315139Y-67971749D01*
X102315133Y-67971757D01*
X102230892Y-68114202D01*
X102230891Y-68114205D01*
X102184722Y-68273116D01*
X102184721Y-68273122D01*
X102181800Y-68310248D01*
X102181799Y-68425743D01*
X102162114Y-68492782D01*
X102109310Y-68538537D01*
X102040151Y-68548480D01*
X101976595Y-68519454D01*
X101970118Y-68513423D01*
X101340340Y-67883645D01*
X101306855Y-67822322D01*
X101311839Y-67752630D01*
X101353711Y-67696697D01*
X101402240Y-67674674D01*
X101553403Y-67642544D01*
X101726330Y-67565551D01*
X101879471Y-67454288D01*
X102006133Y-67313616D01*
X102100779Y-67149684D01*
X102159274Y-66969656D01*
X102179060Y-66781400D01*
X102159274Y-66593144D01*
X102100779Y-66413116D01*
X102006133Y-66249184D01*
X102002315Y-66243929D01*
X102004143Y-66242600D01*
X101978407Y-66188975D01*
X101979329Y-66151416D01*
X101978511Y-66151333D01*
X101989699Y-66041817D01*
X101989700Y-66041804D01*
X101989700Y-65455900D01*
X102009385Y-65388861D01*
X102062189Y-65343106D01*
X102113700Y-65331900D01*
X102811600Y-65331900D01*
X102878639Y-65351585D01*
G37*
%TD.AperFunction*%
%TA.AperFunction,Conductor*%
G36*
X82771301Y-66369604D02*
G01*
X82840473Y-66413068D01*
X82886762Y-66465399D01*
X82898500Y-66518060D01*
X82898500Y-67146555D01*
X82896775Y-67162172D01*
X82897061Y-67162199D01*
X82896326Y-67169965D01*
X82898500Y-67239114D01*
X82898500Y-67268643D01*
X82898501Y-67268660D01*
X82899368Y-67275531D01*
X82899826Y-67281350D01*
X82901290Y-67327924D01*
X82901291Y-67327927D01*
X82906880Y-67347167D01*
X82910824Y-67366211D01*
X82913336Y-67386092D01*
X82930085Y-67428396D01*
X82930490Y-67429419D01*
X82932382Y-67434947D01*
X82944801Y-67477692D01*
X82945382Y-67479690D01*
X82954384Y-67494913D01*
X82955580Y-67496934D01*
X82964138Y-67514403D01*
X82971514Y-67533032D01*
X82998898Y-67570723D01*
X83002106Y-67575607D01*
X83025827Y-67615716D01*
X83025833Y-67615724D01*
X83039989Y-67629879D01*
X83052627Y-67644675D01*
X83061883Y-67657415D01*
X83067818Y-67665583D01*
X83091298Y-67731389D01*
X83091500Y-67738469D01*
X83091500Y-67862253D01*
X83118666Y-67912004D01*
X83121500Y-67938362D01*
X83121500Y-68592500D01*
X83101815Y-68659539D01*
X83049011Y-68705294D01*
X82997500Y-68716500D01*
X82745500Y-68716500D01*
X82678461Y-68696815D01*
X82632706Y-68644011D01*
X82622963Y-68599226D01*
X82594334Y-68546796D01*
X82591500Y-68520438D01*
X82591500Y-66921799D01*
X82591379Y-66921679D01*
X82524750Y-66902115D01*
X82478995Y-66849311D01*
X82474773Y-66836845D01*
X82474345Y-66836995D01*
X82472046Y-66830425D01*
X82472046Y-66830423D01*
X82413956Y-66664411D01*
X82336143Y-66540572D01*
X82317143Y-66473335D01*
X82337511Y-66406500D01*
X82390779Y-66361286D01*
X82441137Y-66350600D01*
X82705332Y-66350600D01*
X82771301Y-66369604D01*
G37*
%TD.AperFunction*%
%TA.AperFunction,Conductor*%
G36*
X97705214Y-61198785D02*
G01*
X97725856Y-61215419D01*
X99461021Y-62950584D01*
X99470846Y-62962848D01*
X99471067Y-62962666D01*
X99476037Y-62968673D01*
X99476040Y-62968676D01*
X99476041Y-62968677D01*
X99526478Y-63016041D01*
X99541787Y-63031350D01*
X99550112Y-63039675D01*
X99549308Y-63040478D01*
X99583969Y-63095430D01*
X99588700Y-63129356D01*
X99588700Y-65832642D01*
X99569015Y-65899681D01*
X99516211Y-65945436D01*
X99447053Y-65955380D01*
X99383497Y-65926355D01*
X99377019Y-65920323D01*
X97639708Y-64183012D01*
X97629885Y-64170750D01*
X97629664Y-64170934D01*
X97624691Y-64164923D01*
X97605814Y-64147196D01*
X97574269Y-64117573D01*
X97563824Y-64107128D01*
X97553380Y-64096683D01*
X97547891Y-64092425D01*
X97543466Y-64088647D01*
X97509487Y-64056738D01*
X97509485Y-64056736D01*
X97509482Y-64056735D01*
X97491934Y-64047088D01*
X97475668Y-64036404D01*
X97459838Y-64024125D01*
X97417073Y-64005618D01*
X97411827Y-64003048D01*
X97370998Y-63980603D01*
X97370997Y-63980602D01*
X97351598Y-63975622D01*
X97333186Y-63969318D01*
X97314803Y-63961362D01*
X97314797Y-63961360D01*
X97268779Y-63954072D01*
X97263057Y-63952887D01*
X97217926Y-63941300D01*
X97217924Y-63941300D01*
X97197889Y-63941300D01*
X97178491Y-63939773D01*
X97171067Y-63938597D01*
X97158710Y-63936640D01*
X97158709Y-63936640D01*
X97112321Y-63941025D01*
X97106483Y-63941300D01*
X96013700Y-63941300D01*
X95946661Y-63921615D01*
X95900906Y-63868811D01*
X95889700Y-63817300D01*
X95889700Y-63091795D01*
X95889699Y-63091782D01*
X95888561Y-63080646D01*
X95879199Y-62989002D01*
X95824014Y-62822465D01*
X95731912Y-62673144D01*
X95620805Y-62562036D01*
X95587320Y-62500714D01*
X95592304Y-62431022D01*
X95602942Y-62409268D01*
X95671614Y-62297935D01*
X95726799Y-62131398D01*
X95737300Y-62028610D01*
X95737300Y-61303099D01*
X95756985Y-61236061D01*
X95809789Y-61190306D01*
X95861300Y-61179100D01*
X97638175Y-61179100D01*
X97705214Y-61198785D01*
G37*
%TD.AperFunction*%
%TA.AperFunction,Conductor*%
G36*
X84398324Y-61230408D02*
G01*
X84421676Y-61252374D01*
X84421702Y-61252349D01*
X84422546Y-61253193D01*
X84426424Y-61256841D01*
X84427219Y-61257866D01*
X84543429Y-61374076D01*
X84543433Y-61374079D01*
X84543435Y-61374081D01*
X84684902Y-61457744D01*
X84725369Y-61469501D01*
X84842726Y-61503597D01*
X84842729Y-61503597D01*
X84842731Y-61503598D01*
X84855022Y-61504565D01*
X84879604Y-61506500D01*
X84879606Y-61506500D01*
X86045800Y-61506500D01*
X86112839Y-61526185D01*
X86158594Y-61578989D01*
X86169800Y-61630500D01*
X86169800Y-61871696D01*
X86172701Y-61908567D01*
X86172702Y-61908573D01*
X86218554Y-62066393D01*
X86218555Y-62066396D01*
X86302217Y-62207862D01*
X86302223Y-62207870D01*
X86418429Y-62324076D01*
X86418433Y-62324079D01*
X86418435Y-62324081D01*
X86559902Y-62407744D01*
X86601524Y-62419836D01*
X86717726Y-62453597D01*
X86717729Y-62453597D01*
X86717731Y-62453598D01*
X86730022Y-62454565D01*
X86754604Y-62456500D01*
X86754606Y-62456500D01*
X88060996Y-62456500D01*
X88079431Y-62455049D01*
X88097869Y-62453598D01*
X88097871Y-62453597D01*
X88097873Y-62453597D01*
X88175575Y-62431022D01*
X88255698Y-62407744D01*
X88397165Y-62324081D01*
X88513381Y-62207865D01*
X88597044Y-62066398D01*
X88642898Y-61908569D01*
X88642898Y-61908564D01*
X88643396Y-61905843D01*
X88644092Y-61904459D01*
X88644666Y-61902485D01*
X88645032Y-61902591D01*
X88674806Y-61843431D01*
X88734972Y-61807909D01*
X88802268Y-61809738D01*
X88826045Y-61817147D01*
X88933567Y-61850652D01*
X89000119Y-61856700D01*
X89426880Y-61856699D01*
X89426888Y-61856699D01*
X89493426Y-61850653D01*
X89493427Y-61850652D01*
X89493433Y-61850652D01*
X89646569Y-61802933D01*
X89782345Y-61720854D01*
X89783829Y-61719957D01*
X89783829Y-61719956D01*
X89783835Y-61719953D01*
X89871293Y-61632494D01*
X89932612Y-61599012D01*
X90002304Y-61603996D01*
X90044757Y-61635194D01*
X90047003Y-61632949D01*
X90067525Y-61653471D01*
X90080163Y-61668269D01*
X90092633Y-61685433D01*
X90092636Y-61685436D01*
X90092637Y-61685437D01*
X90130076Y-61716409D01*
X90134376Y-61720322D01*
X90264705Y-61850651D01*
X90383781Y-61969727D01*
X90417266Y-62031050D01*
X90420100Y-62057408D01*
X90420100Y-62865790D01*
X90400415Y-62932829D01*
X90383781Y-62953471D01*
X90266283Y-63070969D01*
X90253710Y-63081043D01*
X90253865Y-63081230D01*
X90247859Y-63086198D01*
X90239190Y-63095430D01*
X90198609Y-63138644D01*
X90187749Y-63149504D01*
X90176888Y-63160365D01*
X90176878Y-63160377D01*
X90172387Y-63166165D01*
X90168601Y-63170597D01*
X90135352Y-63206006D01*
X90125122Y-63224613D01*
X90114446Y-63240864D01*
X90101440Y-63257632D01*
X90101436Y-63257638D01*
X90082148Y-63302211D01*
X90079577Y-63307458D01*
X90056172Y-63350030D01*
X90056172Y-63350031D01*
X90050891Y-63370599D01*
X90044591Y-63389001D01*
X90036164Y-63408473D01*
X90028566Y-63456447D01*
X90027381Y-63462170D01*
X90015300Y-63509218D01*
X90015300Y-63530444D01*
X90013773Y-63549844D01*
X90010453Y-63570803D01*
X90013075Y-63598540D01*
X89999787Y-63667135D01*
X89951523Y-63717656D01*
X89883607Y-63734064D01*
X89838508Y-63720542D01*
X89837694Y-63722424D01*
X89787768Y-63700818D01*
X89782522Y-63698248D01*
X89741693Y-63675803D01*
X89741692Y-63675802D01*
X89722293Y-63670822D01*
X89703881Y-63664518D01*
X89685498Y-63656562D01*
X89685492Y-63656560D01*
X89639474Y-63649272D01*
X89633752Y-63648087D01*
X89588621Y-63636500D01*
X89588619Y-63636500D01*
X89568584Y-63636500D01*
X89549186Y-63634973D01*
X89541762Y-63633797D01*
X89529405Y-63631840D01*
X89529404Y-63631840D01*
X89483016Y-63636225D01*
X89477178Y-63636500D01*
X86760686Y-63636500D01*
X86745069Y-63634776D01*
X86745042Y-63635062D01*
X86737280Y-63634327D01*
X86668152Y-63636500D01*
X86638599Y-63636500D01*
X86637878Y-63636590D01*
X86631706Y-63637369D01*
X86625894Y-63637826D01*
X86579321Y-63639290D01*
X86579318Y-63639291D01*
X86560075Y-63644881D01*
X86541032Y-63648825D01*
X86521153Y-63651336D01*
X86521152Y-63651337D01*
X86477827Y-63668490D01*
X86472301Y-63670382D01*
X86427557Y-63683383D01*
X86427553Y-63683385D01*
X86410314Y-63693580D01*
X86392847Y-63702137D01*
X86374218Y-63709512D01*
X86374216Y-63709513D01*
X86336513Y-63736906D01*
X86331631Y-63740112D01*
X86291529Y-63763828D01*
X86277357Y-63778000D01*
X86262572Y-63790628D01*
X86246361Y-63802407D01*
X86216658Y-63838310D01*
X86212726Y-63842630D01*
X86186826Y-63868531D01*
X86074175Y-63981182D01*
X86012855Y-64014666D01*
X85986496Y-64017500D01*
X84776262Y-64017500D01*
X84709223Y-63997815D01*
X84663468Y-63945011D01*
X84653524Y-63875853D01*
X84657185Y-63858906D01*
X84670588Y-63812773D01*
X84693776Y-63732958D01*
X84696700Y-63695803D01*
X84696699Y-63253398D01*
X84693776Y-63216242D01*
X84647570Y-63057200D01*
X84647569Y-63057198D01*
X84645393Y-63049708D01*
X84647645Y-63049053D01*
X84640517Y-62991358D01*
X84656762Y-62947290D01*
X84675033Y-62917069D01*
X84722752Y-62763933D01*
X84728800Y-62697381D01*
X84728799Y-62270620D01*
X84728799Y-62270619D01*
X84728799Y-62270611D01*
X84722753Y-62204073D01*
X84722752Y-62204070D01*
X84722752Y-62204067D01*
X84685743Y-62085300D01*
X84675034Y-62050933D01*
X84675032Y-62050929D01*
X84592057Y-61913670D01*
X84592053Y-61913665D01*
X84478634Y-61800246D01*
X84478629Y-61800242D01*
X84341370Y-61717267D01*
X84341366Y-61717265D01*
X84188233Y-61669548D01*
X84188235Y-61669548D01*
X84161612Y-61667128D01*
X84121681Y-61663500D01*
X84121678Y-61663500D01*
X83986252Y-61663500D01*
X83919213Y-61643815D01*
X83898571Y-61627181D01*
X83831770Y-61560380D01*
X83798285Y-61499057D01*
X83803269Y-61429365D01*
X83845141Y-61373432D01*
X83910605Y-61349015D01*
X83919451Y-61348699D01*
X83931788Y-61348699D01*
X83998326Y-61342653D01*
X83998327Y-61342652D01*
X83998333Y-61342652D01*
X84151469Y-61294933D01*
X84264298Y-61226725D01*
X84331851Y-61208890D01*
X84398324Y-61230408D01*
G37*
%TD.AperFunction*%
%TA.AperFunction,Conductor*%
G36*
X81568913Y-61366768D02*
G01*
X81618671Y-61415818D01*
X81634012Y-61483982D01*
X81633488Y-61489906D01*
X81630233Y-61518796D01*
X81630233Y-61518803D01*
X81650428Y-61698049D01*
X81650429Y-61698054D01*
X81710009Y-61868323D01*
X81805982Y-62021062D01*
X81810475Y-62025555D01*
X81843960Y-62086878D01*
X81841180Y-62150125D01*
X81824342Y-62204159D01*
X81821631Y-62234000D01*
X82035986Y-62234000D01*
X82079155Y-62243852D01*
X82079703Y-62242289D01*
X82256535Y-62304166D01*
X82256541Y-62304167D01*
X82256543Y-62304168D01*
X82256544Y-62304168D01*
X82256548Y-62304169D01*
X82435794Y-62324365D01*
X82435798Y-62324365D01*
X82435802Y-62324365D01*
X82615047Y-62304169D01*
X82615048Y-62304168D01*
X82615053Y-62304168D01*
X82683243Y-62280306D01*
X82753017Y-62276744D01*
X82811876Y-62309667D01*
X82889481Y-62387272D01*
X82922966Y-62448595D01*
X82925800Y-62474953D01*
X82925800Y-62639911D01*
X82940865Y-62667500D01*
X82943700Y-62693861D01*
X82943700Y-63600600D01*
X82924015Y-63667639D01*
X82871211Y-63713394D01*
X82819700Y-63724600D01*
X82567700Y-63724600D01*
X82500661Y-63704915D01*
X82454906Y-63652111D01*
X82443700Y-63600600D01*
X82443700Y-63328687D01*
X82428634Y-63301096D01*
X82425800Y-63274738D01*
X82425800Y-62734000D01*
X81821631Y-62734000D01*
X81824343Y-62763844D01*
X81872024Y-62916859D01*
X81872025Y-62916861D01*
X81877335Y-62925645D01*
X81895168Y-62993200D01*
X81877952Y-63052903D01*
X81875292Y-63057400D01*
X81875292Y-63057401D01*
X81829122Y-63216316D01*
X81829121Y-63216321D01*
X81826206Y-63253366D01*
X81801321Y-63318654D01*
X81745089Y-63360124D01*
X81675364Y-63364610D01*
X81614907Y-63331316D01*
X81052819Y-62769227D01*
X81019334Y-62707904D01*
X81016500Y-62681546D01*
X81016500Y-61591588D01*
X81018224Y-61575974D01*
X81017938Y-61575947D01*
X81018672Y-61568184D01*
X81017120Y-61518803D01*
X81016500Y-61499054D01*
X81016500Y-61476700D01*
X81036185Y-61409661D01*
X81088989Y-61363906D01*
X81140500Y-61352700D01*
X81496794Y-61352700D01*
X81500536Y-61352406D01*
X81568913Y-61366768D01*
G37*
%TD.AperFunction*%
%TA.AperFunction,Conductor*%
G36*
X103175031Y-59852185D02*
G01*
X103195673Y-59868819D01*
X103466073Y-60139219D01*
X103499558Y-60200542D01*
X103494574Y-60270234D01*
X103461907Y-60313869D01*
X103462619Y-60314581D01*
X103457672Y-60319527D01*
X103452702Y-60326167D01*
X103450040Y-60327159D01*
X103426300Y-60350900D01*
X103426300Y-61286900D01*
X103406615Y-61353939D01*
X103353811Y-61399694D01*
X103302300Y-61410900D01*
X102311070Y-61410900D01*
X102311721Y-61419181D01*
X102357890Y-61578094D01*
X102357892Y-61578097D01*
X102442133Y-61720542D01*
X102442139Y-61720550D01*
X102559149Y-61837560D01*
X102559157Y-61837566D01*
X102701602Y-61921807D01*
X102701605Y-61921808D01*
X102865408Y-61969398D01*
X102924294Y-62007004D01*
X102953500Y-62070477D01*
X102943754Y-62139663D01*
X102903700Y-62188791D01*
X102899128Y-62192112D01*
X102772466Y-62332785D01*
X102677821Y-62496715D01*
X102677819Y-62496719D01*
X102647622Y-62589657D01*
X102608184Y-62647332D01*
X102543825Y-62674530D01*
X102474979Y-62662615D01*
X102442010Y-62639019D01*
X101986003Y-62183012D01*
X101976180Y-62170750D01*
X101975959Y-62170934D01*
X101970986Y-62164923D01*
X101953621Y-62148616D01*
X101920564Y-62117573D01*
X101910119Y-62107128D01*
X101899676Y-62096684D01*
X101899671Y-62096680D01*
X101894175Y-62092417D01*
X101889756Y-62088642D01*
X101876409Y-62076108D01*
X101841020Y-62015865D01*
X101837300Y-61985722D01*
X101837300Y-60910900D01*
X102311070Y-60910900D01*
X102926300Y-60910900D01*
X102926300Y-60350900D01*
X102897648Y-60350900D01*
X102860522Y-60353821D01*
X102860516Y-60353822D01*
X102701605Y-60399991D01*
X102701602Y-60399992D01*
X102559157Y-60484233D01*
X102559149Y-60484239D01*
X102442139Y-60601249D01*
X102442133Y-60601257D01*
X102357892Y-60743702D01*
X102357890Y-60743705D01*
X102311721Y-60902618D01*
X102311070Y-60910900D01*
X101837300Y-60910900D01*
X101837300Y-60324408D01*
X101856985Y-60257369D01*
X101873619Y-60236727D01*
X102241527Y-59868819D01*
X102302850Y-59835334D01*
X102329208Y-59832500D01*
X103107992Y-59832500D01*
X103175031Y-59852185D01*
G37*
%TD.AperFunction*%
%TA.AperFunction,Conductor*%
G36*
X93291754Y-60323646D02*
G01*
X93330610Y-60381714D01*
X93336300Y-60418846D01*
X93336300Y-61704353D01*
X93316615Y-61771392D01*
X93263811Y-61817147D01*
X93194653Y-61827091D01*
X93131097Y-61798066D01*
X93106761Y-61769450D01*
X93105414Y-61767266D01*
X93013312Y-61617944D01*
X92889256Y-61493888D01*
X92762684Y-61415818D01*
X92739936Y-61401787D01*
X92739931Y-61401785D01*
X92733621Y-61399694D01*
X92573397Y-61346601D01*
X92573395Y-61346600D01*
X92470616Y-61336100D01*
X92470609Y-61336100D01*
X91641408Y-61336100D01*
X91574369Y-61316415D01*
X91553727Y-61299781D01*
X91257419Y-61003473D01*
X91223934Y-60942150D01*
X91221100Y-60915792D01*
X91221100Y-60911099D01*
X91240785Y-60844060D01*
X91293589Y-60798305D01*
X91345100Y-60787099D01*
X92470602Y-60787099D01*
X92470608Y-60787099D01*
X92573397Y-60776599D01*
X92739934Y-60721414D01*
X92889256Y-60629312D01*
X93013312Y-60505256D01*
X93105414Y-60355934D01*
X93105414Y-60355933D01*
X93106761Y-60353750D01*
X93158709Y-60307025D01*
X93227671Y-60295802D01*
X93291754Y-60323646D01*
G37*
%TD.AperFunction*%
%TA.AperFunction,Conductor*%
G36*
X105461939Y-55618285D02*
G01*
X105507694Y-55671089D01*
X105518900Y-55722600D01*
X105518900Y-56888796D01*
X105521801Y-56925667D01*
X105521802Y-56925673D01*
X105567654Y-57083493D01*
X105567655Y-57083496D01*
X105567656Y-57083498D01*
X105582764Y-57109045D01*
X105651317Y-57224962D01*
X105651323Y-57224970D01*
X105767529Y-57341176D01*
X105767533Y-57341179D01*
X105767535Y-57341181D01*
X105909002Y-57424844D01*
X105945356Y-57435406D01*
X106066826Y-57470697D01*
X106066829Y-57470697D01*
X106066831Y-57470698D01*
X106079122Y-57471665D01*
X106103704Y-57473600D01*
X106103706Y-57473600D01*
X106535096Y-57473600D01*
X106572999Y-57470617D01*
X106641376Y-57484982D01*
X106670408Y-57506554D01*
X107666781Y-58502927D01*
X107700266Y-58564250D01*
X107703100Y-58590608D01*
X107703100Y-60104191D01*
X107683415Y-60171230D01*
X107630611Y-60216985D01*
X107561453Y-60226929D01*
X107497897Y-60197904D01*
X107491419Y-60191872D01*
X105106219Y-57806673D01*
X105072734Y-57745350D01*
X105069900Y-57718992D01*
X105069900Y-57288615D01*
X105087168Y-57225494D01*
X105092492Y-57216492D01*
X105171144Y-57083498D01*
X105216998Y-56925669D01*
X105219900Y-56888794D01*
X105219900Y-55722599D01*
X105239585Y-55655561D01*
X105292389Y-55609806D01*
X105343900Y-55598600D01*
X105394900Y-55598600D01*
X105461939Y-55618285D01*
G37*
%TD.AperFunction*%
%TA.AperFunction,Conductor*%
G36*
X83068932Y-56123482D02*
G01*
X83099402Y-56186357D01*
X83101100Y-56206806D01*
X83101100Y-56574258D01*
X83081415Y-56641297D01*
X83028611Y-56687052D01*
X82968156Y-56697362D01*
X82968150Y-56697496D01*
X82968150Y-56697700D01*
X82968141Y-56697700D01*
X82968135Y-56697827D01*
X82966003Y-56697730D01*
X82965887Y-56697750D01*
X82965336Y-56697700D01*
X82964500Y-56697700D01*
X82964500Y-57790553D01*
X82991666Y-57840304D01*
X82994500Y-57866662D01*
X82994500Y-58520800D01*
X82974815Y-58587839D01*
X82922011Y-58633594D01*
X82870500Y-58644800D01*
X82618500Y-58644800D01*
X82551461Y-58625115D01*
X82505706Y-58572311D01*
X82494500Y-58520800D01*
X82494500Y-58372446D01*
X82467334Y-58322696D01*
X82464500Y-58296338D01*
X82464500Y-57767700D01*
X81860331Y-57767700D01*
X81863043Y-57797544D01*
X81910724Y-57950557D01*
X81960115Y-58032262D01*
X81977950Y-58099817D01*
X81960730Y-58159530D01*
X81926092Y-58218101D01*
X81879922Y-58377016D01*
X81879921Y-58377022D01*
X81877000Y-58414148D01*
X81877000Y-58520800D01*
X81857315Y-58587839D01*
X81804511Y-58633594D01*
X81753000Y-58644800D01*
X81291240Y-58644800D01*
X81224201Y-58625115D01*
X81203559Y-58608481D01*
X81134562Y-58539484D01*
X80981823Y-58443511D01*
X80811554Y-58383931D01*
X80811549Y-58383930D01*
X80632304Y-58363735D01*
X80632296Y-58363735D01*
X80453050Y-58383930D01*
X80453045Y-58383931D01*
X80282776Y-58443511D01*
X80130037Y-58539484D01*
X80002484Y-58667037D01*
X80002482Y-58667040D01*
X79925802Y-58789074D01*
X79873467Y-58835365D01*
X79804414Y-58846012D01*
X79786214Y-58842178D01*
X79658586Y-58805099D01*
X79658589Y-58805099D01*
X79621744Y-58802200D01*
X79218600Y-58802200D01*
X79218600Y-59475753D01*
X79198915Y-59542792D01*
X79146111Y-59588547D01*
X79106270Y-59599203D01*
X79082764Y-59601425D01*
X79076928Y-59601700D01*
X78842600Y-59601700D01*
X78775561Y-59582015D01*
X78729806Y-59529211D01*
X78718600Y-59477700D01*
X78718600Y-58775533D01*
X78717191Y-58772953D01*
X78718600Y-58753250D01*
X78718600Y-58750838D01*
X78718773Y-58750838D01*
X78722175Y-58703261D01*
X78750673Y-58658916D01*
X78869792Y-58539797D01*
X78882042Y-58529985D01*
X78881859Y-58529764D01*
X78887866Y-58524792D01*
X78887877Y-58524786D01*
X78921823Y-58488637D01*
X78935227Y-58474364D01*
X78945671Y-58463918D01*
X78956120Y-58453471D01*
X78960379Y-58447978D01*
X78964152Y-58443561D01*
X78996062Y-58409582D01*
X79005713Y-58392024D01*
X79016396Y-58375761D01*
X79028673Y-58359936D01*
X79047185Y-58317153D01*
X79049738Y-58311941D01*
X79072197Y-58271092D01*
X79077180Y-58251680D01*
X79083481Y-58233280D01*
X79091437Y-58214896D01*
X79098729Y-58168852D01*
X79099906Y-58163171D01*
X79111500Y-58118019D01*
X79111500Y-58097982D01*
X79113027Y-58078582D01*
X79113414Y-58076138D01*
X79116160Y-58058804D01*
X79111775Y-58012415D01*
X79111500Y-58006577D01*
X79111500Y-57548200D01*
X79131185Y-57481161D01*
X79183989Y-57435406D01*
X79235500Y-57424200D01*
X79550196Y-57424200D01*
X79568631Y-57422749D01*
X79587069Y-57421298D01*
X79587071Y-57421297D01*
X79587073Y-57421297D01*
X79659929Y-57400130D01*
X79744898Y-57375444D01*
X79886365Y-57291781D01*
X79910446Y-57267700D01*
X81860331Y-57267700D01*
X82464500Y-57267700D01*
X82464500Y-56697700D01*
X82463663Y-56697700D01*
X82397156Y-56703743D01*
X82244140Y-56751424D01*
X82244136Y-56751426D01*
X82106980Y-56834339D01*
X82106976Y-56834342D01*
X81993642Y-56947676D01*
X81993639Y-56947680D01*
X81910726Y-57084836D01*
X81910724Y-57084840D01*
X81863043Y-57237855D01*
X81860331Y-57267700D01*
X79910446Y-57267700D01*
X80002581Y-57175565D01*
X80086244Y-57034098D01*
X80121765Y-56911834D01*
X80132097Y-56876273D01*
X80132098Y-56876267D01*
X80135000Y-56839396D01*
X80135000Y-56598200D01*
X80154685Y-56531161D01*
X80207489Y-56485406D01*
X80259000Y-56474200D01*
X81425196Y-56474200D01*
X81443631Y-56472749D01*
X81462069Y-56471298D01*
X81462071Y-56471297D01*
X81462073Y-56471297D01*
X81532189Y-56450926D01*
X81619898Y-56425444D01*
X81723405Y-56364229D01*
X81761895Y-56341468D01*
X81825016Y-56324200D01*
X82327446Y-56324200D01*
X82343456Y-56325967D01*
X82343479Y-56325726D01*
X82351240Y-56326458D01*
X82351247Y-56326460D01*
X82423154Y-56324200D01*
X82453876Y-56324200D01*
X82461141Y-56323281D01*
X82466967Y-56322822D01*
X82515520Y-56321297D01*
X82535907Y-56315373D01*
X82554947Y-56311431D01*
X82576009Y-56308771D01*
X82621186Y-56290883D01*
X82626686Y-56289000D01*
X82673349Y-56275444D01*
X82691616Y-56264639D01*
X82709087Y-56256080D01*
X82728822Y-56248268D01*
X82768128Y-56219710D01*
X82772994Y-56216513D01*
X82814816Y-56191781D01*
X82829821Y-56176775D01*
X82844619Y-56164136D01*
X82861788Y-56151663D01*
X82881557Y-56127765D01*
X82939454Y-56088659D01*
X83009305Y-56087061D01*
X83068932Y-56123482D01*
G37*
%TD.AperFunction*%
%TA.AperFunction,Conductor*%
G36*
X84870906Y-56032200D02*
G01*
X86037100Y-56032200D01*
X86104139Y-56051885D01*
X86149894Y-56104689D01*
X86161100Y-56156200D01*
X86161100Y-56397396D01*
X86164001Y-56434267D01*
X86164002Y-56434273D01*
X86209854Y-56592093D01*
X86209855Y-56592096D01*
X86293517Y-56733562D01*
X86293523Y-56733570D01*
X86409729Y-56849776D01*
X86409733Y-56849779D01*
X86409735Y-56849781D01*
X86551202Y-56933444D01*
X86709031Y-56979298D01*
X86710542Y-56979416D01*
X86711334Y-56979718D01*
X86715267Y-56980437D01*
X86715133Y-56981166D01*
X86775830Y-57004295D01*
X86817306Y-57060523D01*
X86821798Y-57130248D01*
X86792971Y-57186007D01*
X86691066Y-57299184D01*
X86596421Y-57463115D01*
X86596418Y-57463122D01*
X86537927Y-57643140D01*
X86537926Y-57643144D01*
X86518140Y-57831400D01*
X86537926Y-58019656D01*
X86537927Y-58019659D01*
X86596418Y-58199677D01*
X86596421Y-58199684D01*
X86691067Y-58363616D01*
X86764958Y-58445680D01*
X86817729Y-58504288D01*
X86970865Y-58615548D01*
X86970870Y-58615551D01*
X87143792Y-58692542D01*
X87143793Y-58692542D01*
X87143797Y-58692544D01*
X87194217Y-58703261D01*
X87226909Y-58710210D01*
X87288391Y-58743402D01*
X87322168Y-58804565D01*
X87317516Y-58874280D01*
X87275912Y-58930412D01*
X87210564Y-58955141D01*
X87201129Y-58955500D01*
X86754604Y-58955500D01*
X86717732Y-58958401D01*
X86717726Y-58958402D01*
X86559906Y-59004254D01*
X86559903Y-59004255D01*
X86417905Y-59088232D01*
X86354784Y-59105500D01*
X84848183Y-59105500D01*
X84781144Y-59085815D01*
X84735389Y-59033011D01*
X84725445Y-58963853D01*
X84729106Y-58946906D01*
X84735862Y-58923651D01*
X84744576Y-58893658D01*
X84747500Y-58856503D01*
X84747499Y-58414098D01*
X84744576Y-58376942D01*
X84698370Y-58217900D01*
X84696593Y-58214896D01*
X84678046Y-58183535D01*
X84663852Y-58159535D01*
X84646669Y-58091813D01*
X84664466Y-58032266D01*
X84713733Y-57950769D01*
X84761452Y-57797633D01*
X84767500Y-57731081D01*
X84767499Y-57304320D01*
X84767499Y-57304319D01*
X84767499Y-57304311D01*
X84761453Y-57237773D01*
X84761452Y-57237770D01*
X84761452Y-57237767D01*
X84727857Y-57129957D01*
X84713734Y-57084633D01*
X84713732Y-57084629D01*
X84686838Y-57040140D01*
X84669002Y-56972585D01*
X84685521Y-56916329D01*
X84685255Y-56916209D01*
X84686124Y-56914276D01*
X84686841Y-56911836D01*
X84688333Y-56909369D01*
X84736052Y-56756233D01*
X84742100Y-56689681D01*
X84742099Y-56187920D01*
X84742099Y-56187919D01*
X84742099Y-56187912D01*
X84740220Y-56167235D01*
X84753757Y-56098689D01*
X84802203Y-56048343D01*
X84868579Y-56032109D01*
X84870906Y-56032200D01*
G37*
%TD.AperFunction*%
%TA.AperFunction,Conductor*%
G36*
X88562989Y-56851885D02*
G01*
X88583631Y-56868519D01*
X88609065Y-56893953D01*
X88609070Y-56893957D01*
X88746329Y-56976932D01*
X88746333Y-56976934D01*
X88793075Y-56991499D01*
X88899467Y-57024652D01*
X88966019Y-57030700D01*
X89066091Y-57030699D01*
X89133129Y-57050383D01*
X89151285Y-57065014D01*
X89151350Y-57064941D01*
X89152999Y-57066395D01*
X89153772Y-57067018D01*
X89154267Y-57067513D01*
X89160057Y-57072005D01*
X89164497Y-57075797D01*
X89193798Y-57103311D01*
X89199907Y-57109048D01*
X89199909Y-57109049D01*
X89218505Y-57119272D01*
X89234770Y-57129957D01*
X89251536Y-57142962D01*
X89258248Y-57146932D01*
X89256974Y-57149085D01*
X89301240Y-57185916D01*
X89322263Y-57252548D01*
X89314711Y-57290997D01*
X89316542Y-57291529D01*
X89314364Y-57299023D01*
X89306766Y-57346997D01*
X89305581Y-57352720D01*
X89293500Y-57399768D01*
X89293500Y-57420994D01*
X89291973Y-57440394D01*
X89289405Y-57456609D01*
X89288653Y-57461355D01*
X89290887Y-57484982D01*
X89293225Y-57509717D01*
X89293500Y-57515556D01*
X89293500Y-57585642D01*
X89273815Y-57652681D01*
X89221011Y-57698436D01*
X89151853Y-57708380D01*
X89088297Y-57679355D01*
X89081819Y-57673323D01*
X88840383Y-57431888D01*
X88830310Y-57419314D01*
X88830123Y-57419470D01*
X88825150Y-57413459D01*
X88772705Y-57364210D01*
X88750984Y-57342489D01*
X88745189Y-57337994D01*
X88740747Y-57334199D01*
X88705345Y-57300954D01*
X88705337Y-57300948D01*
X88686741Y-57290725D01*
X88670480Y-57280044D01*
X88653712Y-57267037D01*
X88630244Y-57256882D01*
X88609127Y-57247743D01*
X88603905Y-57245186D01*
X88561317Y-57221773D01*
X88561314Y-57221772D01*
X88540750Y-57216492D01*
X88522345Y-57210190D01*
X88502876Y-57201765D01*
X88502870Y-57201763D01*
X88454900Y-57194166D01*
X88449185Y-57192982D01*
X88430663Y-57188227D01*
X88402129Y-57180900D01*
X88402126Y-57180900D01*
X88380904Y-57180900D01*
X88361504Y-57179373D01*
X88340545Y-57176053D01*
X88340544Y-57176053D01*
X88316735Y-57178303D01*
X88292179Y-57180625D01*
X88286341Y-57180900D01*
X88266519Y-57180900D01*
X88199480Y-57161215D01*
X88153725Y-57108411D01*
X88143781Y-57039253D01*
X88172806Y-56975697D01*
X88231584Y-56937923D01*
X88231924Y-56937824D01*
X88240233Y-56935409D01*
X88246998Y-56933444D01*
X88356781Y-56868519D01*
X88388995Y-56849468D01*
X88452116Y-56832200D01*
X88495950Y-56832200D01*
X88562989Y-56851885D01*
G37*
%TD.AperFunction*%
%TD*%
M02*
