%TF.GenerationSoftware,KiCad,Pcbnew,7.0.6*%
%TF.CreationDate,2023-10-31T01:28:30+01:00*%
%TF.ProjectId,BMSv2,424d5376-322e-46b6-9963-61645f706362,rev?*%
%TF.SameCoordinates,Original*%
%TF.FileFunction,Soldermask,Bot*%
%TF.FilePolarity,Negative*%
%FSLAX46Y46*%
G04 Gerber Fmt 4.6, Leading zero omitted, Abs format (unit mm)*
G04 Created by KiCad (PCBNEW 7.0.6) date 2023-10-31 01:28:30*
%MOMM*%
%LPD*%
G01*
G04 APERTURE LIST*
G04 Aperture macros list*
%AMRoundRect*
0 Rectangle with rounded corners*
0 $1 Rounding radius*
0 $2 $3 $4 $5 $6 $7 $8 $9 X,Y pos of 4 corners*
0 Add a 4 corners polygon primitive as box body*
4,1,4,$2,$3,$4,$5,$6,$7,$8,$9,$2,$3,0*
0 Add four circle primitives for the rounded corners*
1,1,$1+$1,$2,$3*
1,1,$1+$1,$4,$5*
1,1,$1+$1,$6,$7*
1,1,$1+$1,$8,$9*
0 Add four rect primitives between the rounded corners*
20,1,$1+$1,$2,$3,$4,$5,0*
20,1,$1+$1,$4,$5,$6,$7,0*
20,1,$1+$1,$6,$7,$8,$9,0*
20,1,$1+$1,$8,$9,$2,$3,0*%
G04 Aperture macros list end*
%ADD10C,0.900000*%
%ADD11RoundRect,0.250000X0.725000X-0.600000X0.725000X0.600000X-0.725000X0.600000X-0.725000X-0.600000X0*%
%ADD12O,1.950000X1.700000*%
%ADD13C,2.200000*%
%ADD14R,1.700000X1.700000*%
%ADD15O,1.700000X1.700000*%
%ADD16RoundRect,0.200000X0.200000X0.450000X-0.200000X0.450000X-0.200000X-0.450000X0.200000X-0.450000X0*%
%ADD17O,0.800000X1.300000*%
%ADD18C,1.600000*%
%ADD19RoundRect,0.160000X0.197500X0.160000X-0.197500X0.160000X-0.197500X-0.160000X0.197500X-0.160000X0*%
%ADD20RoundRect,0.150000X0.587500X0.150000X-0.587500X0.150000X-0.587500X-0.150000X0.587500X-0.150000X0*%
%ADD21RoundRect,0.249999X0.450001X1.425001X-0.450001X1.425001X-0.450001X-1.425001X0.450001X-1.425001X0*%
%ADD22RoundRect,0.160000X0.160000X-0.197500X0.160000X0.197500X-0.160000X0.197500X-0.160000X-0.197500X0*%
%ADD23RoundRect,0.160000X-0.160000X0.197500X-0.160000X-0.197500X0.160000X-0.197500X0.160000X0.197500X0*%
%ADD24RoundRect,0.150000X-0.587500X-0.150000X0.587500X-0.150000X0.587500X0.150000X-0.587500X0.150000X0*%
%ADD25RoundRect,0.237500X0.237500X-0.250000X0.237500X0.250000X-0.237500X0.250000X-0.237500X-0.250000X0*%
%ADD26RoundRect,0.155000X0.155000X-0.212500X0.155000X0.212500X-0.155000X0.212500X-0.155000X-0.212500X0*%
%ADD27RoundRect,0.250000X0.625000X-0.375000X0.625000X0.375000X-0.625000X0.375000X-0.625000X-0.375000X0*%
%ADD28RoundRect,0.155000X0.212500X0.155000X-0.212500X0.155000X-0.212500X-0.155000X0.212500X-0.155000X0*%
%ADD29RoundRect,0.237500X-0.250000X-0.237500X0.250000X-0.237500X0.250000X0.237500X-0.250000X0.237500X0*%
%ADD30O,1.000000X1.500000*%
%ADD31O,4.500000X3.300000*%
%ADD32RoundRect,0.237500X-0.237500X0.250000X-0.237500X-0.250000X0.237500X-0.250000X0.237500X0.250000X0*%
%ADD33RoundRect,0.150000X0.150000X-0.587500X0.150000X0.587500X-0.150000X0.587500X-0.150000X-0.587500X0*%
G04 APERTURE END LIST*
D10*
%TO.C,SW1*%
X100618600Y-81235000D03*
X103618600Y-81235000D03*
%TD*%
D11*
%TO.C,J1*%
X107913600Y-75371400D03*
D12*
X107913600Y-72871400D03*
X107913600Y-70371400D03*
X107913600Y-67871400D03*
X107913600Y-65371400D03*
%TD*%
D13*
%TO.C,H2*%
X109601000Y-80949800D03*
%TD*%
%TO.C,H4*%
X73232400Y-80924400D03*
%TD*%
D14*
%TO.C,J2*%
X94792800Y-81229200D03*
D15*
X92252800Y-81229200D03*
X89712800Y-81229200D03*
X87172800Y-81229200D03*
%TD*%
D16*
%TO.C,J3*%
X79053600Y-49801400D03*
D17*
X77803600Y-49801400D03*
%TD*%
D18*
%TO.C,TH3*%
X74602600Y-71323200D03*
X71602600Y-71323200D03*
%TD*%
%TO.C,TH2*%
X74575800Y-73710800D03*
X71575800Y-73710800D03*
%TD*%
D14*
%TO.C,J5*%
X78486000Y-81203800D03*
D15*
X81026000Y-81203800D03*
X83566000Y-81203800D03*
%TD*%
D13*
%TO.C,H3*%
X73257800Y-47371000D03*
%TD*%
%TO.C,H1*%
X109677200Y-47345600D03*
%TD*%
D18*
%TO.C,TH1*%
X74575800Y-76098400D03*
X71575800Y-76098400D03*
%TD*%
%TO.C,TH4*%
X74652000Y-68910200D03*
X71652000Y-68910200D03*
%TD*%
D19*
%TO.C,R16*%
X83680900Y-60528200D03*
X82485900Y-60528200D03*
%TD*%
D20*
%TO.C,Q15*%
X104623600Y-63581400D03*
X104623600Y-65481400D03*
X102748600Y-64531400D03*
%TD*%
D21*
%TO.C,R41*%
X100992400Y-53568600D03*
X94892400Y-53568600D03*
%TD*%
D22*
%TO.C,R12*%
X89179400Y-56172700D03*
X89179400Y-54977700D03*
%TD*%
D23*
%TO.C,R26*%
X77190600Y-66319400D03*
X77190600Y-67514400D03*
%TD*%
D24*
%TO.C,Q2*%
X78897000Y-56623700D03*
X78897000Y-54723700D03*
X80772000Y-55673700D03*
%TD*%
D20*
%TO.C,Q3*%
X87399100Y-54281700D03*
X87399100Y-56181700D03*
X85524100Y-55231700D03*
%TD*%
D24*
%TO.C,Q4*%
X78968600Y-61502200D03*
X78968600Y-59602200D03*
X80843600Y-60552200D03*
%TD*%
D22*
%TO.C,R27*%
X77254700Y-74155900D03*
X77254700Y-72960900D03*
%TD*%
D20*
%TO.C,Q17*%
X97993200Y-73792000D03*
X97993200Y-75692000D03*
X96118200Y-74742000D03*
%TD*%
D25*
%TO.C,R39*%
X91490800Y-66596900D03*
X91490800Y-64771900D03*
%TD*%
D26*
%TO.C,C24*%
X102981800Y-56602200D03*
X102981800Y-55467200D03*
%TD*%
D19*
%TO.C,R17*%
X83870800Y-62484000D03*
X82675800Y-62484000D03*
%TD*%
D21*
%TO.C,R43*%
X100789200Y-64566800D03*
X94689200Y-64566800D03*
%TD*%
D27*
%TO.C,D5*%
X91768300Y-77213000D03*
X91768300Y-74413000D03*
%TD*%
D28*
%TO.C,C25*%
X104311300Y-61160900D03*
X103176300Y-61160900D03*
%TD*%
D19*
%TO.C,R23*%
X83795800Y-73558400D03*
X82600800Y-73558400D03*
%TD*%
D28*
%TO.C,C30*%
X84006500Y-68707000D03*
X82871500Y-68707000D03*
%TD*%
D29*
%TO.C,R37*%
X91340300Y-50673000D03*
X93165300Y-50673000D03*
%TD*%
D20*
%TO.C,Q5*%
X87407800Y-59756000D03*
X87407800Y-61656000D03*
X85532800Y-60706000D03*
%TD*%
D23*
%TO.C,R13*%
X83921600Y-55243800D03*
X83921600Y-56438800D03*
%TD*%
D27*
%TO.C,D2*%
X91541600Y-55603600D03*
X91541600Y-52803600D03*
%TD*%
D24*
%TO.C,Q6*%
X79047100Y-69047400D03*
X79047100Y-67147400D03*
X80922100Y-68097400D03*
%TD*%
D21*
%TO.C,R42*%
X100636800Y-60553600D03*
X94536800Y-60553600D03*
%TD*%
%TO.C,R44*%
X100638800Y-70916800D03*
X94538800Y-70916800D03*
%TD*%
D24*
%TO.C,Q8*%
X78935700Y-74356000D03*
X78935700Y-72456000D03*
X80810700Y-73406000D03*
%TD*%
D20*
%TO.C,Q16*%
X104594900Y-69865200D03*
X104594900Y-71765200D03*
X102719900Y-70815200D03*
%TD*%
D29*
%TO.C,R38*%
X90781500Y-57962800D03*
X92606500Y-57962800D03*
%TD*%
D22*
%TO.C,R25*%
X77038200Y-61227300D03*
X77038200Y-60032300D03*
%TD*%
D20*
%TO.C,Q9*%
X87807800Y-70307200D03*
X87807800Y-72207200D03*
X85932800Y-71257200D03*
%TD*%
D19*
%TO.C,R20*%
X84036500Y-67741800D03*
X82841500Y-67741800D03*
%TD*%
D26*
%TO.C,C27*%
X99822000Y-75345100D03*
X99822000Y-74210100D03*
%TD*%
D28*
%TO.C,C28*%
X83879500Y-58635300D03*
X82744500Y-58635300D03*
%TD*%
D22*
%TO.C,R24*%
X77275500Y-56133500D03*
X77275500Y-54938500D03*
%TD*%
%TO.C,R21*%
X89613500Y-71702300D03*
X89613500Y-70507300D03*
%TD*%
D27*
%TO.C,D4*%
X91719400Y-71602600D03*
X91719400Y-68802600D03*
%TD*%
D23*
%TO.C,R22*%
X83807900Y-71284500D03*
X83807900Y-72479500D03*
%TD*%
D22*
%TO.C,R18*%
X89357200Y-66371400D03*
X89357200Y-65176400D03*
%TD*%
D30*
%TO.C,U3*%
X74182200Y-58981200D03*
X72912200Y-58981200D03*
X71642200Y-58981200D03*
D31*
X72212200Y-65481200D03*
X72212200Y-52481200D03*
%TD*%
D27*
%TO.C,D3*%
X91795600Y-62461600D03*
X91795600Y-59661600D03*
%TD*%
D22*
%TO.C,R19*%
X84226400Y-66586700D03*
X84226400Y-65391700D03*
%TD*%
D20*
%TO.C,Q7*%
X87604600Y-64897000D03*
X87604600Y-66797000D03*
X85729600Y-65847000D03*
%TD*%
D28*
%TO.C,C31*%
X83765800Y-74523600D03*
X82630800Y-74523600D03*
%TD*%
%TO.C,C29*%
X83828700Y-63474600D03*
X82693700Y-63474600D03*
%TD*%
D32*
%TO.C,R40*%
X88519000Y-74525500D03*
X88519000Y-76350500D03*
%TD*%
D19*
%TO.C,R14*%
X83909500Y-57517700D03*
X82714500Y-57517700D03*
%TD*%
D22*
%TO.C,R15*%
X89213500Y-60998700D03*
X89213500Y-59803700D03*
%TD*%
D28*
%TO.C,C26*%
X104184300Y-68531400D03*
X103049300Y-68531400D03*
%TD*%
D33*
%TO.C,Q14*%
X106319400Y-56235600D03*
X104419400Y-56235600D03*
X105369400Y-54360600D03*
%TD*%
M02*
