M48
; DRILL file {KiCad 7.0.6} date Tue Oct 31 01:28:27 2023
; FORMAT={-:-/ absolute / inch / decimal}
; #@! TF.CreationDate,2023-10-31T01:28:27+01:00
; #@! TF.GenerationSoftware,Kicad,Pcbnew,7.0.6
; #@! TF.FileFunction,Plated,1,2,PTH
FMAT,2
INCH
; #@! TA.AperFunction,Plated,PTH,ViaDrill
T1C0.0118
; #@! TA.AperFunction,Plated,PTH,ViaDrill
T2C0.0157
; #@! TA.AperFunction,Plated,PTH,ComponentDrill
T3C0.0197
; #@! TA.AperFunction,Plated,PTH,ComponentDrill
T4C0.0315
; #@! TA.AperFunction,Plated,PTH,ComponentDrill
T5C0.0374
; #@! TA.AperFunction,Plated,PTH,ComponentDrill
T6C0.0394
; #@! TA.AperFunction,Plated,PTH,ComponentDrill
T7C0.0787
%
G90
G05
T1
X2.9627Y-2.661
X2.9828Y-2.6344
X2.9995Y-2.6085
X3.016Y-2.576
X3.0313Y-2.767
X3.0431Y-2.5505
X3.067Y-2.391
X3.079Y-2.6808
X3.0831Y-2.758
X3.115Y-2.755
X3.136Y-3.003
X3.1424Y-2.466
X3.143Y-2.315
X3.168Y-2.515
X3.1728Y-2.9702
X3.1745Y-2.3295
X3.205Y-2.4246
X3.2168Y-2.638
X3.22Y-2.803
X3.2455Y-2.422
X3.2456Y-2.7526
X3.2464Y-2.6296
X3.276Y-2.5866
X3.31Y-2.7751
X3.311Y-3.016
X3.339Y-2.424
X3.386Y-2.648
X3.3896Y-2.7759
X3.446Y-2.672
X3.512Y-2.274
X3.684Y-2.672
X3.695Y-3.04
X4.0Y-1.9931
X4.035Y-2.454
X4.038Y-2.033
X4.205Y-2.066
X4.244Y-2.056
T2
X2.887Y-2.41
X2.998Y-2.158
X3.022Y-2.122
X3.047Y-2.279
X3.201Y-2.107
X3.205Y-2.056
X3.284Y-3.053
X3.3179Y-1.9686
X3.318Y-2.008
X3.3789Y-2.2906
X3.4163Y-2.0642
X3.418Y-1.81
X3.4419Y-2.2768
X3.448Y-1.979
X3.459Y-3.0656
X3.4616Y-2.076
X3.51Y-1.83
X3.556Y-1.83
X3.663Y-2.416
X3.672Y-2.5676
X3.812Y-2.486
X3.844Y-3.067
X3.861Y-2.619
X3.864Y-3.029
X3.865Y-2.854
X3.866Y-2.776
X3.9871Y-2.6292
X4.0108Y-2.6764
X4.075Y-2.475
X4.1305Y-2.6662
X4.148Y-2.952
X4.149Y-2.21
X4.155Y-2.879
X4.2655Y-2.4847
T3
X2.8206Y-2.3221
X2.8706Y-2.3221
X2.9206Y-2.3221
X3.0631Y-1.9607
X3.1123Y-1.9607
T4
X2.8179Y-2.902
X2.8179Y-2.996
X2.819Y-2.808
X2.8209Y-2.713
X2.9361Y-2.902
X2.9361Y-2.996
X2.9371Y-2.808
X2.9391Y-2.713
T5
X4.2486Y-2.5737
X4.2486Y-2.6721
X4.2486Y-2.7705
X4.2486Y-2.869
X4.2486Y-2.9674
T6
X3.09Y-3.197
X3.19Y-3.197
X3.29Y-3.197
X3.432Y-3.198
X3.532Y-3.198
X3.632Y-3.198
X3.732Y-3.198
T7
X2.843Y-2.0662
X2.843Y-2.578
T0
M30
